<?xml version="1.0" encoding="utf-8"?>
<!-- Generator: Adobe Illustrator 16.0.0, SVG Export Plug-In . SVG Version: 6.00 Build 0)  -->
<!DOCTYPE svg PUBLIC "-//W3C//DTD SVG 1.1//EN" "http://www.w3.org/Graphics/SVG/1.1/DTD/svg11.dtd">
<svg version="1.1" id="Calque_1" xmlns="http://www.w3.org/2000/svg" xmlns:xlink="http://www.w3.org/1999/xlink" x="0px" y="0px"
	 width="337.756px" height="272.449px" viewBox="0 0 337.756 272.449" enable-background="new 0 0 337.756 272.449"
	 xml:space="preserve">
<g id="Layer_2">
	<g>
		<path fill="#FFFFFF" d="M115.306,153.029C113.758,153.057,115.937,153.445,115.306,153.029L115.306,153.029z"/>
		<path fill="#FFFFFF" d="M115.359,153.029c-0.021,0-0.033,0-0.056,0c0.003,0,0.003,0,0.003,0
			C115.327,153.029,115.339,153.029,115.359,153.029z"/>
		<path fill="#FFFFFF" d="M223.726,96.265c0.07-4.31-1.617-9.153-3.672-12.792c-1.533-2.712-4.197-5.548-6.539-7.652
			c-12.068-10.842-18.947-4.871-23.715-0.465c-1.484,1.374-1.508,2.187-2.418,3.383c-0.201,0.265-2.439,1.208-3.844,1.699
			c-0.131,0.061-2.439,1.809-2.555,1.896c-6.857,5.329-12.582,10.291-19.073,15.445c-6.296,4.998-12.882,9.571-19.185,14.549
			c-1.15,0.91-1.522-0.396-2.438-0.033c-1.925,0.765-4.245,0.528-6.063,1.524c-3.437,1.883-4.613,3.546-8.64,7.005
			c-0.472,0.192-25.095,19.662-26.629,21.096c-1.313,6.041-3.935,12.092-1.164,13.502c-0.048,0.295-1.785,1.627-1.832,1.914
			c-0.276,1.727-0.701,4.455-0.875,5.82c-1.431,0.682-6.802,1.164-6.063,11.604c0.147,2.08,2.147,6.271,5.135,8.812
			c2.647,2.252,6.216,2.988,7.848,2.988c9.57,0,7.404-5.578,8.059-8.51c0.051-0.219,13.969-11.068,14.105-11.107
			c4.968,1.805,9.08,4.203,13.922,6.213c4.439-3.811,6.822-5.48,9.91-7.961c2.893,1.061,0,0,2.893,1.061
			c2.047-1.447,7.059-4.498,8.463-6.602c0.609-0.197,5.438-4.285,5.92-4.719c1.867-1.678,2.576-7.764,4.49-10.459
			c1.201-1.688,13.334-11.147,24.396-19.883c5.627-4.444,10.535-8.486,14.457-11.663c1.762-1.426,2.092-2.973,2.562-3.847
			C215.616,109.087,223.644,101.258,223.726,96.265z"/>
	</g>
	<path fill="#FFFFFF" d="M170.192,144.988c-0.75,1.646-1.38,3.342-2.061,5.02c-0.159,0.396,0.481,0.566,0.642,0.176
		c0.656-1.623,1.267-3.266,1.994-4.859C170.942,144.936,170.368,144.598,170.192,144.988z"/>
	<path fill="#FFFFFF" d="M226.925,93.093c-0.596-0.113-1.201-0.162-1.809-0.182c-0.006-0.014-0.014-0.03-0.018-0.044
		c-0.066-0.149-0.188-0.188-0.305-0.164c-0.041-0.005-0.086-0.003-0.137,0.011c-1.094,0.319-0.771,2.61,0.193,2.911
		c0.65,0.203,0.938-0.403,0.875-0.939c0.047-0.005,0.094-0.015,0.137-0.035c0.514-0.229,1.004-0.553,1.262-1.069
		C227.214,93.404,227.149,93.136,226.925,93.093z"/>
	<path fill="#FFFFFF" d="M220.979,75.476c-0.385-2.231-3.994-0.078-4.561,0.987c-0.055,0.101-0.049,0.199-0.016,0.281
		c-0.611,1.263,0.699,1.8,1.732,2.234c0.129,0.054,0.314-0.034,0.375-0.153c0.068-0.134,0.09-0.25,0.084-0.355
		C219.845,78.382,221.212,76.827,220.979,75.476z"/>
</g>
<g id="Layer_1">
	<polyline fill="#FFFFFF" points="97.794,143.133 95.302,142.027 59.661,170.662 65.347,173.504 95.619,149.145 	"/>
	<polyline fill="#FFFFFF" points="97.794,143.133 95.302,142.027 59.661,170.662 65.347,173.504 95.619,149.145 	"/>
	
		<polyline fill="none" stroke="#000000" stroke-width="0.878" stroke-linecap="round" stroke-linejoin="round" stroke-miterlimit="10" points="
		97.794,143.133 95.302,142.027 59.661,170.662 65.347,173.504 95.619,149.145 	"/>
	
		<polyline fill="none" stroke="#000000" stroke-width="0.878" stroke-linecap="round" stroke-linejoin="round" stroke-miterlimit="10" points="
		97.794,143.133 95.302,142.027 59.661,170.662 65.347,173.504 95.619,149.145 	"/>
	<polyline fill="#FFFFFF" points="88.304,138.967 52.665,167.602 58.35,170.443 94.208,141.59 88.304,138.967 	"/>
	<polygon fill="#FFFFFF" points="88.304,138.967 52.665,167.602 58.35,170.443 94.208,141.59 	"/>
	
		<polygon fill="none" stroke="#000000" stroke-width="0.878" stroke-linecap="round" stroke-linejoin="round" stroke-miterlimit="10" points="
		88.304,138.967 52.665,167.602 58.35,170.443 94.208,141.59 	"/>
	
		<polygon fill="none" stroke="#000000" stroke-width="0.878" stroke-linecap="round" stroke-linejoin="round" stroke-miterlimit="10" points="
		88.304,138.967 52.665,167.602 58.35,170.443 94.208,141.59 	"/>
	<polyline fill="#FFFFFF" points="81.525,135.907 45.886,164.543 51.571,167.383 87.429,138.529 81.525,135.907 	"/>
	<polygon fill="#FFFFFF" points="81.525,135.907 45.886,164.543 51.571,167.383 87.429,138.529 	"/>
	
		<polygon fill="none" stroke="#000000" stroke-width="0.878" stroke-linecap="round" stroke-linejoin="round" stroke-miterlimit="10" points="
		81.525,135.907 45.886,164.543 51.571,167.383 87.429,138.529 	"/>
	
		<polygon fill="none" stroke="#000000" stroke-width="0.878" stroke-linecap="round" stroke-linejoin="round" stroke-miterlimit="10" points="
		81.525,135.907 45.886,164.543 51.571,167.383 87.429,138.529 	"/>
	<polyline fill="#FFFFFF" points="46.645,132.497 37.699,136.98 18.336,152.154 24.021,154.996 49.967,134.159 46.645,132.497 	"/>
	<polygon fill="#FFFFFF" points="46.645,132.497 37.699,136.98 18.336,152.154 24.021,154.996 49.967,134.159 	"/>
	
		<polygon fill="none" stroke="#000000" stroke-width="0.878" stroke-linecap="round" stroke-linejoin="round" stroke-miterlimit="10" points="
		46.645,132.497 37.699,136.98 18.336,152.154 24.021,154.996 49.967,134.159 	"/>
	
		<polygon fill="none" stroke="#000000" stroke-width="0.878" stroke-linecap="round" stroke-linejoin="round" stroke-miterlimit="10" points="
		46.645,132.497 37.699,136.98 18.336,152.154 24.021,154.996 49.967,134.159 	"/>
	<polyline fill="#FFFFFF" points="60.828,126.58 25.188,155.217 30.873,158.057 66.732,129.203 60.828,126.58 	"/>
	<polygon fill="#FFFFFF" points="60.828,126.58 25.188,155.217 30.873,158.057 66.732,129.203 	"/>
	
		<polygon fill="none" stroke="#000000" stroke-width="0.878" stroke-linecap="round" stroke-linejoin="round" stroke-miterlimit="10" points="
		60.828,126.58 25.188,155.217 30.873,158.057 66.732,129.203 	"/>
	
		<polygon fill="none" stroke="#000000" stroke-width="0.878" stroke-linecap="round" stroke-linejoin="round" stroke-miterlimit="10" points="
		60.828,126.58 25.188,155.217 30.873,158.057 66.732,129.203 	"/>
	<polyline fill="#FFFFFF" points="67.751,129.785 32.111,158.422 37.796,161.264 73.654,132.409 67.751,129.785 	"/>
	<polygon fill="#FFFFFF" points="67.751,129.785 32.111,158.422 37.796,161.264 73.654,132.409 	"/>
	
		<polygon fill="none" stroke="#000000" stroke-width="0.878" stroke-linecap="round" stroke-linejoin="round" stroke-miterlimit="10" points="
		67.751,129.785 32.111,158.422 37.796,161.264 73.654,132.409 	"/>
	
		<polygon fill="none" stroke="#000000" stroke-width="0.878" stroke-linecap="round" stroke-linejoin="round" stroke-miterlimit="10" points="
		67.751,129.785 32.111,158.422 37.796,161.264 73.654,132.409 	"/>
	<polyline fill="#FFFFFF" points="74.749,132.846 39.108,161.482 44.792,164.322 80.652,135.469 74.749,132.846 	"/>
	<polygon fill="#FFFFFF" points="74.749,132.846 39.108,161.482 44.792,164.322 80.652,135.469 	"/>
	
		<polygon fill="none" stroke="#000000" stroke-width="0.878" stroke-linecap="round" stroke-linejoin="round" stroke-miterlimit="10" points="
		74.749,132.846 39.108,161.482 44.792,164.322 80.652,135.469 	"/>
	
		<polygon fill="none" stroke="#000000" stroke-width="0.878" stroke-linecap="round" stroke-linejoin="round" stroke-miterlimit="10" points="
		74.749,132.846 39.108,161.482 44.792,164.322 80.652,135.469 	"/>
	
		<polyline fill="none" stroke="#000000" stroke-width="0.878" stroke-linecap="round" stroke-linejoin="round" stroke-miterlimit="10" points="
		97.892,157.271 85.025,167.602 88.916,169.654 	"/>
	
		<polyline fill="#FFFFFF" stroke="#000000" stroke-width="0.878" stroke-linecap="round" stroke-linejoin="round" stroke-miterlimit="10" points="
		97.892,157.271 85.025,167.602 88.916,169.654 	"/>
	
		<polygon fill="#FFFFFF" stroke="#000000" stroke-width="0.878" stroke-linecap="round" stroke-linejoin="round" stroke-miterlimit="10" points="
		92.24,152.955 77.808,164.543 83.494,167.383 98.144,155.578 	"/>
	
		<path fill="none" stroke="#000000" stroke-width="0.878" stroke-linecap="round" stroke-linejoin="round" stroke-miterlimit="10" d="
		M107.949,134.588c3.758-2.891,15.136-2.291,26.514,11.775c11.363,14.055,9.581,25.744,6.216,28.467"/>
	
		<path fill="none" stroke="#000000" stroke-width="0.878" stroke-linecap="round" stroke-linejoin="round" stroke-miterlimit="10" d="
		M107.949,134.588c3.758-2.891,15.136-2.291,26.514,11.775c11.363,14.055,9.581,25.744,6.216,28.467"/>
	<polyline fill="#FFFFFF" points="114.076,125.393 113.623,127.268 114.683,135.022 112.087,141.688 111.296,142.252 
		111.588,143.762 110.066,142.906 109.773,141.701 110.775,140.936 113.765,134.624 113.015,127.49 112.578,125.415 	"/>
	<polyline fill="#FFFFFF" points="114.076,125.393 113.623,127.268 114.683,135.022 112.087,141.688 111.296,142.252 
		111.588,143.762 110.066,142.906 109.773,141.701 110.775,140.936 113.765,134.624 113.015,127.49 112.578,125.415 	"/>
	
		<polyline fill="none" stroke="#000000" stroke-width="0.878" stroke-linecap="round" stroke-linejoin="round" stroke-miterlimit="10" points="
		114.076,125.393 113.623,127.268 114.683,135.022 112.087,141.688 111.296,142.252 111.588,143.762 110.066,142.906 
		109.773,141.701 110.775,140.936 113.765,134.624 113.015,127.49 112.578,125.415 	"/>
	
		<polyline fill="none" stroke="#000000" stroke-width="0.878" stroke-linecap="round" stroke-linejoin="round" stroke-miterlimit="10" points="
		114.076,125.393 113.623,127.268 114.683,135.022 112.087,141.688 111.296,142.252 111.588,143.762 110.066,142.906 
		109.773,141.701 110.775,140.936 113.765,134.624 113.015,127.49 112.578,125.415 	"/>
	<path fill="#FFFFFF" d="M115.056,124.921c-0.039,0.432-0.807,0.724-1.701,0.646c-0.894-0.078-1.598-0.499-1.562-0.93
		c0.039-0.433,0.806-0.725,1.699-0.647C114.387,124.069,115.093,124.488,115.056,124.921"/>
	<path fill="#FFFFFF" d="M115.056,124.921c-0.039,0.432-0.807,0.724-1.701,0.646c-0.894-0.078-1.598-0.499-1.562-0.93
		c0.039-0.433,0.806-0.725,1.699-0.647C114.387,124.069,115.093,124.488,115.056,124.921z"/>
	
		<path fill="none" stroke="#000000" stroke-width="0.878" stroke-linecap="round" stroke-linejoin="round" stroke-miterlimit="10" d="
		M115.056,124.921c-0.039,0.432-0.807,0.724-1.701,0.646c-0.894-0.078-1.598-0.499-1.562-0.93c0.039-0.433,0.806-0.725,1.699-0.647
		C114.387,124.069,115.093,124.488,115.056,124.921z"/>
	
		<path fill="none" stroke="#000000" stroke-width="0.878" stroke-linecap="round" stroke-linejoin="round" stroke-miterlimit="10" d="
		M115.056,124.921c-0.039,0.432-0.807,0.724-1.701,0.646c-0.894-0.078-1.598-0.499-1.562-0.93c0.039-0.433,0.806-0.725,1.699-0.647
		C114.387,124.069,115.093,124.488,115.056,124.921z"/>
	<polyline fill="#FFFFFF" points="113.07,124.654 113.843,121.86 114.015,124.737 	"/>
	<polyline fill="#FFFFFF" points="113.07,124.654 113.843,121.86 114.015,124.737 	"/>
	
		<polyline fill="none" stroke="#000000" stroke-width="0.878" stroke-linecap="round" stroke-linejoin="round" stroke-miterlimit="10" points="
		113.07,124.654 113.843,121.86 114.015,124.737 	"/>
	
		<polyline fill="none" stroke="#000000" stroke-width="0.878" stroke-linecap="round" stroke-linejoin="round" stroke-miterlimit="10" points="
		113.07,124.654 113.843,121.86 114.015,124.737 	"/>
	<path fill="#FFFFFF" d="M112.175,126.529c1.174,0.705,1.604,0.952,1.713,2.46c0.109,1.507-1.168,2.473-2,2.781"/>
	<path fill="#FFFFFF" d="M112.175,126.529c1.174,0.705,1.604,0.952,1.713,2.46c0.109,1.507-1.168,2.473-2,2.781"/>
	
		<path fill="none" stroke="#000000" stroke-width="0.878" stroke-linecap="round" stroke-linejoin="round" stroke-miterlimit="10" d="
		M112.175,126.529c1.174,0.705,1.604,0.952,1.713,2.46c0.109,1.507-1.168,2.473-2,2.781"/>
	
		<path fill="none" stroke="#000000" stroke-width="0.878" stroke-linecap="round" stroke-linejoin="round" stroke-miterlimit="10" d="
		M112.175,126.529c1.174,0.705,1.604,0.952,1.713,2.46c0.109,1.507-1.168,2.473-2,2.781"/>
	<path fill="#FFFFFF" d="M113.156,129.083c-0.043,1.536-0.688,2.794-1.428,2.788c-0.738-0.006-1.311-1.274-1.266-2.811
		c0.045-1.536,0.689-2.793,1.43-2.788C112.629,126.279,113.201,127.548,113.156,129.083"/>
	<path fill="#FFFFFF" d="M113.156,129.083c-0.043,1.536-0.688,2.794-1.428,2.788c-0.738-0.006-1.311-1.274-1.266-2.811
		c0.045-1.536,0.689-2.793,1.43-2.788C112.629,126.279,113.201,127.548,113.156,129.083z"/>
	
		<path fill="none" stroke="#000000" stroke-width="0.878" stroke-linecap="round" stroke-linejoin="round" stroke-miterlimit="10" d="
		M113.156,129.083c-0.043,1.536-0.688,2.794-1.428,2.788c-0.738-0.006-1.311-1.274-1.266-2.811c0.045-1.536,0.689-2.793,1.43-2.788
		C112.629,126.279,113.201,127.548,113.156,129.083z"/>
	
		<path fill="none" stroke="#000000" stroke-width="0.878" stroke-linecap="round" stroke-linejoin="round" stroke-miterlimit="10" d="
		M113.156,129.083c-0.043,1.536-0.688,2.794-1.428,2.788c-0.738-0.006-1.311-1.274-1.266-2.811c0.045-1.536,0.689-2.793,1.43-2.788
		C112.629,126.279,113.201,127.548,113.156,129.083z"/>
	
		<line fill="none" stroke="#000000" stroke-width="0.878" stroke-linecap="round" stroke-linejoin="round" stroke-miterlimit="10" x1="112.463" y1="128.992" x2="111.082" y2="129.016"/>
	
		<line fill="none" stroke="#000000" stroke-width="0.878" stroke-linecap="round" stroke-linejoin="round" stroke-miterlimit="10" x1="112.463" y1="128.992" x2="111.082" y2="129.016"/>
	
		<line fill="none" stroke="#000000" stroke-width="0.878" stroke-linecap="round" stroke-linejoin="round" stroke-miterlimit="10" x1="111.197" y1="128.485" x2="111.087" y2="129.586"/>
	
		<line fill="none" stroke="#000000" stroke-width="0.878" stroke-linecap="round" stroke-linejoin="round" stroke-miterlimit="10" x1="111.197" y1="128.485" x2="111.087" y2="129.586"/>
	<polyline fill="#FFFFFF" points="113.898,132.938 112.316,134.061 113.898,135.754 	"/>
	<polyline fill="#FFFFFF" points="113.898,132.938 112.316,134.061 113.898,135.754 	"/>
	
		<polyline fill="none" stroke="#000000" stroke-width="0.878" stroke-linecap="round" stroke-linejoin="round" stroke-miterlimit="10" points="
		113.898,132.938 112.316,134.061 113.898,135.754 	"/>
	
		<polyline fill="none" stroke="#000000" stroke-width="0.878" stroke-linecap="round" stroke-linejoin="round" stroke-miterlimit="10" points="
		113.898,132.938 112.316,134.061 113.898,135.754 	"/>
	<path fill="#FFFFFF" d="M113.558,134.327c-0.074,0.69-0.459,1.238-0.853,1.211c-0.392-0.027-0.652-0.621-0.578-1.312
		s0.459-1.24,0.853-1.212C113.373,133.042,113.632,133.633,113.558,134.327"/>
	<path fill="#FFFFFF" d="M113.558,134.327c-0.074,0.69-0.459,1.238-0.853,1.211c-0.392-0.027-0.652-0.621-0.578-1.312
		s0.459-1.24,0.853-1.212C113.373,133.042,113.632,133.633,113.558,134.327z"/>
	
		<path fill="none" stroke="#000000" stroke-width="0.878" stroke-linecap="round" stroke-linejoin="round" stroke-miterlimit="10" d="
		M113.558,134.327c-0.074,0.69-0.459,1.238-0.853,1.211c-0.392-0.027-0.652-0.621-0.578-1.312s0.459-1.24,0.853-1.212
		C113.373,133.042,113.632,133.633,113.558,134.327z"/>
	
		<path fill="none" stroke="#000000" stroke-width="0.878" stroke-linecap="round" stroke-linejoin="round" stroke-miterlimit="10" d="
		M113.558,134.327c-0.074,0.69-0.459,1.238-0.853,1.211c-0.392-0.027-0.652-0.621-0.578-1.312s0.459-1.24,0.853-1.212
		C113.373,133.042,113.632,133.633,113.558,134.327z"/>
	
		<line fill="none" stroke="#000000" stroke-width="0.878" stroke-linecap="round" stroke-linejoin="round" stroke-miterlimit="10" x1="108.297" y1="184.428" x2="108.296" y2="184.428"/>
	
		<line fill="none" stroke="#000000" stroke-width="0.878" stroke-linecap="round" stroke-linejoin="round" stroke-miterlimit="10" x1="108.297" y1="184.428" x2="108.296" y2="184.428"/>
	
		<path fill="none" stroke="#000000" stroke-width="0.878" stroke-linecap="round" stroke-linejoin="round" stroke-miterlimit="10" d="
		M108.671,184.09c1.684-1.361,2.574-7.207-3.107-14.232c-5.688-7.035-11.564-7.164-13.444-5.719
		c-0.104,0.084-0.207,0.188-0.308,0.309"/>
	
		<path fill="none" stroke="#000000" stroke-width="0.878" stroke-linecap="round" stroke-linejoin="round" stroke-miterlimit="10" d="
		M108.671,184.09c1.684-1.361,2.574-7.207-3.107-14.232c-5.688-7.035-11.564-7.164-13.444-5.719
		c-0.104,0.084-0.207,0.188-0.308,0.309"/>
	
		<path fill="none" stroke="#000000" stroke-width="0.878" stroke-linecap="round" stroke-linejoin="round" stroke-miterlimit="10" d="
		M102.004,186.562c2.603,0.986,4.631-0.816,5.636-1.588"/>
	
		<path fill="none" stroke="#000000" stroke-width="0.878" stroke-linecap="round" stroke-linejoin="round" stroke-miterlimit="10" d="
		M108.015,184.637c1.682-1.361,2.572-7.207-3.109-14.232c-5.688-7.035-11.564-7.164-13.443-5.719
		c-1.01,0.816-3.301,4.652-2.547,8.029"/>
	
		<path fill="none" stroke="#000000" stroke-width="0.878" stroke-linecap="round" stroke-linejoin="round" stroke-miterlimit="10" d="
		M108.015,184.637c1.682-1.361,2.572-7.207-3.109-14.232c-5.688-7.035-11.564-7.164-13.443-5.719
		c-1.01,0.816-3.301,4.652-2.547,8.029"/>
	
		<line fill="none" stroke="#000000" stroke-width="0.878" stroke-linecap="round" stroke-linejoin="round" stroke-miterlimit="10" x1="125.042" y1="154.158" x2="102.628" y2="166.617"/>
	
		<line fill="none" stroke="#000000" stroke-width="0.878" stroke-linecap="round" stroke-linejoin="round" stroke-miterlimit="10" x1="125.042" y1="154.158" x2="102.628" y2="166.617"/>
	
		<line fill="none" stroke="#000000" stroke-width="0.878" stroke-linecap="round" stroke-linejoin="round" stroke-miterlimit="10" x1="125.152" y1="154.158" x2="108.205" y2="173.613"/>
	
		<line fill="none" stroke="#000000" stroke-width="0.878" stroke-linecap="round" stroke-linejoin="round" stroke-miterlimit="10" x1="125.152" y1="154.158" x2="108.205" y2="173.613"/>
	
		<line fill="none" stroke="#000000" stroke-width="0.878" stroke-linecap="round" stroke-linejoin="round" stroke-miterlimit="10" x1="120.123" y1="156.781" x2="121.542" y2="158.311"/>
	
		<line fill="none" stroke="#000000" stroke-width="0.878" stroke-linecap="round" stroke-linejoin="round" stroke-miterlimit="10" x1="120.123" y1="156.781" x2="121.542" y2="158.311"/>
	
		<line fill="none" stroke="#000000" stroke-width="0.878" stroke-linecap="round" stroke-linejoin="round" stroke-miterlimit="10" x1="105.254" y1="165.09" x2="110.281" y2="171.318"/>
	
		<line fill="none" stroke="#000000" stroke-width="0.878" stroke-linecap="round" stroke-linejoin="round" stroke-miterlimit="10" x1="105.254" y1="165.09" x2="110.281" y2="171.318"/>
	
		<line fill="none" stroke="#000000" stroke-width="0.878" stroke-linecap="round" stroke-linejoin="round" stroke-miterlimit="10" x1="112.687" y1="161.045" x2="115.857" y2="164.867"/>
	
		<line fill="none" stroke="#000000" stroke-width="0.878" stroke-linecap="round" stroke-linejoin="round" stroke-miterlimit="10" x1="112.687" y1="161.045" x2="115.857" y2="164.867"/>
	
		<line fill="none" stroke="#000000" stroke-width="0.878" stroke-linecap="round" stroke-linejoin="round" stroke-miterlimit="10" x1="96.378" y1="154.371" x2="94.867" y2="163.338"/>
	
		<line fill="none" stroke="#000000" stroke-width="0.878" stroke-linecap="round" stroke-linejoin="round" stroke-miterlimit="10" x1="96.378" y1="154.371" x2="94.867" y2="163.338"/>
	
		<line fill="none" stroke="#000000" stroke-width="0.878" stroke-linecap="round" stroke-linejoin="round" stroke-miterlimit="10" x1="98.367" y1="142.574" x2="96.378" y2="154.369"/>
	
		<line fill="none" stroke="#000000" stroke-width="0.878" stroke-linecap="round" stroke-linejoin="round" stroke-miterlimit="10" x1="98.367" y1="142.574" x2="96.378" y2="154.369"/>
	
		<line fill="none" stroke="#000000" stroke-width="0.878" stroke-linecap="round" stroke-linejoin="round" stroke-miterlimit="10" x1="98.039" y1="142.355" x2="90.275" y2="166.836"/>
	
		<line fill="none" stroke="#000000" stroke-width="0.878" stroke-linecap="round" stroke-linejoin="round" stroke-miterlimit="10" x1="98.039" y1="142.355" x2="90.275" y2="166.836"/>
	
		<line fill="none" stroke="#000000" stroke-width="0.878" stroke-linecap="round" stroke-linejoin="round" stroke-miterlimit="10" x1="95.085" y1="161.045" x2="91.697" y2="162.902"/>
	
		<line fill="none" stroke="#000000" stroke-width="0.878" stroke-linecap="round" stroke-linejoin="round" stroke-miterlimit="10" x1="95.085" y1="161.045" x2="91.697" y2="162.902"/>
	
		<line fill="none" stroke="#000000" stroke-width="0.878" stroke-linecap="round" stroke-linejoin="round" stroke-miterlimit="10" x1="95.595" y1="155.426" x2="93.883" y2="156.234"/>
	
		<line fill="none" stroke="#000000" stroke-width="0.878" stroke-linecap="round" stroke-linejoin="round" stroke-miterlimit="10" x1="95.595" y1="155.426" x2="93.883" y2="156.234"/>
	
		<line fill="none" stroke="#000000" stroke-width="0.878" stroke-linecap="round" stroke-linejoin="round" stroke-miterlimit="10" x1="95.961" y1="155.252" x2="95.594" y2="155.424"/>
	
		<line fill="none" stroke="#000000" stroke-width="0.878" stroke-linecap="round" stroke-linejoin="round" stroke-miterlimit="10" x1="95.961" y1="155.252" x2="95.594" y2="155.424"/>
	
		<line fill="none" stroke="#000000" stroke-width="0.878" stroke-linecap="round" stroke-linejoin="round" stroke-miterlimit="10" x1="97.492" y1="147.604" x2="96.289" y2="148.475"/>
	
		<line fill="none" stroke="#000000" stroke-width="0.878" stroke-linecap="round" stroke-linejoin="round" stroke-miterlimit="10" x1="97.492" y1="147.604" x2="96.289" y2="148.475"/>
	
		<line fill="none" stroke="#000000" stroke-width="0.878" stroke-linecap="round" stroke-linejoin="round" stroke-miterlimit="10" x1="130.945" y1="182.467" x2="110.062" y2="181.482"/>
	
		<line fill="none" stroke="#000000" stroke-width="0.878" stroke-linecap="round" stroke-linejoin="round" stroke-miterlimit="10" x1="130.945" y1="182.467" x2="110.062" y2="181.482"/>
	
		<line fill="none" stroke="#000000" stroke-width="0.878" stroke-linecap="round" stroke-linejoin="round" stroke-miterlimit="10" x1="130.617" y1="182.576" x2="107.148" y2="185.357"/>
	
		<path fill="none" stroke="#000000" stroke-width="0.878" stroke-linecap="round" stroke-linejoin="round" stroke-miterlimit="10" d="
		M130.617,182.576"/>
	
		<line fill="none" stroke="#000000" stroke-width="0.878" stroke-linecap="round" stroke-linejoin="round" stroke-miterlimit="10" x1="109.956" y1="184.871" x2="112.468" y2="181.592"/>
	
		<line fill="none" stroke="#000000" stroke-width="0.878" stroke-linecap="round" stroke-linejoin="round" stroke-miterlimit="10" x1="109.956" y1="184.871" x2="112.468" y2="181.592"/>
	
		<line fill="none" stroke="#000000" stroke-width="0.878" stroke-linecap="round" stroke-linejoin="round" stroke-miterlimit="10" x1="116.625" y1="184.217" x2="118.154" y2="181.811"/>
	
		<line fill="none" stroke="#000000" stroke-width="0.878" stroke-linecap="round" stroke-linejoin="round" stroke-miterlimit="10" x1="116.625" y1="184.217" x2="118.154" y2="181.811"/>
	
		<line fill="none" stroke="#000000" stroke-width="0.878" stroke-linecap="round" stroke-linejoin="round" stroke-miterlimit="10" x1="127.775" y1="182.139" x2="123.291" y2="156.562"/>
	
		<line fill="none" stroke="#000000" stroke-width="0.878" stroke-linecap="round" stroke-linejoin="round" stroke-miterlimit="10" x1="127.775" y1="182.139" x2="123.291" y2="156.562"/>
	
		<line fill="none" stroke="#000000" stroke-width="0.878" stroke-linecap="round" stroke-linejoin="round" stroke-miterlimit="10" x1="130.507" y1="161.92" x2="138.488" y2="172.957"/>
	
		<line fill="none" stroke="#000000" stroke-width="0.878" stroke-linecap="round" stroke-linejoin="round" stroke-miterlimit="10" x1="130.507" y1="161.92" x2="138.488" y2="172.957"/>
	
		<line fill="none" stroke="#000000" stroke-width="0.878" stroke-linecap="round" stroke-linejoin="round" stroke-miterlimit="10" x1="114.984" y1="181.594" x2="113.015" y2="167.93"/>
	
		<line fill="none" stroke="#000000" stroke-width="0.878" stroke-linecap="round" stroke-linejoin="round" stroke-miterlimit="10" x1="114.984" y1="181.594" x2="113.015" y2="167.93"/>
	
		<line fill="none" stroke="#000000" stroke-width="0.878" stroke-linecap="round" stroke-linejoin="round" stroke-miterlimit="10" x1="97.492" y1="159.732" x2="92.025" y2="164.322"/>
	
		<line fill="none" stroke="#000000" stroke-width="0.878" stroke-linecap="round" stroke-linejoin="round" stroke-miterlimit="10" x1="97.492" y1="159.732" x2="92.025" y2="164.322"/>
	
		<path fill="none" stroke="#000000" stroke-width="0.878" stroke-linecap="round" stroke-linejoin="round" stroke-miterlimit="10" d="
		M133.623,170.988c-0.799-4.811-3.246-10.754-8.453-17.189c-11.379-14.068-23.131-14.33-26.889-11.439
		c-1.894,1.529-3.403,6.004-2.342,12.127"/>
	
		<path fill="none" stroke="#000000" stroke-width="0.878" stroke-linecap="round" stroke-linejoin="round" stroke-miterlimit="10" d="
		M133.623,170.988c-0.799-4.811-3.246-10.754-8.453-17.189c-11.379-14.068-23.131-14.33-26.889-11.439
		c-1.894,1.529-3.403,6.004-2.342,12.127"/>
	
		<path fill="none" stroke="#000000" stroke-width="0.878" stroke-linecap="round" stroke-linejoin="round" stroke-miterlimit="10" d="
		M132.447,170.619c-0.861-4.566-3.24-10.131-8.098-16.139c-11.025-13.631-21.92-14.232-25.562-11.434
		c-1.825,1.477-3.129,5.664-1.994,11.451"/>
	
		<path fill="none" stroke="#000000" stroke-width="0.878" stroke-linecap="round" stroke-linejoin="round" stroke-miterlimit="10" d="
		M132.447,170.619c-0.861-4.566-3.24-10.131-8.098-16.139c-11.025-13.631-21.92-14.232-25.562-11.434
		c-1.825,1.477-3.129,5.664-1.994,11.451"/>
	
		<path fill="none" stroke="#000000" stroke-width="0.878" stroke-linecap="round" stroke-linejoin="round" stroke-miterlimit="10" d="
		M124.163,166.762c-0.453-2.346-1.681-5.195-4.168-8.271c-5.688-7.033-11.565-7.164-13.443-5.721
		c-0.147,0.121-0.29,0.273-0.423,0.459"/>
	
		<path fill="none" stroke="#000000" stroke-width="0.878" stroke-linecap="round" stroke-linejoin="round" stroke-miterlimit="10" d="
		M124.163,166.762c-0.453-2.346-1.681-5.195-4.168-8.271c-5.688-7.033-11.565-7.164-13.443-5.721
		c-0.147,0.121-0.29,0.273-0.423,0.459"/>
	
		<line fill="none" stroke="#000000" stroke-width="0.878" stroke-linecap="round" stroke-linejoin="round" stroke-miterlimit="10" x1="112.579" y1="152.738" x2="108.642" y2="155.578"/>
	
		<line fill="none" stroke="#000000" stroke-width="0.878" stroke-linecap="round" stroke-linejoin="round" stroke-miterlimit="10" x1="112.579" y1="152.738" x2="108.642" y2="155.578"/>
	<path fill="#FFFFFF" d="M98.585,162.357c2.186,0.436,4.154,1.967,7.434-0.875c2.062-1.787,2.74-1.207,2.959-6.016
		c-1.146-1.328-2.941-2.07-4.817-2.07c-3.419,0-6.231,2.811-6.231,6.229C97.929,161.117,97.693,161.277,98.585,162.357"/>
	<path fill="#FFFFFF" d="M98.585,162.357c2.186,0.436,4.154,1.967,7.434-0.875c2.062-1.787,2.74-1.207,2.959-6.016
		c-1.146-1.328-2.941-2.07-4.817-2.07c-3.419,0-6.231,2.811-6.231,6.229C97.929,161.117,97.693,161.277,98.585,162.357z"/>
	
		<path fill="none" stroke="#000000" stroke-width="0.878" stroke-linecap="round" stroke-linejoin="round" stroke-miterlimit="10" d="
		M98.585,162.357c2.186,0.436,4.154,1.967,7.434-0.875c2.062-1.787,2.74-1.207,2.959-6.016c-1.146-1.328-2.941-2.07-4.817-2.07
		c-3.419,0-6.231,2.811-6.231,6.229C97.929,161.117,97.693,161.277,98.585,162.357z"/>
	
		<path fill="none" stroke="#000000" stroke-width="0.878" stroke-linecap="round" stroke-linejoin="round" stroke-miterlimit="10" d="
		M98.585,162.357c2.186,0.436,4.154,1.967,7.434-0.875c2.062-1.787,2.74-1.207,2.959-6.016c-1.146-1.328-2.941-2.07-4.817-2.07
		c-3.419,0-6.231,2.811-6.231,6.229C97.929,161.117,97.693,161.277,98.585,162.357z"/>
	<path fill="#FFFFFF" d="M89.634,159.654c2.812-0.918,4.393-1.148,4.959-0.322c0.566,0.824,1.047,2.117-1.838,4.699"/>
	<path fill="#FFFFFF" d="M89.634,159.654c2.812-0.918,4.393-1.148,4.959-0.322c0.566,0.824,1.047,2.117-1.838,4.699"/>
	
		<path fill="none" stroke="#000000" stroke-width="0.878" stroke-linecap="round" stroke-linejoin="round" stroke-miterlimit="10" d="
		M89.634,159.654c2.812-0.918,4.393-1.148,4.959-0.322c0.566,0.824,1.047,2.117-1.838,4.699"/>
	
		<path fill="none" stroke="#000000" stroke-width="0.878" stroke-linecap="round" stroke-linejoin="round" stroke-miterlimit="10" d="
		M89.634,159.654c2.812-0.918,4.393-1.148,4.959-0.322c0.566,0.824,1.047,2.117-1.838,4.699"/>
	<path fill="#FFFFFF" d="M91.82,161.342c0.83,1.186,1.162,2.408,0.734,2.707c-0.427,0.299-1.461-0.432-2.292-1.619
		c-0.829-1.188-1.161-2.408-0.733-2.707C89.955,159.426,90.99,160.154,91.82,161.342"/>
	<path fill="#FFFFFF" d="M91.82,161.342c0.83,1.186,1.162,2.408,0.734,2.707c-0.427,0.299-1.461-0.432-2.292-1.619
		c-0.829-1.188-1.161-2.408-0.733-2.707C89.955,159.426,90.99,160.154,91.82,161.342z"/>
	
		<path fill="none" stroke="#000000" stroke-width="0.878" stroke-linecap="round" stroke-linejoin="round" stroke-miterlimit="10" d="
		M91.82,161.342c0.83,1.186,1.162,2.408,0.734,2.707c-0.427,0.299-1.461-0.432-2.292-1.619c-0.829-1.188-1.161-2.408-0.733-2.707
		C89.955,159.426,90.99,160.154,91.82,161.342z"/>
	
		<path fill="none" stroke="#000000" stroke-width="0.878" stroke-linecap="round" stroke-linejoin="round" stroke-miterlimit="10" d="
		M91.82,161.342c0.83,1.186,1.162,2.408,0.734,2.707c-0.427,0.299-1.461-0.432-2.292-1.619c-0.829-1.188-1.161-2.408-0.733-2.707
		C89.955,159.426,90.99,160.154,91.82,161.342z"/>
	<path fill="#FFFFFF" d="M108.001,182.605c2.812-0.916,4.393-1.148,4.959-0.322s1.047,2.117-1.836,4.701"/>
	<path fill="#FFFFFF" d="M108.001,182.605c2.812-0.916,4.393-1.148,4.959-0.322s1.047,2.117-1.836,4.701"/>
	
		<path fill="none" stroke="#000000" stroke-width="0.878" stroke-linecap="round" stroke-linejoin="round" stroke-miterlimit="10" d="
		M108.001,182.605c2.812-0.916,4.393-1.148,4.959-0.322s1.047,2.117-1.836,4.701"/>
	
		<path fill="none" stroke="#000000" stroke-width="0.878" stroke-linecap="round" stroke-linejoin="round" stroke-miterlimit="10" d="
		M108.001,182.605c2.812-0.916,4.393-1.148,4.959-0.322s1.047,2.117-1.836,4.701"/>
	<path fill="#FFFFFF" d="M110.187,184.295c0.83,1.186,1.162,2.408,0.735,2.707c-0.428,0.299-1.461-0.434-2.292-1.617
		c-0.83-1.189-1.163-2.41-0.736-2.709C108.322,182.377,109.355,183.107,110.187,184.295"/>
	<path fill="#FFFFFF" d="M110.187,184.295c0.83,1.186,1.162,2.408,0.735,2.707c-0.428,0.299-1.461-0.434-2.292-1.617
		c-0.83-1.189-1.163-2.41-0.736-2.709C108.322,182.377,109.355,183.107,110.187,184.295z"/>
	
		<path fill="none" stroke="#000000" stroke-width="0.878" stroke-linecap="round" stroke-linejoin="round" stroke-miterlimit="10" d="
		M110.187,184.295c0.83,1.186,1.162,2.408,0.735,2.707c-0.428,0.299-1.461-0.434-2.292-1.617c-0.83-1.189-1.163-2.41-0.736-2.709
		C108.322,182.377,109.355,183.107,110.187,184.295z"/>
	
		<path fill="none" stroke="#000000" stroke-width="0.878" stroke-linecap="round" stroke-linejoin="round" stroke-miterlimit="10" d="
		M110.187,184.295c0.83,1.186,1.162,2.408,0.735,2.707c-0.428,0.299-1.461-0.434-2.292-1.617c-0.83-1.189-1.163-2.41-0.736-2.709
		C108.322,182.377,109.355,183.107,110.187,184.295z"/>
	<path fill="#FFFFFF" d="M120.668,136.563c2.405,1.093,2.405,1.093,3.716,2.187c1.312,1.092-2.186,1.967-2.186,1.967l-3.937-2.188
		L120.668,136.563"/>
	<path fill="#FFFFFF" d="M120.668,136.563c2.405,1.093,2.405,1.093,3.716,2.187c1.312,1.092-2.186,1.967-2.186,1.967l-3.937-2.188
		L120.668,136.563z"/>
	
		<path fill="none" stroke="#000000" stroke-width="0.878" stroke-linecap="round" stroke-linejoin="round" stroke-miterlimit="10" d="
		M120.668,136.563c2.405,1.093,2.405,1.093,3.716,2.187c1.312,1.092-2.186,1.967-2.186,1.967l-3.937-2.188L120.668,136.563z"/>
	
		<path fill="none" stroke="#000000" stroke-width="0.878" stroke-linecap="round" stroke-linejoin="round" stroke-miterlimit="10" d="
		M120.668,136.563c2.405,1.093,2.405,1.093,3.716,2.187c1.312,1.092-2.186,1.967-2.186,1.967l-3.937-2.188L120.668,136.563z"/>
	<path fill="#FFFFFF" d="M126.943,141.35c0.151,0.287-0.072,0.781-0.5,1.094c-0.428,0.314-0.903,0.336-1.058,0.051
		c-0.151-0.285,0.074-0.779,0.501-1.096C126.314,141.086,126.792,141.062,126.943,141.35"/>
	<path fill="#FFFFFF" d="M126.943,141.35c0.151,0.287-0.072,0.781-0.5,1.094c-0.428,0.314-0.903,0.336-1.058,0.051
		c-0.151-0.285,0.074-0.779,0.501-1.096C126.314,141.086,126.792,141.062,126.943,141.35z"/>
	
		<path fill="none" stroke="#000000" stroke-width="0.878" stroke-linecap="round" stroke-linejoin="round" stroke-miterlimit="10" d="
		M126.943,141.35c0.151,0.287-0.072,0.781-0.5,1.094c-0.428,0.314-0.903,0.336-1.058,0.051c-0.151-0.285,0.074-0.779,0.501-1.096
		C126.314,141.086,126.792,141.062,126.943,141.35z"/>
	
		<path fill="none" stroke="#000000" stroke-width="0.878" stroke-linecap="round" stroke-linejoin="round" stroke-miterlimit="10" d="
		M126.943,141.35c0.151,0.287-0.072,0.781-0.5,1.094c-0.428,0.314-0.903,0.336-1.058,0.051c-0.151-0.285,0.074-0.779,0.501-1.096
		C126.314,141.086,126.792,141.062,126.943,141.35z"/>
	<path fill="#FFFFFF" d="M129.992,144.074c0.168,0.27-0.08,0.73-0.549,1.023c-0.471,0.293-0.996,0.312-1.164,0.045
		c-0.166-0.268,0.082-0.729,0.552-1.023C129.299,143.828,129.824,143.807,129.992,144.074"/>
	<path fill="#FFFFFF" d="M129.992,144.074c0.168,0.27-0.08,0.73-0.549,1.023c-0.471,0.293-0.996,0.312-1.164,0.045
		c-0.166-0.268,0.082-0.729,0.552-1.023C129.299,143.828,129.824,143.807,129.992,144.074z"/>
	
		<path fill="none" stroke="#000000" stroke-width="0.878" stroke-linecap="round" stroke-linejoin="round" stroke-miterlimit="10" d="
		M129.992,144.074c0.168,0.27-0.08,0.73-0.549,1.023c-0.471,0.293-0.996,0.312-1.164,0.045c-0.166-0.268,0.082-0.729,0.552-1.023
		C129.299,143.828,129.824,143.807,129.992,144.074z"/>
	
		<path fill="none" stroke="#000000" stroke-width="0.878" stroke-linecap="round" stroke-linejoin="round" stroke-miterlimit="10" d="
		M129.992,144.074c0.168,0.27-0.08,0.73-0.549,1.023c-0.471,0.293-0.996,0.312-1.164,0.045c-0.166-0.268,0.082-0.729,0.552-1.023
		C129.299,143.828,129.824,143.807,129.992,144.074z"/>
	<path fill="#FFFFFF" d="M122.199,144.432c1.094,1.529,0.875,1.311,2.186,2.404c1.312,1.092-1.748,2.402-1.748,2.402l-2.842-2.84
		L122.199,144.432"/>
	<path fill="#FFFFFF" d="M122.199,144.432c1.094,1.529,0.875,1.311,2.186,2.404c1.312,1.092-1.748,2.402-1.748,2.402l-2.842-2.84
		L122.199,144.432z"/>
	
		<path fill="none" stroke="#000000" stroke-width="0.878" stroke-linecap="round" stroke-linejoin="round" stroke-miterlimit="10" d="
		M122.199,144.432c1.094,1.529,0.875,1.311,2.186,2.404c1.312,1.092-1.748,2.402-1.748,2.402l-2.842-2.84L122.199,144.432z"/>
	
		<path fill="none" stroke="#000000" stroke-width="0.878" stroke-linecap="round" stroke-linejoin="round" stroke-miterlimit="10" d="
		M122.199,144.432c1.094,1.529,0.875,1.311,2.186,2.404c1.312,1.092-1.748,2.402-1.748,2.402l-2.842-2.84L122.199,144.432z"/>
	<path fill="#FFFFFF" d="M118.634,135.885c0.154,0.287-0.07,0.781-0.5,1.093c-0.426,0.314-0.902,0.336-1.056,0.049
		c-0.152-0.287,0.073-0.781,0.501-1.093C118.005,135.622,118.484,135.598,118.634,135.885"/>
	<path fill="#FFFFFF" d="M118.634,135.885c0.154,0.287-0.07,0.781-0.5,1.093c-0.426,0.314-0.902,0.336-1.056,0.049
		c-0.152-0.287,0.073-0.781,0.501-1.093C118.005,135.622,118.484,135.598,118.634,135.885z"/>
	
		<path fill="none" stroke="#000000" stroke-width="0.878" stroke-linecap="round" stroke-linejoin="round" stroke-miterlimit="10" d="
		M118.634,135.885c0.154,0.287-0.07,0.781-0.5,1.093c-0.426,0.314-0.902,0.336-1.056,0.049c-0.152-0.287,0.073-0.781,0.501-1.093
		C118.005,135.622,118.484,135.598,118.634,135.885z"/>
	
		<path fill="none" stroke="#000000" stroke-width="0.878" stroke-linecap="round" stroke-linejoin="round" stroke-miterlimit="10" d="
		M118.634,135.885c0.154,0.287-0.07,0.781-0.5,1.093c-0.426,0.314-0.902,0.336-1.056,0.049c-0.152-0.287,0.073-0.781,0.501-1.093
		C118.005,135.622,118.484,135.598,118.634,135.885z"/>
	<path fill="#FFFFFF" d="M117.324,142.881c0.152,0.285-0.074,0.779-0.5,1.092c-0.428,0.314-0.904,0.338-1.057,0.051
		c-0.152-0.289,0.071-0.781,0.5-1.094C116.695,142.615,117.171,142.594,117.324,142.881"/>
	<path fill="#FFFFFF" d="M117.324,142.881c0.152,0.285-0.074,0.779-0.5,1.092c-0.428,0.314-0.904,0.338-1.057,0.051
		c-0.152-0.289,0.071-0.781,0.5-1.094C116.695,142.615,117.171,142.594,117.324,142.881z"/>
	
		<path fill="none" stroke="#000000" stroke-width="0.878" stroke-linecap="round" stroke-linejoin="round" stroke-miterlimit="10" d="
		M117.324,142.881c0.152,0.285-0.074,0.779-0.5,1.092c-0.428,0.314-0.904,0.338-1.057,0.051c-0.152-0.289,0.071-0.781,0.5-1.094
		C116.695,142.615,117.171,142.594,117.324,142.881z"/>
	
		<path fill="none" stroke="#000000" stroke-width="0.878" stroke-linecap="round" stroke-linejoin="round" stroke-miterlimit="10" d="
		M117.324,142.881c0.152,0.285-0.074,0.779-0.5,1.092c-0.428,0.314-0.904,0.338-1.057,0.051c-0.152-0.289,0.071-0.781,0.5-1.094
		C116.695,142.615,117.171,142.594,117.324,142.881z"/>
	
		<path fill="none" stroke="#000000" stroke-width="0.878" stroke-linecap="round" stroke-linejoin="round" stroke-miterlimit="10" d="
		M102.669,185.896c1.293-1.045,1.979-5.535-2.387-10.93c-4.369-5.404-8.869-5.568-10.312-4.459
		c-1.293,1.047-2.107,5.602,2.256,10.998c4.369,5.402,8.739,5.633,10.183,4.521"/>
	
		<path fill="none" stroke="#000000" stroke-width="0.878" stroke-linecap="round" stroke-linejoin="round" stroke-miterlimit="10" d="
		M102.669,185.896c1.293-1.045,1.979-5.535-2.387-10.93c-4.369-5.404-8.869-5.568-10.312-4.459
		c-1.293,1.047-2.107,5.602,2.256,10.998c4.369,5.402,8.739,5.633,10.183,4.521"/>
	
		<path fill="none" stroke="#000000" stroke-width="0.878" stroke-linecap="round" stroke-linejoin="round" stroke-miterlimit="10" d="
		M101.38,184.16c1.033-0.836,1.581-4.428-1.91-8.744c-3.496-4.322-7.096-4.451-8.25-3.564c-1.035,0.836-1.688,4.482,1.805,8.799
		c3.494,4.32,6.99,4.504,8.146,3.617"/>
	
		<path fill="none" stroke="#000000" stroke-width="0.878" stroke-linecap="round" stroke-linejoin="round" stroke-miterlimit="10" d="
		M101.38,184.16c1.033-0.836,1.581-4.428-1.91-8.744c-3.496-4.322-7.096-4.451-8.25-3.564c-1.035,0.836-1.688,4.482,1.805,8.799
		c3.494,4.32,6.99,4.504,8.146,3.617"/>
	
		<path fill="none" stroke="#000000" stroke-width="0.878" stroke-linecap="round" stroke-linejoin="round" stroke-miterlimit="10" d="
		M99.433,178.348c0.311-0.252,0.475-1.33-0.572-2.623c-1.049-1.297-2.129-1.336-2.476-1.07c-0.312,0.252-0.508,1.344,0.541,2.641
		c1.05,1.297,2.097,1.352,2.443,1.086"/>
	
		<path fill="none" stroke="#000000" stroke-width="0.878" stroke-linecap="round" stroke-linejoin="round" stroke-miterlimit="10" d="
		M99.433,178.348c0.311-0.252,0.475-1.33-0.572-2.623c-1.049-1.297-2.129-1.336-2.476-1.07c-0.312,0.252-0.508,1.344,0.541,2.641
		c1.05,1.297,2.097,1.352,2.443,1.086"/>
	
		<path fill="none" stroke="#000000" stroke-width="0.878" stroke-linecap="round" stroke-linejoin="round" stroke-miterlimit="10" d="
		M97.027,174.455c-0.065,0.496,0.088,1.26,0.774,2.109c0.591,0.729,1.179,1.064,1.646,1.172"/>
	
		<path fill="none" stroke="#000000" stroke-width="0.878" stroke-linecap="round" stroke-linejoin="round" stroke-miterlimit="10" d="
		M97.027,174.455c-0.065,0.496,0.088,1.26,0.774,2.109c0.591,0.729,1.179,1.064,1.646,1.172"/>
	
		<polygon fill="none" stroke="#000000" stroke-width="0.878" stroke-linecap="round" stroke-linejoin="round" stroke-miterlimit="10" points="
		129.962,169.57 128.978,170.334 182.364,194.232 183.565,193.248 	"/>
	
		<polygon fill="none" stroke="#000000" stroke-width="0.878" stroke-linecap="round" stroke-linejoin="round" stroke-miterlimit="10" points="
		129.962,169.57 128.978,170.334 182.364,194.232 183.565,193.248 	"/>
	
		<polygon fill="none" stroke="#000000" stroke-width="0.878" stroke-linecap="round" stroke-linejoin="round" stroke-miterlimit="10" points="
		116.734,180.279 115.75,181.045 171.177,205.527 172.378,204.543 	"/>
	
		<polygon fill="none" stroke="#000000" stroke-width="0.878" stroke-linecap="round" stroke-linejoin="round" stroke-miterlimit="10" points="
		116.734,180.279 115.75,181.045 171.177,205.527 172.378,204.543 	"/>
	
		<line fill="none" stroke="#000000" stroke-width="0.878" stroke-linecap="round" stroke-linejoin="round" stroke-miterlimit="10" x1="196.026" y1="76.352" x2="195.778" y2="75.357"/>
	<polyline fill="#FFFFFF" points="218.077,95.789 220.515,93.828 221.169,93.946 221.644,97.097 221.407,97.811 218.612,99.773 
		218.196,99.417 217.839,96.8 218.077,95.789 	"/>
	<polygon fill="#FFFFFF" points="218.077,95.789 220.515,93.828 221.169,93.946 221.644,97.097 221.407,97.811 218.612,99.773 
		218.196,99.417 217.839,96.8 	"/>
	
		<polygon fill="none" stroke="#000000" stroke-width="0.878" stroke-linecap="round" stroke-linejoin="round" stroke-miterlimit="10" points="
		218.077,95.789 220.515,93.828 221.169,93.946 221.644,97.097 221.407,97.811 218.612,99.773 218.196,99.417 217.839,96.8 	"/>
	
		<polygon fill="none" stroke="#000000" stroke-width="0.878" stroke-linecap="round" stroke-linejoin="round" stroke-miterlimit="10" points="
		218.077,95.789 220.515,93.828 221.169,93.946 221.644,97.097 221.407,97.811 218.612,99.773 218.196,99.417 217.839,96.8 	"/>
	<path fill="#FFFFFF" d="M206.942,77.438c0.586,0.412,0.826,0.62,1.287,1.097c0.326,0.338,0.432,0.181,0.613,0.078
		c0.785-0.444,0.83-0.431,1.211-0.673c0.381-0.243,0.152-0.419-0.102-0.648c-0.441-0.398-1.129-0.868-1.504-1.004
		c-0.375-0.136-0.354-0.114-0.758,0.104c0.041-0.022-0.934,0.511-0.834,0.428c0,0-0.15,0.166-0.145,0.3
		C206.72,77.293,206.942,77.438,206.942,77.438"/>
	<path fill="#FFFFFF" d="M206.942,77.438c0.586,0.412,0.826,0.62,1.287,1.097c0.326,0.338,0.432,0.181,0.613,0.078
		c0.785-0.444,0.83-0.431,1.211-0.673c0.381-0.243,0.152-0.419-0.102-0.648c-0.441-0.398-1.129-0.868-1.504-1.004
		c-0.375-0.136-0.354-0.114-0.758,0.104c0.041-0.022-0.934,0.511-0.834,0.428c0,0-0.15,0.166-0.145,0.3
		C206.72,77.293,206.942,77.438,206.942,77.438z"/>
	
		<path fill="none" stroke="#000000" stroke-width="0.878" stroke-linecap="round" stroke-linejoin="round" stroke-miterlimit="10" d="
		M206.942,77.438c0.586,0.412,0.826,0.62,1.287,1.097c0.326,0.338,0.432,0.181,0.613,0.078c0.785-0.444,0.83-0.431,1.211-0.673
		c0.381-0.243,0.152-0.419-0.102-0.648c-0.441-0.398-1.129-0.868-1.504-1.004c-0.375-0.136-0.354-0.114-0.758,0.104
		c0.041-0.022-0.934,0.511-0.834,0.428c0,0-0.15,0.166-0.145,0.3C206.72,77.293,206.942,77.438,206.942,77.438z"/>
	
		<path fill="none" stroke="#000000" stroke-width="0.878" stroke-linecap="round" stroke-linejoin="round" stroke-miterlimit="10" d="
		M206.942,77.438c0.586,0.412,0.826,0.62,1.287,1.097c0.326,0.338,0.432,0.181,0.613,0.078c0.785-0.444,0.83-0.431,1.211-0.673
		c0.381-0.243,0.152-0.419-0.102-0.648c-0.441-0.398-1.129-0.868-1.504-1.004c-0.375-0.136-0.354-0.114-0.758,0.104
		c0.041-0.022-0.934,0.511-0.834,0.428c0,0-0.15,0.166-0.145,0.3C206.72,77.293,206.942,77.438,206.942,77.438z"/>
	<path fill="#FFFFFF" d="M211.487,81.225c0.543,0.535,0.488,0.773,0.988,1.209c0.357,0.309,0.447,0.142,0.619,0.023
		c0.742-0.511,1.061-0.757,1.061-0.757c0.242-0.174-0.156-0.635-0.156-0.635c-0.365-0.529-0.725-1.014-1.109-1.118
		c-0.385-0.103-0.363-0.083-0.742,0.169c0.037-0.025-0.889,0.591-0.797,0.499c0,0-0.137,0.179-0.119,0.313
		C211.255,81.1,211.487,81.225,211.487,81.225"/>
	<path fill="#FFFFFF" d="M211.487,81.225c0.543,0.535,0.488,0.773,0.988,1.209c0.357,0.309,0.447,0.142,0.619,0.023
		c0.742-0.511,1.061-0.757,1.061-0.757c0.242-0.174-0.156-0.635-0.156-0.635c-0.365-0.529-0.725-1.014-1.109-1.118
		c-0.385-0.103-0.363-0.083-0.742,0.169c0.037-0.025-0.889,0.591-0.797,0.499c0,0-0.137,0.179-0.119,0.313
		C211.255,81.1,211.487,81.225,211.487,81.225z"/>
	
		<path fill="none" stroke="#000000" stroke-width="0.878" stroke-linecap="round" stroke-linejoin="round" stroke-miterlimit="10" d="
		M211.487,81.225c0.543,0.535,0.488,0.773,0.988,1.209c0.357,0.309,0.447,0.142,0.619,0.023c0.742-0.511,1.061-0.757,1.061-0.757
		c0.242-0.174-0.156-0.635-0.156-0.635c-0.365-0.529-0.725-1.014-1.109-1.118c-0.385-0.103-0.363-0.083-0.742,0.169
		c0.037-0.025-0.889,0.591-0.797,0.499c0,0-0.137,0.179-0.119,0.313C211.255,81.1,211.487,81.225,211.487,81.225z"/>
	
		<path fill="none" stroke="#000000" stroke-width="0.878" stroke-linecap="round" stroke-linejoin="round" stroke-miterlimit="10" d="
		M211.487,81.225c0.543,0.535,0.488,0.773,0.988,1.209c0.357,0.309,0.447,0.142,0.619,0.023c0.742-0.511,1.061-0.757,1.061-0.757
		c0.242-0.174-0.156-0.635-0.156-0.635c-0.365-0.529-0.725-1.014-1.109-1.118c-0.385-0.103-0.363-0.083-0.742,0.169
		c0.037-0.025-0.889,0.591-0.797,0.499c0,0-0.137,0.179-0.119,0.313C211.255,81.1,211.487,81.225,211.487,81.225z"/>
	<path fill="#FFFFFF" d="M216.556,87.536c1.27-0.708,1.502-0.553,2.305,1c0.789,1.523,0.846,1.388-0.369,2.083
		c-1.838,1.053-1.516,0.522-2.23-0.79S215.157,88.318,216.556,87.536"/>
	<path fill="#FFFFFF" d="M216.556,87.536c1.27-0.708,1.502-0.553,2.305,1c0.789,1.523,0.846,1.388-0.369,2.083
		c-1.838,1.053-1.516,0.522-2.23-0.79S215.157,88.318,216.556,87.536z"/>
	
		<path fill="none" stroke="#000000" stroke-width="0.878" stroke-linecap="round" stroke-linejoin="round" stroke-miterlimit="10" d="
		M216.556,87.536c1.27-0.708,1.502-0.553,2.305,1c0.789,1.523,0.846,1.388-0.369,2.083c-1.838,1.053-1.516,0.522-2.23-0.79
		S215.157,88.318,216.556,87.536z"/>
	
		<path fill="none" stroke="#000000" stroke-width="0.878" stroke-linecap="round" stroke-linejoin="round" stroke-miterlimit="10" d="
		M216.556,87.536c1.27-0.708,1.502-0.553,2.305,1c0.789,1.523,0.846,1.388-0.369,2.083c-1.838,1.053-1.516,0.522-2.23-0.79
		S215.157,88.318,216.556,87.536z"/>
	<path fill="#FFFFFF" d="M220.806,95.421c0.035,0.255-0.145,0.494-0.4,0.53c-0.256,0.037-0.494-0.144-0.529-0.399
		c-0.037-0.255,0.145-0.494,0.398-0.53C220.53,94.986,220.771,95.167,220.806,95.421"/>
	<path fill="#FFFFFF" d="M220.806,95.421c0.035,0.255-0.145,0.494-0.4,0.53c-0.256,0.037-0.494-0.144-0.529-0.399
		c-0.037-0.255,0.145-0.494,0.398-0.53C220.53,94.986,220.771,95.167,220.806,95.421z"/>
	
		<path fill="none" stroke="#000000" stroke-width="0.878" stroke-linecap="round" stroke-linejoin="round" stroke-miterlimit="10" d="
		M220.806,95.421c0.035,0.255-0.145,0.494-0.4,0.53c-0.256,0.037-0.494-0.144-0.529-0.399c-0.037-0.255,0.145-0.494,0.398-0.53
		C220.53,94.986,220.771,95.167,220.806,95.421z"/>
	
		<path fill="none" stroke="#000000" stroke-width="0.878" stroke-linecap="round" stroke-linejoin="round" stroke-miterlimit="10" d="
		M220.806,95.421c0.035,0.255-0.145,0.494-0.4,0.53c-0.256,0.037-0.494-0.144-0.529-0.399c-0.037-0.255,0.145-0.494,0.398-0.53
		C220.53,94.986,220.771,95.167,220.806,95.421z"/>
	<path fill="#FFFFFF" d="M219.46,96.36c0.037,0.255-0.143,0.495-0.398,0.53c-0.254,0.037-0.494-0.145-0.529-0.399
		c-0.035-0.255,0.146-0.495,0.398-0.53C219.185,95.926,219.425,96.105,219.46,96.36"/>
	<circle fill="#FFFFFF" cx="218.995" cy="96.425" r="0.469"/>
	
		<circle fill="none" stroke="#000000" stroke-width="0.878" stroke-linecap="round" stroke-linejoin="round" stroke-miterlimit="10" cx="218.995" cy="96.425" r="0.469"/>
	
		<circle fill="none" stroke="#000000" stroke-width="0.878" stroke-linecap="round" stroke-linejoin="round" stroke-miterlimit="10" cx="218.995" cy="96.425" r="0.469"/>
	<path fill="#FFFFFF" d="M219.604,98.11c0.037,0.256-0.145,0.494-0.4,0.531c-0.254,0.036-0.494-0.145-0.529-0.4
		s0.145-0.494,0.398-0.53C219.329,97.675,219.567,97.855,219.604,98.11"/>
	<path fill="#FFFFFF" d="M219.604,98.11c0.037,0.256-0.145,0.494-0.4,0.531c-0.254,0.036-0.494-0.145-0.529-0.4
		s0.145-0.494,0.398-0.53C219.329,97.675,219.567,97.855,219.604,98.11z"/>
	
		<path fill="none" stroke="#000000" stroke-width="0.878" stroke-linecap="round" stroke-linejoin="round" stroke-miterlimit="10" d="
		M219.604,98.11c0.037,0.256-0.145,0.494-0.4,0.531c-0.254,0.036-0.494-0.145-0.529-0.4s0.145-0.494,0.398-0.53
		C219.329,97.675,219.567,97.855,219.604,98.11z"/>
	
		<path fill="none" stroke="#000000" stroke-width="0.878" stroke-linecap="round" stroke-linejoin="round" stroke-miterlimit="10" d="
		M219.604,98.11c0.037,0.256-0.145,0.494-0.4,0.531c-0.254,0.036-0.494-0.145-0.529-0.4s0.145-0.494,0.398-0.53
		C219.329,97.675,219.567,97.855,219.604,98.11z"/>
	<path fill="#FFFFFF" d="M220.979,97.116c0.035,0.256-0.145,0.494-0.398,0.531c-0.256,0.036-0.496-0.145-0.531-0.4
		c-0.037-0.255,0.145-0.494,0.398-0.53C220.704,96.681,220.944,96.861,220.979,97.116"/>
	<path fill="#FFFFFF" d="M220.979,97.116c0.035,0.256-0.145,0.494-0.398,0.531c-0.256,0.036-0.496-0.145-0.531-0.4
		c-0.037-0.255,0.145-0.494,0.398-0.53C220.704,96.681,220.944,96.861,220.979,97.116z"/>
	
		<path fill="none" stroke="#000000" stroke-width="0.878" stroke-linecap="round" stroke-linejoin="round" stroke-miterlimit="10" d="
		M220.979,97.116c0.035,0.256-0.145,0.494-0.398,0.531c-0.256,0.036-0.496-0.145-0.531-0.4c-0.037-0.255,0.145-0.494,0.398-0.53
		C220.704,96.681,220.944,96.861,220.979,97.116z"/>
	
		<path fill="none" stroke="#000000" stroke-width="0.878" stroke-linecap="round" stroke-linejoin="round" stroke-miterlimit="10" d="
		M220.979,97.116c0.035,0.256-0.145,0.494-0.398,0.531c-0.256,0.036-0.496-0.145-0.531-0.4c-0.037-0.255,0.145-0.494,0.398-0.53
		C220.704,96.681,220.944,96.861,220.979,97.116z"/>
	
		<path fill="none" stroke="#000000" stroke-width="0.878" stroke-linecap="round" stroke-linejoin="round" stroke-miterlimit="10" d="
		M216.175,76.438c2.074-1.633,3.711-2.713,4.75-1.406c1.068,1.34,0.045,2.452-2.131,3.981"/>
	
		<path fill="none" stroke="#000000" stroke-width="0.878" stroke-linecap="round" stroke-linejoin="round" stroke-miterlimit="10" d="
		M216.175,76.438c2.074-1.633,3.711-2.713,4.75-1.406c1.068,1.34,0.045,2.452-2.131,3.981"/>
	
		<path fill="none" stroke="#000000" stroke-width="0.878" stroke-linecap="round" stroke-linejoin="round" stroke-miterlimit="10" d="
		M218.179,77.169c0.635,0.765,0.809,1.67,0.387,2.004s-1.291-0.02-1.924-0.785c-0.635-0.765-0.809-1.671-0.387-2.005
		S217.546,76.404,218.179,77.169z"/>
	
		<path fill="none" stroke="#000000" stroke-width="0.878" stroke-linecap="round" stroke-linejoin="round" stroke-miterlimit="10" d="
		M218.179,77.169c0.635,0.765,0.809,1.67,0.387,2.004s-1.291-0.02-1.924-0.785c-0.635-0.765-0.809-1.671-0.387-2.005
		S217.546,76.404,218.179,77.169z"/>
	
		<path fill="none" stroke="#000000" stroke-width="0.878" stroke-linecap="round" stroke-linejoin="round" stroke-miterlimit="10" d="
		M216.847,76.035c0.039-0.098,0.098-0.181,0.176-0.243c0.422-0.335,1.291,0.02,1.924,0.785c0.555,0.67,0.758,1.447,0.516,1.854"/>
	
		<path fill="none" stroke="#000000" stroke-width="0.878" stroke-linecap="round" stroke-linejoin="round" stroke-miterlimit="10" d="
		M216.847,76.035c0.039-0.098,0.098-0.181,0.176-0.243c0.422-0.335,1.291,0.02,1.924,0.785c0.555,0.67,0.758,1.447,0.516,1.854"/>
	
		<path fill="none" stroke="#000000" stroke-width="0.878" stroke-linecap="round" stroke-linejoin="round" stroke-miterlimit="10" d="
		M225.823,93.935c0.285,0.952,0.092,1.852-0.428,1.996c-0.52,0.143-1.18-0.522-1.463-1.475c-0.285-0.952-0.092-1.853,0.428-1.996
		S225.54,92.983,225.823,93.935z"/>
	
		<path fill="none" stroke="#000000" stroke-width="0.878" stroke-linecap="round" stroke-linejoin="round" stroke-miterlimit="10" d="
		M225.823,93.935c0.285,0.952,0.092,1.852-0.428,1.996c-0.52,0.143-1.18-0.522-1.463-1.475c-0.285-0.952-0.092-1.853,0.428-1.996
		S225.54,92.983,225.823,93.935z"/>
	
		<polyline fill="none" stroke="#000000" stroke-width="0.878" stroke-linecap="round" stroke-linejoin="round" stroke-miterlimit="10" points="
		224.339,92.527 227.581,93.124 225.409,95.931 	"/>
	
		<polyline fill="none" stroke="#000000" stroke-width="0.878" stroke-linecap="round" stroke-linejoin="round" stroke-miterlimit="10" points="
		224.339,92.527 227.581,93.124 225.409,95.931 	"/>
	
		<path fill="none" stroke="#000000" stroke-width="0.878" stroke-linecap="round" stroke-linejoin="round" stroke-miterlimit="10" d="
		M194.644,71.535c4.045-3.09,12.637-4.007,22.596,8.085c9.99,12.127,6.66,20.925,2.617,24.017"/>
	
		<path fill="none" stroke="#000000" stroke-width="0.878" stroke-linecap="round" stroke-linejoin="round" stroke-miterlimit="10" d="
		M194.644,71.535c4.045-3.09,12.637-4.007,22.596,8.085c9.99,12.127,6.66,20.925,2.617,24.017"/>
	
		<line fill="none" stroke="#000000" stroke-width="0.878" stroke-linecap="round" stroke-linejoin="round" stroke-miterlimit="10" x1="194.47" y1="71.594" x2="188.937" y2="76.052"/>
	
		<line fill="none" stroke="#000000" stroke-width="0.878" stroke-linecap="round" stroke-linejoin="round" stroke-miterlimit="10" x1="194.47" y1="71.594" x2="188.937" y2="76.052"/>
	
		<line fill="none" stroke="#000000" stroke-width="0.878" stroke-linecap="round" stroke-linejoin="round" stroke-miterlimit="10" x1="220.808" y1="103.161" x2="215.099" y2="107.917"/>
	
		<line fill="none" stroke="#000000" stroke-width="0.878" stroke-linecap="round" stroke-linejoin="round" stroke-miterlimit="10" x1="220.808" y1="103.161" x2="215.099" y2="107.917"/>
	
		<path fill="none" stroke="#000000" stroke-width="0.878" stroke-linecap="round" stroke-linejoin="round" stroke-miterlimit="10" d="
		M194.274,71.691c2.986-2.296,12.025-1.82,21.062,9.356c9.025,11.162,7.609,20.451,4.938,22.613"/>
	
		<path fill="none" stroke="#000000" stroke-width="0.878" stroke-linecap="round" stroke-linejoin="round" stroke-miterlimit="10" d="
		M194.274,71.691c2.986-2.296,12.025-1.82,21.062,9.356c9.025,11.162,7.609,20.451,4.938,22.613"/>
	
		<line fill="none" stroke="#000000" stroke-width="0.878" stroke-linecap="round" stroke-linejoin="round" stroke-miterlimit="10" x1="196.763" y1="77.324" x2="188.345" y2="79.947"/>
	
		<line fill="none" stroke="#000000" stroke-width="0.878" stroke-linecap="round" stroke-linejoin="round" stroke-miterlimit="10" x1="196.763" y1="77.324" x2="188.345" y2="79.947"/>
	
		<line fill="none" stroke="#000000" stroke-width="0.878" stroke-linecap="round" stroke-linejoin="round" stroke-miterlimit="10" x1="197.2" y1="77.324" x2="201.046" y2="87.224"/>
	
		<line fill="none" stroke="#000000" stroke-width="0.878" stroke-linecap="round" stroke-linejoin="round" stroke-miterlimit="10" x1="197.2" y1="77.324" x2="201.046" y2="87.224"/>
	
		<line fill="none" stroke="#000000" stroke-width="0.878" stroke-linecap="round" stroke-linejoin="round" stroke-miterlimit="10" x1="198.511" y1="76.013" x2="203.212" y2="89.458"/>
	
		<line fill="none" stroke="#000000" stroke-width="0.878" stroke-linecap="round" stroke-linejoin="round" stroke-miterlimit="10" x1="198.511" y1="76.013" x2="203.212" y2="89.458"/>
	
		<line fill="none" stroke="#000000" stroke-width="0.878" stroke-linecap="round" stroke-linejoin="round" stroke-miterlimit="10" x1="203.269" y1="90.011" x2="209.097" y2="85.315"/>
	
		<line fill="none" stroke="#000000" stroke-width="0.878" stroke-linecap="round" stroke-linejoin="round" stroke-miterlimit="10" x1="203.269" y1="90.011" x2="209.097" y2="85.315"/>
	
		<line fill="none" stroke="#000000" stroke-width="0.878" stroke-linecap="round" stroke-linejoin="round" stroke-miterlimit="10" x1="204.202" y1="91.091" x2="210.206" y2="86.396"/>
	
		<line fill="none" stroke="#000000" stroke-width="0.878" stroke-linecap="round" stroke-linejoin="round" stroke-miterlimit="10" x1="204.202" y1="91.091" x2="210.206" y2="86.396"/>
	
		<line fill="none" stroke="#000000" stroke-width="0.878" stroke-linecap="round" stroke-linejoin="round" stroke-miterlimit="10" x1="204.522" y1="91.423" x2="216.53" y2="98.167"/>
	
		<line fill="none" stroke="#000000" stroke-width="0.878" stroke-linecap="round" stroke-linejoin="round" stroke-miterlimit="10" x1="204.522" y1="91.423" x2="216.53" y2="98.167"/>
	
		<line fill="none" stroke="#000000" stroke-width="0.878" stroke-linecap="round" stroke-linejoin="round" stroke-miterlimit="10" x1="206.163" y1="93.828" x2="215.343" y2="99.118"/>
	
		<line fill="none" stroke="#000000" stroke-width="0.878" stroke-linecap="round" stroke-linejoin="round" stroke-miterlimit="10" x1="206.163" y1="93.828" x2="215.343" y2="99.118"/>
	
		<line fill="none" stroke="#000000" stroke-width="0.878" stroke-linecap="round" stroke-linejoin="round" stroke-miterlimit="10" x1="215.341" y1="99.118" x2="210.583" y2="107.679"/>
	
		<line fill="none" stroke="#000000" stroke-width="0.878" stroke-linecap="round" stroke-linejoin="round" stroke-miterlimit="10" x1="215.341" y1="99.118" x2="210.583" y2="107.679"/>
	
		<line fill="none" stroke="#000000" stroke-width="0.878" stroke-linecap="round" stroke-linejoin="round" stroke-miterlimit="10" x1="197.747" y1="75.794" x2="184.304" y2="80.155"/>
	
		<line fill="none" stroke="#000000" stroke-width="0.878" stroke-linecap="round" stroke-linejoin="round" stroke-miterlimit="10" x1="197.747" y1="75.794" x2="184.304" y2="80.155"/>
	
		<line fill="none" stroke="#000000" stroke-width="0.878" stroke-linecap="round" stroke-linejoin="round" stroke-miterlimit="10" x1="216.769" y1="99.118" x2="209.442" y2="112.189"/>
	
		<line fill="none" stroke="#000000" stroke-width="0.878" stroke-linecap="round" stroke-linejoin="round" stroke-miterlimit="10" x1="216.769" y1="99.118" x2="209.442" y2="112.189"/>
	
		<path fill="none" stroke="#000000" stroke-width="0.878" stroke-linecap="round" stroke-linejoin="round" stroke-miterlimit="10" d="
		M211.677,109.087c1.408-0.12,2.557-0.541,3.297-1.108c2.674-2.162,4.158-11.49-4.869-22.652
		c-9.037-11.176-18.145-11.613-21.131-9.317c-0.836,0.675-1.555,2.048-1.873,3.957"/>
	
		<path fill="none" stroke="#000000" stroke-width="0.878" stroke-linecap="round" stroke-linejoin="round" stroke-miterlimit="10" d="
		M211.677,109.087c1.408-0.12,2.557-0.541,3.297-1.108c2.674-2.162,4.158-11.49-4.869-22.652
		c-9.037-11.176-18.145-11.613-21.131-9.317c-0.836,0.675-1.555,2.048-1.873,3.957"/>
	
		<line fill="none" stroke="#000000" stroke-width="1.755" stroke-linecap="round" stroke-linejoin="round" stroke-miterlimit="10" x1="214.864" y1="79.144" x2="217.243" y2="77.48"/>
	
		<line fill="none" stroke="#000000" stroke-width="1.755" stroke-linecap="round" stroke-linejoin="round" stroke-miterlimit="10" x1="214.864" y1="79.144" x2="217.243" y2="77.48"/>
	
		<line fill="none" stroke="#000000" stroke-width="0.878" stroke-linecap="round" stroke-linejoin="round" stroke-miterlimit="10" x1="214.864" y1="77.004" x2="213.2" y2="78.193"/>
	
		<line fill="none" stroke="#000000" stroke-width="0.878" stroke-linecap="round" stroke-linejoin="round" stroke-miterlimit="10" x1="214.864" y1="77.004" x2="213.2" y2="78.193"/>
	
		<line fill="none" stroke="#000000" stroke-width="0.878" stroke-linecap="round" stroke-linejoin="round" stroke-miterlimit="10" x1="215.103" y1="80.809" x2="216.946" y2="79.441"/>
	
		<line fill="none" stroke="#000000" stroke-width="0.878" stroke-linecap="round" stroke-linejoin="round" stroke-miterlimit="10" x1="215.103" y1="80.809" x2="216.946" y2="79.441"/>
	
		<line fill="none" stroke="#000000" stroke-width="0.878" stroke-linecap="round" stroke-linejoin="round" stroke-miterlimit="10" x1="224.915" y1="93.769" x2="223.726" y2="93.65"/>
	
		<line fill="none" stroke="#000000" stroke-width="0.878" stroke-linecap="round" stroke-linejoin="round" stroke-miterlimit="10" x1="224.915" y1="93.769" x2="223.726" y2="93.65"/>
	
		<line fill="none" stroke="#000000" stroke-width="0.878" stroke-linecap="round" stroke-linejoin="round" stroke-miterlimit="10" x1="224.974" y1="94.363" x2="223.665" y2="96.8"/>
	
		<line fill="none" stroke="#000000" stroke-width="0.878" stroke-linecap="round" stroke-linejoin="round" stroke-miterlimit="10" x1="224.974" y1="94.363" x2="223.665" y2="96.8"/>
	
		<path fill="none" stroke="#000000" stroke-width="0.878" stroke-linecap="round" stroke-linejoin="round" stroke-miterlimit="10" d="
		M212.083,107.485c1.268-0.093,1.076-0.396,1.748-0.913c1-0.809,1.814-2.729,1.844-5.418"/>
	
		<path fill="none" stroke="#000000" stroke-width="0.878" stroke-linecap="round" stroke-linejoin="round" stroke-miterlimit="10" d="
		M212.083,107.485c1.268-0.093,1.076-0.396,1.748-0.913c1-0.809,1.814-2.729,1.844-5.418"/>
	
		<line fill="none" stroke="#000000" stroke-width="0.878" stroke-linecap="round" stroke-linejoin="round" stroke-miterlimit="10" x1="208.384" y1="84.86" x2="208.978" y2="84.205"/>
	
		<line fill="none" stroke="#000000" stroke-width="0.878" stroke-linecap="round" stroke-linejoin="round" stroke-miterlimit="10" x1="208.384" y1="84.86" x2="208.978" y2="84.205"/>
	
		<line fill="none" stroke="#000000" stroke-width="0.878" stroke-linecap="round" stroke-linejoin="round" stroke-miterlimit="10" x1="210.106" y1="87.168" x2="210.755" y2="86.505"/>
	
		<line fill="none" stroke="#000000" stroke-width="0.878" stroke-linecap="round" stroke-linejoin="round" stroke-miterlimit="10" x1="210.106" y1="87.168" x2="210.755" y2="86.505"/>
	<path fill="#FFFFFF" d="M209.097,85.147c0.893-0.06,1.307,0.713,0.893,1.189"/>
	<path fill="#FFFFFF" d="M209.097,85.147c0.893-0.06,1.307,0.713,0.893,1.189"/>
	
		<path fill="none" stroke="#000000" stroke-width="0.878" stroke-linecap="round" stroke-linejoin="round" stroke-miterlimit="10" d="
		M209.097,85.147c0.893-0.06,1.307,0.713,0.893,1.189"/>
	
		<path fill="none" stroke="#000000" stroke-width="0.878" stroke-linecap="round" stroke-linejoin="round" stroke-miterlimit="10" d="
		M209.097,85.147c0.893-0.06,1.307,0.713,0.893,1.189"/>
	
		<path fill="none" stroke="#000000" stroke-width="0.878" stroke-linecap="round" stroke-linejoin="round" stroke-miterlimit="10" d="
		M215.206,97.188c-0.682-2.89-2.17-6.255-4.869-9.862"/>
	
		<path fill="none" stroke="#000000" stroke-width="0.878" stroke-linecap="round" stroke-linejoin="round" stroke-miterlimit="10" d="
		M215.206,97.188c-0.682-2.89-2.17-6.255-4.869-9.862"/>
	
		<path fill="none" stroke="#000000" stroke-width="0.878" stroke-linecap="round" stroke-linejoin="round" stroke-miterlimit="10" d="
		M208.681,85.417C208.677,85.416,208.681,85.417,208.681,85.417c-2.791-3.449-6.234-6.235-9.295-7.438"/>
	
		<line fill="none" stroke="#000000" stroke-width="0.878" stroke-linecap="round" stroke-linejoin="round" stroke-miterlimit="10" x1="200.042" y1="78.198" x2="199.933" y2="76.778"/>
	
		<line fill="none" stroke="#000000" stroke-width="0.878" stroke-linecap="round" stroke-linejoin="round" stroke-miterlimit="10" x1="200.042" y1="78.198" x2="199.933" y2="76.778"/>
	
		<path fill="none" stroke="#000000" stroke-width="0.878" stroke-linecap="round" stroke-linejoin="round" stroke-miterlimit="10" d="
		M194.944,76.836c-2.006-0.167-3.586,0.253-4.514,0.965c-0.076,0.062-0.152,0.131-0.23,0.208"/>
	
		<path fill="none" stroke="#000000" stroke-width="0.878" stroke-linecap="round" stroke-linejoin="round" stroke-miterlimit="10" d="
		M194.944,76.836c-2.006-0.167-3.586,0.253-4.514,0.965c-0.076,0.062-0.152,0.131-0.23,0.208"/>
	
		<line fill="none" stroke="#000000" stroke-width="0.878" stroke-linecap="round" stroke-linejoin="round" stroke-miterlimit="10" x1="215.235" y1="96.669" x2="216.44" y2="97.107"/>
	
		<line fill="none" stroke="#000000" stroke-width="0.878" stroke-linecap="round" stroke-linejoin="round" stroke-miterlimit="10" x1="215.235" y1="96.669" x2="216.44" y2="97.107"/>
	
		<line fill="none" stroke="#000000" stroke-width="0.878" stroke-linecap="round" stroke-linejoin="round" stroke-miterlimit="10" x1="215.782" y1="100.932" x2="216.876" y2="101.26"/>
	
		<line fill="none" stroke="#000000" stroke-width="0.878" stroke-linecap="round" stroke-linejoin="round" stroke-miterlimit="10" x1="215.782" y1="100.932" x2="216.876" y2="101.26"/>
	
		<path fill="none" stroke="#000000" stroke-width="0.878" stroke-linecap="round" stroke-linejoin="round" stroke-miterlimit="10" d="
		M182.62,80.964c2.984-2.296,12.023-1.82,21.062,9.356c9.025,11.163,7.609,20.451,4.938,22.613"/>
	
		<path fill="none" stroke="#000000" stroke-width="0.878" stroke-linecap="round" stroke-linejoin="round" stroke-miterlimit="10" d="
		M182.62,80.964c2.984-2.296,12.023-1.82,21.062,9.356c9.025,11.163,7.609,20.451,4.938,22.613"/>
	
		<line fill="none" stroke="#000000" stroke-width="0.878" stroke-linecap="round" stroke-linejoin="round" stroke-miterlimit="10" x1="144.679" y1="111.561" x2="182.833" y2="80.849"/>
	
		<line fill="none" stroke="#000000" stroke-width="0.878" stroke-linecap="round" stroke-linejoin="round" stroke-miterlimit="10" x1="144.679" y1="111.561" x2="182.833" y2="80.849"/>
	
		<line fill="none" stroke="#000000" stroke-width="0.878" stroke-linecap="round" stroke-linejoin="round" stroke-miterlimit="10" x1="170.589" y1="143.586" x2="208.853" y2="112.762"/>
	
		<line fill="none" stroke="#000000" stroke-width="0.878" stroke-linecap="round" stroke-linejoin="round" stroke-miterlimit="10" x1="170.589" y1="143.586" x2="208.853" y2="112.762"/>
	<path fill="#FFFFFF" d="M159.546,108.719c0,0.482-0.832,0.874-1.859,0.874c-1.024,0-1.856-0.392-1.856-0.874
		c0-0.483,0.832-0.873,1.856-0.873C158.714,107.845,159.546,108.237,159.546,108.719"/>
	<path fill="#FFFFFF" d="M159.546,108.719L159.546,108.719c0,0.482-0.832,0.874-1.859,0.874c-1.024,0-1.856-0.392-1.856-0.874
		c0-0.483,0.832-0.873,1.856-0.873C158.714,107.845,159.546,108.237,159.546,108.719z"/>
	
		<path fill="none" stroke="#000000" stroke-width="0.878" stroke-linecap="round" stroke-linejoin="round" stroke-miterlimit="10" d="
		M159.546,108.719L159.546,108.719c0,0.482-0.832,0.874-1.859,0.874c-1.024,0-1.856-0.392-1.856-0.874
		c0-0.483,0.832-0.873,1.856-0.873C158.714,107.845,159.546,108.237,159.546,108.719z"/>
	
		<path fill="none" stroke="#000000" stroke-width="0.878" stroke-linecap="round" stroke-linejoin="round" stroke-miterlimit="10" d="
		M159.546,108.719L159.546,108.719c0,0.482-0.832,0.874-1.859,0.874c-1.024,0-1.856-0.392-1.856-0.874
		c0-0.483,0.832-0.873,1.856-0.873C158.714,107.845,159.546,108.237,159.546,108.719z"/>
	
		<path fill="none" stroke="#000000" stroke-width="0.878" stroke-linecap="round" stroke-linejoin="round" stroke-miterlimit="10" d="
		M145.31,111.508c3.854-1.293,11.762,0.292,19.67,10.071c7.33,9.064,7.775,16.894,6.25,20.675"/>
	
		<path fill="none" stroke="#000000" stroke-width="0.878" stroke-linecap="round" stroke-linejoin="round" stroke-miterlimit="10" d="
		M145.31,111.508c3.854-1.293,11.762,0.292,19.67,10.071c7.33,9.064,7.775,16.894,6.25,20.675"/>
	
		<path fill="none" stroke="#000000" stroke-width="0.878" stroke-linecap="round" stroke-linejoin="round" stroke-miterlimit="10" d="
		M146.105,110.475c2.985-2.296,12.022-1.821,21.062,9.356c9.026,11.161,7.61,20.45,4.938,22.612"/>
	
		<path fill="none" stroke="#000000" stroke-width="0.878" stroke-linecap="round" stroke-linejoin="round" stroke-miterlimit="10" d="
		M146.105,110.475c2.985-2.296,12.022-1.821,21.062,9.356c9.026,11.161,7.61,20.45,4.938,22.612"/>
	
		<line fill="none" stroke="#000000" stroke-width="1.755" stroke-linecap="round" stroke-linejoin="round" stroke-miterlimit="10" x1="112.857" y1="103.216" x2="154.544" y2="111.6"/>
	
		<line fill="none" stroke="#000000" stroke-width="1.755" stroke-linecap="round" stroke-linejoin="round" stroke-miterlimit="10" x1="112.857" y1="103.216" x2="154.544" y2="111.6"/>
	
		<line fill="none" stroke="#000000" stroke-width="1.755" stroke-linecap="round" stroke-linejoin="round" stroke-miterlimit="10" x1="120.353" y1="96.323" x2="189.981" y2="127.382"/>
	
		<line fill="none" stroke="#000000" stroke-width="1.755" stroke-linecap="round" stroke-linejoin="round" stroke-miterlimit="10" x1="120.353" y1="96.323" x2="189.981" y2="127.382"/>
	
		<line fill="none" stroke="#000000" stroke-width="1.755" stroke-linecap="round" stroke-linejoin="round" stroke-miterlimit="10" x1="154.474" y1="46.503" x2="154.472" y2="111.8"/>
	
		<line fill="none" stroke="#000000" stroke-width="1.755" stroke-linecap="round" stroke-linejoin="round" stroke-miterlimit="10" x1="154.474" y1="46.503" x2="154.472" y2="111.8"/>
	
		<path fill="none" stroke="#000000" stroke-width="0.878" stroke-linecap="round" stroke-linejoin="round" stroke-miterlimit="10" d="
		M132.546,114.696c3.758-2.891,15.137-2.292,26.514,11.777c11.363,14.05,9.582,25.744,6.215,28.466"/>
	
		<path fill="none" stroke="#000000" stroke-width="0.878" stroke-linecap="round" stroke-linejoin="round" stroke-miterlimit="10" d="
		M132.546,114.696c3.758-2.891,15.137-2.292,26.514,11.777c11.363,14.05,9.582,25.744,6.215,28.466"/>
	
		<line fill="none" stroke="#000000" stroke-width="0.878" stroke-linecap="round" stroke-linejoin="round" stroke-miterlimit="10" x1="145.224" y1="111.451" x2="134.837" y2="113.636"/>
	
		<line fill="none" stroke="#000000" stroke-width="0.878" stroke-linecap="round" stroke-linejoin="round" stroke-miterlimit="10" x1="145.224" y1="111.451" x2="134.837" y2="113.636"/>
	
		<line fill="none" stroke="#000000" stroke-width="0.878" stroke-linecap="round" stroke-linejoin="round" stroke-miterlimit="10" x1="166.542" y1="153.531" x2="171.241" y2="142.271"/>
	
		<line fill="none" stroke="#000000" stroke-width="0.878" stroke-linecap="round" stroke-linejoin="round" stroke-miterlimit="10" x1="166.542" y1="153.531" x2="171.241" y2="142.271"/>
	
		<line fill="none" stroke="#000000" stroke-width="0.878" stroke-linecap="round" stroke-linejoin="round" stroke-miterlimit="10" x1="171.681" y1="140.307" x2="167.853" y2="148.174"/>
	
		<line fill="none" stroke="#000000" stroke-width="0.878" stroke-linecap="round" stroke-linejoin="round" stroke-miterlimit="10" x1="171.681" y1="140.307" x2="167.853" y2="148.174"/>
	
		<line fill="none" stroke="#000000" stroke-width="0.878" stroke-linecap="round" stroke-linejoin="round" stroke-miterlimit="10" x1="167.023" y1="124.431" x2="161.73" y2="129.922"/>
	
		<line fill="none" stroke="#000000" stroke-width="0.878" stroke-linecap="round" stroke-linejoin="round" stroke-miterlimit="10" x1="167.023" y1="124.431" x2="161.73" y2="129.922"/>
	
		<polyline fill="none" stroke="#000000" stroke-width="0.878" stroke-linecap="round" stroke-linejoin="round" stroke-miterlimit="10" points="
		170.259,144.678 171.022,145.006 168.509,150.797 167.746,150.361 	"/>
	
		<polyline fill="none" stroke="#000000" stroke-width="0.878" stroke-linecap="round" stroke-linejoin="round" stroke-miterlimit="10" points="
		170.259,144.678 171.022,145.006 168.509,150.797 167.746,150.361 	"/>
	
		<line fill="none" stroke="#000000" stroke-width="0.878" stroke-linecap="round" stroke-linejoin="round" stroke-miterlimit="10" x1="134.224" y1="145.854" x2="158.56" y2="126.424"/>
	
		<line fill="none" stroke="#000000" stroke-width="0.878" stroke-linecap="round" stroke-linejoin="round" stroke-miterlimit="10" x1="134.224" y1="145.854" x2="158.56" y2="126.424"/>
	
		<line fill="none" stroke="#000000" stroke-width="0.878" stroke-linecap="round" stroke-linejoin="round" stroke-miterlimit="10" x1="134.99" y1="147.164" x2="159.544" y2="127.299"/>
	
		<line fill="none" stroke="#000000" stroke-width="0.878" stroke-linecap="round" stroke-linejoin="round" stroke-miterlimit="10" x1="134.99" y1="147.164" x2="159.544" y2="127.299"/>
	<polyline fill="#FFFFFF" points="161.623,128.392 154.539,134.098 156.015,135.965 163.195,130.262 161.623,128.392 	"/>
	<polygon fill="#FFFFFF" points="161.623,128.392 154.539,134.098 156.015,135.965 163.195,130.262 	"/>
	
		<polygon fill="none" stroke="#000000" stroke-width="0.878" stroke-linecap="round" stroke-linejoin="round" stroke-miterlimit="10" points="
		161.623,128.392 154.539,134.098 156.015,135.965 163.195,130.262 	"/>
	
		<polygon fill="none" stroke="#000000" stroke-width="0.878" stroke-linecap="round" stroke-linejoin="round" stroke-miterlimit="10" points="
		161.623,128.392 154.539,134.098 156.015,135.965 163.195,130.262 	"/>
	<polyline points="154.244,133.704 153.751,134.098 155.818,136.555 156.308,136.163 154.244,133.704 	"/>
	<polygon points="154.244,133.704 153.751,134.098 155.818,136.555 156.308,136.163 	"/>
	
		<polygon fill="none" stroke="#000000" stroke-width="0.439" stroke-linecap="round" stroke-linejoin="round" stroke-miterlimit="10" points="
		154.244,133.704 153.751,134.098 155.818,136.555 156.308,136.163 	"/>
	
		<polygon fill="none" stroke="#000000" stroke-width="0.439" stroke-linecap="round" stroke-linejoin="round" stroke-miterlimit="10" points="
		154.244,133.704 153.751,134.098 155.818,136.555 156.308,136.163 	"/>
	
		<line fill="none" stroke="#000000" stroke-width="0.878" stroke-linecap="round" stroke-linejoin="round" stroke-miterlimit="10" x1="160.146" y1="129.573" x2="161.818" y2="131.638"/>
	
		<line fill="none" stroke="#000000" stroke-width="0.878" stroke-linecap="round" stroke-linejoin="round" stroke-miterlimit="10" x1="160.146" y1="129.573" x2="161.818" y2="131.638"/>
	<polyline fill="#FFFFFF" points="167.929,141.924 165.712,143.717 160.552,147.234 161.337,149.793 166.857,146.068 
		168.816,144.48 167.929,141.924 	"/>
	<polygon fill="#FFFFFF" points="167.929,141.924 165.712,143.717 160.552,147.234 161.337,149.793 166.857,146.068 168.816,144.48 
			"/>
	
		<polygon fill="none" stroke="#000000" stroke-width="0.878" stroke-linecap="round" stroke-linejoin="round" stroke-miterlimit="10" points="
		167.929,141.924 165.712,143.717 160.552,147.234 161.337,149.793 166.857,146.068 168.816,144.48 	"/>
	
		<polygon fill="none" stroke="#000000" stroke-width="0.878" stroke-linecap="round" stroke-linejoin="round" stroke-miterlimit="10" points="
		167.929,141.924 165.712,143.717 160.552,147.234 161.337,149.793 166.857,146.068 168.816,144.48 	"/>
	<polyline points="160.255,146.842 159.763,147.234 160.845,150.578 161.337,150.186 160.255,146.842 	"/>
	<polygon points="160.255,146.842 159.763,147.234 160.845,150.578 161.337,150.186 	"/>
	
		<polygon fill="none" stroke="#000000" stroke-width="0.439" stroke-linecap="round" stroke-linejoin="round" stroke-miterlimit="10" points="
		160.255,146.842 159.763,147.234 160.845,150.578 161.337,150.186 	"/>
	
		<polygon fill="none" stroke="#000000" stroke-width="0.439" stroke-linecap="round" stroke-linejoin="round" stroke-miterlimit="10" points="
		160.255,146.842 159.763,147.234 160.845,150.578 161.337,150.186 	"/>
	<polyline fill="#FFFFFF" points="167.832,141.924 166.947,141.727 160.453,147.037 	"/>
	<polyline fill="#FFFFFF" points="167.832,141.924 166.947,141.727 160.453,147.037 	"/>
	
		<polyline fill="none" stroke="#000000" stroke-width="0.878" stroke-linecap="round" stroke-linejoin="round" stroke-miterlimit="10" points="
		167.832,141.924 166.947,141.727 160.453,147.037 	"/>
	
		<polyline fill="none" stroke="#000000" stroke-width="0.878" stroke-linecap="round" stroke-linejoin="round" stroke-miterlimit="10" points="
		167.832,141.924 166.947,141.727 160.453,147.037 	"/>
	
		<line fill="none" stroke="#000000" stroke-width="0.878" stroke-linecap="round" stroke-linejoin="round" stroke-miterlimit="10" x1="166.257" y1="143.301" x2="167.142" y2="145.66"/>
	
		<line fill="none" stroke="#000000" stroke-width="0.878" stroke-linecap="round" stroke-linejoin="round" stroke-miterlimit="10" x1="166.257" y1="143.301" x2="167.142" y2="145.66"/>
	
		<line fill="none" stroke="#000000" stroke-width="0.878" stroke-linecap="round" stroke-linejoin="round" stroke-miterlimit="10" x1="144.83" y1="114.922" x2="153.248" y2="112.297"/>
	
		<line fill="none" stroke="#000000" stroke-width="0.878" stroke-linecap="round" stroke-linejoin="round" stroke-miterlimit="10" x1="144.83" y1="114.922" x2="153.248" y2="112.297"/>
	
		<line fill="none" stroke="#000000" stroke-width="1.316" stroke-linecap="round" stroke-linejoin="round" stroke-miterlimit="10" x1="140.79" y1="124.1" x2="149.046" y2="117.3"/>
	
		<line fill="none" stroke="#000000" stroke-width="1.316" stroke-linecap="round" stroke-linejoin="round" stroke-miterlimit="10" x1="140.79" y1="124.1" x2="149.046" y2="117.3"/>
	
		<line fill="none" stroke="#000000" stroke-width="0.878" stroke-linecap="round" stroke-linejoin="round" stroke-miterlimit="10" x1="131.802" y1="120.458" x2="140.058" y2="113.657"/>
	
		<line fill="none" stroke="#000000" stroke-width="0.878" stroke-linecap="round" stroke-linejoin="round" stroke-miterlimit="10" x1="131.802" y1="120.458" x2="140.058" y2="113.657"/>
	
		<path fill="none" stroke="#000000" stroke-width="0.878" stroke-linecap="round" stroke-linejoin="round" stroke-miterlimit="10" d="
		M151.066,134.464c10.531,13.625,8.756,24.854,5.467,27.516"/>
	
		<path fill="none" stroke="#000000" stroke-width="0.878" stroke-linecap="round" stroke-linejoin="round" stroke-miterlimit="10" d="
		M151.066,134.464c10.531,13.625,8.756,24.854,5.467,27.516"/>
	
		<path fill="none" stroke="#000000" stroke-width="0.878" stroke-linecap="round" stroke-linejoin="round" stroke-miterlimit="10" d="
		M140.29,124.225c3.103,1.999,6.397,4.879,9.696,8.887"/>
	
		<path fill="none" stroke="#000000" stroke-width="0.878" stroke-linecap="round" stroke-linejoin="round" stroke-miterlimit="10" d="
		M140.29,124.225c3.103,1.999,6.397,4.879,9.696,8.887"/>
	
		<path fill="none" stroke="#000000" stroke-width="1.316" stroke-linecap="round" stroke-linejoin="round" stroke-miterlimit="10" d="
		M131.568,120.598c2.572,0.459,5.547,1.581,8.721,3.626"/>
	
		<path fill="none" stroke="#000000" stroke-width="1.316" stroke-linecap="round" stroke-linejoin="round" stroke-miterlimit="10" d="
		M131.568,120.598c2.572,0.459,5.547,1.581,8.721,3.626"/>
	
		<path fill="none" stroke="#000000" stroke-width="0.878" stroke-linecap="round" stroke-linejoin="round" stroke-miterlimit="10" d="
		M123.802,121.737c1.516-1.165,4.271-1.762,7.764-1.139"/>
	
		<path fill="none" stroke="#000000" stroke-width="0.878" stroke-linecap="round" stroke-linejoin="round" stroke-miterlimit="10" d="
		M123.802,121.737c1.516-1.165,4.271-1.762,7.764-1.139"/>
	
		<line fill="none" stroke="#000000" stroke-width="0.878" stroke-linecap="round" stroke-linejoin="round" stroke-miterlimit="10" x1="98.367" y1="142.355" x2="132.76" y2="114.619"/>
	
		<line fill="none" stroke="#000000" stroke-width="0.878" stroke-linecap="round" stroke-linejoin="round" stroke-miterlimit="10" x1="98.367" y1="142.355" x2="132.76" y2="114.619"/>
	
		<line fill="none" stroke="#000000" stroke-width="0.878" stroke-linecap="round" stroke-linejoin="round" stroke-miterlimit="10" x1="130.617" y1="182.795" x2="165.339" y2="154.842"/>
	
		<line fill="none" stroke="#000000" stroke-width="0.878" stroke-linecap="round" stroke-linejoin="round" stroke-miterlimit="10" x1="130.617" y1="182.795" x2="165.339" y2="154.842"/>
	<polyline fill="#FFFFFF" points="182.327,180.498 146.689,209.133 152.374,211.975 188.231,183.121 182.327,180.498 	"/>
	<polygon fill="#FFFFFF" points="182.327,180.498 146.689,209.133 152.374,211.975 188.231,183.121 	"/>
	
		<polygon fill="none" stroke="#000000" stroke-width="0.878" stroke-linecap="round" stroke-linejoin="round" stroke-miterlimit="10" points="
		182.327,180.498 146.689,209.133 152.374,211.975 188.231,183.121 	"/>
	
		<polygon fill="none" stroke="#000000" stroke-width="0.878" stroke-linecap="round" stroke-linejoin="round" stroke-miterlimit="10" points="
		182.327,180.498 146.689,209.133 152.374,211.975 188.231,183.121 	"/>
	<polyline fill="#FFFFFF" points="180.462,190.643 153.685,212.193 159.371,215.035 180.112,198.441 183.96,192.391 
		180.462,190.643 	"/>
	<polygon fill="#FFFFFF" points="180.462,190.643 153.685,212.193 159.371,215.035 180.112,198.441 183.96,192.391 	"/>
	
		<polygon fill="none" stroke="#000000" stroke-width="0.878" stroke-linecap="round" stroke-linejoin="round" stroke-miterlimit="10" points="
		180.462,190.643 153.685,212.193 159.371,215.035 180.112,198.441 183.96,192.391 	"/>
	
		<polygon fill="none" stroke="#000000" stroke-width="0.878" stroke-linecap="round" stroke-linejoin="round" stroke-miterlimit="10" points="
		180.462,190.643 153.685,212.193 159.371,215.035 180.112,198.441 183.96,192.391 	"/>
	<polyline fill="#FFFFFF" points="175.55,177.439 139.911,206.072 145.595,208.914 181.454,180.061 175.55,177.439 	"/>
	<polygon fill="#FFFFFF" points="175.55,177.439 139.911,206.072 145.595,208.914 181.454,180.061 	"/>
	
		<polygon fill="none" stroke="#000000" stroke-width="0.878" stroke-linecap="round" stroke-linejoin="round" stroke-miterlimit="10" points="
		175.55,177.439 139.911,206.072 145.595,208.914 181.454,180.061 	"/>
	
		<polygon fill="none" stroke="#000000" stroke-width="0.878" stroke-linecap="round" stroke-linejoin="round" stroke-miterlimit="10" points="
		175.55,177.439 139.911,206.072 145.595,208.914 181.454,180.061 	"/>
	<polyline fill="#FFFFFF" points="124.168,166.945 109.738,178.531 115.421,181.373 130.072,169.57 124.168,166.945 	"/>
	<polygon fill="#FFFFFF" points="124.168,166.945 109.738,178.531 115.421,181.373 130.072,169.57 	"/>
	
		<polygon fill="none" stroke="#000000" stroke-width="0.878" stroke-linecap="round" stroke-linejoin="round" stroke-miterlimit="10" points="
		124.168,166.945 109.738,178.531 115.421,181.373 130.072,169.57 	"/>
	
		<polygon fill="none" stroke="#000000" stroke-width="0.878" stroke-linecap="round" stroke-linejoin="round" stroke-miterlimit="10" points="
		124.168,166.945 109.738,178.531 115.421,181.373 130.072,169.57 	"/>
	<polyline fill="#FFFFFF" points="131.384,170.006 116.953,181.594 122.638,184.434 137.288,172.629 131.384,170.006 	"/>
	<polygon fill="#FFFFFF" points="131.384,170.006 116.953,181.594 122.638,184.434 137.288,172.629 	"/>
	
		<polygon fill="none" stroke="#000000" stroke-width="0.878" stroke-linecap="round" stroke-linejoin="round" stroke-miterlimit="10" points="
		131.384,170.006 116.953,181.594 122.638,184.434 137.288,172.629 	"/>
	
		<polygon fill="none" stroke="#000000" stroke-width="0.878" stroke-linecap="round" stroke-linejoin="round" stroke-miterlimit="10" points="
		131.384,170.006 116.953,181.594 122.638,184.434 137.288,172.629 	"/>
	<polyline fill="#FFFFFF" points="148,165.197 112.361,193.832 118.046,196.676 153.904,167.82 148,165.197 	"/>
	<polygon fill="#FFFFFF" points="148,165.197 112.361,193.832 118.046,196.676 153.904,167.82 	"/>
	
		<polygon fill="none" stroke="#000000" stroke-width="0.878" stroke-linecap="round" stroke-linejoin="round" stroke-miterlimit="10" points="
		148,165.197 112.361,193.832 118.046,196.676 153.904,167.82 	"/>
	
		<polygon fill="none" stroke="#000000" stroke-width="0.878" stroke-linecap="round" stroke-linejoin="round" stroke-miterlimit="10" points="
		148,165.197 112.361,193.832 118.046,196.676 153.904,167.82 	"/>
	<polyline fill="#FFFFFF" points="154.998,168.258 119.357,196.893 125.042,199.734 160.902,170.881 154.998,168.258 	"/>
	<polygon fill="#FFFFFF" points="154.998,168.258 119.357,196.893 125.042,199.734 160.902,170.881 	"/>
	
		<polygon fill="none" stroke="#000000" stroke-width="0.878" stroke-linecap="round" stroke-linejoin="round" stroke-miterlimit="10" points="
		154.998,168.258 119.357,196.893 125.042,199.734 160.902,170.881 	"/>
	
		<polygon fill="none" stroke="#000000" stroke-width="0.878" stroke-linecap="round" stroke-linejoin="round" stroke-miterlimit="10" points="
		154.998,168.258 119.357,196.893 125.042,199.734 160.902,170.881 	"/>
	<polyline fill="#FFFFFF" points="161.775,171.318 126.136,199.953 131.82,202.795 167.679,173.941 161.775,171.318 	"/>
	<polygon fill="#FFFFFF" points="161.775,171.318 126.136,199.953 131.82,202.795 167.679,173.941 	"/>
	
		<polygon fill="none" stroke="#000000" stroke-width="0.878" stroke-linecap="round" stroke-linejoin="round" stroke-miterlimit="10" points="
		161.775,171.318 126.136,199.953 131.82,202.795 167.679,173.941 	"/>
	
		<polygon fill="none" stroke="#000000" stroke-width="0.878" stroke-linecap="round" stroke-linejoin="round" stroke-miterlimit="10" points="
		161.775,171.318 126.136,199.953 131.82,202.795 167.679,173.941 	"/>
	<polyline fill="#FFFFFF" points="168.773,174.379 133.132,203.014 138.816,205.855 174.675,177.002 168.773,174.379 	"/>
	<polygon fill="#FFFFFF" points="168.773,174.379 133.132,203.014 138.816,205.855 174.675,177.002 	"/>
	
		<polygon fill="none" stroke="#000000" stroke-width="0.878" stroke-linecap="round" stroke-linejoin="round" stroke-miterlimit="10" points="
		168.773,174.379 133.132,203.014 138.816,205.855 174.675,177.002 	"/>
	
		<polygon fill="none" stroke="#000000" stroke-width="0.878" stroke-linecap="round" stroke-linejoin="round" stroke-miterlimit="10" points="
		168.773,174.379 133.132,203.014 138.816,205.855 174.675,177.002 	"/>
	<path fill="#FFFFFF" d="M197.954,124.482c0,0.644-0.393,1.166-0.875,1.166s-0.875-0.522-0.875-1.166
		c0-0.643,0.393-1.166,0.875-1.166S197.954,123.838,197.954,124.482"/>
	<path fill="#FFFFFF" d="M197.954,124.482L197.954,124.482c0,0.644-0.393,1.166-0.875,1.166s-0.875-0.522-0.875-1.166
		c0-0.643,0.393-1.166,0.875-1.166S197.954,123.838,197.954,124.482z"/>
	
		<path fill="none" stroke="#000000" stroke-width="0.878" stroke-linecap="round" stroke-linejoin="round" stroke-miterlimit="10" d="
		M197.954,124.482L197.954,124.482c0,0.644-0.393,1.166-0.875,1.166s-0.875-0.522-0.875-1.166c0-0.643,0.393-1.166,0.875-1.166
		S197.954,123.838,197.954,124.482z"/>
	
		<path fill="none" stroke="#000000" stroke-width="0.878" stroke-linecap="round" stroke-linejoin="round" stroke-miterlimit="10" d="
		M197.954,124.482L197.954,124.482c0,0.644-0.393,1.166-0.875,1.166s-0.875-0.522-0.875-1.166c0-0.643,0.393-1.166,0.875-1.166
		S197.954,123.838,197.954,124.482z"/>
	<path fill="#FFFFFF" d="M199.558,123.025c0,0.644-0.393,1.166-0.875,1.166s-0.875-0.522-0.875-1.166
		c0-0.645,0.393-1.167,0.875-1.167S199.558,122.381,199.558,123.025"/>
	<path fill="#FFFFFF" d="M199.558,123.025L199.558,123.025c0,0.644-0.393,1.166-0.875,1.166s-0.875-0.522-0.875-1.166
		c0-0.645,0.393-1.167,0.875-1.167S199.558,122.381,199.558,123.025z"/>
	
		<path fill="none" stroke="#000000" stroke-width="0.878" stroke-linecap="round" stroke-linejoin="round" stroke-miterlimit="10" d="
		M199.558,123.025L199.558,123.025c0,0.644-0.393,1.166-0.875,1.166s-0.875-0.522-0.875-1.166c0-0.645,0.393-1.167,0.875-1.167
		S199.558,122.381,199.558,123.025z"/>
	
		<path fill="none" stroke="#000000" stroke-width="0.878" stroke-linecap="round" stroke-linejoin="round" stroke-miterlimit="10" d="
		M199.558,123.025L199.558,123.025c0,0.644-0.393,1.166-0.875,1.166s-0.875-0.522-0.875-1.166c0-0.645,0.393-1.167,0.875-1.167
		S199.558,122.381,199.558,123.025z"/>
	
		<line fill="none" stroke="#000000" stroke-width="0.878" stroke-linecap="round" stroke-linejoin="round" stroke-miterlimit="10" x1="199.704" y1="123.025" x2="199.995" y2="119.898"/>
	
		<line fill="none" stroke="#000000" stroke-width="0.878" stroke-linecap="round" stroke-linejoin="round" stroke-miterlimit="10" x1="196.06" y1="124.774" x2="195.767" y2="123.609"/>
	
		<line fill="none" stroke="#000000" stroke-width="0.878" stroke-linecap="round" stroke-linejoin="round" stroke-miterlimit="10" x1="196.06" y1="124.774" x2="195.767" y2="123.609"/>
</g>
</svg>
