<?xml version="1.0" encoding="UTF-8" standalone="no"?>
<svg xmlns="http://www.w3.org/2000/svg" width="538.0127" height="605" viewBox="-269.00635 -302.5 538.0127 605">
<title>Carpet of Flower of Life pattern (center of each circle on circumference of six surrounding circles) with 91 complete circles and 36 partial circular arcs</title>
<g stroke="#000" stroke-width="1.25" fill="none">
<circle cy="-250" r="50"/>
<circle cx="43.30127" cy="-225" r="50"/>
<circle cx="86.60254" cy="-200" r="50"/>
<circle cx="129.90381" cy="-175" r="50"/>
<circle cx="173.20508" cy="-150" r="50"/>
<circle cx="216.50635" cy="-125" r="50"/>
<circle cx="-43.30127" cy="-225" r="50"/>
<circle cy="-200" r="50"/>
<circle cx="43.30127" cy="-175" r="50"/>
<circle cx="86.60254" cy="-150" r="50"/>
<circle cx="129.90381" cy="-125" r="50"/>
<circle cx="173.20508" cy="-100" r="50"/>
<circle cx="216.50635" cy="-75" r="50"/>
<circle cx="-86.60254" cy="-200" r="50"/>
<circle cx="-43.30127" cy="-175" r="50"/>
<circle cy="-150" r="50"/>
<circle cx="43.30127" cy="-125" r="50"/>
<circle cx="86.60254" cy="-100" r="50"/>
<circle cx="129.90381" cy="-75" r="50"/>
<circle cx="173.20508" cy="-50" r="50"/>
<circle cx="216.50635" cy="-25" r="50"/>
<circle cx="-129.90381" cy="-175" r="50"/>
<circle cx="-86.60254" cy="-150" r="50"/>
<circle cx="-43.30127" cy="-125" r="50"/>
<circle cy="-100" r="50"/>
<circle cx="43.30127" cy="-75" r="50"/>
<circle cx="86.60254" cy="-50" r="50"/>
<circle cx="129.90381" cy="-25" r="50"/>
<circle cx="173.20508" r="50"/>
<circle cx="216.50635" cy="25" r="50"/>
<circle cx="-173.20508" cy="-150" r="50"/>
<circle cx="-129.90381" cy="-125" r="50"/>
<circle cx="-86.60254" cy="-100" r="50"/>
<circle cx="-43.30127" cy="-75" r="50"/>
<circle cy="-50" r="50"/>
<circle cx="43.30127" cy="-25" r="50"/>
<circle cx="86.60254" r="50"/>
<circle cx="129.90381" cy="25" r="50"/>
<circle cx="173.20508" cy="50" r="50"/>
<circle cx="216.50635" cy="75" r="50"/>
<circle cx="-216.50635" cy="-125" r="50"/>
<circle cx="-173.20508" cy="-100" r="50"/>
<circle cx="-129.90381" cy="-75" r="50"/>
<circle cx="-86.60254" cy="-50" r="50"/>
<circle cx="-43.30127" cy="-25" r="50"/>
<circle r="50"/>
<circle cx="43.30127" cy="25" r="50"/>
<circle cx="86.60254" cy="50" r="50"/>
<circle cx="129.90381" cy="75" r="50"/>
<circle cx="173.20508" cy="100" r="50"/>
<circle cx="216.50635" cy="125" r="50"/>
<circle cx="-216.50635" cy="-75" r="50"/>
<circle cx="-173.20508" cy="-50" r="50"/>
<circle cx="-129.90381" cy="-25" r="50"/>
<circle cx="-86.60254" r="50"/>
<circle cx="-43.30127" cy="25" r="50"/>
<circle cy="50" r="50"/>
<circle cx="43.30127" cy="75" r="50"/>
<circle cx="86.60254" cy="100" r="50"/>
<circle cx="129.90381" cy="125" r="50"/>
<circle cx="173.20508" cy="150" r="50"/>
<circle cx="-216.50635" cy="-25" r="50"/>
<circle cx="-173.20508" r="50"/>
<circle cx="-129.90381" cy="25" r="50"/>
<circle cx="-86.60254" cy="50" r="50"/>
<circle cx="-43.30127" cy="75" r="50"/>
<circle cy="100" r="50"/>
<circle cx="43.30127" cy="125" r="50"/>
<circle cx="86.60254" cy="150" r="50"/>
<circle cx="129.90381" cy="175" r="50"/>
<circle cx="-216.50635" cy="25" r="50"/>
<circle cx="-173.20508" cy="50" r="50"/>
<circle cx="-129.90381" cy="75" r="50"/>
<circle cx="-86.60254" cy="100" r="50"/>
<circle cx="-43.30127" cy="125" r="50"/>
<circle cy="150" r="50"/>
<circle cx="43.30127" cy="175" r="50"/>
<circle cx="86.60254" cy="200" r="50"/>
<circle cx="-216.50635" cy="75" r="50"/>
<circle cx="-173.20508" cy="100" r="50"/>
<circle cx="-129.90381" cy="125" r="50"/>
<circle cx="-86.60254" cy="150" r="50"/>
<circle cx="-43.30127" cy="175" r="50"/>
<circle cy="200" r="50"/>
<circle cx="43.30127" cy="225" r="50"/>
<circle cx="-216.50635" cy="125" r="50"/>
<circle cx="-173.20508" cy="150" r="50"/>
<circle cx="-129.90381" cy="175" r="50"/>
<circle cx="-86.60254" cy="200" r="50"/>
<circle cx="-43.30127" cy="225" r="50"/>
<circle cy="250" r="50"/>
<path d="M43.30127,-275A50,50 0 0,1 -43.30127,-275"/>
<path d="M259.80762,-100A50,50 0 0,1 216.50635,-175"/>
<path d="M86.60254,-250A50,50 0 0,1 0,-300"/>
<path d="M0,-300A50,50 0 1,1 -86.6026,-250"/>
<path d="M129.90381,-225A50,50 0 0,1 43.30127,-275"/>
<path d="M173.20508,-200A50,50 0 0,1 86.60254,-250"/>
<path d="M216.50635,-175A50,50 0 0,1 129.90381,-225"/>
<path d="M259.80762,-150A50,50 0 0,1 173.20508,-200"/>
<path d="M259.80762,-50A50,50 0 1,1 259.80762,-150"/>
<path d="M-43.30127,-275A50,50 0 1,1 -129.90381,-225"/>
<path d="M259.80762,0A50,50 0 1,1 259.80762,-100"/>
<path d="M-86.60254,-250A50,50 0 1,1 -173.20508,-200"/>
<path d="M259.80762,50A50,50 0 1,1 259.80762,-50"/>
<path d="M-129.90381,-225A50,50 0 1,1 -216.50635,-175"/>
<path d="M259.80762,100A50,50 0 1,1 259.80762,0"/>
<path d="M-216.50635,-175A50,50 0 0,1 -259.80762,-100"/>
<path d="M-259.80762,-150A50,50 0 1,1 -259.80762,-50"/>
<path d="M-173.20508,-200A50,50 0 1,1 -259.80762,-150"/>
<path d="M173.20508,200A50,50 0 1,1 259.80762,150"/>
<path d="M259.80762,150A50,50 0 1,1 259.80762,50"/>
<path d="M216.50635,175A50,50 0 0,1 259.80762,100"/>
<path d="M-259.80762,-100A50,50 0 1,1 -259.80762,0"/>
<path d="M129.90381,225A50,50 0 1,1 216.50635,175"/>
<path d="M-259.80762,-50A50,50 0 1,1 -259.80762,50"/>
<path d="M86.60254,250A50,50 0 1,1 173.20508,200"/>
<path d="M-259.80762,0A50,50 0 1,1 -259.80762,100"/>
<path d="M43.30127,275A50,50 0 1,1 129.90381,225"/>
<path d="M-259.80762,150A50,50 0 0,1 -173.20508,200"/>
<path d="M-259.80762,50A50,50 0 1,1 -259.80762,150"/>
<path d="M-216.50635,175A50,50 0 0,1 -129.90381,225"/>
<path d="M-173.20508,200A50,50 0 0,1 -86.60254,250"/>
<path d="M-129.90381,225A50,50 0 0,1 -43.30127,275"/>
<path d="M-86.60254,250A50,50 0 0,1 0,300"/>
<path d="M0,300A50,50 0 1,1 86.6026,250"/>
<path d="M-259.80762,100A50,50 0 0,1 -216.50635,175"/>
<path d="M-43.30127,275A50,50 0 0,1 43.30127,275"/>
</g></svg>