<?xml version="1.0" encoding="utf-8"?>
<!-- Generator: Adobe Illustrator 16.0.0, SVG Export Plug-In . SVG Version: 6.00 Build 0)  -->
<!DOCTYPE svg PUBLIC "-//W3C//DTD SVG 1.1//EN" "http://www.w3.org/Graphics/SVG/1.1/DTD/svg11.dtd">
<svg version="1.1"
	 id="svg6061" xmlns:svg="http://www.w3.org/2000/svg" xmlns:inkscape="http://www.inkscape.org/namespaces/inkscape" xmlns:sodipodi="http://sodipodi.sourceforge.net/DTD/sodipodi-0.dtd" xmlns:cc="http://creativecommons.org/ns#" xmlns:rdf="http://www.w3.org/1999/02/22-rdf-syntax-ns#" xmlns:dc="http://purl.org/dc/elements/1.1/" sodipodi:docname="dessin.svg" inkscape:version="0.48.2 r9819"
	 xmlns="http://www.w3.org/2000/svg" xmlns:xlink="http://www.w3.org/1999/xlink" x="0px" y="0px" width="595.275px"
	 height="841.89px" viewBox="0 0 595.275 841.89" enable-background="new 0 0 595.275 841.89" xml:space="preserve">
<sodipodi:namedview  id="base" showgrid="false" bordercolor="#666666" inkscape:zoom="0.49497475" inkscape:cy="653.18213" borderopacity="1.0" pagecolor="#ffffff" inkscape:cx="287.42893" inkscape:current-layer="g27767" inkscape:pageopacity="0.0" inkscape:window-width="1229" inkscape:document-units="mm" inkscape:pageshadow="2" inkscape:window-y="0" inkscape:window-maximized="1" inkscape:window-x="51" inkscape:window-height="756">
	</sodipodi:namedview>
<path id="path27773" inkscape:connector-curvature="0" fill="none" d="M241.531,777.691"/>
<path id="path27783" inkscape:connector-curvature="0" fill="none" d="M341.531,777.691"/>
<path id="path27793" inkscape:connector-curvature="0" fill="none" d="M431.531,777.691"/>
<path id="path27803" inkscape:connector-curvature="0" fill="none" d="M528.531,777.691"/>
<path id="path27809" inkscape:connector-curvature="0" fill="none" d="M586.531,777.691"/>
<path id="path27825" inkscape:connector-curvature="0" fill="none" d="M729.531,777.691"/>
<g id="g28123" transform="matrix(0.73431596,0,0,0.73431596,-192.70716,-732.25689)" inkscape:label="Hershey Text">
	<path id="path28125" inkscape:connector-curvature="0" fill="none" stroke="#000000" d="M279.81,1047.068v21 M279.81,1047.068
		h8.998l3,1l1,0.999l1,2v2l-1,2l-1,1l-3,1h-8.998 M286.809,1057.068l6.999,11"/>
	<path id="path28127" inkscape:connector-curvature="0" fill="none" stroke="#000000" d="M299.809,1060.068h12.001v-2l-1-2l-0.999-1
		l-2-1h-2.999l-2,1l-1.999,2L299.809,1060.068v2l1,3l2,2l2,1h2.999l2-1l2-2"/>
	<path id="path28129" inkscape:connector-curvature="0" fill="none" stroke="#000000" d="M316.809,1054.068l5.999,14
		 M328.81,1054.068l-5.999,14"/>
	<path id="path28131" inkscape:connector-curvature="0" fill="none" stroke="#000000" d="M333.809,1060.068h12.001v-2l-1-2l-1-1
		l-1.999-1h-2.999l-2,1l-1.999,2L333.809,1060.068v2l1,3l2,2l1.999,1h3l2-1l2-2"/>
	<path id="path28133" inkscape:connector-curvature="0" fill="none" stroke="#000000" d="M352.809,1054.068v14 M352.809,1058.068
		l2.999-3l2-1h3l2,1l1,3v10"/>
	<path id="path28135" inkscape:connector-curvature="0" fill="none" stroke="#000000" d="M370.81,1060.068h12v-2l-1-2l-1-1l-2-1
		h-2.999l-2,1l-1.999,2L370.81,1060.068v2l0.999,3l2,2l2,1h3l1.999-1l2-2"/>
	<path id="path28137" inkscape:connector-curvature="0" fill="none" stroke="#000000" d="M399.809,1054.068l-11.001,14
		 M388.808,1054.068h11.001 M388.808,1068.069h11.001"/>
	<path id="path28139" inkscape:connector-curvature="0" fill="none" stroke="#000000" d="M407.809,1064.068l-1,0.999l-1-0.999l1-1
		L407.809,1064.068v2l-2,2"/>
	<path id="path28141" inkscape:connector-curvature="0" fill="none" stroke="#000000" d="M418.809,1059.069"/>
	<path id="path28143" inkscape:connector-curvature="0" fill="none" stroke="#000000" d="M430.808,1054.068v14 M430.808,1058.068
		l3-3l1.999-1h2.999l2,1l1,3v10 M441.809,1058.068l3-3l1.999-1h3l1.999,1l1,3v10"/>
	<path id="path28145" inkscape:connector-curvature="0" fill="none" stroke="#000000" d="M464.808,1054.068l-1.999,1l-2,2l-1,3v2
		l1,3l2,2l1.999,1h2.999l2-1l1.999-2l1-3v-2l-1-3l-1.999-2l-2-1H464.808"/>
	<path id="path28149" inkscape:connector-curvature="0" fill="none" stroke="#000000" d="M479.808,1054.068v14 M479.808,1058.068
		l3-3l1.999-1h3l1.999,1l1,3v10"/>
	<path id="path28151" inkscape:connector-curvature="0" fill="none" stroke="#000000" d="M525.809,1057.068l-2-2l-2-1h-2.999l-2,1
		l-2,2l-1,3v2l1,3l2,2l2,1h2.999l2-1l2-2"/>
	<path id="path28153" inkscape:connector-curvature="0" fill="none" stroke="#000000" d="M532.809,1047.068v21 M532.809,1058.068
		l3-3l1.999-1h3l2,1l1,3v10"/>
	<path id="path28155" inkscape:connector-curvature="0" fill="none" stroke="#000000" d="M550.809,1060.068h12v-2l-0.999-2l-1-1
		l-2-1h-2.999l-2,1l-1.999,2L550.809,1060.068v2l1,3l1.999,2l2,1h3l2-1l2-2"/>
	<path id="path28159" inkscape:connector-curvature="0" fill="none" stroke="#000000" d="M569.808,1054.068v14 M569.808,1060.068
		l1-3l2-2l2-1h3"/>
	<path id="path28161" inkscape:connector-curvature="0" fill="none" stroke="#000000" d="M595.808,1047.068l7.998,21
		 M611.81,1047.068l-8.002,21"/>
	<path id="path28163" inkscape:connector-curvature="0" fill="none" stroke="#000000" d="M615.809,1047.068l1,1l1-1l-1-1
		L615.809,1047.068 M616.809,1054.068v14"/>
	<path id="path28165" inkscape:connector-curvature="0" fill="none" stroke="#000000" d="M635.808,1057.068l-1.999-2l-2-1h-3
		l-1.999,1l-2,2l-1,3v2l1,3l2,2l1.999,1h3l2-1l1.999-2"/>
	<path id="path28167" inkscape:connector-curvature="0" fill="none" stroke="#000000" d="M646.808,1054.068l-2,1l-1.999,2l-1,3v2
		l1,3l1.999,2l2,1h2.999l2-1l1.999-2l1-3v-2l-1-3l-1.999-2l-2-1H646.808"/>
	<path id="path28169" inkscape:connector-curvature="0" fill="none" stroke="#000000" d="M661.808,1054.068v14 M661.808,1058.068
		l3-3l1.999-1h2.999l2,1l1,3v10 M672.808,1058.068l3-3l2-1h3l1.999,1l1,3v10"/>
	<path id="path28171" inkscape:connector-curvature="0" fill="none" stroke="#000000" d="M692.809,1047.068v17l1,3l2,1h2
		 M689.809,1054.068h7.001"/>
	<path id="path28173" inkscape:connector-curvature="0" fill="none" stroke="#000000" d="M702.808,1060.068h12.001v-2l-0.999-2l-1-1
		l-2-1h-2.999l-2,1l-1.999,2L702.808,1060.068v2l1,3l2,2l2,1h3l2-1l1.999-2"/>
	<path id="path28175" inkscape:connector-curvature="0" fill="none" stroke="#000000" d="M722.809,1064.068l-1,0.999l-1-0.999l1-1
		L722.809,1064.068v2l-2,2"/>
	<path id="path28177" inkscape:connector-curvature="0" fill="none" stroke="#000000" d="M733.809,1059.069"/>
	<path id="path28179" inkscape:connector-curvature="0" fill="none" stroke="#000000" d="M745.81,1054.068v14 M745.81,1060.068l1-3
		l1.999-2l2-1h2.999"/>
	<path id="path28181" inkscape:connector-curvature="0" fill="none" stroke="#000000" d="M757.809,1060.068h12v-2l-1-2l-1-1l-2-1
		h-2.999l-2,1l-1.999,2L757.809,1060.068v2l1,3l2,2l2,1h2.999l2-1l1.999-2"/>
	<path id="path28183" inkscape:connector-curvature="0" fill="none" stroke="#000000" d="M774.809,1054.068l5.999,14
		 M786.808,1054.068l-5.999,14"/>
	<path id="path28185" inkscape:connector-curvature="0" fill="none" stroke="#000000" d="M791.809,1060.068h12v-2l-1-2l-1-1l-2-1
		h-2.999l-2,1l-1.999,2L791.809,1060.068v2l1,3l2,2l2,1h2.999l1.999-1l2-2"/>
	<path id="path28187" inkscape:connector-curvature="0" fill="none" stroke="#000000" d="M810.81,1054.068v14 M810.81,1058.068l3-3
		l1.999-1h3l1.999,1l1,3v10"/>
	<path id="path28189" inkscape:connector-curvature="0" fill="none" stroke="#000000" d="M828.81,1060.068h12.001v-2l-1-2l-1-1
		l-1.999-1h-3l-2,1l-1.999,2L828.81,1060.068v2l1,3l1.999,2l2,1h2.999l2-1l2-2"/>
	<path id="path28191" inkscape:connector-curvature="0" fill="none" stroke="#000000" d="M857.809,1054.068l-11.001,14
		 M846.81,1054.068h11.001 M846.81,1068.069h11.001"/>
</g>
<g id="g28819" transform="matrix(0.73431596,0,0,0.73431596,-191.23853,-687.32518)" inkscape:label="Hershey Text">
	<path id="path28821" inkscape:connector-curvature="0" fill="none" stroke="#000000" d="M280.808,1047.068v21 M281.809,1047.068v21
		 M277.81,1047.068h12.001l2.999,1l1,0.999l1,2v2l-1,2l-1,0.999l-2.999,1h-7.998 M289.809,1047.068l2,1l1,0.999l1,2v2l-1,2l-1,0.999
		l-2,1 M277.81,1068.068h7.002 M286.808,1057.068l2,1l1,1l3,7l1,1h1l1-1 M288.808,1058.068l1,2l2,7l1,1h2l1-2v-1"/>
	<path id="path28823" inkscape:connector-curvature="0" fill="none" stroke="#000000" d="M301.809,1060.068h12v-2l-1-2l-0.999-0.999
		l-2-1h-2.999l-2.999,1l-2,2l-1,3v2l1,3l2,2l2.999,0.999h1.999l3-0.999l1.999-2 M312.808,1060.068v-3l-0.999-2 M306.809,1054.068
		l-2,1l-1.999,2l-1,3v2l1,3l1.999,2l2,1"/>
	<path id="path28825" inkscape:connector-curvature="0" fill="none" stroke="#000000" d="M319.808,1054.068l6,14 M320.808,1054.068
		l5,12 M331.809,1054.068l-5.999,14 M317.809,1054.068h5.999 M327.81,1054.068h5.999"/>
	<path id="path28827" inkscape:connector-curvature="0" fill="none" stroke="#000000" d="M338.808,1060.068h12.001v-2l-1-2l-1-0.999
		l-2-1h-2.999l-2.999,1l-2,2l-1,3v2l1,3l2,2l2.999,0.999h1.999l3-0.999l2-2 M349.809,1060.068v-3l-1-2 M343.81,1054.068l-2,1
		l-1.999,2l-1,3v2l1,3l1.999,2l2,1"/>
	<path id="path28829" inkscape:connector-curvature="0" fill="none" stroke="#000000" d="M358.809,1054.068v14 M359.809,1054.068v14
		 M359.809,1057.068l1.999-2l3-1h1.999l2.999,1l1,2v11 M366.809,1054.068l2,1l0.999,2v11 M355.808,1054.068h4 M355.808,1068.068
		h7.001 M366.809,1068.068h6.999"/>
	<path id="path28831" inkscape:connector-curvature="0" fill="none" stroke="#000000" d="M379.808,1060.068h12.001v-2l-1-2l-1-0.999
		l-2-1h-2.999l-3,1l-2,2l-1,3v2l1,3l2,2l3,0.999h1.999l3-0.999l2-2 M390.809,1060.068v-3l-1-2 M384.809,1054.068l-2,1l-2,2l-1,3v2
		l1,3l2,2l2,1"/>
	<path id="path28833" inkscape:connector-curvature="0" fill="none" stroke="#000000" d="M408.809,1054.068l-11.001,14
		 M409.81,1054.068l-11.001,14 M398.809,1054.068l-1,4v-4h12.001 M397.809,1068.068h12.001v-4l-1,4"/>
	<path id="path28835" inkscape:connector-curvature="0" fill="none" stroke="#000000" d="M417.809,1064.068l-1,0.999l-1-0.999l1-1
		L417.809,1064.068v2l-2,2"/>
	<path id="path28837" inkscape:connector-curvature="0" fill="none" stroke="#000000" d="M428.808,1059.068"/>
	<path id="path28839" inkscape:connector-curvature="0" fill="none" stroke="#000000" d="M441.809,1054.068v14 M442.81,1054.068v14
		 M442.81,1057.068l1.999-2l3-1h2l2.999,1l1,2v11 M449.809,1054.068l2,1l0.999,2v11 M453.808,1057.068l2-2l3-1h2l3,1l1,2v11
		 M460.81,1054.068l1.999,1l1,2v11 M438.809,1054.068h4 M438.809,1068.068h7.001 M449.809,1068.068h6.999 M460.81,1068.068h7.002"/>
	<path id="path28841" inkscape:connector-curvature="0" fill="none" stroke="#000000" d="M478.808,1054.068l-2.999,1l-2,2l-1,3v2
		l1,3l2,2l2.999,1h2l2.999-1l2-2l0.999-3v-2l-0.999-3l-2-2l-2.999-1H478.808 M478.808,1054.068l-1.999,1l-2,2l-1,3v2l1,3l2,2
		l1.999,1 M480.809,1068.068l2-1l2-2l0.999-3v-2l-0.999-3l-2-2l-2-1"/>
	<path id="path28845" inkscape:connector-curvature="0" fill="none" stroke="#000000" d="M494.808,1054.068v14 M495.808,1054.068v14
		 M495.808,1057.068l2-2l2.999-1h1.999l3,1l0.999,2v11 M502.808,1054.068l2,1l1,2v11 M491.809,1054.068h3.999 M491.809,1068.068
		h7.001 M502.808,1068.068h7.002"/>
	<path id="path28847" inkscape:connector-curvature="0" fill="none" stroke="#000000" d="M542.81,1057.068l-1,1l1,1l1-1v-1l-2-2
		l-2-1h-2.999l-2.999,1l-2,2l-1,3v2l1,3l2,2l2.999,1h2l2.999-1l2-2 M536.808,1054.068l-2,1l-1.999,2l-1,3v2l1,3l1.999,2l2,1"/>
	<path id="path28849" inkscape:connector-curvature="0" fill="none" stroke="#000000" d="M551.808,1047.068v21 M552.808,1047.068v21
		 M552.808,1057.068l2-2l3-1h2l3,1l1,2v11 M559.81,1054.068l1.999,1l1,2v11 M548.809,1047.068h3.999 M548.809,1068.068h6.999
		 M559.81,1068.068h7.002"/>
	<path id="path28851" inkscape:connector-curvature="0" fill="none" stroke="#000000" d="M572.809,1060.068h12v-2l-0.999-2l-1-0.999
		l-2-1h-3l-3,1l-2,2l-0.999,3v2l0.999,3l2,2l3,0.999h2l3-0.999l1.999-2 M583.81,1060.068v-3l-1-2 M577.808,1054.068l-1.999,1l-2,2
		l-1,3v2l1,3l2,2l1.999,1"/>
	<path id="path28855" inkscape:connector-curvature="0" fill="none" stroke="#000000" d="M592.81,1054.068v14 M593.808,1054.068v14
		 M593.808,1060.068l1-3l2-2l1.999-1h2.999l1,1v0.999l-1,1l-0.999-1l0.999-0.999 M589.809,1054.068h3.999 M589.809,1068.068h7.001"
		/>
	<path id="path28857" inkscape:connector-curvature="0" fill="none" stroke="#000000" d="M623.809,1047.068l6.999,21
		 M624.81,1047.068l5.999,17.999 M637.809,1047.068l-6.999,21 M621.809,1047.068h5.999 M633.808,1047.068h6"/>
	<path id="path28859" inkscape:connector-curvature="0" fill="none" stroke="#000000" d="M645.809,1047.068l-1,1l1,0.999l1-0.999
		L645.809,1047.068 M645.809,1054.068v14 M646.809,1054.068v14 M642.81,1054.068h3.999 M642.81,1068.068h6.999"/>
	<path id="path28861" inkscape:connector-curvature="0" fill="none" stroke="#000000" d="M666.808,1057.068l-0.999,1l0.999,1l1-1v-1
		l-1.999-2l-2-1h-3l-2.999,1l-2,2l-1,3v2l1,3l2,2l2.999,1h2l3-1l1.999-2 M660.808,1054.068l-1.999,1l-2,2l-1,3v2l1,3l2,2l1.999,1"/>
	<path id="path28863" inkscape:connector-curvature="0" fill="none" stroke="#000000" d="M679.809,1054.068l-3,1l-1.999,2l-1,3v2
		l1,3l1.999,2l3,1h2l2.999-1l2-2l1-3v-2l-1-3l-2-2l-2.999-1H679.809 M679.809,1054.068l-1.999,1l-2,2l-1,3v2l1,3l2,2l1.999,1
		 M681.809,1068.068l2-1l1.999-2l1-3v-2l-1-3l-1.999-2l-2-1"/>
	<path id="path28865" inkscape:connector-curvature="0" fill="none" stroke="#000000" d="M695.81,1054.068v14 M696.81,1054.068v14
		 M696.81,1057.068l1.999-2l2.999-1h2l3,1l1,2v11 M703.808,1054.068l2,1l1,2v11 M707.811,1057.068l1.999-2l2.999-1h2l3,1l0.999,2v11
		 M714.809,1054.068l2,1l1,2v11 M692.81,1054.068h4 M692.81,1068.068h6.999 M703.808,1068.068h7.002 M714.809,1068.068h6.999"/>
	<path id="path28867" inkscape:connector-curvature="0" fill="none" stroke="#000000" d="M728.81,1047.068v17l1,3l1.999,1h1.999l2-1
		l1-2 M729.81,1047.068v17l0.999,3l1,1 M725.81,1054.068h7.998"/>
	<path id="path28869" inkscape:connector-curvature="0" fill="none" stroke="#000000" d="M742.81,1060.068h12.001v-2l-0.999-2
		l-1-0.999l-2-1h-3l-2.999,1l-2,2l-0.999,3v2l0.999,3l2,2l2.999,0.999h2l3-0.999l1.999-2 M753.809,1060.068v-3l-1-2
		 M747.809,1054.068l-2,1l-1.999,2l-1,3v2l1,3l1.999,2l2,1"/>
	<path id="path28871" inkscape:connector-curvature="0" fill="none" stroke="#000000" d="M762.81,1064.068l-1,0.999l-1-0.999l1-1
		L762.81,1064.068v2l-2,2"/>
	<path id="path28873" inkscape:connector-curvature="0" fill="none" stroke="#000000" d="M773.809,1059.068"/>
	<path id="path28875" inkscape:connector-curvature="0" fill="none" stroke="#000000" d="M786.809,1054.068v14 M787.809,1054.068v14
		 M787.809,1060.068l1-3l2-2l2-1h2.999l1,1v0.999l-1,1l-0.999-1l0.999-0.999 M783.808,1054.068h4 M783.808,1068.068h7.003"/>
	<path id="path28877" inkscape:connector-curvature="0" fill="none" stroke="#000000" d="M802.808,1060.068h12.001v-2l-1-2l-1-0.999
		l-1.999-1h-3l-2.999,1l-2,2l-0.999,3v2l0.999,3l2,2l2.999,0.999h2l2.999-0.999l2-2 M813.809,1060.068v-3l-1-2 M807.811,1054.068
		l-2,1l-2,2l-0.999,3v2l0.999,3l2,2l2,1"/>
	<path id="path28879" inkscape:connector-curvature="0" fill="none" stroke="#000000" d="M820.809,1054.068l6,14 M821.809,1054.068
		l5,12 M832.808,1054.068l-5.998,14 M818.808,1054.068h6 M828.81,1054.068h5.998"/>
	<path id="path28881" inkscape:connector-curvature="0" fill="none" stroke="#000000" d="M839.809,1060.068h12v-2l-1-2l-1-0.999
		l-2-1h-2.999l-3,1l-1.999,2l-1,3v2l1,3l1.999,2l3,0.999h1.999l3-0.999l2-2 M850.808,1060.068v-3l-1-2 M844.81,1054.068l-2,1
		l-1.999,2l-1,3v2l1,3l1.999,2l2,1"/>
	<path id="path28883" inkscape:connector-curvature="0" fill="none" stroke="#000000" d="M859.81,1054.068v14 M860.81,1054.068v14
		 M860.81,1057.068l1.999-2l2.999-1h2l3,1l1,2v11 M867.808,1054.068l2,1l1,2v11 M856.811,1054.068h3.999 M856.811,1068.068h6.998
		 M867.808,1068.068h7.002"/>
	<path id="path28885" inkscape:connector-curvature="0" fill="none" stroke="#000000" d="M880.809,1060.068h12.001v-2l-1-2l-1-0.999
		l-1.999-1h-2.999l-3,1l-2,2l-1,3v2l1,3l2,2l3,0.999h1.999l2.999-0.999l2-2 M891.81,1060.068v-3l-1-2 M885.808,1054.068l-2,1
		l-1.999,2l-1,3v2l1,3l1.999,2l2,1"/>
	<path id="path28887" inkscape:connector-curvature="0" fill="none" stroke="#000000" d="M909.81,1054.068l-11.001,14
		 M910.81,1054.068l-11.002,14 M899.808,1054.068l-1,4v-4h12.001 M898.808,1068.068h12.001v-4l-0.999,4"/>
</g>
<g id="g29528" transform="matrix(0.73431596,0,0,0.73431596,-189.7699,-550.32711)" inkscape:label="Hershey Text">
	<path id="path29530" inkscape:connector-curvature="0" fill="none" stroke="#000000" d="M284.808,1047.068l-5.999,21
		 M285.808,1047.068l-5.999,21 M286.808,1047.068l-5.999,21 M281.809,1047.068h11.001l2.999,1l1,2v2l-1,3l-1,0.999l-2.999,1h-7.998
		 M294.808,1048.068l1,2v2l-1,3l-1,0.999 M292.81,1047.068l0.999,1l1,2v2l-1,3l-1.999,2 M287.809,1057.067l2,1l1,1l2,6l0.999,1h1
		l1-1 M292.81,1066.067l0.999,1h1 M290.809,1059.068l1,8l1,1h1.999l1-3v-1 M275.81,1068.068h8.002 M282.809,1047.068l2.999,1
		 M283.81,1047.068l0.999,2 M287.809,1047.068l-2,2 M288.809,1047.068l-3,1 M279.809,1067.067l-2.999,1 M279.809,1066.067l-2,2
		 M280.809,1066.067l1,2 M279.809,1067.067l3,1"/>
	<path id="path29532" inkscape:connector-curvature="0" fill="none" stroke="#000000" d="M303.808,1063.068l4-1l3-0.999l3-2l0.999-2
		l-0.999-2l-2-1h-3l-3,1l-2,3l-1,3v2l1,3l1,1l2,0.999h2l3-0.999l2-2 M305.809,1056.067l-1,2l-1,3v3l1,2 M308.81,1054.068l-2,2
		l-0.999,2l-1,3v3l1,3l0.999,1"/>
	<path id="path29534" inkscape:connector-curvature="0" fill="none" stroke="#000000" d="M318.808,1058.067l1-2l2-2h2l1,1l1,2v3
		l-2,5 M324.81,1055.068v4l-1,4v4 M324.81,1057.067l-2,5v3l1,2l2,1h1.999l2-1l2-2l2-3l0.999-4v-4h-0.999v1l0.999,2"/>
	<path id="path29536" inkscape:connector-curvature="0" fill="none" stroke="#000000" d="M341.81,1063.068l3.999-1l3-0.999l2.999-2
		l1-2l-1-2l-1.999-1h-3l-3,1l-1.999,3l-1,3v2l1,3l1,1l1.999,0.999h2l3-0.999l1.999-2 M343.808,1056.067l-0.999,2l-1,3v3l1,2
		 M346.809,1054.068l-2,2l-1,2l-0.999,3v3l0.999,3l1,1"/>
	<path id="path29538" inkscape:connector-curvature="0" fill="none" stroke="#000000" d="M356.809,1058.067l1-2l1.999-2h2l1,1
		l0.999,2v3l-1.999,8.001 M362.809,1055.068v5l-2,8 M362.809,1057.067l-1,4l-2,7h2 M363.809,1060.068l2-3l1.999-2l2-1h2l2,1l1,2v3
		l-2,5 M373.809,1055.068v4l-1,4v4 M373.809,1057.067l-2,5v3l1,2l1,1h2l1.999-2l1-2"/>
	<path id="path29540" inkscape:connector-curvature="0" fill="none" stroke="#000000" d="M383.808,1063.068l4-1l3-0.999l3-2l1-2
		l-1-2l-2-1h-3l-3,1l-2,3l-0.999,3v2l0.999,3l1,1l2,0.999h2l3-0.999l2-2 M385.808,1056.067l-1,2l-1,3v3l1,2 M388.809,1054.068l-2,2
		l-1,2l-1,3v3l1,3l1,1"/>
	<path id="path29542" inkscape:connector-curvature="0" fill="none" stroke="#000000" d="M414.809,1054.068l-1,2l-2,2l-8.001,6l-2,2
		l-1,2 M413.809,1056.067h-9.001l-2,1l-1,2 M411.809,1056.067l-3.999-0.999h-2.999l-1,0.999 M411.809,1056.067l-3.999-2h-2.999l-2,2
		l-1,3 M401.808,1066.067h9.001l2-1l1-2 M403.809,1066.067l4,1h2.999l1-1 M403.809,1066.067l4,2h2.999l2-2l0.999-3"/>
	<path id="path29546" inkscape:connector-curvature="0" fill="none" stroke="#000000" d="M421.809,1068.068h-1l-1-1v-1l1-1h1l1,1v2
		l-1,2l-1,1l-2,1 M420.809,1066.067v1h1v-1H420.809 M421.809,1068.068v1l-1,2"/>
	<path id="path29548" inkscape:connector-curvature="0" fill="none" stroke="#000000" d="M445.809,1058.067l1-2l2-2h1.999l1,1l1,2v3
		l-2,8.001 M451.808,1055.068v5l-2,8 M451.808,1057.067l-1,4l-1.999,7h1.999 M452.808,1060.068l2-3l2-2l2-1h2l2,1l0.999,2v3
		l-1.999,8 M462.809,1055.068v5l-2,8 M462.809,1057.067l-1,4l-2,7h2 M463.809,1060.068l2-3l1.999-2l2-1h2l2,1l1,2v3l-2,5
		 M473.81,1055.068v4l-1,4v4 M473.81,1057.067l-2,5v3l1,2l1,1h1.999l2-2l1-2"/>
	<path id="path29550" inkscape:connector-curvature="0" fill="none" stroke="#000000" d="M488.809,1054.068l-3,1l-2,3l-0.999,3v2
		l0.999,3l1,1l3,1h3l2.999-1l2-3l0.999-3v-2l-0.999-3l-1-0.999l-2.999-1L488.809,1054.068 M485.808,1056.067l-1,2l-1,3v3l1,2
		 M493.808,1066.067l1-2l1-3v-3l-1-2 M488.809,1054.068l-2,2l-1,2l-1,3v3l1,3l2,1 M490.81,1068.068l1.999-2l1-2l1-3v-3l-1-3
		l-1.999-1"/>
	<path id="path29554" inkscape:connector-curvature="0" fill="none" stroke="#000000" d="M500.808,1058.067l1-2l2-2h2l1,1l1,2v3
		l-2,8.001 M506.81,1055.068v5l-2,8 M506.81,1057.067l-1,4l-1.999,7h1.999 M507.81,1060.068l1.999-3l2-2l2-1h2l1.999,1l1,2v3l-2,5
		 M517.808,1055.068v4l-1,4v4 M517.808,1057.067l-1.999,5v3l0.999,2l1,1h2l2-2l1-2"/>
	<path id="path29556" inkscape:connector-curvature="0" fill="none" stroke="#000000" d="M553.809,1058.067v-1h-1v2h2v-2l-1-2l-2-1
		h-2.999l-3,1l-2,3l-1,3v2l1,3l1,1l2,1h2l2.999-1l2-3 M545.809,1056.067l-1,2l-1,3v3l1,2 M548.81,1054.068l-2,2l-1,2l-1,3v3l1,3l1,1
		"/>
	<path id="path29558" inkscape:connector-curvature="0" fill="none" stroke="#000000" d="M565.808,1047.068l-5.999,21h2
		 M566.808,1047.068l-5.999,21 M562.809,1047.068h4.999l-5.999,21 M563.809,1061.068l1.999-4l2-2l2-1h2l2,1l1,2v3l-2,5
		 M573.81,1055.068v4l-1,4v4 M573.81,1057.067l-2,5v3l1,2l1,1h1.999l2-2l1-2 M563.809,1047.068l2.999,1 M564.81,1047.068l0.999,2"/>
	<path id="path29560" inkscape:connector-curvature="0" fill="none" stroke="#000000" d="M583.808,1063.068l4-1l3-0.999l3-2l1-2
		l-1-2l-2-1h-3l-3,1l-2,3l-1,3v2l1,3l1,1l2,0.999h2l3-0.999l2-2 M585.809,1056.067l-1,2l-1,3v3l1,2 M588.809,1054.068l-2,2l-1,2
		l-1,3v3l1,3l1,1"/>
	<path id="path29564" inkscape:connector-curvature="0" fill="none" stroke="#000000" d="M598.808,1058.067l1-2l2-2h2l1,1l1,2v4
		l-2,7 M604.809,1055.068v6l-2,7 M604.809,1057.067l-1,4l-2,7h2 M613.809,1056.067v-0.999h-1v2h2v-2l-1-1h-2l-2,1l-1.999,2l-2,4"/>
	<path id="path29566" inkscape:connector-curvature="0" fill="none" stroke="#000000" d="M637.809,1047.068v2l1,17v2
		 M638.809,1048.068l1,17 M639.81,1047.068l1,17 M650.808,1048.068l-12,20 M635.809,1047.068h6.999 M647.81,1047.068h5.999
		 M636.809,1047.068l1,2 M640.81,1047.068l-1,2 M641.808,1047.068l-2.999,1 M648.808,1047.068l2,1 M652.809,1047.068l-2,1"/>
	<path id="path29568" inkscape:connector-curvature="0" fill="none" stroke="#000000" d="M659.808,1047.068v2h1.999v-2H659.808
		 M660.809,1047.068v2 M659.808,1048.068h1.999 M652.809,1058.067l1-2l2-2h1.999l1,1l1,2v3l-2,5 M658.808,1055.068v4l-1,4v4
		 M658.808,1057.067l-1.999,5v3l0.999,2l1,1h2l1.999-2l1-2"/>
	<path id="path29570" inkscape:connector-curvature="0" fill="none" stroke="#000000" d="M678.809,1058.067v-1h-1v2h2v-2l-1-2
		l-1.999-1h-3.002l-2.999,1l-2,3l-1,3v2l1,3l1,1l2,1h1.999l3.002-1l1.999-3 M670.809,1056.067l-1,2l-1,3v3l1,2 M673.81,1054.068
		l-2,2l-1,2l-1,3v3l1,3l1,1"/>
	<path id="path29572" inkscape:connector-curvature="0" fill="none" stroke="#000000" d="M691.81,1054.068l-2.999,1l-2,3l-0.999,3v2
		l0.999,3l1,1l2.999,1h3l2.999-1l1.999-3l1-3v-2l-1-3l-0.999-0.999l-3-1L691.81,1054.068 M688.811,1056.067l-1,2l-1,3v3l1,2
		 M696.809,1066.067l1-2l0.999-3v-3l-0.999-2 M691.81,1054.068l-1.999,2l-1,2l-1,3v3l1,3l1.999,1 M693.81,1068.068l1.999-2l1-2l1-3
		v-3l-1-3l-2-1"/>
	<path id="path29574" inkscape:connector-curvature="0" fill="none" stroke="#000000" d="M703.809,1058.067l1-2l2-2h2l1,1l0.999,2v3
		l-1.999,8.001 M709.81,1055.068v5l-2,8 M709.81,1057.067l-1,4l-1.999,7h1.999 M710.809,1060.068l2-3l2-2l1.999-1h2l2,1l1,2v3l-2,8
		 M720.809,1055.068v5l-2,8 M720.809,1057.067l-1,4l-2,7h2 M721.811,1060.068l1.999-3l2-2l2-1h1.999l1.999,1l1,2v3l-1.999,5
		 M731.808,1055.068v4l-1,4v4 M731.808,1057.067l-1.999,5v3l0.999,2l1,1h2l2-2l1-2"/>
	<path id="path29576" inkscape:connector-curvature="0" fill="none" stroke="#000000" d="M746.809,1047.068l-3,11l-0.999,4v3
		l0.999,2l1,1h2l2-2l0.999-2 M747.809,1047.068l-3,11l-1,4v5 M746.809,1047.068h2l-4,14l-1,4 M740.81,1054.068h9.998"/>
	<path id="path29578" inkscape:connector-curvature="0" fill="none" stroke="#000000" d="M755.81,1063.068l4-1l2.999-0.999l2.999-2
		l1-2l-1-2l-1.999-1h-2.999l-3,1l-2,3l-0.999,3v2l0.999,3l1,1l2,0.999h2l2.999-0.999l1.999-2 M757.81,1056.067l-1,2l-1,3v3l1,2
		 M760.81,1054.068l-2,2l-1,2l-1,3v3l1,3l1,1"/>
	<path id="path29582" inkscape:connector-curvature="0" fill="none" stroke="#000000" d="M773.81,1068.068h-0.999l-1-1v-1l1-1h0.999
		l1,1v2l-1,2l-0.999,1l-2,1 M772.811,1066.067v1h0.999v-1H772.811 M773.81,1068.068v1l-0.999,2"/>
	<path id="path29584" inkscape:connector-curvature="0" fill="none" stroke="#000000" d="M797.808,1058.067l1-2l2-2h2l1,1l1,2v4
		l-2,7 M803.809,1055.068v6l-2,7 M803.809,1057.067l-1,4l-2,7h2 M812.809,1056.067v-0.999h-1v2h2v-2l-1-1h-2l-1.999,1l-2,2l-1.999,4
		"/>
	<path id="path29586" inkscape:connector-curvature="0" fill="none" stroke="#000000" d="M818.809,1063.068l4-1l3-0.999l2.999-2l1-2
		l-1-2l-2-1h-2.999l-3,1l-2,3l-1,3v2l1,3l1,1l2,0.999h2l2.999-0.999l2-2 M820.809,1056.067l-1,2l-1,3v3l1,2 M823.81,1054.068
		l-1.999,2l-1,2l-1,3v3l1,3l1,1"/>
	<path id="path29588" inkscape:connector-curvature="0" fill="none" stroke="#000000" d="M833.808,1058.067l1-2l2-2h2l1,1l1,2v3
		l-2,5 M839.81,1055.068v4l-0.999,4v4 M839.81,1057.067l-1.999,5v3l1,2l1.999,1h1.999l2-1l2-2l1.999-3l1-4v-4h-1v1l1,2"/>
	<path id="path29590" inkscape:connector-curvature="0" fill="none" stroke="#000000" d="M856.81,1063.068l3.999-1l2.999-0.999l3-2
		l1-2l-1-2l-2-1h-2.999l-2.999,1l-2,3l-1,3v2l1,3l1,1l2,0.999h1.999l2.999-0.999l2-2 M858.81,1056.067l-1,2l-1,3v3l1,2
		 M861.809,1054.068l-1.999,2l-1,2l-1,3v3l1,3l1,1"/>
	<path id="path29592" inkscape:connector-curvature="0" fill="none" stroke="#000000" d="M871.811,1058.067l0.999-2l2-2h1.999l1,1
		l1,2v3l-2,8.001 M877.809,1055.068v5l-1.999,8 M877.809,1057.067l-1,4l-1.999,7h1.999 M878.809,1060.068l2-3l1.999-2l2-1h2l2,1l1,2
		v3l-2,5 M888.81,1055.068v4l-0.999,4v4 M888.81,1057.067l-1.999,5v3l1,2l0.999,1h2l2-2l0.999-2"/>
	<path id="path29594" inkscape:connector-curvature="0" fill="none" stroke="#000000" d="M898.808,1063.068l4-1l3-0.999l2.999-2l1-2
		l-1-2l-1.999-1h-3l-3,1l-2,3l-1,3v2l1,3l1,1l2,0.999h2l3-0.999l1.999-2 M900.809,1056.067l-1,2l-1,3v3l1,2 M903.811,1054.068l-2,2
		l-1,2l-0.999,3v3l0.999,3l1,1"/>
	<path id="path29596" inkscape:connector-curvature="0" fill="none" stroke="#000000" d="M929.808,1054.068l-0.999,2l-2,2l-7.998,6
		l-1.999,2l-1,2 M928.809,1056.067h-8.998l-1.999,1l-1,2 M926.809,1056.067l-3.999-0.999h-2.999l-1,0.999 M926.809,1056.067
		l-3.999-2h-2.999l-2,2l-0.999,3 M916.808,1066.067h8.999l2-1l1-2 M918.809,1066.067l4,1h2.999l1-1 M918.809,1066.067l4,2h2.999l2-2
		l1-3"/>
</g>
<g id="g29970" transform="matrix(0.73431596,0,0,0.73431596,-191.97285,-504.66107)" inkscape:label="Hershey Text">
	<path id="path29972" inkscape:connector-curvature="0" fill="none" stroke="#000000" d="M288.808,1049.067l1,1v3l-1,4l-1,3
		l-0.999,2l-2,3l-2,2l-2,1h-0.999l-1-1v-3l1-5l0.999-3l1-1.999l2-3l2-2l1.999-0.999l3-1h4l2,1l1,0.999l1,2v3l-1,1.999l-1,1l-2,1h-3
		l-3-1l1,1l1,2v5l1,2l2,1l2-1l1-1l2-3"/>
	<path id="path29974" inkscape:connector-curvature="0" fill="none" stroke="#000000" d="M301.809,1066.067l2-1l0.999-1l1-2v-2
		l-1-0.999h-0.999l-2,0.999l-1,2v3l1,2l2,1h1.999l2-1l1-1l2-3"/>
	<path id="path29976" inkscape:connector-curvature="0" fill="none" stroke="#000000" d="M310.81,1063.068l1.999-4l-0.999,5v3
		l0.999,1h1l3-1l2-2l1-3v-3 M319.81,1059.068l0.999,4l1,1h2l2-1"/>
	<path id="path29978" inkscape:connector-curvature="0" fill="none" stroke="#000000" d="M326.809,1066.067l2-1l0.999-1l1-2v-2
		l-1-0.999h-0.999l-2,0.999l-1,2v3l1,2l2,1h1.999l2-1l0.999-1l2-3"/>
	<path id="path29980" inkscape:connector-curvature="0" fill="none" stroke="#000000" d="M335.809,1063.068l1.999-3l2-1l1,1v1l-1,4
		l-1,3 M339.808,1065.067l1-2l2-3l2-0.999h2l1,0.999v2l-1,3v2l1,1h1l1.999-1l1-1l2-3"/>
	<path id="path29982" inkscape:connector-curvature="0" fill="none" stroke="#000000" d="M354.808,1066.067l2-1l1-1l1-2v-2l-1-0.999
		h-1l-2,0.999l-1,2v3l1,2l2,1h2l2-1l1-1l2-3"/>
	<path id="path29984" inkscape:connector-curvature="0" fill="none" stroke="#000000" d="M363.808,1063.068l2-3l1.999-1h2l1.999,2v2
		l-1,2l-1.999,2l-2.999,1l1.999,1l1,2v3l-1,3l-1,2l-1.999,1l-1-1v-2l1-3l2.999-3l2.999-2l3.999-3l3-3"/>
	<path id="path29986" inkscape:connector-curvature="0" fill="none" stroke="#000000" d="M380.808,1068.068l-1-1l1-1l1,1v1l-1,2
		l-2,2"/>
	<path id="path29988" inkscape:connector-curvature="0" fill="none" stroke="#000000" d="M396.808,1059.068"/>
	<path id="path29990" inkscape:connector-curvature="0" fill="none" stroke="#000000" d="M404.808,1063.068l2-3l2-1l1,1v1l-1,4l-1,3
		 M408.809,1065.067l1-2l1.999-3l2-0.999h1.999l1,0.999v1l-1,4l-0.999,3 M415.809,1065.067l1-2l2-3l1.999-0.999h2l1,0.999v2l-1,3v2
		l1,1h1l2-1l1-1l2-3"/>
	<path id="path29992" inkscape:connector-curvature="0" fill="none" stroke="#000000" d="M435.81,1059.068h-2l-2,1l-1,1l-1,2v2l1,2
		l2,1h2l1.999-1l1-1l1-2v-2l-1-2L435.81,1059.068l-1,1v2l1,2l1.999,1h3l2-1l1-1"/>
	<path id="path29996" inkscape:connector-curvature="0" fill="none" stroke="#000000" d="M443.81,1063.068l1.999-3l2-1l1,1v1l-1,4
		l-1,3 M447.809,1065.067l1-2l2-3l1.999-0.999h2l1,0.999v2l-1,3v2l1,1h1l2-1l1-1l2-3"/>
	<path id="path29998" inkscape:connector-curvature="0" fill="none" stroke="#000000" d="M484.809,1061.068v-1l-1-1h-2l-2,1l-1,1
		l-0.999,2v2l0.999,2l2,1h3l2.999-2l2-3"/>
	<path id="path30000" inkscape:connector-curvature="0" fill="none" stroke="#000000" d="M488.808,1063.068l2-3l3-5l1-2l1-3v-1.999
		l-1-1l-2,1l-1,1.999l-1,4l-1,6l-1,8 M488.808,1068.068l1-3l1-2l2-3l2-1h2l1,1v2l-1,3v2l1,1h1l1.999-1l1-1l1.999-3"/>
	<path id="path30002" inkscape:connector-curvature="0" fill="none" stroke="#000000" d="M504.808,1066.067l2-1l1-1l1-2v-2l-1-0.999
		h-1l-2,0.999l-1,2v3l1,2l2,1h2l2-1l1-1l2-3"/>
	<path id="path30004" inkscape:connector-curvature="0" fill="none" stroke="#000000" d="M513.809,1063.068l2-3l1-2v2h2.999l1,1v2
		l-1,3v1l1,1h1l2-1l1-1l2-3"/>
	<path id="path30006" inkscape:connector-curvature="0" fill="none" stroke="#000000" d="M534.81,1059.068"/>
	<path id="path30008" inkscape:connector-curvature="0" fill="none" stroke="#000000" d="M547.809,1054.068l-2-1l-1-2v-1l1-1.999
		l2-1h1l2,1l1,1.999v2l-1,4l-1,3l-1,4v3l1,2h2l1.999-1l3-3l2-3l2-4l1-3l1-4v-1.999l-1-1h-1l-1,1l-1,1.999v2l1,3l2,2l2,1"/>
	<path id="path30010" inkscape:connector-curvature="0" fill="none" stroke="#000000" d="M568.808,1054.068v1h1v-1H568.808
		 M565.809,1063.068l2-4l-2,6v2l1,1h1l1.999-1l1-1l2-3"/>
	<path id="path30012" inkscape:connector-curvature="0" fill="none" stroke="#000000" d="M579.808,1061.068v-1l-1-1h-2l-1.999,1
		l-1,1l-1,2v2l1,2l2,1h2.999l2.999-2l2-3"/>
	<path id="path30014" inkscape:connector-curvature="0" fill="none" stroke="#000000" d="M589.809,1059.068h-2l-2,1l-1,1l-0.999,2v2
		l0.999,2l2,1h2l2-1l1-1l1-2v-2l-1-2L589.809,1059.068l-1,1v2l1,2l2,1h2.999l2-1l1-1"/>
	<path id="path30016" inkscape:connector-curvature="0" fill="none" stroke="#000000" d="M597.809,1063.068l2-3l1.999-1l1,1v1l-1,4
		l-0.999,3 M601.808,1065.067l1-2l2-3l2-0.999h2l1,0.999v1l-1,4l-1,3 M608.81,1065.067l1-2l1.999-3l2-0.999h2l1,0.999v2l-1,3v2l1,1
		h1l1.999-1l1-1l2-3"/>
	<path id="path30018" inkscape:connector-curvature="0" fill="none" stroke="#000000" d="M622.809,1063.068l2-3l2-4
		 M629.809,1047.068l-5.999,18v2l1,1h2l1.999-1l1-1l2-3 M623.809,1055.068h6.999"/>
	<path id="path30020" inkscape:connector-curvature="0" fill="none" stroke="#000000" d="M632.809,1066.067l1.999-1l1-1l1-2v-2
		l-1-0.999h-1l-1.999,0.999l-1,2v3l1,2l1.999,1h2l2-1l1-1l2-3"/>
	<path id="path30022" inkscape:connector-curvature="0" fill="none" stroke="#000000" d="M644.808,1068.068l-1-1l1-1l1,1v1l-1,2
		l-1.999,2"/>
	<path id="path30024" inkscape:connector-curvature="0" fill="none" stroke="#000000" d="M660.808,1059.068"/>
	<path id="path30026" inkscape:connector-curvature="0" fill="none" stroke="#000000" d="M668.808,1063.068l2-3l1-2v2h3l1,1v2l-1,3
		v1l1,1h1l2-1l0.999-1l2-3"/>
	<path id="path30028" inkscape:connector-curvature="0" fill="none" stroke="#000000" d="M682.809,1066.067l2-1l0.999-1l1-2v-2
		l-1-0.999h-0.999l-2,0.999l-1,2v3l1,2l2,1h1.999l2-1l1-1l2-3"/>
	<path id="path30030" inkscape:connector-curvature="0" fill="none" stroke="#000000" d="M691.811,1063.068l1.999-4l-1,5v3l1,1h1
		l3-1l1.999-2l1-3v-3 M700.808,1059.068l1,4l1,1h2l2-1"/>
	<path id="path30032" inkscape:connector-curvature="0" fill="none" stroke="#000000" d="M707.809,1066.067l2-1l1-1l1-2v-2l-1-0.999
		h-1l-2,0.999l-1,2v3l1,2l2,1h2l1.999-1l1-1l2-3"/>
	<path id="path30034" inkscape:connector-curvature="0" fill="none" stroke="#000000" d="M716.809,1063.068l2-3l1.999-1l1,1v1l-1,4
		l-1,3 M720.808,1065.067l1-2l2-3l2-0.999h2l1,0.999v2l-1,3v2l1,1h1l1.999-1l1-1l2-3"/>
	<path id="path30036" inkscape:connector-curvature="0" fill="none" stroke="#000000" d="M735.808,1066.067l2-1l1-1l1-2v-2l-1-0.999
		h-1l-2,0.999l-1,2v3l1,2l2,1h2l2-1l1-1l2-3"/>
	<path id="path30038" inkscape:connector-curvature="0" fill="none" stroke="#000000" d="M744.81,1063.068l1.999-3l2-1h2l1.999,2v2
		l-0.999,2l-2,2l-3,1l2,1l1,2v3l-1,3l-1,2l-1.999,1l-1-1v-2l1-3l2.999-3l3-2l3.999-3l3-3"/>
</g>
</svg>
