<?xml version="1.0" encoding="utf-8"?>
<!-- Generator: Adobe Illustrator 16.0.0, SVG Export Plug-In . SVG Version: 6.00 Build 0)  -->
<!DOCTYPE svg PUBLIC "-//W3C//DTD SVG 1.1//EN" "http://www.w3.org/Graphics/SVG/1.1/DTD/svg11.dtd">
<svg version="1.1" id="Layer_1" xmlns="http://www.w3.org/2000/svg" xmlns:xlink="http://www.w3.org/1999/xlink" x="0px" y="0px"
	 width="549.46px" height="410.72px" viewBox="0 0 549.46 410.72" enable-background="new 0 0 549.46 410.72" xml:space="preserve">
<path d="M410.159,81.722c-0.111,5.338-9.79,4.207-14.073,6.396c1.099-3.378,5.541-3.415,7.677-5.758c2.236,1.466-2,1.776-1.92,3.199
	C405.639,85.305,407.75,83.366,410.159,81.722z"/>
<path d="M415.915,81.722c-0.548,2.013-2.464,2.651-4.478,3.197C411.589,82.514,414.061,82.426,415.915,81.722z"/>
<path d="M420.395,81.722c-0.585,1.121-1.191,2.223-3.2,1.919C416.905,81.642,418.563,81.596,420.395,81.722z"/>
<path d="M323.157,84.92c1.684,1.518,3.858,2.542,4.479,5.119C325.703,88.962,322.067,86.98,323.157,84.92z"/>
<path d="M305.888,85.56c0.852,0,1.706,0,2.559,0c0.717,1.627,1.569,3.121,2.56,4.479c1.877-0.544-0.834-1.609,0-3.199
	c2.825,0.586,2.696,4.125,3.197,7.037C310.544,91.992,307.935,89.057,305.888,85.56z"/>
<path d="M334.673,91.317c-2.487,0.764-5.062-3.879-8.316-4.479C329.448,85.474,333.49,88.649,334.673,91.317z"/>
<path d="M394.167,86.199c-0.09,1.831-2.669,1.17-4.479,1.28C389.175,85.045,392.712,86.667,394.167,86.199z"/>
<path d="M332.115,87.479c3.954,0.396,10.191,0.071,12.156,4.478c-1.908-0.009-2.175-1.665-3.84-1.919
	c-1.889,0.557,1.482,0.957,0.64,2.559C337.572,91.404,335.25,89.034,332.115,87.479z"/>
<path d="M440.866,86.84c0.74,0.537,1.715,0.845,3.197,0.64C444.408,90.506,440.656,89.012,440.866,86.84z"/>
<path d="M273.261,87.479c2.767,0.291-1.726,3.023-2.559,3.838c-1.825,4.147-4.404,7.537-6.396,11.515
	C262.993,98.474,269.902,91.416,273.261,87.479z"/>
<path d="M449.822,88.119c1.396,0.094,1.374,1.612,1.278,3.199C448.884,91.766,448.808,89.073,449.822,88.119z"/>
<path d="M356.423,90.679c-1.563,1.783-7.098,1.68-8.316-1.279C350.966,89.276,352.31,90.455,356.423,90.679z"/>
<path d="M361.541,88.76c0.105,1.979-2.251,2.877-3.198,1.919C358.783,89.414,360.05,88.973,361.541,88.76z"/>
<path d="M452.379,89.398c0.64,0,1.278,0,1.92,0c0.874,1.258,0.609,3.656,1.28,5.118C452.3,95.022,453.364,91.188,452.379,89.398z"/>
<path d="M455.579,90.679c0.639,0,1.278,0,1.918,0c0.182,2.591,1.099,4.446,1.279,7.037
	C455.917,97.165,456.214,93.453,455.579,90.679z"/>
<path d="M316.761,91.957c1.998,0.825,4.646,3.517,3.84,5.117C318.872,95.816,316.725,94.978,316.761,91.957z"/>
<path d="M460.057,93.236c1.468,1.542,3.736,4.891,3.2,6.397C460.584,99.295,459.254,95.008,460.057,93.236z"/>
<path d="M405.042,106.03c1.882-3.237,2.772-7.462,7.676-7.676c-0.561,2.85-4.153,2.669-3.84,6.396
	c1.859-0.914,1.82-3.725,3.84-4.477c2.347,1.301-1.598,4.696-1.919,7.677c-0.235,2.179,0.894,6.718-2.561,7.676
	c0.318-3.645,1.959-5.175,0-8.316c-0.931,2.266-2.129,4.266-3.197,6.396c-1.627-0.063-1.511-2.384-0.642-3.198
	c-1.736,0.404-1.841,4.367-3.837,2.558c0.009-2.334,1.816-2.872,2.56-4.478c0.098-1.587-0.332-2.653-1.279-3.198
	c-0.842,1.062,0.654,4.414-1.278,5.758c-1.094,0.026-1.658-0.477-1.92-1.279c-1.625,0.292-1.074,2.766-2.56,3.197
	c0.37,1.335,2.413-0.92,3.837-0.639c-1.835,2.003-4.767,2.909-7.675,3.839c2.534-1.856,4.619-7.149,3.839-10.236
	c-1.382,1.818-1.492,4.905-3.198,6.397c-3.038-1.137,0.387-2.855,0-5.115c-2.983,3.414-6.169,6.627-10.875,8.314
	c1.457-3.021,5.262-3.692,6.396-7.036c-2.138-1.051-2.868,4.79-7.034,3.838c0.225-2.121,1.915-2.775,3.196-3.838
	c-1.138-1.272-2.378-5.545,0.642-5.759c-0.259,2.189-1.448,4.66,1.921,4.479c0.969-0.052-1.023-4.184,0.64-5.118
	c0.988,0.931,1.344,2.496,1.278,4.479c2.99-0.021,1.22-1.819,1.277-3.839c2.24-0.106,2.018,2.253,3.199,3.197
	c1.52-0.399-0.098-3.938,1.28-4.477c1.467,1.748,2.572,2.448,3.838,0c2.443-0.524,2.478,1.359,3.199,2.558
	c0.211-2.896,4.73-4.972,7.035-7.677C411.655,99.004,403.883,100.938,405.042,106.03z"/>
<path d="M464.534,97.717c2.889-0.759,1.432,2.835,4.479,1.919c-0.094,1.396-1.611,1.374-3.196,1.277
	C466.291,98.944,464.058,99.684,464.534,97.717z"/>
<path d="M469.653,98.994c3.513,0.538,5.397,2.705,6.396,5.756C473.455,103.296,470.156,102.543,469.653,98.994z"/>
<path d="M312.923,100.275c3.2,1.491,5.13,4.251,5.117,8.955C315.627,107.378,315.536,103.29,312.923,100.275z"/>
<path d="M415.915,112.427c-4.742-0.416-4.781-8.396-1.279-10.234C415.609,103.886,414.621,110.438,415.915,112.427z"/>
<path d="M376.254,114.347c-1.798,0.093-1.844-1.565-1.918-3.199c5.955,0.838,4.382-5.853,7.677-7.677
	c0.38,1.324-0.792,4.201,0.64,4.478c-0.197,0.869-1.603,0.531-2.56,0.641c-0.218,1.282,0.132,2,1.279,1.919
	C379.975,112.097,377.205,112.313,376.254,114.347z"/>
<path d="M417.833,104.112c0.388,2.266,0.733,7.566,3.841,8.956c0.708-2.476-2.262-2.276-0.641-3.838
	c2.933,0.344,2.649,2.486,5.757,1.279c-2.18,2.312-2.395,7.364-0.641,10.234c-3.572,0.375-3.209-3.185-3.198-6.396
	c-1.136,1.461-1.351,3.388-0.64,5.118c-3.615,0.797-2.593-3.426-1.279-4.479C418.087,113.975,412.979,106.75,417.833,104.112z"/>
<path d="M332.115,104.751c2.415,0.998,0.688,6.138,1.92,8.315C330.706,113.195,331.037,106.978,332.115,104.751z"/>
<path d="M299.49,106.67c-1.47,3.863-1.773,8.892-5.758,10.236C296.234,114.077,296.348,108.861,299.49,106.67z"/>
<path d="M335.952,106.67c2.028,0.742,1.344,4.201,3.198,5.118C337.035,113.85,334.078,108.681,335.952,106.67z"/>
<path d="M339.791,109.87c1.997-0.293,2.045,1.368,1.918,3.198C340.589,112.482,339.489,111.881,339.791,109.87z"/>
<path d="M294.37,110.51c1.38,2.682-2.548,5.538-3.196,8.314C289.646,115.998,293.882,113.446,294.37,110.51z"/>
<path d="M350.665,113.708c-2.637-0.346-5.385-0.583-6.395-2.559C346.714,110.043,349.98,111.2,350.665,113.708z"/>
<path d="M270.702,111.148c-1.529,3.163-3.491,5.893-3.201,10.875c0.652-0.416,0.663-1.471,1.923-1.279
	c-1.194,4.993-1.943,10.425-1.923,16.633c-3.198-3.135-0.229-10.781,0-14.714c-0.647,0.416-0.66,1.473-1.918,1.279
	C266.8,119.187,265.882,112.3,270.702,111.148z"/>
<path d="M431.91,111.148c0.152,3.944,0.812,6.647,2.559,10.236C430.795,120.844,430.732,114.558,431.91,111.148z"/>
<path d="M389.688,111.788c1.476,0.811-2.501,6.744-5.757,7.036C384.999,115.628,387.973,114.337,389.688,111.788z"/>
<path d="M412.717,113.066c2.241,0.959,2.611,3.789,3.199,6.399c1.713-0.636,0.793-3.898,3.199-3.841
	c-0.963,5.436-3.05,9.745-8.317,10.875C415.697,122.719,413.532,120.135,412.717,113.066z"/>
<path d="M426.791,113.066c2.437,2.468,2.636,7.175,4.479,10.235C427.221,122.756,426.149,116.216,426.791,113.066z"/>
<path d="M435.107,113.066c2.485,0.223-0.764,6.257,1.281,8.318C433.617,120.419,434.498,115.748,435.107,113.066z"/>
<path d="M438.948,114.986c0.661,2.688,0.27,5.435,1.919,8.315c-2.309,0.178-1.736-2.526-3.84-2.559
	C437.919,119.08,438.296,116.896,438.948,114.986z"/>
<path d="M289.254,116.906c-1.285,2.553-2.829,4.848-3.841,7.676C284.448,122.315,286.575,117.655,289.254,116.906z"/>
<path d="M252.152,117.548c2.482,1.229-1.012,6.913-1.279,9.595C248.988,124.17,252.251,120.861,252.152,117.548z"/>
<path d="M326.997,118.185c-2.612,2.506-5.705,4.532-7.036,8.314C318.889,122.861,323.074,118.965,326.997,118.185z"/>
<path d="M445.344,118.185c1.328,2.18,2.782,5.852,1.915,8.314C444.705,125.859,444.926,119.749,445.344,118.185z"/>
<path d="M282.857,120.106c2.758,1.893-2.293,6.513-1.277,10.875C278.218,128.184,282.399,123.205,282.857,120.106z"/>
<path d="M419.754,120.106c1.141,3.27-3.749,11.025-9.596,11.516C413.223,127.646,417.435,124.822,419.754,120.106z"/>
<path d="M448.542,120.743c2.008-0.303,1.69,1.723,3.197,1.919C451.135,125.167,448.627,122.536,448.542,120.743z"/>
<path d="M456.859,120.743c2.229,0.616,1.681,6.994-0.642,7.037C456.534,125.538,457.172,123.617,456.859,120.743z"/>
<path d="M460.697,121.385c3.479,1.85-0.707,6.332-1.278,8.314C457.929,127.544,461.772,125.253,460.697,121.385z"/>
<path d="M247.032,122.024c1.759-0.136,1.178,3.86-0.64,3.84C245.931,123.908,247.047,123.532,247.032,122.024z"/>
<path d="M277.739,123.302c3.264,1.266-1.351,6.713,0.642,8.958C274.278,131.008,278.05,126.481,277.739,123.302z"/>
<path d="M464.534,123.302c2.292,0.849-1.169,6.313-2.56,7.678C459.801,130.249,464.629,126.15,464.534,123.302z"/>
<path d="M314.202,123.943c4.831,8.75,0.329,26.817-5.756,28.788C313.284,146.187,316.182,135.287,314.202,123.943z"/>
<path d="M422.954,123.943c2.4,1.537-1.829,6.978-4.478,7.677C420.112,129.206,422.255,127.299,422.954,123.943z"/>
<path d="M486.284,123.943c1.566,3.077-2.461,6.053-2.558,9.596C481.228,131.604,485.416,126.633,486.284,123.943z"/>
<path d="M241.915,124.583c2.885,0.604,0.953,5.423,3.838,4.479c0.205,1.482-0.104,2.454-0.641,3.198
	C243.515,130.233,241.759,128.364,241.915,124.583z"/>
<path d="M449.182,125.862c2.062,0.994,3.953,6.025,0.642,7.035C450.135,130.025,449.496,128.106,449.182,125.862z"/>
<path d="M466.453,125.862c1.655,2.006-1.66,9.174-7.035,8.315C462.991,132.637,464.968,129.493,466.453,125.862z"/>
<path d="M470.292,126.502c1.905,1.333-1.607,2.606-1.279,4.479C466.219,130.056,469.715,127.904,470.292,126.502z"/>
<path d="M514.432,134.818c-2.775-2.343-4.53-5.702-7.678-7.677C510.348,126.119,514.075,130.475,514.432,134.818z"/>
<path d="M420.395,127.142c-2.365,3.819-5.248,7.119-9.597,8.958C411.192,132.76,416.835,129.418,420.395,127.142z"/>
<path d="M249.59,128.421c0.537,3.105-0.365,10.288-3.197,12.154C247.404,136.469,248.475,132.42,249.59,128.421z"/>
<path d="M238.717,130.341c2.554-1.888,4.438,2.36,3.838,5.758C239.797,135.657,241.287,130.969,238.717,130.341z"/>
<path d="M273.901,130.341c3.079,1.266-1.314,5.273,0,8.955C270.628,137.385,274.332,133.448,273.901,130.341z"/>
<path d="M513.792,136.098c0,2.131,0,4.264,0,6.396c-2.289,0.372-1.944-1.892-1.919-3.838c-1.097-2.954-5.145-2.959-5.757-6.396
	C509.482,132.733,511.442,134.608,513.792,136.098z"/>
<path d="M237.437,132.898c2.957,0.055,3.712,4.917,2.559,7.037C237.923,138.811,238.865,134.668,237.437,132.898z"/>
<path d="M416.554,134.177c1.034-0.181,1.102,0.604,1.923,0.64c-2.766,4.273-4.959,9.117-10.238,10.875
	c0.423-3.721,3.424-1.397,1.281-5.118C413.513,140.091,415.478,137.578,416.554,134.177z"/>
<path d="M479.885,134.818c-2.206,2.909-2.854,7.382-4.477,10.875C472.85,142.995,476.028,135.325,479.885,134.818z"/>
<path d="M305.246,136.736c0.515,2.22-0.949,2.459-0.638,4.479c-4.282-2.342-1.231,3.6-5.117,3.198
	c-0.104-2.024,1.7-2.139,1.278-4.479C303.653,140.912,302.402,137.271,305.246,136.736z"/>
<path d="M266.224,138.656c2.132,5.113,1.292,10.793-2.559,14.714c1.731,3.145-3.285,9.683-5.758,12.795
	c2.036-5.614,4.093-12.932,7.676-18.551c-0.103-0.749-1.167-0.541-1.918-0.64C265.223,144.905,266.01,142.068,266.224,138.656z"/>
<path d="M298.21,140.576c2.246,1.781-1.399,8.283-4.479,8.957C294.744,146.066,297.299,144.141,298.21,140.576z"/>
<path d="M417.195,141.215c2.97,1.166-0.787,3.515-1.277,5.116C414.108,144.894,416.967,142.736,417.195,141.215z"/>
<path d="M451.74,142.494c-0.529,1.604-1.751,2.514-1.918,4.479C447.578,146.534,449.672,142.522,451.74,142.494z"/>
<path fill="#FFFFFF" d="M161.95,143.134c0.266,3.037-2.414,3.129-2.559,5.759c-1.067,0-2.133,0-3.199,0
	c-1.024-2.518,2.762-0.222,2.558-1.919c-0.195-0.87-1.603-0.53-2.558-0.641C157.145,144.299,158.615,142.785,161.95,143.134z"/>
<path d="M294.37,143.134c0.747,3.317-2.508,8.144-6.396,8.958C289.721,148.721,292.583,146.463,294.37,143.134z"/>
<path d="M447.262,143.134c2.574,0.254-1.278,3.94,0,7.036C443.641,149.457,446.988,145.515,447.262,143.134z"/>
<path d="M478.608,143.134c2.697,1.64-2.798,5.57-2.559,8.958C472.154,149.254,477.981,145.654,478.608,143.134z"/>
<path d="M234.878,151.452c1.041-2.796,0.875-6.8,3.839-7.676C237.628,146.524,238.055,150.79,234.878,151.452z"/>
<path d="M229.762,144.415c-0.459,3.592-0.153,7.951-3.838,8.316C227.553,150.309,226.873,145.579,229.762,144.415z"/>
<path d="M290.533,145.054c-2.126,3.63-4.129,7.385-8.314,8.957C284.203,150.237,286.981,147.26,290.533,145.054z"/>
<path d="M444.063,145.054c-1.577,3.323,0.375,6.818,0.64,10.235C441.574,155.027,440.786,145.805,444.063,145.054z"/>
<path d="M239.996,146.334c-1.335,4.848-2.343,10.023-6.396,12.154C236.116,154.822,236.577,149.098,239.996,146.334z"/>
<path d="M421.673,146.334c-0.073,2.697-2.309,3.236-3.196,5.118C417.198,149.925,419.987,147.02,421.673,146.334z"/>
<path d="M222.724,155.93c-2.805-2.41-0.606,1.192-4.478,0.638c1.221-1.553,1.352-4.194,3.839-4.478c0,0.641,0,1.28,0,1.92
	c1.996-1.416,1.695-5.128,3.2-7.037C227.565,148.52,224.868,154.699,222.724,155.93z"/>
<path d="M417.833,146.972c1.107,1.773-1.627,5.171-4.478,5.117C414.587,150.122,416.417,148.753,417.833,146.972z"/>
<path d="M283.497,148.252c-1.143,2.694-3.199,4.478-5.756,5.76C277.986,150.419,281.072,149.667,283.497,148.252z"/>
<path d="M422.954,149.531c-1.861,4.322-6.333,6.034-10.875,7.677C414.29,153.235,419.869,152.629,422.954,149.531z"/>
<path d="M321.239,150.171c0.502,1.256-2.725,9.559-5.755,11.518C317.381,157.827,318.528,153.219,321.239,150.171z"/>
<path d="M439.586,150.171c0.384,2.623,3.099,6.259,2.56,7.678C439.682,157.112,438.529,152.376,439.586,150.171z"/>
<path d="M240.635,150.81c0.789,5.06-2.309,11.759-5.757,14.714C236.411,160.233,239.07,156.066,240.635,150.81z"/>
<path d="M477.329,151.452c2.88,1.068-0.772,5.815-2.559,6.396C474.481,154.573,477.238,154.346,477.329,151.452z"/>
<path d="M134.444,152.091c-0.261,1.231-2.479,0.505-1.919,2.559C130.027,154.048,131.733,151.174,134.444,152.091z"/>
<path d="M275.18,152.091c-1.298,1.688-2.231,3.739-4.478,4.478C270.553,153.433,272.606,152.499,275.18,152.091z"/>
<path d="M435.746,152.729c2.052,1.573,3.412,3.841,4.479,6.396C437.174,158.552,436.822,155.28,435.746,152.729z"/>
<path d="M323.157,153.37c1.396,2.482-2.523,5.133-1.919,8.957c-1.032,0.181-1.101-0.604-1.918-0.641
	c-0.418,7.624,0.455,15.632,3.198,21.751c-5.394-3.35-3.871-13.615-4.478-21.751C321.923,161.091,320.904,155.592,323.157,153.37z"
	/>
<path d="M217.606,154.011c-0.155,3.63-4.348,6.092-7.036,5.116C211.446,155.951,215.515,155.97,217.606,154.011z"/>
<path d="M420.395,155.29c-0.865,2.975-4.518,3.158-5.118,6.397c-0.967-2.825-3.729,0.877-5.115-0.642
	C413.609,158.004,417.09,158.712,420.395,155.29z"/>
<path d="M478.608,156.567c2.287,0.474-0.26,6.332-1.918,7.037C476.076,160.01,477.555,158.503,478.608,156.567z"/>
<path d="M434.467,159.128c1.521-1.479,3.641,1.872,3.84,3.841C436.139,162.573,436.029,160.126,434.467,159.128z"/>
<path d="M264.944,159.767c2.15-0.657,0.996,1.99,1.279,3.199C264.009,163.413,263.931,160.722,264.944,159.767z"/>
<path d="M221.444,161.045c-1.221,0.914-2.778,1.487-4.477,1.92C216.847,160.704,220.009,159.802,221.444,161.045z"/>
<path d="M432.549,161.045c2.666,0.318,3.078,2.893,3.84,5.118C434.174,165.389,432.924,163.657,432.549,161.045z"/>
<path d="M304.609,161.685c1.723,0.758-0.004,3.335,0,4.478C303.24,165.763,304.007,162.228,304.609,161.685z"/>
<path d="M315.483,162.326c0.952,0.993,0.554,6.066-1.281,6.396C313.917,165.878,314.657,164.059,315.483,162.326z"/>
<path d="M216.327,163.606c-0.312,1.173-5.18,3.194-5.119,0.64C212.74,163.858,214.127,163.325,216.327,163.606z"/>
<path fill="#FFFFFF" d="M137.642,164.885c0.351,0.929-0.748,3.307,0.64,3.198c-0.539,1.807-2.929,1.764-3.199,3.841
	c-1.557-0.403-0.339-3.233,1.279-2.562c-1.133-2.136-1.266-1.695,0.639-3.199c-0.146-0.814-1.907-0.838-1.918,0
	C133.242,164.699,136.272,163.777,137.642,164.885z"/>
<path d="M245.113,164.885c0.641,0,1.28,0,1.919,0c-1.316,2.521-2.128,5.549-5.115,6.398
	C242.498,168.667,244.933,167.902,245.113,164.885z"/>
<path fill="#FFFFFF" d="M150.437,165.525c1.629,0.927,5.534-0.417,5.758,1.919C153.935,167.144,150.03,168.489,150.437,165.525z"/>
<path d="M187.538,176.399c-0.949,0.278,0.253,0.82,0,1.919c-2.041,0.549-1.979-1.007-3.198-1.278
	c-0.477-1.969,1.755-1.229,1.277-3.198c2.974,0.716,3.979-1.551,7.037,0.64c1.916-0.421-0.611-1.369,0-2.558
	c2.794-0.45,3.604,1.087,6.397,0.639c0.255-1.533-2.914,0.354-1.919-1.92c1.919,0,3.837,0,5.756,0c1.747-0.577-1.944-1.431,0-2.56
	c4.237-0.025,6.518-2.011,10.873-1.919c-1.304,2.96-6.013,2.517-9.595,3.199c0.09,1.83,2.669,1.17,4.479,1.28
	c-0.089,2.508-2.867,1.868-4.479,1.281c-1.791,0.626,0.929,1.707-0.64,2.558c-2.503,0.546-8.557-1.471-6.396,1.918
	c-2.473,0.125-4.715,0.022-6.397-0.639c-1.89,0.556,1.484,0.957,0.638,2.558C189.743,178.034,188.438,177.42,187.538,176.399z"/>
<path d="M432.549,166.165c3.053-0.066,2.848,3.123,3.84,5.118C433.952,170.732,432.7,168.998,432.549,166.165z"/>
<path d="M441.504,166.803c1.104,2.191-3.438,4.221-3.839,7.037C436.088,171.174,440.568,169.084,441.504,166.803z"/>
<path d="M233.599,168.722c1.301,1.76-0.102,6.271-2.56,6.398C231.92,173.015,232.719,170.828,233.599,168.722z"/>
<path d="M245.754,170.642c2.165,1.303-2.969,5.838-4.478,7.677C239.814,175.344,244.898,173.425,245.754,170.642z"/>
<path d="M442.145,171.283c1.134,0.666-2.949,6.73-4.479,8.956C437.925,176.018,439.949,173.566,442.145,171.283z"/>
<path d="M229.12,171.923c3.029,2.36-1.774,7.468-2.558,10.233C223.879,179.862,229.662,176.208,229.12,171.923z"/>
<path d="M225.924,174.48c0.627,3.197-1.879,8.775-5.118,10.234C222.011,180.804,224.675,178.351,225.924,174.48z"/>
<path d="M188.82,189.834c0,0.64,0,1.28,0,1.919c-3.635-0.631-5.024-3.505-6.396-6.396c-2.104,1.731,1.75,2.896,1.277,5.117
	c-2.047-0.308-2.812-2.508-2.558,1.278c-5.585-2.822-9.624,0.059-12.154-6.396c2.265-0.348,1.571,2.264,3.837,1.919
	c1.648-0.155-0.879-1.099,0-2.559c1.541-0.263,1.393,1.169,3.198,0.64c-0.176-1.314-1.708-1.277-2.558-1.919
	c1.326-1.687,1.686-1.354,1.919-3.2c0.514,0.341,1.04,0.668,1.92,0.641c0.352,1.419-1.223,0.911-1.279,1.919
	c0.544-0.117,0.605,0.25,0.639,0.641c1.448-0.472,1.401-2.438,3.199-2.56c0.478-1.97-1.755-1.229-1.278-3.198
	c2.238-0.319,2.528-2.589,5.115-2.559c0.344,3.693-4.866,3.266-2.558,7.036c1.096,0.027,1.656-0.475,1.919-1.28
	c1.798,1.025-1.386,2.393-1.28,3.837c2.01,0.315,1.692-2.204,3.198-0.639C185.011,187.245,186.553,188.902,188.82,189.834z"/>
<path d="M444.702,175.121c-2.063,2.197-3.037,5.492-2.559,10.234C438.44,183.168,441.087,175.778,444.702,175.121z"/>
<path d="M346.188,177.038c1.459,0.887,3.232,1.459,2.56,4.479c-0.75-0.104-0.54-1.167-0.641-1.919
	C347.847,178.366,345.628,179.094,346.188,177.038z"/>
<path d="M362.18,177.038c1.763,3.146,4.214,5.597,5.118,9.597C365.075,183.955,362.437,181.687,362.18,177.038z"/>
<path d="M371.776,177.038c1.31,2.104,3.425,3.399,3.839,6.399C373.424,182.217,371.695,180.535,371.776,177.038z"/>
<path d="M252.152,177.679c2.594-0.247,0.703,3.985,1.277,5.758C250.836,183.685,252.726,179.45,252.152,177.679z"/>
<path d="M243.195,178.958c1.968,2.014-0.752,4.761-1.279,6.399C240.379,183.778,242.879,180.807,243.195,178.958z"/>
<path d="M268.144,178.958c1.862,4.111,5.282,6.66,6.396,11.517C271.907,187.136,268.625,184.446,268.144,178.958z"/>
<path d="M222.083,179.598c-0.934,2.904-3.727,3.949-5.116,6.396C215.279,183.009,219.836,180.778,222.083,179.598z"/>
<path d="M135.723,180.236c2.71-0.028,0.579,4.364-1.278,3.84C134.277,182.203,135.89,182.11,135.723,180.236z"/>
<path d="M435.107,181.517c1.487,0.644,2.062,2.2,1.92,4.477C435.578,185.299,433.43,183.384,435.107,181.517z"/>
<path d="M443.422,182.157c2.15-0.234,1.067,2.771,1.922,3.837C443.365,186.054,443.437,184.064,443.422,182.157z"/>
<path d="M236.798,183.437c2.882,0.896-1.381,4.757-1.92,6.396C233.359,188.064,236.913,185.927,236.798,183.437z"/>
<path d="M273.901,183.437c2.624,2.496,4.458,5.777,6.397,8.956C276.509,191.065,274.775,187.682,273.901,183.437z"/>
<path d="M279.019,184.077c1.943,2.532,3.765,5.19,5.756,7.677C281.014,191.327,278.367,186.834,279.019,184.077z"/>
<path d="M376.894,184.077c1.253,1.307,3.778,1.339,3.841,3.837C378.665,187.423,377.384,186.145,376.894,184.077z"/>
<path d="M296.931,184.715c3.42,0.978-3.143,5.625-2.561,0.64C295.386,185.302,296.812,185.664,296.931,184.715z"/>
<path d="M283.497,185.356c3.018,1.034,3.662,4.439,5.118,7.036C284.792,192.164,284.372,188.531,283.497,185.356z"/>
<path d="M367.939,185.356c2.703,1.775,3.641,5.313,5.116,8.314C370.1,192.15,368.99,188.78,367.939,185.356z"/>
<path d="M194.575,191.113c-3.23,1.928-6.684-1.405-7.036-4.479C190.062,185.635,191.687,190.415,194.575,191.113z"/>
<path d="M444.702,186.635c1.908,1.08,1.624,4.348,1.92,7.036C444.377,192.931,444.661,189.661,444.702,186.635z"/>
<path d="M193.297,187.915c1.683-0.234,4.175,3.19,3.838-0.64c2.22,1.407,6.437,0.812,7.035,3.839
	C201.67,188.924,192.861,193.041,193.297,187.915z"/>
<path d="M204.172,187.274c1.28,0,2.561,0,3.84,0c0.605,2.312-2.521,0.892-3.84,1.278
	C204.172,188.127,204.172,187.701,204.172,187.274z"/>
<path d="M290.533,187.274c2.052-0.56,1.327,1.661,2.56,1.922C292.348,190.903,289.698,189.251,290.533,187.274z"/>
<path d="M447.903,187.915c2.859,0.765,1.321,5.929,3.197,7.678C447.837,195.23,448.077,191.364,447.903,187.915z"/>
<path d="M170.269,210.944c0.796-0.224-0.528-3.687,0-5.759c1.915,0.646,1.263,3.854,1.92,5.759
	c-2.032,0.687-0.953,1.939-3.199,3.197c0.318-2.222-0.648-7.015-3.2-8.315c3.406,3.438,1.621,10.238-0.64,13.436
	c-0.516-0.339-1.038-0.668-1.919-0.642c1.04-2.602,3.604-7.521,0.64-10.235c-4.633,0.605-7.087,10.754-1.277,9.598
	c-3.063,2.703,1.702,5.036,1.277,8.956c3.175,0.454,3.411,0.516,5.758-0.642c-0.001,2.984-2.528,3.439-4.478,4.479
	c-2.572-1.081-2.301-2.479-5.118-0.639c0.903-2.807,0.043-3.803-1.278-5.76c0.96-2.113,1.563,1.331,3.198,0.644
	c-1.657-2.396-5.459-2.646-6.396-5.757c1.035-0.184,1.101,0.604,1.919,0.638c-2.201-2.521-4.055-8.784-0.641-11.515
	c1.706,1.339-1.594,3.055-1.278,5.118c1.996-2.908,5.047-4.763,6.396-8.317c-0.578-1.744-1.431,1.945-2.559,0
	c0.538-0.74,0.843-1.714,0.64-3.197c1.148-0.079,1.352,0.782,2.56,0.641c-1.16-3.671,3.636-4.188,3.838-8.315
	c-1.833,0.938-1.351,4.194-4.479,3.837c1.156-1.636,4.145-4.781,1.919-7.676c1.063-2.708,1.719,1.011,3.84-0.639
	c1.443,4.715-1.294,9.312-1.919,15.354C169.703,204.683,168.952,208.847,170.269,210.944z"/>
<path fill="#FFFFFF" d="M387.131,189.834c1.232,2.604,5.662,2.014,7.035,4.479C390.731,193.91,387.178,193.624,387.131,189.834z"/>
<path fill="#FFFFFF" d="M387.77,196.87c6.495-1.181,10.924-4.429,15.992-7.035c-0.497,0.568-0.688,1.445-0.641,2.559
	c2.258-0.088,2.859-1.83,5.116-1.919C402.609,194.902,397.877,198.127,387.77,196.87z"/>
<path d="M454.94,198.149c1.055-0.087-0.671-2.667,0-4.477c2.385,2.308,2.704,6.678,6.396,7.678
	c-4.353,3.651-10.093-2.666-8.958-10.234C454.657,192.035,453.209,196.682,454.94,198.149z"/>
<path d="M423.593,192.393c1.843,0.076,4.187-0.351,5.116,0.64C428.4,193.917,422.944,194.584,423.593,192.393z"/>
<path d="M131.245,193.671c1.715,1.909,2.472,4.778,3.199,7.679C131.204,200.961,131.896,196.646,131.245,193.671z"/>
<path d="M151.075,200.708c1.22,1.989,2.778-1.001,4.478-0.641c-0.025,3.387-3.818,3.005-7.036,3.2
	c0.587-3.728,5.986-4.626,7.677-8.958C156.478,198.432,154.746,200.539,151.075,200.708z"/>
<path d="M458.779,194.312c2.001,2.688,4.479,4.903,6.396,7.676C460.698,202.071,458.251,197.142,458.779,194.312z"/>
<path d="M463.254,195.591c3.006,0.404,4.262,2.56,5.117,5.117C465.236,200.435,464.511,197.746,463.254,195.591z"/>
<path d="M469.653,195.591c1.672-0.183,2.751,0.233,2.559,1.919C470.538,197.69,469.46,197.276,469.653,195.591z"/>
<path fill="#FFFFFF" d="M373.697,196.87c4.677,0.655,6.94,3.724,10.234,5.759C379.875,203.898,375.904,199.573,373.697,196.87z"/>
<path fill="#FFFFFF" d="M334.033,206.465c-3.662,2.493-8.715-4.43-10.236-8.315C329.557,198.575,328.513,205.803,334.033,206.465z"
	/>
<path d="M257.269,198.79c2.568,1.27,3.409,4.268,4.479,7.035C258.99,204.743,257.291,202.602,257.269,198.79z"/>
<path d="M287.332,198.79c1.283,7.462,5.109,12.376,9.6,16.629C288.468,213.719,287.885,207.957,287.332,198.79z"/>
<path fill="#FFFFFF" d="M316.761,199.429c1.181-1.349,3.403,1.678,3.84,3.197C318.252,202.628,318.15,200.388,316.761,199.429z"/>
<path fill="#FFFFFF" d="M335.952,199.429c6.519,2.796,12.264,8.933,21.109,12.153c-2.56,1.513-10.903,0.951-13.435-2.557
	c1.904-1.238,4.179,2.621,7.035,2.557C347.771,208.077,339.16,204.755,335.952,199.429z"/>
<path d="M275.821,199.429c2.312-0.607,0.891,2.518,1.28,3.838C274.681,203.816,274.837,200.405,275.821,199.429z"/>
<path d="M135.723,200.07c0.808,4.812,5.601,12.17,1.919,15.991C137.905,209.829,134.658,207.106,135.723,200.07z"/>
<path d="M261.746,200.708c2.937,0.688,1.59,5.663,4.478,6.396C263.297,208.944,261.767,203.903,261.746,200.708z"/>
<path d="M290.533,201.988c2.114,1.938,2.227,5.878,4.478,7.677c1.125-0.367,3.759,0.771,3.84-0.639
	c0.526,1.89-0.912,2.385,1.279,4.478C294.642,211.953,290.923,208.636,290.533,201.988z"/>
<path d="M138.922,202.628c2.312-0.605,0.893,2.52,1.277,3.837C137.89,207.071,139.309,203.948,138.922,202.628z"/>
<path d="M278.378,203.267c0.641,0,1.279,0,1.92,0c0,1.707,0,3.411,0,5.118C277.526,208.812,278.575,205.417,278.378,203.267z"/>
<path d="M289.893,214.783c-2.886-1.657-3.795,1.471-3.839,4.479c0.75-0.104,0.542-1.168,0.64-1.921
	c1.673-0.749,2.752,1.973,2.56-0.644c1.873,0.543-0.384,2.061,0,3.201c-2.441-3.414-1.906,4.669-1.922,7.678
	c1.331-0.167,0.179-2.811,1.281-3.201c0.536,5.437,2.157,9.783,3.2,14.716c-4.596-6.037-8.072-13.892-7.037-22.392
	c-1.548,0.162-2.488-2.563-0.64-4.479c-2.069-0.79-0.489,2.068-2.56,1.278c2.837-3.175-2.922-8.023,1.279-10.232
	c-1.274,5.384,4.89,7.77,1.919,10.875c0.188,1.521,1.729-0.711,1.919-1.28c-1.125-2.481-1.85-5.11-1.919-7.035
	C286.964,205.787,288.517,211.885,289.893,214.783z"/>
<path fill="#FFFFFF" d="M335.952,203.267c2.472-0.09,5.358,1.984,6.397,5.118C339.431,207.466,337.215,205.844,335.952,203.267z"/>
<path d="M265.584,205.826c0.938-1.706,3.512,0.27,3.2,1.918C266.776,208.048,267.093,206.025,265.584,205.826z"/>
<path d="M403.123,205.188c1.79,0.348-1.129,6.353-2.56,7.677C400.986,209.874,401.585,207.061,403.123,205.188z"/>
<path d="M403.762,208.385c1.425,0.269,0.5,3.394,0,3.838C404.014,222.201,402.055,211.779,403.762,208.385z"/>
<path d="M164.51,210.944c-0.525,2.46-0.498,5.471-3.199,5.755C159.84,214.437,161.306,210.561,164.51,210.944z"/>
<path d="M405.682,212.223c1.994,0.838-0.203,6.718,1.92,8.957C404.686,219.076,405.083,215.568,405.682,212.223z"/>
<path d="M468.373,212.865c1.47,1.302,0.232,5.312,0.64,7.674C465.914,219.742,467.825,215.264,468.373,212.865z"/>
<path d="M483.727,216.699c-1.999,0.294-2.045-1.365-1.922-3.197C483.805,213.21,483.853,214.87,483.727,216.699z"/>
<path d="M176.664,220.539c-1.725,0.875-1.697-4.673,0.641-5.116c-0.819,4.725,1.774,4.031-1.919,7.677
	C173.652,222.519,175.926,220.745,176.664,220.539z"/>
<path d="M408.879,215.421c0.962,2.45,1.546,5.279,2.561,7.678C409.306,221.719,407.649,218.253,408.879,215.421z"/>
<path d="M476.049,228.216c1.192-0.822-1.47-3.181-0.64-5.76c2.941,1.749,2.607,6.775,4.477,9.599
	c-5.304-2.335-13.979-9.468-8.314-16.634c0.279,2.922-0.648,7.046,0.64,8.956c1.454-0.681,0.245-4.021,0.643-5.758
	C475.665,220.072,473.745,226.255,476.049,228.216z"/>
<path d="M485.646,216.062c0.014,1.509-1.103,1.883-0.643,3.84c1.179-0.743,0.444-3.396,3.199-2.56
	c0.099,1.591-1.006,1.979-1.28,3.197c2.55-1.492,1.834,0.758,1.921,3.197c0.568-0.283,1.145-0.558,1.277-1.279
	c1.414,0.079,0.275,2.716,0.642,3.84c0.567-0.284,1.146-0.562,1.279-1.278c1.021,1.542,0.33,4.789,3.2,4.479
	C490.558,232.606,479.943,219.267,485.646,216.062z"/>
<path d="M429.348,217.342c-0.696,2.285-3.83,2.139-5.116,3.839C422.535,219.023,427.809,218.383,429.348,217.342z"/>
<path d="M411.439,218.621c3.251,2.719,3.562,8.38,7.677,10.236C415.471,229.076,412.692,222.917,411.439,218.621z"/>
<path d="M138.922,219.26c2.549-0.417,1.833,2.433,1.92,4.477C138.289,224.156,139.008,221.306,138.922,219.26z"/>
<path d="M177.944,221.18c1.208,1.875-2.544,4.258-5.118,4.477C173.956,223.59,177.216,223.649,177.944,221.18z"/>
<path d="M152.356,221.818c1.317,0.815,3.243,1.021,3.197,3.2C154.238,224.204,152.31,223.998,152.356,221.818z"/>
<path d="M182.422,225.018c1.521,3.457-2.366,7.005-5.758,7.675C177.804,229.356,181.373,228.45,182.422,225.018z"/>
<path d="M297.572,225.657c3.083,0.928,0.471,6.155-0.641,7.036C295.136,230.859,298.736,228.989,297.572,225.657z"/>
<path d="M478.608,225.657c2.358,1.056,2.703,4.122,3.841,6.397C479.28,231.807,479.631,228.044,478.608,225.657z"/>
<path d="M289.893,238.452c-1.927,1.465-3.705-2.67-3.839-5.118C288.365,234.012,288.073,237.284,289.893,238.452z"/>
<path d="M413.998,246.128c-2.846-0.005-0.472-3.754,1.277-3.197c-1.488-2.479,1.278-5.21,2.56-8.318
	c-0.715,0.788-0.556,1.314,0.644,1.281C418.892,240.238,416.118,242.718,413.998,246.128z"/>
<path d="M293.093,238.452c2.282,1.063,1.27,1.717,1.919,3.839C292.191,243.189,293.279,240.186,293.093,238.452z"/>
<path d="M161.95,240.37c2.595-0.248,0.705,3.987,1.28,5.757C159.672,246.054,162.294,242.705,161.95,240.37z"/>
<path d="M272.62,241.01c0.57,1.351,2.729,1.11,2.56,3.197C272.81,244.58,271.222,242.484,272.62,241.01z"/>
<path d="M488.205,241.652c2.165,0.818,1.002,4.966,2.558,6.397c1.427-0.653-0.835-2.944,0-5.118
	c2.792,1.379,3.125,6.009,3.842,7.674c0.938-2.043,1.828-4.139,1.918-7.035c2.063-0.57,0.898,2.088,1.919,2.56
	c-4.858,5.225,2.26,10.273,0,18.555c-0.449,1.655-2.404,2.003-1.278,5.114c-1.995-0.35-0.979-3.706-1.919-5.114
	c1.087-0.237,1.206,0.497,1.278,1.276c1.981-6.965-2.687-11.933-3.197-16.631C489.531,250.603,487.523,247.95,488.205,241.652z"/>
<path d="M158.753,242.291c2.432-0.514,0.813,3.023,1.278,4.479C158.202,246.677,158.863,244.099,158.753,242.291z"/>
<path d="M295.652,242.928c-0.45,1.972-0.45,1.23,0,3.198C292.593,247.234,293.325,242.052,295.652,242.928z"/>
<path d="M415.277,244.849c-1.708,4.342-1.207,13.285-3.196,16.632C409.984,256.891,411.749,249.319,415.277,244.849z"/>
<path d="M250.87,248.05c-1.063,1.28-1.719,2.971-3.84,3.196C247.622,249.493,249.051,248.571,250.87,248.05z"/>
<path d="M179.864,250.605c3.894-1.321,9.293,1.359,11.514,3.84C187.966,255.147,183.936,251.334,179.864,250.605z"/>
<path d="M295.652,249.968c1.429,0.462,0.311,3.646-1.281,3.196C293.825,251.128,294.929,250.737,295.652,249.968z"/>
<path d="M380.092,251.247c-7.035-0.214-13.2,0.448-19.191,1.276C363.006,249.771,377.908,249.766,380.092,251.247z"/>
<path fill="#FFFFFF" d="M176.664,252.523c2.976-0.411,3.616,1.505,3.199,4.479c-1.508,0.017-1.883-1.101-3.84-0.641
	C175.562,254.407,177.129,254.481,176.664,252.523z"/>
<path d="M295.652,255.085c-1.001,0.917-0.503,3.335-2.559,3.198C292.167,256.337,292.984,255.013,295.652,255.085z"/>
<path d="M251.511,255.723c-1.573,7.998-5.677,13.891-4.479,22.39c0.746,5.279,6.36,10.174,1.919,14.716
	c-3.503,0.52-3.833-2.138-7.035-1.918c-0.518,0.119-0.639,0.642-1.281,0.64c-1.064,3.362,3.337,3.38,1.281,5.757
	c-1.738-0.396-2.998-1.271-3.84-2.56c1.623-5.128,3.886-11.54,3.199-15.354c0.514-0.341,1.04-0.667,1.92-0.643
	c0.104,0.743-0.142,1.141-0.64,1.28c3.801,1.233,1.04-2.054,1.28-3.839C244.675,269.944,246.174,257.997,251.511,255.723z
	 M248.951,290.266c-2.236-2.708-2.645-7.548-3.838-9.597C241.726,283.474,242.737,291.527,248.951,290.266z"/>
<path d="M383.931,258.283c-10.224,1.006-19.859-1.509-29.428,0.642C361.163,255.055,375.961,257.324,383.931,258.283z"/>
<path d="M297.572,258.283c1.031-0.18,1.099,0.604,1.918,0.642c-3.011,10.565-3.47,30.947,1.918,39.021
	c-2.636,2.057-8.894,0.49-10.875,3.198c-0.503,2.847,0.854,3.842,0.641,6.396c-2.477,0.559-2.276-1.561-3.842-1.918
	c-0.313-4.581,2.134-6.398,4.479-8.314c-0.368-1.768-2.021-2.246-1.92-4.479c1.273-2.141,2.253-4.568,5.758-4.479
	C294.184,281.175,293.45,266.399,297.572,258.283z M296.931,297.944c-0.903-3.458-0.946-7.098-2.561-8.315
	C291.606,292.143,293.645,297.592,296.931,297.944z"/>
<path d="M294.37,260.201c1.181,2.904-2.319,6.623-2.558,10.235C290.392,267.294,293.506,263.187,294.37,260.201z"/>
<path d="M362.18,262.762c2.347,0,4.69,0,7.037,0C368.458,263.818,362.54,265.443,362.18,262.762z"/>
<path d="M449.182,264.68c-0.478,1.439-3.588,0.249-5.116,0.641C444.898,263.553,447.523,264.039,449.182,264.68z"/>
<path fill="#FFFFFF" d="M152.995,264.68c1.418,1.878-2.438,3.933-3.198,5.755C148.378,268.558,152.238,266.505,152.995,264.68z"/>
<path d="M370.495,264.68c3.55,1.778,11.163-0.504,14.715,1.278C381.331,266.587,374.601,266.816,370.495,264.68z"/>
<path d="M408.239,267.239c0.854,0,1.708,0,2.561,0c-0.188,1.305-1.729,1.255-1.921,2.56
	C408.013,269.599,408.349,268.195,408.239,267.239z"/>
<path d="M358.344,269.16c0.018-0.624,0.781-0.497,1.277-0.642c2.771,0,5.545,0,8.316,0c1.125,0.368,3.759-0.771,3.84,0.642
	C367.009,268.581,362.342,271.052,358.344,269.16z"/>
<path d="M455.579,271.078c-3.937-1.702-7.942,0.639-12.797,0c-1.583,0.082-1.087-0.782,0-0.642
	C447.553,271.005,453.047,267.11,455.579,271.078z"/>
<path d="M238.717,269.798c2.497-0.415,1.012,3.773-0.641,3.198C237.548,271.189,238.98,271.338,238.717,269.798z"/>
<path d="M479.885,271.718c-6.1-1.799-13.168,0.293-19.831,0C465.149,270.827,475.953,267.641,479.885,271.718z"/>
<path d="M370.495,271.718c2.229-0.295,9.688-0.318,12.797,0.64C378.633,273.775,375.177,272.409,370.495,271.718z"/>
<path d="M440.866,271.078c-1.837,1.361-4.859,1.537-7.036,2.561C434.494,271.102,437.735,271.144,440.866,271.078z"/>
<path d="M238.077,274.275c-0.59,1.115,0.022,3.434-1.919,3.199C236.232,275.843,236.277,274.183,238.077,274.275z"/>
<path d="M339.152,274.275c0.658,2.147-1.988,0.996-3.198,1.279C335.295,273.405,337.943,274.56,339.152,274.275z"/>
<path d="M447.903,274.275c-2.801,1.676-7.795,1.16-10.876,2.559C438.607,273.937,443.518,274.369,447.903,274.275z"/>
<path d="M482.448,275.556c-4.347,0.433-13.731-0.597-19.192,0.639C466.529,273.181,478.283,273.625,482.448,275.556z"/>
<path d="M163.869,276.834c-0.885,1.89-2.954,2.593-3.837,4.479C158.83,279.86,161.198,276.536,163.869,276.834z"/>
<path d="M467.093,278.113c-5.379,1.66-18.723-0.557-24.947,2.561C448.698,276.021,460.196,276.739,467.093,278.113z"/>
<path d="M157.474,280.673c-8.227-3.384-20.819,0.633-26.229,1.922C136.502,278.357,152.177,275.341,157.474,280.673z"/>
<path d="M384.571,277.474c-2.533,1.422-10.062,3.961-11.516,0.639C376.774,279.765,379.872,276.805,384.571,277.474z"/>
<path d="M184.342,279.392c-7.199,2.368-18.534,5.062-24.31,10.879c1.445-6.583,15.071-8.564,21.75-12.158
	C183.528,277.646,183.07,279.385,184.342,279.392z"/>
<path d="M209.29,285.152c-4.302-1.246-7.454-3.635-10.876-5.76c-12.428,2.286-22.688,6.738-31.984,12.158
	C176.665,284.101,199.216,270.505,209.29,285.152z"/>
<path d="M289.893,278.113c1.305,1.252,1.908,3.21,1.92,5.759C289.291,283.927,288.735,279.741,289.893,278.113z"/>
<path fill="#FFFFFF" d="M502.918,278.113c1.396,1.163,2.791,2.328,2.56,5.118C503.424,282.724,502.582,281.008,502.918,278.113z"/>
<path d="M343.629,279.392c-2.28,2.2-7.489,1.469-11.516,1.922C334.396,279.115,339.603,279.843,343.629,279.392z"/>
<path d="M360.262,280.673c-2.414,1.001-11.525-1.272-15.353,0C347.791,278.143,357.166,279.249,360.262,280.673z"/>
<path d="M369.857,279.392c-1.722,1.688-5.024,1.802-8.316,1.922C362.451,278.811,367.525,280.471,369.857,279.392z"/>
<path fill="#FFFFFF" d="M245.113,280.673c1.194,2.047,1.6,6.887,3.838,9.595C242.737,291.527,241.726,283.474,245.113,280.673z"/>
<path d="M328.276,282.593c-3.181-0.196-5.869,0.1-8.315,0.639C319.993,280.898,327.654,280.158,328.276,282.593z"/>
<path d="M358.344,285.79c-8.377-2.797-16.802-0.898-25.591,0.643C340.161,283.135,352.097,280.351,358.344,285.79z"/>
<path d="M421.673,285.152c2.46-2.341,9.245-3.401,13.435-1.921c1.708,0,3.412,0,5.117,0
	C437.566,284.844,425.713,282.789,421.673,285.152z"/>
<path d="M372.417,283.231c-2.254,1.371-5.91,1.342-9.598,1.279C362.879,283.479,369.033,283.067,372.417,283.231z"/>
<path d="M453.018,285.152c-4.112-0.065-7.777,0.322-10.234,1.918C441.152,284.657,451.327,282.15,453.018,285.152z"/>
<path d="M328.915,286.428c-1.173,0.737-4.803-0.503-7.036,0.642C322.69,284.86,327.747,284.637,328.915,286.428z"/>
<path d="M473.491,287.07c-5.294-0.315-10.945-1.258-15.994,0C460.296,284.541,470.855,284.024,473.491,287.07z"/>
<path d="M476.049,285.152c1.919,0,3.837,0,5.756,0C481.581,286.409,475.971,287.691,476.049,285.152z"/>
<path d="M193.937,286.428c5.056,0.491,10.212,0.877,13.435,3.199C204.971,291.294,196.822,288.461,193.937,286.428z"/>
<path d="M339.791,289.628c1.149-3.324,7.454-1.501,10.234-3.196C348.417,289.299,342.652,288.011,339.791,289.628z"/>
<path d="M376.254,287.07c-3.452,1.238-7.763,1.619-12.154,1.92C366.121,286.618,373.915,287.034,376.254,287.07z"/>
<path d="M440.866,289.628c-8.747-2.438-21.651-1.16-30.067,0.644C417.916,286.935,433.491,284.779,440.866,289.628z"/>
<path d="M339.152,288.99c-3.451,0.984-10.733,1.492-16.633,1.92C327.083,289.559,334.388,286.111,339.152,288.99z"/>
<path d="M152.356,288.349c2.176,0.707-3.206,3.683,1.278,3.198c-2.253,1.373-4.903,2.348-7.678,3.199
	C146.391,290.916,150.848,291.107,152.356,288.349z"/>
<path d="M364.74,289.628c-1.92,2.328-5.012-0.035-8.315,1.281C357.903,287.867,362.815,289.318,364.74,289.628z"/>
<path d="M476.049,290.908c-1.188,0.489-11.059-1.174-14.713-0.642C464.602,289.114,474.018,287.321,476.049,290.908z"/>
<path fill="#FFFFFF" d="M294.37,289.628c1.614,1.221,1.657,4.857,2.56,8.318C293.645,297.592,291.606,292.143,294.37,289.628z"/>
<path fill="#FFFFFF" d="M382.652,289.628c1.124,2.637-2.256,6.261-2.56,9.6c-0.93,0.347-3.308-0.749-3.199,0.639
	C376.717,296.903,381.84,293.73,382.652,289.628z"/>
<path d="M449.822,290.266c-0.925,2.488-6.153,0.67-7.037,3.201c0.537,0.739,0.844,1.714,0.642,3.196
	c-2.234-0.418-6.906,2.454-7.678-0.642c2.472,0.127,4.714,0.026,6.397-0.638c-0.573-1.874-0.573-1.967,0-3.84
	C444.471,291.291,447.628,288.536,449.822,290.266z"/>
<path d="M229.762,290.908c3.607,1.068-0.169,9.021-3.199,9.595C225.598,297.63,229.601,294.734,229.762,290.908z"/>
<path d="M398.004,291.55c-1.521,1.887-2.246,4.577-5.117,5.113C394.666,295.035,395.061,292.015,398.004,291.55z"/>
<path d="M493.322,291.55c2.106,0.021,4.527-0.265,4.479,1.918C496.22,292.913,493.372,293.63,493.322,291.55z"/>
<path fill="#FFFFFF" d="M421.673,292.829c-3.312,2.034-8.987,1.709-12.153,0.64C412.873,292.834,418.511,291.574,421.673,292.829z"
	/>
<path d="M472.21,293.468c-5.985-0.63-9.318,0.184-15.352,0.638C458.924,291.598,469.461,291.061,472.21,293.468z"/>
<path d="M394.167,292.829c-1.466,3.012-5.035,3.918-7.678,5.755C386.359,296.518,392.008,294.732,394.167,292.829z"/>
<path d="M197.775,294.105c-4.231,0.888-8.699,1.538-12.796,2.56C187.97,294.215,193.425,293.4,197.775,294.105z"/>
<path fill="#FFFFFF" d="M330.195,294.105c0.681-1.45,4.022-0.243,5.758-0.638C334.306,295.323,332.901,294.094,330.195,294.105z"/>
<path d="M453.657,294.105c-0.21,1.123-4.546,3.31-4.479,0.642C450.683,294.541,451.583,293.735,453.657,294.105z"/>
<path d="M531.705,294.105c0.64,2.706,0.089,2.157,2.558,2.56c-1.304,1.469-5.311,0.232-7.676,0.642
	c-2.344-1.379,3.577,0.241,3.2-1.279c-2.317-1.019-9.454-1.364-10.877,0.641C517.673,292.858,527.323,294.427,531.705,294.105z"/>
<path d="M315.483,296.026c-2.986,0-5.97,0-8.956,0C307.858,294.906,313.673,293.552,315.483,296.026z"/>
<path d="M173.466,295.387c-0.442,1.263-1.706,1.704-3.198,1.918C169.976,295.308,171.635,295.26,173.466,295.387z"/>
<path d="M277.739,296.665c-1.919,0-3.839,0-5.756,0C271.791,294.99,278.06,294.369,277.739,296.665z"/>
<path d="M500.358,295.387c0.071,2.418-1.251,3.438-3.197,3.84C498.279,297.999,497.911,295.283,500.358,295.387z"/>
<path d="M373.697,297.305c-5.911-0.985-12.344,2.856-17.913,0C361.163,298.766,368.09,293.975,373.697,297.305z"/>
<path d="M493.961,299.865c0.911-1.647,1.5-3.621,3.839-3.84C497.309,298.094,496.03,299.373,493.961,299.865z"/>
<path d="M181.143,298.585c-1.304-1.875-3.349,0.868-4.479,1.281c0.782,0.924,2.442,0.969,3.199,1.918
	c-8.087,1.352-17.23-3.284-24.309,0.642c4.888-6.695,20.334,0.396,24.949-5.76c4.872,4.378,17.52-1.315,20.472,3.841
	c-1.724,1.031-4.688-2.779-7.677-0.64c-1.429,0.094,0.829,1.61,0,3.197c-4.15-1.82-7.457-4.481-14.072-3.84
	C179.326,298.473,180.392,298.684,181.143,298.585z"/>
<path d="M211.848,299.224c-2.788-1.315-6.601-0.29-7.678-1.92C206.707,296.232,211.52,296.201,211.848,299.224z"/>
<path fill="#FFFFFF" d="M334.673,297.944c0.158,3.787-5.571,1.68-7.676,3.198c1.894,1.392,4.219-0.503,6.397,1.28
	c-1.516,1.471-5.743,0.229-8.318,0.641C325.446,298.528,329.684,297.859,334.673,297.944z"/>
<path d="M431.269,298.585c-0.35,2.247-3.707,1.027-5.115,0.644C426.573,297.442,430.124,298.62,431.269,298.585z"/>
<path d="M442.784,297.944c-0.822,1.734-3.18,1.94-5.756,1.922C437.297,297.576,440.344,298.063,442.784,297.944z"/>
<path d="M277.101,298.585c-3.235,3.221-7.372,0.191-14.073,1.281C265.783,297.504,272.408,299.01,277.101,298.585z"/>
<path d="M274.541,301.144c-3.124,4.074-12.431,0.427-17.913,3.197C261.166,300.47,269.644,301.542,274.541,301.144z"/>
<path d="M304.609,300.503c-0.839,3.078-5.405,0.575-8.957,1.922C296.78,299.927,301.206,300.729,304.609,300.503z"/>
<path d="M371.776,300.503c-1.242,1.958-4.677,1.721-7.677,1.922C366.012,301.136,368.615,300.541,371.776,300.503z"/>
<path d="M236.798,306.261c-2.75-1.139,0.334-4.977,2.558-5.116C238.663,303.01,236.647,303.552,236.798,306.261z"/>
<path d="M275.821,301.785c2.61,6.586-6.7,11.961-8.956,17.91c6.61,2.677,16.318-6.845,23.669-3.198
	c-7.38,2.725-16.881,6.468-26.228,5.118C264.829,315.243,272.962,309.612,275.821,301.785z"/>
<path d="M418.477,304.982c-4.166-1.152-6.514-1.17-10.877,0C409.258,302.374,417.3,300.96,418.477,304.982z"/>
<path d="M369.857,305.621c-5.567,1.769-13.647-2.584-22.39-0.639C353.051,301.112,364.387,303.553,369.857,305.621z"/>
<path d="M401.842,304.982c-7.16-0.124-14.096-0.022-20.471,0.639C385.689,303.877,398.475,301.392,401.842,304.982z"/>
<path d="M169.628,307.542c-4.155,0.568-8.522-0.78-12.154,0c-3.368,0.727-4.419,3.257-6.396,3.198
	C152.971,304.958,168.026,304.296,169.628,307.542z"/>
<path d="M353.865,307.542c0.626-2.785,6.252-0.567,8.955-1.279C361.921,308.771,356.754,307.019,353.865,307.542z"/>
<path d="M387.77,308.18c-3.337-0.668-4.833,0.142-8.317,0.642C379.863,306.57,387.542,304.63,387.77,308.18z"/>
<path fill="#FFFFFF" d="M325.077,307.542c-3.792,3.549-11.898,0.404-17.271,3.198c0.589-1.118,1.999-1.411,3.84-1.279
	c-0.417-0.651-1.471-0.661-1.281-1.919C316.207,306.338,320.552,308.18,325.077,307.542z"/>
<path d="M354.504,309.46c-2.979-0.301-4.269-0.865-7.035,0C346.841,306.543,355.129,306.543,354.504,309.46z"/>
<path d="M373.055,307.542c-3.146,3.379-12.271,2.612-15.351,2.559C361.378,307.804,368.317,308.771,373.055,307.542z"/>
<path d="M204.812,314.577c-2.929-2.633-9.631-3.391-12.155-4.478C195.995,309.209,203.788,309.584,204.812,314.577z"/>
<path d="M281.577,312.659c-1.281-1.648-1.869,2.778-3.84,2.561c0.509-5.019,5.26-2.991,8.316-4.479
	c-1.398,1.588-3.497,2.475-5.118,3.839C278.817,313.954,281.652,313.313,281.577,312.659z"/>
<path fill="#FFFFFF" d="M323.798,310.739c-0.706,1.637-3.433,1.256-5.756,1.279C319.141,310.771,321.353,310.639,323.798,310.739z"
	/>
<path d="M215.048,312.018c-1.548,1.131-3.781-0.375-5.117,1.918c6.659,1.131,0.487,1.721-3.837,1.921
	C207.158,312.937,211.236,310.118,215.048,312.018z"/>
<path d="M184.342,316.495c-11.82,2.896-26.282,3.149-35.824,8.318c3.113-5.242,11.053-4.41,17.271-5.758
	C172.065,317.695,178.303,315.634,184.342,316.495z"/>
<path d="M188.82,317.136c4.114,1.713,8.729-0.306,13.434,0c2.037,0.882-2.26,0.634-3.198,0.643c1.625,2.212,6.565,1.108,7.677,3.838
	C201.91,318.972,192.983,320.435,188.82,317.136z"/>
<path d="M172.825,320.974c1.306-1.468,5.312-0.231,7.678-0.642C179.198,321.803,175.191,320.567,172.825,320.974z"/>
<path d="M296.931,78.523c0.103,0.75,1.167,0.541,1.919,0.639c-22.167-3.271-47.039,15.183-56.295,32.626
	c-4.125,0.178-8.704,4.76-10.233,9.596c-0.948,0.739-1.614,0.739-2.559,0c-0.206,1.5-1.012,2.4-0.642,4.478
	c-1.475,0.451-3.507-0.298-3.195,3.197c-3.252-2.164-2.478,1.214-3.841,3.199c-2.309,3.366-8.262,6.241-8.315,10.235
	c-7.064-0.612-10.811,7.487-17.912,8.957c0.396,11.909-7.829,15.2-12.155,22.391c-0.805-0.854-1.923-1.257-0.638-2.56
	c-2.442-0.522-2.478,1.362-3.199,2.56c-0.036-10.11,10.926-18.001,9.595-29.426c2.02-1.831,1.82,2.436,3.839,2.56
	c-1.174-1.813-0.989-4.981-2.56-6.397c-9.066,7.35-15.126,20.407-16.632,33.265c-4.295,1.035-3.434,7.229-7.039,8.957
	c-0.261,1.542,1.17,1.391,0.641,3.198c-3.944,0.747-3.375-3.021-4.478-5.117c0.112-2.661,3.166-2.378,4.478-3.84
	c-1.787-1.538-3.514,2.431-5.758,2.561c-0.318-2.879-5.841-0.556-4.478-5.117c-1.664,0.257-1.93,1.91-3.838,1.919
	c0.707,2.918,5.13,2.121,5.759,5.118c-5.074-1.854-7.232,2.788-9.596-4.479c-1.943,0.789,0.693,2.201,0,3.839
	c-2.839-2.334-2.222,1.053-4.479,0c0.027-2.747,1.626-3.919,1.919-6.396c2.675,0.332,1.754,3.051,3.199,0
	c1.924-0.646,1.134,1.426,1.28,2.558c2.604-1.874,5.959-2.997,5.116-8.314c-2.619-0.621-4.098,1.583-5.756,0
	c-1.265,3.607,2.699,1.992,3.837,3.2c-1.938,1.895-5.469-0.042-6.396-1.281c0.426-4.95,0.124-10.135,2.559-11.516
	c-0.162-2.183-1.619-3.074-1.279-5.756c2.369-2.64,4.937-1.738,8.317-1.28c-0.217,2.557-5.251,0.295-6.396,1.92
	c0.913,1.857,6.521-0.979,5.756,2.558c-2.832,0.306-3.182-0.879-5.116,0c-0.611,2.958,4.16,0.53,3.838,3.199
	c-1.492,0-2.983,0-4.479,0c0.603,3.175,3.456,0.293,5.116,1.922c-0.435,2.75-4.4,0.067-5.116,1.278
	c1.251,2.392,4.183,1.651,6.396,0.64c-1.933-4.512,1.127-7.163,0.64-12.154c-1.489-1.697-3.446-1.021-5.759-0.64
	c0.524-5.232,3.565-7.947,7.037-10.234c2.056-0.562,0.876,2.108,2.559,1.919c-0.426-2.582-0.068-1.766,3.197-1.919
	c-0.555-1.86-0.957-0.718-2.558-0.64c-0.303-2.009,1.722-1.689,1.919-3.199c1.767-0.272,0.602,2.385,1.918,2.561
	c2.214-0.474,0.94-2.438-0.638-2.561c6.197-1.604,14.295-5.852,24.949-6.396c-16.373-3.152-30.28,3.188-39.021,12.794
	c-0.947,0.742-1.614,0.742-2.559,0c-6.17,10.317-8.293,22.62-5.757,36.465c-0.598,0.682-2.361,0.198-1.921,1.919
	c-1.088,0.235-1.207-0.5-1.278-1.28c-2.463,0.738-1.353,5.047-4.479,5.118c0.078-5.253,5.064-5.596,5.117-10.875
	c-15.798,6.647-14.714,43.596,0,53.094c0.45-1.27-1.822-9.386,2.56-8.314c-0.709-1.209-0.815-3.021-1.278-4.479
	c0.946-0.741,1.61-0.741,2.558,0c-0.299-5.417,1.491-8.743,4.479-10.875c-1.381,3.013-3.965,10.356-0.641,15.354
	c-2.694,0.136-2.253-2.861-3.838-3.839c-1.44,3.376,5.671,3.698,5.758,7.677c-2.666-0.32-4.068-1.903-6.396-2.561
	c-3.477,6.854,1.396,13.599,4.478,20.473c4.056,9.046,3.596,21.416,12.795,24.949c2.22-3.937-3.393-4.978-4.479-7.678
	c6.31-5.978,6.842,8.391,12.155,9.596c-5.967,0.507-10.496,0.517-13.436-3.197c-3.27,2.697-4.332,7.604-9.595,8.314
	c0.2-3.323,3.167-9.115,7.677-10.232c-3.729-6.827-12.373,0.869-15.354,4.477c-0.548-2.967,7.13-8.596,13.436-8.956
	c-4.92-4.643-11.996,3.855-15.354,7.036c0.646-5.116,8.048-9.007,14.073-10.877c-4.79-7.672-5.104-17.643-10.875-25.588
	c-4.025-5.542-10.774-9.193-12.155-15.992c-0.662-3.266-0.148-9.701-0.64-14.712c-0.57-5.835,1.836-9.697,1.918-15.353
	c-4.772-7.58-2.538-18.63-4.477-26.868c2.871-9.229,4.822-28.101,14.711-29.427c3.564-0.478,7.02,0.769,7.677,5.117
	c-15.119,2.841-6.629,23.269-7.677,35.186c2.923-9.02,3.671-20.213,9.596-26.229c8.954-2.914,16.844-13.711,28.785-13.436
	c4.961,0.114,13.718-1.675,17.913,3.838c-18.467,3.285-35.531,7.974-35.824,29.426c4.814-2.22,9.917-4.155,15.991-5.114
	c5.644-5.661,7.379-15.226,16.633-17.273c1.442,3.035,3.347,5.608,3.2,10.234c8.343-1.893,11.801-8.668,18.551-12.154
	c4.665-4.932,9.158-10.035,12.792-15.993c20.191-15.913,33.359-42.041,64.613-44.781c0,0.641,0,1.279,0,1.919
	c23.056-1.824,42.883,5.477,68.45,3.841c18.923-1.213,38.692-3.904,56.935-8.317c10.355-2.504,23.924,6.016,33.903,3.199
	c14.231,10.29,31.439,17.604,42.858,30.706c6.271,1.194,10.312,4.615,16.635,5.756c2.344,4.692,7.021,7.138,7.034,12.796
	c0.001,0.725-0.816,2.435-0.64,3.197c1.114,4.782,7.231,8.748,4.479,14.714c-2.303,2.875-12.853,9.979-15.354,2.558
	c6.965,4.951,8.705-3.68,9.595-8.958c1.854,2.193,1.105,5.353,0,7.678c8.636-4.744-1.749-9.478-1.92-15.992
	c-0.03-1.166,0.837-2.855,0.641-3.838c-1.95-9.769-13.434-12.415-21.109-15.354c-6.853-3.257-10.552-10.85-16.633-15.353
	c-6.982-5.171-17.289-5.028-22.392-13.434c-11.048,0.524-20.92-4.923-31.984-5.118c-7.16-0.126-21.72,3.311-29.426,5.118
	c-6.338,1.488-14.572,2.783-21.109,3.197c-4.477,0.285-8.854-0.845-12.797,0c-4.589,0.982-10.734,0.239-17.272,0.64
	c-3.4,0.21-5.39-1.19-8.312-1.919c-8.256-2.053-18.523-1.927-27.509-3.199C302.775,78.722,300.134,76.792,296.931,78.523z
	 M132.525,171.923c1.618-2.84,1.083-4.718,0-7.678c1.121-0.585,3.193-0.22,3.839-1.278c-2.103-0.668-4.136-1.41-3.839-4.479
	c1.066-0.854,4.071,0.233,3.839-1.92c-1.414-2.795-2.529,0.907-4.479,1.279c-0.572-2.919,2.103-2.589,3.837-3.199
	c1.258-4.489-0.396-9.084,0-13.435c0.521-5.711,4.235-9.032,5.759-12.154c-15.615,7.271-15.51,37.101-10.236,51.817
	c3.113-2.204,4.279-9.999,8.958-10.236C138.3,167.65,134.535,176.432,132.525,171.923z M156.194,146.334
	c0.957,0.109,2.361-0.229,2.559,0.641c0.202,1.695-3.585-0.6-2.559,1.918c1.066,0,2.132,0,3.199,0
	c0.144-2.627,2.822-2.722,2.559-5.758C158.615,142.785,157.145,144.299,156.194,146.334z M170.269,172.561
	c-1.282-1.062-2.974-1.719-3.199-3.838c3.163,1.106,2.157-1.307,5.119,0c0.953-4.164,2.665-7.571,3.837-11.515
	c-6.622,1.479-12.32,3.886-16.633,7.677c-0.192,3.471,0.881,4.253,0,7.039c2.504,1.01,1.325-1.662,2.559-1.923
	c1.974,0.8,1.156,4.39,3.199,5.119c0.254-3.275,6.229,1.183,7.037-3.838c-1.102,0.251-1.641-0.952-1.919,0
	C170.913,171.29,171.072,172.403,170.269,172.561z M137.001,161.045c-0.945-0.118-0.586-1.547-0.638-2.558
	c-1.486,0.22-2.998,0.415-2.559,2.558C135.391,160.216,136.908,162.473,137.001,161.045z M135.083,166.165
	c0.01-0.84,1.774-0.815,1.918,0c-1.903,1.502-1.771,1.062-0.638,3.199c-1.618-0.673-2.835,2.156-1.28,2.561
	c0.271-2.077,2.66-2.032,3.199-3.841c-1.388,0.108-0.291-2.27-0.64-3.197C136.272,163.777,133.242,164.699,135.083,166.165z
	 M156.194,167.444c-0.224-2.335-4.129-0.992-5.758-1.919C150.03,168.489,153.935,167.144,156.194,167.444z M149.797,270.436
	c0.759-1.823,4.615-3.878,3.198-5.755C152.238,266.505,148.378,268.558,149.797,270.436z"/>
<path d="M498.439,130.979c-1.648-2.384-3.415-6.676-6.396-5.759c-5.874-6.278-9.023-15.285-14.713-21.749
	c7.371,1.194,11.548,11.026,16.632,16.633c0.517-0.55,1.753-0.381,1.92-1.281c3.023,5.293,7.31,9.323,13.437,11.515
	C507.156,134.871,502.379,127.121,498.439,130.979z"/>
<path d="M425.511,125.221c0.878,3.453-3.341,7.313-6.396,8.956C421.153,131.098,424.357,129.184,425.511,125.221z"/>
<path d="M485.004,177.038c-0.648,0.416-0.661,1.472-1.918,1.279c-0.461-2.974,3.775-4.956,0-5.756
	c1.415-3.387,7.291-7.309,3.837-11.518c3.153-9.769,4.989-22.939,1.921-35.182c6.563,4.556,3.903,18.676,2.561,25.589
	c0.104,0.75,1.166,0.539,1.92,0.641c-3.225,2.139-0.558,6.236-3.84,8.314c0.143,0.923,1.909,0.226,1.92,1.279
	c0.188,2.534-0.781,3.911-1.92,5.118c3.224,3.163-0.68,8.713-1.921,11.514c1.2,4.44-0.152,8.334-1.918,11.516
	c1.368,17.397,7.179,30.351,17.913,38.384c1.714,12.07-0.531,27.82,1.277,41.581c0.749,5.686,4.339,10.564,2.56,17.909
	c-1.761-0.37-2.672-1.593-4.479-1.918c-1.746-0.467-1.288,1.272-2.561,1.279c-0.489,3.901,1.986,4.835,3.84,6.397
	c0.338,2.683-1.117,3.572-1.279,5.756c0.919,1.082,2.906-2.174,5.115-1.918c-0.743-1.179-3.395-0.445-2.56-3.2
	c5.685-1.779,12.601-2.328,19.19-3.197c-3.375-2.411-10.938,0.586-14.071,0c-0.449-2.368,2.243-1.597,3.197-2.561
	c0.205-1.697-3.584,0.6-2.558-1.921c8.771,0.861,12.176-0.478,18.551-2.557c0.108-1.815-2.162-1.25-1.278-3.843
	c3.133-0.104,8.172-0.312,12.794-0.639c-1.091,2.03-7.01,0.99-10.875,1.918c1.936,1.479,6.599,0.228,9.597,0.643
	c-2.47,2.647-8.45,1.785-12.798,2.56c1.604,2.021,4.965,2.285,7.036,3.839c-4.328,1.507-8.144-2.892-12.793,0
	c5.413,2.261,13.541,1.809,20.473,2.561c-2.915,2.9-8.751,0.116-14.076,0.642c-6.206,0.607-12.929,3.337-18.551,3.196
	c0.886,1.457,4.449,0.238,6.396,0.643c-1.936,4.882,8.786,1.595,10.234,5.114c-2.225,1.143-11.284-2.317-10.874,3.2
	c-16.754-5.384-25.873,10.295-39.023,4.478c-0.549-2.04,1.008-1.979,1.279-3.197c-1.039-1.612-2.077,2.137-2.56,3.197
	c-3.265-4.12,3.638-6.617,5.756-9.596c3.046-4.276,4.455-9.953,7.679-13.434c-0.874-10.695,0.807-19.125-0.644-27.508
	c-0.697-4.039-3.694-6.047-6.396-10.235c-2.566-3.979-2.93-8.815-5.115-11.516c-1.932-2.383-6.217-4.291-8.957-7.036
	c-4.393-4.407-6.706-8.964-12.794-11.515c-3.332,6.477-8.127,11.49-15.994,13.435c4.67-5.578,18.704-10.544,12.157-21.113
	c-1.199,2.553-0.29,4.735-2.56,5.117c5.136,3.576-6.324,8.145-9.599,13.436c-3.226,5.212-0.256,9.95-5.115,12.795
	c-3.607,0.194-3.604-3.222-4.479-5.758c-1.586,0.096-3.104,0.12-3.197-1.278c-1.276,0.644-1.01,2.831-3.199,2.56
	c-4.035-2.146-5.527-6.839-10.878-7.677c-3.79,12.412-6.048,26.362-12.152,36.464c0.298,2.52-1.343,3.321,0.641,4.479
	c-4.355,3.745-4.982,11.223-11.517,12.796c-3.329,4.985-3.933,12.696-7.034,17.91c6.935-2.021,15.737-2.172,19.192-7.675
	c-0.23-6.598-11.163-2.486-11.518-8.957c3.078,0.976,4.517,3.592,8.956,3.198c-0.323-2.729,0.817-8.217,5.757-7.678
	c-0.154-4.633,2.231-6.724,7.035-6.396c5.273-11.359,7.43-25.835,14.073-35.822c-3.328,12.549-8.562,27.233-13.436,39.021
	c-0.266,3.041,0.932,4.616,1.281,7.038c-3.229,1.991-5.688,1.854-8.316-0.641c-4.784,2.599,0.167,7.913-3.197,12.155
	c3.562-3.42,13.09-3.027,21.75-3.199c6.047-0.123,14.554-5.08,15.994,0.639c-3.77-0.662-11.307-1.598-14.075,0.642
	c0.586,1.683,8.126-1.27,8.314,2.56c-2.919,0.359-3.981-1.133-7.034-0.64c-12.472,7.709-33.317,3.319-47.979,8.315
	c-0.741-0.946-0.741-1.613,0-2.559c-1.531,0.385-2.92,0.921-5.116,0.638c3.005-7.23,8.57-11.898,12.153-18.548
	c9.457-2.545,9.051-12.812,12.154-19.834c2.927-6.618,7.042-12.869,8.956-20.474c1.241-4.919,0.446-9.973,3.197-14.712
	c-6.204-4.457-12.51-8.814-14.071-17.912c-5.238,0.288-7.287,5.499-12.795,6.396c-8.057,1.312-18.104-5.11-26.229,0
	c-15.517-1.395-28.607-11.544-46.06-10.874c-4.994,8.251-8.565,25.517-9.595,39.021c-0.332,4.359,1.161,9.938-2.56,11.518
	c-0.618-9.243,2.55-25.274,3.198-39.663c4.397-2.854,3.974-10.525,8.957-12.795c-0.42-1.915-1.368,0.609-2.559,0
	c-5.614-6.224-1.921-17.354,0.641-24.948c0.353-1.055,0.471-1.579,1.918-1.919c-0.414-0.649-1.47-0.662-1.278-1.919
	c0.825-1.521,2.069-2.624,3.838-3.199c-1.002,5.065-2.246,8.987-1.279,14.713c-6.248-1.357,2.358,7.474,3.84,10.234
	c0.312-4.852-6.791-12.848-1.922-20.47c0.671,3.692-0.279,9.214,0.641,14.072c3.198-4.291,1.077-14.808,1.92-18.551
	c3.771,8.203-1.518,13.586,3.198,21.751c-1.337,0.271-1.693-0.438-2.56-0.64c1.764,5.702,5.188,9.74,9.597,12.795
	c-0.607-2.822-4.858-5.357-3.2-8.318c-2.354-2.341-7.335-10.827-3.196-13.432c-0.428,3.625,0.583,5.812,1.277,8.315
	c1.545-1.175-0.876-3.77,0-6.396c4.432,9.642,7.903,20.243,18.553,23.669c-5.69-3.479-7.892-10.451-13.434-14.076
	c-0.615-3.585-2.701-7.146-2.562-10.873c0.034-0.862,1.195-2.503,1.281-1.919c-0.854-5.796-6.551-12.549-1.92-19.831
	c0.793,15.368,1.24,33.137,13.435,39.661c-0.205-1.518-3.619-5.322-4.478-8.314c-0.951,0.277,0.252,0.818,0,1.919
	c-6.011-4.039-6.836-19.996-4.479-28.146c-1.49,8.406,1.944,16.729,3.2,25.588c1.684-1.555-1.639-6.074,0-7.677
	c2.332,4.278,3.081,10.137,7.036,12.793c-3.953-6.069-5.167-14.875-7.678-22.39c5.298,6.786,4.023,16.309,10.236,21.75
	c-1.966-8.91-6.75-15-6.396-26.228c1.14,5.473,2.939,15.819,7.674,19.831c0.082,1.146-0.781,1.349-0.64,2.559
	c1.465,2.587,2.91,5.193,5.758,6.396c-5.552-4.26-4.711-14.908-8.317-21.113c0-1.063,0-2.132,0-3.196
	c0.75,0.103,0.539,1.167,0.641,1.919c3.803,6.634,3.994,14.96,8.315,19.831c-0.532-1.603-1.752-2.513-1.92-4.478
	c2.85-7.078-5.217-13.265-4.479-22.391c2.457,8.632,5.897,16.279,8.956,24.309c-0.641,0-1.278,0-1.919,0
	c4.452,4.346,6.848,7.586,10.875,11.515c-2.655,0.084-7.062-3.59-10.234-5.117c5.473,5.327,15.436,9.107,22.39,10.877
	c-4.246-3.003-9.554-4.946-13.432-8.317c6.277,1.83,13.376,8.37,22.39,9.599c5.29-5.223,9.49-5.331,17.911-5.759
	c2.026,13.751,13.6,17.958,23.669,23.67c1.538-1.257-3.022-6.847,0.639-8.316c2.082,0.192,0.318,2.01,0.642,3.198
	c1.299,4.799,9.19,6.058,9.597,12.155c2.513-3.648,4.324-10.763,4.478-14.713c1.674-0.181,2.753,0.235,2.562,1.92
	c3.653-1.464,5.24-4.995,7.675-7.678c-1.106-1.512-4.186,6.594-5.115,3.2c2.562-2.856,6.799-7.155,5.758-11.517
	c-1.279,2.773-1.406,6.698-4.479,7.679c8.317-13.723-7.282-21.467-14.713-27.509c-5.118,1.704-12.007,1.644-15.993,4.479
	c2.203-3.128,5.766-4.896,11.516-4.479c-12.522-1.856-22.37,4.494-25.587,14.071c-1.433-0.272-0.26-3.151-0.641-4.477
	c-1.233,0.261-0.505,2.479-2.561,1.92c-0.08-1.147,0.785-1.351,0.641-2.561c-12.696,0.329-21.659-3.075-24.948-12.154
	c3.005,1.046,3.566,4.537,6.396,5.759c0.889-3.036-3.636-6.161-5.755-8.315c5.256-0.344,5.985,9.36,13.435,8.957
	c-0.508-2.266-4.787-0.758-4.479-3.838c1.984-0.063,3.056,0.781,4.479,1.278c1.282-2.616-4.512-2.972-4.479-6.396
	c2.516,0.26,2.732,2.812,5.118,3.198c1.501-0.203,1.431-1.979,2.559-2.559c-4.298-1.457-9.564-1.95-10.234-7.036
	c2.359,2.12,3.97,4.984,8.315,5.117c1.279-0.911-3.15-1.499-2.559-3.84c2.447,2.558,8.109,4.974,11.514,4.479
	c-1.276-2.348-4.947-2.305-6.397-4.479c4.668,1.993,11.209,0.741,14.074,0c-4.437,2.841-7.585,7.766-11.514,7.678
	c-0.237,2.139,4.538-0.78,3.196,3.838c-2.376-0.415-4.019-1.947-6.396-0.639c0.927,1.418,3.808,0.883,5.118,1.918
	c1.726-1.047,3.042-2.499,3.837-4.479c10.109-5.294,23.751-1.23,31.985-1.918c7.259,5.326,13.75,11.412,18.555,19.189
	c2.021-0.104,2.137,1.701,4.478,1.279c14.229,24.564,42.746,34.188,38.384,74.848c2.107-0.025,1.104-3.16,3.84-2.561
	c0.828,1.155-0.573,3.231,0.641,5.117c1.816,0.112-0.774-4.186,1.918-3.201c-0.308,2.017,0.913,2.503,1.279,3.84
	c0.605-1.067,2.364-2.24,1.921,0.643c4.455-11.906,0.797-34.656,1.278-49.257c-0.569,0.493-1.446,0.685-2.562,0.639
	c1.426-4.104,2.529-4.45,1.92-8.957c-0.567-0.395-1.145-0.772-1.278,0C487.481,217.219,478.293,196.218,485.004,177.038z
	 M408.239,190.472c-2.256,0.087-2.857,1.83-5.115,1.919c-0.05-1.114,0.143-1.99,0.641-2.559c-5.069,2.606-9.498,5.855-15.992,7.035
	C397.877,198.127,402.609,194.902,408.239,190.472z M323.798,198.149c1.522,3.887,6.575,10.81,10.237,8.315
	C328.513,205.803,329.557,198.575,323.798,198.149z M394.167,194.312c-1.373-2.465-5.804-1.874-7.035-4.479
	C387.178,193.624,390.731,193.91,394.167,194.312z M313.565,201.988c-2.242-0.532-2.366-3.179-5.117-3.198
	C309.164,199.31,311.823,202.949,313.565,201.988z M320.601,202.628c-0.437-1.521-2.659-4.546-3.84-3.199
	C318.15,200.388,318.252,202.628,320.601,202.628z M350.665,211.583c-2.855,0.064-5.13-3.794-7.033-2.557
	c2.528,3.508,10.874,4.068,13.434,2.557c-8.847-3.22-14.593-9.355-21.109-12.153C339.16,204.755,347.771,208.077,350.665,211.583z
	 M351.307,205.826c-0.754,0.101-1.819-0.108-1.921,0.64c4.722,1.891,7.367,5.854,14.072,5.759
	c-4.438-4.309-13.229-7.662-17.271-10.235C347.568,203.595,350.14,204.008,351.307,205.826z M342.35,208.385
	c-1.039-3.136-3.926-5.209-6.397-5.118C337.215,205.844,339.431,207.466,342.35,208.385z M410.798,273.636
	c-5.373-0.524-6.104,5.411-3.839,8.956c2.456,1.377,4.082-2.673,2.562-1.279C406.323,281.921,409.543,274.719,410.798,273.636z
	 M505.476,283.231c0.232-2.79-1.162-3.955-2.561-5.118C502.582,281.008,503.424,282.724,505.476,283.231z M486.284,291.55
	c-1.759,5.699-5.226,9.698-7.036,15.35c7.584-1.405,20.815-2.616,22.394-12.153c-1.855-2.838-6.068-3.316-6.397-7.678
	c2.24,1.186,2.014-0.573,3.197-1.918c-2.938,0.229-4.548-0.946-7.034-2.559c0.549,4.188-4.529,6.113-3.199,8.956
	c1.258-0.901,3.562,1.188,5.117,3.197C489.534,295.122,488.71,292.536,486.284,291.55z M376.894,299.865
	c-0.106-1.388,2.27-0.292,3.2-0.639c0.301-3.34,3.683-6.963,2.559-9.6C381.84,293.73,376.717,296.903,376.894,299.865z
	 M409.52,293.468c3.165,1.072,8.842,1.396,12.153-0.64C418.511,291.574,412.873,292.834,409.52,293.468z"/>
<path d="M400.564,168.722c2.323,0.234,2.373,2.743,4.479,3.2c2.191-2.03-2.667-2.416-1.919-5.119
	c2.188-0.479,0.812,2.599,3.198,1.919c1.582-0.898,1.13-2.202,0.64-3.838c3.419,2.076,4.274-1.486,7.037-1.919
	c2.181,0.804,1.76,4.21,5.117,3.839c0.177-2.522-2.735-1.957-2.562-4.478c4.161,3.302,7.938,6.989,9.597,12.795
	c1.939-2.439-0.65-4.507-1.277-8.957c2.495,2.62,3.95,6.283,4.478,10.875c2.704,0.708,4.187,2.64,4.479,5.759
	c-2.84,0.28-1.585-3.536-5.117-2.559c-0.166-1.966-1.389-2.878-1.92-4.479c-1.228,0.07,0.753,2.142,0,3.838
	c-6.202-1.565-11.831-6.241-17.912-1.279c-1.839-0.93-1.519-4.023-3.838-4.478c0.214,1.492,0.654,2.756,1.919,3.198
	c-1.765,2.16-5.507-1.179-8.955,2.561c-3.32-0.943-6.292-2.238-7.678-5.118c2.925,1.406,5.056,4.588,9.598,2.559
	c-0.684-1.449-1.94-2.324-3.84-2.559c2.041-1.789,4.104,1.841,7.035,1.279c1.896-1.122-2.449-1.327-1.919-3.197
	c1.745-0.059,1.288,1.064,2.56,0C403.287,170.692,400.308,171.324,400.564,168.722z M417.195,168.083
	c-1.807-0.539-1.763-2.928-3.838-3.198C412.398,167.802,416.444,168.998,417.195,168.083z M415.277,171.923
	c-1.119-1.866-1.392-4.58-3.838-5.119c-3.768,1.597,0.112,7.796,1.919,7.037c-1.463-0.285-2.896-3.87-1.277-5.118
	C413.841,168.709,413.928,173.638,415.277,171.923z M423.593,175.121c-1.247-2.805-0.765-7.342-3.839-8.317
	C420.146,170.053,422.651,174.552,423.593,175.121z"/>
<path d="M353.227,175.76c2.213,10.363,5.489,19.672,14.711,23.029c-0.413-2.998-4.281-2.542-5.757-4.477
	c-1.087-5.949-3.288-10.786-5.118-15.994c6.369,5.772,3.141,18.052,15.354,18.551c-3.935-2.677-8.396-4.826-8.317-11.514
	c2.72,4.744,5.292,9.636,12.795,9.594c2.542,3.969,8.542,6.046,14.716,4.479c-1.396,2.587-4.963,1.323-7.679,1.278
	c0.546,0.949,1.61,1.374,3.2,1.28c-5.574,6.84-12.169-2.283-17.913-3.198c0.619,2.623,1.605,0.912,3.839,1.918
	c2.504,3.252,5.759,5.755,10.876,6.396c-4.222,2.078-8.605-1.192-11.516-2.56c-0.896,0.229-0.055,1.129,0.641,1.279
	c-3.371,1.438-5.642-3.729-7.676-5.755c-1.737-0.46,0.456,3.016-1.279,2.559c3.36,3.892,9.982,4.518,14.073,7.678
	c-5.063-0.479-7.397-3.689-12.795-3.843c-1.122-3.976-7.615-6.862-10.235-10.872c-1.5-2.292-4.347-7.737-1.278-9.597
	c0.041,6.355,3.874,8.919,7.034,12.154C359.379,193.027,350.763,182.745,353.227,175.76z M383.931,202.628
	c-3.294-2.036-5.559-5.104-10.234-5.759C375.904,199.573,379.875,203.898,383.931,202.628z M374.975,203.908
	c-2.312,0.219-3.541-4.661-5.117-1.279C371.221,203.013,373.932,205.319,374.975,203.908z"/>
<path d="M359.623,202.628c-5.559-1.738-11.462-9.801-8.958-15.354c-0.543-1.8-2.062-2.624-1.918-5.117
	c3.674,1.527,1.488,4.701,2.562,8.315C353.043,196.338,357.852,197.729,359.623,202.628z"/>
<path fill="#FFFFFF" d="M140.2,170.642c-4.676,0.238-5.842,8.031-8.955,10.236c-5.274-14.716-5.38-44.546,10.235-51.816
	c-1.522,3.122-5.236,6.444-5.758,12.153c-0.396,4.351,1.258,8.944,0,13.435c-1.735,0.61-4.41,0.28-3.838,3.199
	c1.948-0.373,3.063-4.076,4.478-1.28c0.232,2.153-2.771,1.066-3.838,1.92c-0.297,3.068,1.735,3.81,3.838,4.479
	c-0.646,1.06-2.717,0.693-3.838,1.278c1.083,2.96,1.616,4.837,0,7.678C134.535,176.432,138.3,167.65,140.2,170.642z
	 M132.525,154.649c-0.561-2.053,1.659-1.326,1.919-2.559C131.733,151.174,130.027,154.048,132.525,154.649z"/>
<path d="M323.157,137.378c-0.983,3.706-5.624,3.76-6.396,7.678c1.063,1.635,1.718-2.496,3.839-1.921
	c-1.503,1.696-2.984,3.415-3.197,6.397c1.667-1.316,2.544-3.425,4.478-4.478c-2.519,6.216-8.386,11.786-12.155,17.913
	c1.688,0.598,3.938-3.72,5.758-5.117c-1.431,4.118-5.24,11.389-7.677,16.633c-0.521-5.048-1.318-12.272,2.559-15.354
	c-0.821-1.788-1.322,2.016-3.197,1.278c5.479-8.595,10.817-17.329,10.877-31.345c3.395,2.532-0.298,8.51,0,12.155
	C320.214,140.402,320.465,137.667,323.157,137.378z"/>
<path d="M474.129,138.656c0.854-7.418-1.527-12.243-4.478-18.551c2.979,0.22,2.285,4.112,5.758,3.838
	c0.203,1.483-0.104,2.457-0.641,3.199c1.615,1.78,1.615-3.466,3.836-3.199c1.199,1.219,0.071,1.607,0,3.199
	c3.281,0.081,1.166-5.232,3.842-5.758c0.697,3.471-1.522,4.021-1.922,6.396c2.919,0.769,2.11-7.687,5.119-8.958
	C484.434,129.461,479.044,131.975,474.129,138.656z"/>
<path fill="#FFFFFF" d="M170.269,171.283c0.28-0.951,0.82,0.25,1.92,0c-0.806,5.021-6.784,0.562-7.037,3.838
	c-2.042-0.729-1.226-4.32-3.199-5.119c-1.232,0.259-0.055,2.931-2.559,1.921c0.879-2.784-0.194-3.568,0-7.039
	c4.312-3.79,10.012-6.195,16.632-7.677c-1.174,3.942-2.884,7.35-3.837,11.515c-2.962-1.307-1.957,1.106-5.119,0
	c0.229,2.121,1.917,2.775,3.2,3.838C171.072,172.403,170.913,171.29,170.269,171.283z"/>
<path fill="#FFFFFF" d="M133.805,161.045c-0.438-2.144,1.072-2.338,2.559-2.558c0.053,1.012-0.308,2.438,0.638,2.558
	C136.908,162.473,135.391,160.216,133.805,161.045z"/>
<path fill="#FFFFFF" d="M413.358,164.885c2.076,0.27,2.031,2.659,3.839,3.198C416.444,168.998,412.398,167.802,413.358,164.885z"/>
<path fill="#FFFFFF" d="M412.079,168.722c-1.618,1.247-0.187,4.833,1.277,5.118c-1.808,0.76-5.687-5.44-1.918-7.037
	c2.444,0.54,2.718,3.253,3.837,5.119C413.928,173.638,413.841,168.709,412.079,168.722z"/>
<path fill="#FFFFFF" d="M419.754,166.803c3.076,0.975,2.59,5.512,3.839,8.317C422.651,174.552,420.146,170.053,419.754,166.803z"/>
<path d="M301.407,184.077c-0.84-2.986,3.748-6.051,3.838-10.235C306.212,176.955,302.848,181.24,301.407,184.077z"/>
<path fill="#FFFFFF" d="M308.447,198.79c2.75,0.021,2.875,2.666,5.117,3.198C311.823,202.949,309.164,199.31,308.447,198.79z"/>
<path fill="#FFFFFF" d="M346.188,201.988c4.041,2.572,12.834,5.928,17.271,10.235c-6.706,0.095-9.354-3.868-14.073-5.759
	c0.102-0.748,1.167-0.539,1.921-0.64C350.14,204.008,347.568,203.595,346.188,201.988z"/>
<path fill="#FFFFFF" d="M369.857,202.628c1.576-3.381,2.805,1.498,5.116,1.279C373.932,205.319,371.221,203.013,369.857,202.628z"/>
<path d="M433.828,214.783c-0.971,3.297-2.94,5.589-5.757,7.035C428.167,220.194,432.348,217.155,433.828,214.783z"/>
<path d="M435.746,214.783c1.499,2.586-2.073,5.586-4.479,6.397C432.677,218.963,435.432,218.092,435.746,214.783z"/>
<path fill="#FFFFFF" d="M409.52,281.313c1.521-1.394-0.104,2.656-2.562,1.279c-2.265-3.549-1.534-9.48,3.838-8.956
	C409.543,274.719,406.323,281.921,409.52,281.313z"/>
<path d="M542.58,273.636c-0.756,0.888-6.213,2.661-5.115,1.278C539.56,274.878,539.907,273.094,542.58,273.636z"/>
<path d="M373.055,274.275c-6.531,2.252-15.29,0.954-25.587,1.918C355.214,273.92,363.044,274.846,373.055,274.275z"/>
<path d="M481.166,280.673c-4.422,1.512-5.909-0.606-10.876,0.642c-0.254,1.532,2.914-0.354,1.919,1.918
	c-5.259,0.286-11.745-0.659-15.991,0.642c1.954-4.624,13.139,0.185,14.072-3.84C474.691,280.052,477.33,279.308,481.166,280.673z"/>
<path d="M142.76,288.349c-1.811,2.453-6.803,1.729-8.316,4.479c0.57,1.49,9.111-0.991,8.956,3.197
	c-4.498-2.32-11.761-2.959-15.354,0c1.464,1.548,2.268,0.772,4.479,0.639c-4.336,6.54-15.269,6.481-20.473,12.157
	c-0.409-5.818,12.6-6.139,16.634-10.237c-5.912-4.18-11.914-0.708-19.831-2.559c0.091-2.255,2.868-1.823,4.478-2.559
	c2.916,3.016,14.776,3.419,16.633,0c-1.442-2.117-7.764-4.956-10.235-1.922c-0.171-5.114,10.078-1.041,12.155,1.279
	C135.31,291.135,138.257,288.962,142.76,288.349z"/>
<path fill="#FFFFFF" d="M493.322,294.747c-1.558-2.01-3.859-4.1-5.116-3.196c-1.331-2.844,3.746-4.769,3.198-8.957
	c2.487,1.611,4.1,2.785,7.035,2.56c-1.186,1.344-0.958,3.102-3.196,1.918c0.33,4.359,4.54,4.839,6.396,7.677
	c-1.575,9.537-14.808,10.747-22.391,12.153c1.811-5.653,5.275-9.649,7.036-15.35C488.71,292.536,489.534,295.122,493.322,294.747z
	 M497.799,293.468c0.05-2.183-2.371-1.896-4.479-1.918C493.372,293.63,496.22,292.913,497.799,293.468z M497.799,296.026
	c-2.339,0.219-2.928,2.191-3.839,3.84C496.03,299.373,497.309,298.094,497.799,296.026z M497.16,299.224
	c1.946-0.398,3.27-1.419,3.198-3.838C497.911,295.283,498.279,297.999,497.16,299.224z"/>
<path d="M142.76,308.821c-0.274-1.431-3.154-0.259-4.479-0.643c2.145-4.039,8.171-4.196,11.516-7.034
	c-1.873-2.884-3.938,0.438-7.036,0c0-1.279,0-2.562,0-3.84c1.923-0.646,1.133,1.426,1.277,2.561c2.388-1.731,5.77-1.236,7.678,0.642
	c-2.077,2.826-5.857,3.948-9.597,5.113c0.115,1.805,3.041,0.798,2.56,3.201c-1.359,0.987-2.854,1.837-4.479,2.56
	c0.879,1.646,3.92,0.141,5.119,0c-1.963,3.153-8.4,1.835-11.514,3.839C135.657,311.954,140.396,311.572,142.76,308.821z"/>
<path d="M213.128,298.585c1.281,0,2.56,0,3.841,0c4.471,8.215,16.694,2.487,21.751-1.278c-1.612,3.508-5.426,4.812-9.598,5.757
	c-0.01,2.995,3.544,2.43,5.119,3.838c-2.847,1.757-4.933-2.723-8.316-2.559c0.751,4.366,6.236,3.996,9.594,5.757
	c3.647-1.684,6.093-4.568,6.398-9.597c-1.213,1.774-1.747,4.224-3.198,5.759c-0.455-2.18,0.878-8.062,5.117-7.678
	c1.72,5.629-2.93,9.661-5.758,12.796c8.508-2.584,19.19-8.527,33.904-7.035c-0.03,2.737-3.839,1.705-6.396,1.918
	c0.713,1.633,4.948-0.256,5.756,1.279c-12.907,2.875-24.85,6.708-38.383,8.956c-2.173-1.804,2.508-2.145,3.199-3.196
	c-2.479-0.544-6.316,3.053-10.234,3.196c0,1.067,0,2.137,0,3.199c-1.908-1.844-4.058-0.965-7.037-0.642
	c3.045-4.418,10.585-4.338,14.711-7.674c-2.018-1.607-4.888-2.365-7.675-3.198c-2.727,1.541-2.218,6.311-5.76,7.035
	c0.265-3.361,2.052-5.202,3.2-7.678c-4.342-2.638-12.218-4.626-18.551-3.199c4.247-4.595,14.547,1.682,19.192,0.641
	C222.366,300.861,214.453,303.017,213.128,298.585z M248.312,310.098c1.621-1.362,4.661-1.311,5.758-3.199
	C252.355,307.767,247.012,308.338,248.312,310.098z M252.152,310.098c3.221-0.188,6.325-0.496,8.316-1.92
	C258.08,309.206,253.476,308.011,252.152,310.098z"/>
<path fill="#FFFFFF" d="M326.997,309.46c-2.421-2.672,2.33-3.613,5.115-3.198c-0.158,0.692-1.272,0.435-1.278,1.278
	c2.857,0.788,6.727-0.268,10.875,0.643c-3.348,1.723-9.673,3.267-16.632,3.197c1.74-1.745,4.448-1.929,7.036-1.28
	C331.99,307.265,328.346,308.463,326.997,309.46z"/>
<path fill="#FFFFFF" d="M254.07,306.9c-1.097,1.889-4.135,1.836-5.758,3.199C247.012,308.338,252.355,307.767,254.07,306.9z"/>
<path fill="#FFFFFF" d="M260.467,308.18c-1.99,1.423-5.095,1.73-8.317,1.919C253.476,308.011,258.08,309.206,260.467,308.18z"/>
<path d="M327.638,292.829c-1.973,0.375-4.529,0.161-4.479,2.56c4.189,1.566,12.135-0.621,14.073,3.196
	c4.044-1.934,11.622-3.724,17.272-1.92c-3.677,0.682-12.938,1.413-19.83,3.841c8.374,3.319,17.678-2.456,24.946,0.641
	c-3.892,2.079-13.342-1.402-14.713,3.197c-5.104-2.14-12.994,0.688-21.111,0.642c0.77,3.394,10.119-2.904,9.598,1.279
	c4.811,0.123,8.261-1.121,13.434-0.643c-0.737,2.164-1.271,1.008-0.64,3.84c-15.604,4.441-35.887,4.201-53.096,7.035
	c-0.896-1.876,0.34-2.751-1.919-3.839c-2.521-0.176-1.957,2.735-4.479,2.562c-0.176-2.522,2.737-1.958,2.559-4.479
	c-2.002,1.007-3.645,4.984-5.756,3.839c0.851-2.137,3.741-2.229,4.479-4.479c-4.639-0.367-10.026-3.059-9.596-6.397
	c4.679,3.002,11.975,3.379,14.714,8.315c12.859-0.357,17.559-8.879,31.347-8.315c-4.74-2.813-10.53,0.632-16.633,0
	c0.928-0.987,2.496-1.344,4.478-1.278c-0.476-1.44-3.586-0.248-5.117-0.64c4.334-3.27,11.875,0.519,17.273-1.278
	c-6.053-2.148-11.963-1.878-19.833-0.642c5.822-4.919,16.155-0.423,22.391-1.919c-2.102-2.891-7.265,0.243-8.955-0.642
	c0.617-1.302,2.455-1.381,4.479-1.279c-4.271-2.26-10.856-2.939-16.632-1.918c3.46-4.1,9.58,0.117,15.35-0.641
	c-2.174-1.433-5.432-1.525-7.035-1.918c2.414-1.744,6.603,0.198,8.317,1.278c9.188-0.439,20.8-5.178,28.788-2.56
	c-5.273-0.37-9.234,0.573-13.436,1.276c3.182,4.236,14.727-1.59,18.553,2.56c6.521-0.332,16.637-4.663,19.83-0.638
	c-10.054,1.481-29.86-0.871-41.579,2.559C332.218,295.072,328.72,295.157,327.638,292.829z M335.952,293.468
	c-1.734,0.395-5.077-0.812-5.758,0.638C332.901,294.094,334.306,295.323,335.952,293.468z M325.077,303.062
	c2.575-0.41,6.804,0.832,8.318-0.639c-2.179-1.784-4.504,0.11-6.397-1.279c2.104-1.521,7.834,0.586,7.676-3.199
	C329.684,297.859,325.446,298.528,325.077,303.062z M332.115,310.098c-2.589-0.647-5.297-0.465-7.036,1.278
	c6.959,0.069,13.284-1.474,16.632-3.198c-4.148-0.906-8.017,0.148-10.874-0.642c0.007-0.845,1.121-0.584,1.278-1.276
	c-2.785-0.415-7.539,0.526-5.116,3.198C328.346,308.463,331.99,307.265,332.115,310.098z M310.363,307.542
	c-0.189,1.258,0.866,1.268,1.281,1.919c-1.838-0.133-3.25,0.164-3.838,1.279c5.374-2.792,13.478,0.347,17.271-3.198
	C320.552,308.18,316.207,306.338,310.363,307.542z M318.041,312.018c2.32-0.023,5.051,0.356,5.756-1.279
	C321.353,310.639,319.141,310.771,318.041,312.018z"/>
<path d="M272.62,95.795c0.543,1.51,1.575-1.761,3.838-0.64c-3.104,2.862-7.361,4.58-8.314,9.596
	c-2.71-7.461,7.677-15.867,17.913-17.913C281.626,89.875,275.828,91.539,272.62,95.795z"/>
<path d="M327.638,107.951c1.845-1.142,0.816-5.153,4.478-4.479c-1.825,2.226-2.96,5.142-2.559,9.594
	c-2.602,0.604-2.219-3.463-1.279-4.477c-2.489,1.988-2.584,6.371-5.758,7.677c1.193,1.148,3.507-2.009,5.758-1.921
	c-3.468,2.29-6.646,4.87-8.957,8.316c0.693-5.427,3.154-6.576,5.118-11.515c-1.587,0.759-0.772,3.92-3.84,3.198
	c0.07-2.274,2.367-2.325,1.918-5.116c-0.864,0.627-0.827,2.155-1.918,2.559c-0.118-3.003-0.202-7.797-1.92-10.875
	c2.23,0.543,2.391,3.153,3.199,5.117c1.564-0.407,0.096-2.99-0.641-3.197c2.976-2.545,3.881,5.216,3.2,6.397
	c2.065,0.572,0.896-2.087,1.919-2.56c-2.636-1.354,0.028-5.038,1.279-6.396c1.417,1.061-0.122,3.455,2.558,1.918
	C329.995,104.766,327.184,104.727,327.638,107.951z"/>
<path d="M259.188,123.943c-5.916,10.932-5.21,28.481-10.875,39.663c-1.883-2.64,3.077-9.205,2.559-14.714
	c-2.568,6.814-3.942,14.823-9.595,18.552c3.404-6.406,6.647-12.971,8.314-21.11c1.034-0.182,1.103,0.605,1.92,0.641
	c0.984-12.45,5.768-21.102,7.676-32.627c-3.047,3.774-1.979,11.667-6.396,14.072c-0.056,5.062-0.128,10.108-3.199,12.154
	c2.715-12.42,5.468-24.198,12.155-33.905c2.959,0.221-1.595,2.191-1.279,3.839c0.573,1.729,1.543-1.351,1.919-1.919
	c2.374,1.159-1.854,4.897-1.919,7.675c0.227,0.896,1.125,0.056,1.279-0.639c0.504,8.826-2.727,19.448-4.479,28.148
	C254.375,138.55,259.967,131.266,259.188,123.943z"/>
<path d="M235.517,134.818c2.768,0.624,3.68,5.863,2.559,8.314c-1.125-0.152-1.458-1.101-1.277-2.559
	c-1.53,1.714,0.389,2.906-0.641,5.118c-3.135,0.276-2.558,4.265-5.757,4.477c-0.376-3.573,1.466-4.932,1.277-8.314
	c2-0.292,2.047,1.366,1.92,3.199c1.722-1.558,0.025-5.108,0-7.036c1.304-1.284,1.253,0.282,2.559,0.64
	C236.623,136.699,235.054,136.774,235.517,134.818z"/>
<path d="M239.356,268.518c0.921-12.235,11.051-13.659,17.913-22.393c-0.765-1.683-2.19,3.017-3.838,0.642
	c2.642-3.327,4.498-7.444,6.397-11.514c1.363-0.299,1.217,0.914,1.277,1.919c2.976-3.208,6.28-6.091,8.956-9.596
	c-3.211,0.848-8.248,5.391-13.436,6.396c3.43-5.955,10.961-7.807,12.154-15.991c-3.873,2.588-6.638,9.478-10.874,9.596
	c3.9-3.988,8.571-7.208,9.593-14.074c-2.384,3.373-3.271,8.241-7.675,9.598c2.138-3.836,5.427-6.518,6.397-11.517
	c-2.537,3.008-3.357,7.732-7.678,8.957c1.231-3.464,4.8-4.587,5.118-8.957c-1.185-1.955-0.958,2.82-3.197,1.922
	c-0.167-1.873,1.445-1.966,1.279-3.84c-2.138-0.643-2.097,0.887-1.922,2.561c-1.032,0.179-1.099-0.606-1.918-0.643
	c-4.354,13.771-14.125,22.127-19.19,35.186c1.842,13.789-0.909,26.785-6.397,35.185c-0.294,2.689,0.9,6.874-1.281,7.676
	c-3.232-11.107,6.873-21.271,6.397-32.623c-0.112-2.669-2-4.468-1.919-7.038c0.193-6.143,5.311-9.831,5.757-15.992
	c8.833-5.027,10.018-17.702,15.993-25.589c-5.524-3.004-8.236-8.823-10.875-14.713c-17.782,3.866-37.076,11.306-51.816,10.873
	c-1.476-0.192-0.711,1.849-1.919,1.921c1.861,18.404-10.959,24.396-10.875,39.023c2.14-0.541,8.521-1.797,9.596,0.639
	c-2.605,3.789-11.713,1.084-14.713,4.479c7.689,2.333,15.368,4.679,18.55,11.516c-4.817-1.793-6.51-6.71-12.151-7.676
	c-4.47,8.372,8.256,8.29,6.396,14.073c-4.459-3.646-7.938-8.27-12.795-11.516c-0.951,0.542-0.925,2.057-1.278,3.196
	c0.877,2.225,2.633,1.141,3.838,1.921c-2.175,4.854-7.062,3.638-9.597,4.479c3.181-4.477,8.16-18.06,0.641-21.748
	c2.09-2.05,5.156,0.354,5.757,1.918c2.022,0.104,2.139-1.702,4.479-1.279c0.108-2.67-1.923-3.195-3.199-4.479
	c-0.448-2.795,1.089-3.604,0.64-6.397c3.399-2.281,8.132-7.827,10.237-13.435c-3.196-0.637-1.854,3.267-4.479,3.2
	c1.097-2.528,2.464-4.788,1.919-8.957c2.312-0.605,0.895,2.52,1.28,3.84c1.655-3.623,1.312-8.018-0.64-10.877
	c1.032-0.181,1.102,0.605,1.92,0.642c0.41-2.758-2.684-2.008-2.562-4.479c1.346,0.79,2.495,1.771,3.84,2.559
	c-2.938-5.137-3.662-9.729-8.315-12.154c-0.465-1.955,1.104-1.881,0.638-3.836c2.077,1.122,3.199,3.197,4.479,5.116
	c1.597-0.442-1.188-1.706-0.641-3.198c2.401,2.504,6.079,3.73,8.958,5.758c0.597-0.47,0.97-1.162,1.278-1.92
	c1.208,0.073,0.446,2.115,1.92,1.92c1.069-0.078-0.729-2.729,1.919-2.56c0,1.279,0,2.56,0,3.839c2.077-0.055,0.45-3.812,3.199-3.199
	c0.527,1.811-0.9,1.659-0.641,3.199c0.728,1.499,2.14-1.637,2.559-2.56c1.389-0.107,0.291,2.268,0.641,3.199
	c1.979-0.154,1.082-3.185,3.838-2.56c-1.563,4.137,5.307-0.404,7.039,0.641c-0.216-1.446,2.438-2.829,5.115-3.198
	c-0.06,1.644-2.497,0.914-2.558,2.56c4.776-0.767,5.434-5.657,8.957-7.678c-1.148,2.903-3.382,4.722-5.118,7.036
	c3.774,0.149,2.722-4.528,7.037-3.837c0.71-1.211,0.815-3.021,1.277-4.478c1.805,0.675,0.797,2.534,3.2,1.278
	c0.271,1.337-0.44,1.694-0.641,2.559c2.566-1.698,3.551-4.98,5.119-7.676c1.773,2.651-1.637,5.595-2.561,7.676
	c2.193,0.896,3.782-4.303,4.478-7.037c2.102,0.201,0.371,3.614,0,5.119c3.375-2.204,2.362-9.714,6.396-12.796
	c-0.62,2.58-1.181,5.217-2.558,7.038c1.931,1.878,2.201-5.979,5.114-3.199c0.079-1.843-0.348-4.188,0.642-5.118
	c2.07,3.241,0.314,12.306-4.479,12.797c1.312-2.104,3.438-3.386,3.199-7.039c-1.917,2.136-2.966,5.138-5.117,7.039
	c0.647,1.06,2.718,0.693,3.838,1.279c3.5,10.571,11.688,16.459,22.392,19.83c0.966-9.735-9.022-17.388-8.957-26.229
	c2.007,0.55,2.674,2.442,3.838,3.837c1.376-2.676-4-4.086-3.199-8.315c-0.651,0.415-0.662,1.469-1.919,1.279
	c-2.041-0.73,0.124-5.671-3.84-4.479c1.272-4.087-3.413-10.203,2.558-9.594c0.467,1.958-1.102,1.882-0.64,3.84
	c1.505-0.202,0.379-3.035,2.56-2.56c-0.047,2.726-1.07,4.475-0.641,7.677c1.821-1.591,0.364-6.459,3.2-7.037
	c-1.774,6.908,0.029,14.006,3.838,17.272c0.037-2.868-5.457-8.657-1.919-13.433c1.27,1.076,1.02,3.67,2.558,4.479
	c-0.625,1.96-1.706-0.736-2.558-0.64c0.434,4.046,2.436,6.521,3.841,9.595c-2.443,0.697,0.776,3.078-2.56,2.561
	c-0.125,4.746,6.422,7.699,3.839,10.874c0.625,0.867,2.155,0.829,2.559,1.921c-1.109,15.139,7.479,27.376,7.036,41.582
	c-0.237,7.554,4.72,11.291,5.755,17.271c0.611,3.521,0.66,8.069,0.642,12.154c-0.022,5.332-2.353,9.424-3.2,14.072
	c-0.956,5.262,1.107,11.576-4.478,14.713c-1.544-2.688,1.402-5.635,2.56-7.677c-1.112-11.5,4.168-21.699,1.921-32.622
	c-1.071-5.196-5.784-9.254-5.758-17.273c0.017-4.93-0.022-10.074-2.559-14.714c-3.296,5.417-10.45,6.675-14.072,12.154
	c-1.948,2.944-1.372,6.896-3.841,9.595c-1.442,1.586-5.434,2.603-6.396,3.201C244.194,258.208,244.201,263.669,239.356,268.518z
	 M176.024,256.362c1.957-0.46,2.332,0.656,3.84,0.641c0.417-2.976-0.224-4.892-3.199-4.479
	C177.129,254.481,175.562,254.407,176.024,256.362z"/>
<path d="M167.069,234.613c0.638,0,1.281,0,1.92,0c0,0.854,0,1.706,0,2.562c1.303-0.402,0.179-3.232,2.559-2.562
	c-0.851,1.922-0.648,4.896-0.64,7.678c-2.325,0.19-0.854-3.411-1.919-4.479c-1.414,0.078-0.272,2.713-0.64,3.838
	c-2.27,0.381-1.682-0.737-3.839,1.28C163.763,238.558,165.498,236.668,167.069,234.613z"/>
<path d="M289.893,272.357c-2.702-3.674-1.14,5.432-3.839,5.755c1.472-8.33,2.666-14.075,6.396-19.188
	c0.743-0.104,1.14,0.139,1.278,0.639C290.092,262.824,291.307,266.978,289.893,272.357z"/>
</svg>
