<?xml version="1.0" encoding="utf-8"?>
<!-- Generator: Adobe Illustrator 16.0.0, SVG Export Plug-In . SVG Version: 6.00 Build 0)  -->
<!DOCTYPE svg PUBLIC "-//W3C//DTD SVG 1.1//EN" "http://www.w3.org/Graphics/SVG/1.1/DTD/svg11.dtd">
<svg version="1.1" id="Calque_1" xmlns="http://www.w3.org/2000/svg" xmlns:xlink="http://www.w3.org/1999/xlink" x="0px" y="0px"
	 width="595.28px" height="841.89px" viewBox="0 0 595.28 841.89" enable-background="new 0 0 595.28 841.89" xml:space="preserve">
<rect x="23" y="30.425" fill="none" stroke="#E30613" stroke-miterlimit="10" width="69.863" height="69.863"/>
<circle fill="none" stroke="#009FE3" stroke-miterlimit="10" cx="57.931" cy="65.356" r="34.931"/>
<line fill="none" stroke="#E30613" stroke-miterlimit="10" x1="23" y1="30.425" x2="92.863" y2="100.288"/>
<line fill="none" stroke="#E30613" stroke-miterlimit="10" x1="23" y1="100.288" x2="92.863" y2="30.425"/>
<rect x="92.863" y="30.425" fill="none" stroke="#E30613" stroke-miterlimit="10" width="69.863" height="69.863"/>
<circle fill="none" stroke="#009FE3" stroke-miterlimit="10" cx="127.794" cy="65.356" r="34.931"/>
<line fill="none" stroke="#E30613" stroke-miterlimit="10" x1="92.863" y1="30.425" x2="162.726" y2="100.288"/>
<line fill="none" stroke="#E30613" stroke-miterlimit="10" x1="92.863" y1="100.288" x2="162.726" y2="30.425"/>
<rect x="162.726" y="30.425" fill="none" stroke="#E30613" stroke-miterlimit="10" width="69.863" height="69.863"/>
<circle fill="none" stroke="#009FE3" stroke-miterlimit="10" cx="197.657" cy="65.356" r="34.931"/>
<line fill="none" stroke="#E30613" stroke-miterlimit="10" x1="162.726" y1="30.425" x2="232.588" y2="100.288"/>
<line fill="none" stroke="#E30613" stroke-miterlimit="10" x1="162.726" y1="100.288" x2="232.588" y2="30.425"/>
<rect x="232.588" y="30.425" fill="none" stroke="#E30613" stroke-miterlimit="10" width="69.863" height="69.863"/>
<circle fill="none" stroke="#009FE3" stroke-miterlimit="10" cx="267.52" cy="65.356" r="34.931"/>
<line fill="none" stroke="#E30613" stroke-miterlimit="10" x1="232.588" y1="30.425" x2="302.451" y2="100.288"/>
<line fill="none" stroke="#E30613" stroke-miterlimit="10" x1="232.588" y1="100.288" x2="302.451" y2="30.425"/>
<rect x="302.451" y="30.425" fill="none" stroke="#E30613" stroke-miterlimit="10" width="69.863" height="69.863"/>
<circle fill="none" stroke="#009FE3" stroke-miterlimit="10" cx="337.383" cy="65.356" r="34.932"/>
<line fill="none" stroke="#E30613" stroke-miterlimit="10" x1="302.451" y1="30.425" x2="372.314" y2="100.288"/>
<line fill="none" stroke="#E30613" stroke-miterlimit="10" x1="302.451" y1="100.288" x2="372.314" y2="30.425"/>
<rect x="372.314" y="30.425" fill="none" stroke="#E30613" stroke-miterlimit="10" width="69.863" height="69.863"/>
<circle fill="none" stroke="#009FE3" stroke-miterlimit="10" cx="407.246" cy="65.356" r="34.932"/>
<line fill="none" stroke="#E30613" stroke-miterlimit="10" x1="372.314" y1="30.425" x2="442.178" y2="100.288"/>
<line fill="none" stroke="#E30613" stroke-miterlimit="10" x1="372.314" y1="100.288" x2="442.178" y2="30.425"/>
<rect x="442.178" y="30.425" fill="none" stroke="#E30613" stroke-miterlimit="10" width="69.863" height="69.863"/>
<circle fill="none" stroke="#009FE3" stroke-miterlimit="10" cx="477.109" cy="65.356" r="34.932"/>
<line fill="none" stroke="#E30613" stroke-miterlimit="10" x1="442.178" y1="30.425" x2="512.041" y2="100.288"/>
<line fill="none" stroke="#E30613" stroke-miterlimit="10" x1="442.178" y1="100.288" x2="512.041" y2="30.425"/>
<rect x="22.999" y="100.288" fill="none" stroke="#E30613" stroke-miterlimit="10" width="69.863" height="69.863"/>
<circle fill="none" stroke="#009FE3" stroke-miterlimit="10" cx="57.93" cy="135.219" r="34.931"/>
<line fill="none" stroke="#E30613" stroke-miterlimit="10" x1="22.999" y1="100.288" x2="92.862" y2="170.15"/>
<line fill="none" stroke="#E30613" stroke-miterlimit="10" x1="22.999" y1="170.15" x2="92.862" y2="100.288"/>
<rect x="92.862" y="100.288" fill="none" stroke="#E30613" stroke-miterlimit="10" width="69.863" height="69.863"/>
<circle fill="none" stroke="#009FE3" stroke-miterlimit="10" cx="127.793" cy="135.219" r="34.931"/>
<line fill="none" stroke="#E30613" stroke-miterlimit="10" x1="92.862" y1="100.288" x2="162.725" y2="170.15"/>
<line fill="none" stroke="#E30613" stroke-miterlimit="10" x1="92.862" y1="170.15" x2="162.725" y2="100.288"/>
<rect x="162.725" y="100.288" fill="none" stroke="#E30613" stroke-miterlimit="10" width="69.863" height="69.863"/>
<circle fill="none" stroke="#009FE3" stroke-miterlimit="10" cx="197.656" cy="135.219" r="34.931"/>
<line fill="none" stroke="#E30613" stroke-miterlimit="10" x1="162.725" y1="100.288" x2="232.587" y2="170.15"/>
<line fill="none" stroke="#E30613" stroke-miterlimit="10" x1="162.725" y1="170.15" x2="232.587" y2="100.288"/>
<rect x="232.587" y="100.288" fill="none" stroke="#E30613" stroke-miterlimit="10" width="69.863" height="69.863"/>
<circle fill="none" stroke="#009FE3" stroke-miterlimit="10" cx="267.519" cy="135.219" r="34.931"/>
<line fill="none" stroke="#E30613" stroke-miterlimit="10" x1="232.587" y1="100.288" x2="302.45" y2="170.15"/>
<line fill="none" stroke="#E30613" stroke-miterlimit="10" x1="232.587" y1="170.15" x2="302.45" y2="100.288"/>
<rect x="302.45" y="100.288" fill="none" stroke="#E30613" stroke-miterlimit="10" width="69.863" height="69.863"/>
<circle fill="none" stroke="#009FE3" stroke-miterlimit="10" cx="337.382" cy="135.219" r="34.932"/>
<line fill="none" stroke="#E30613" stroke-miterlimit="10" x1="302.45" y1="100.288" x2="372.313" y2="170.15"/>
<line fill="none" stroke="#E30613" stroke-miterlimit="10" x1="302.45" y1="170.15" x2="372.313" y2="100.288"/>
<rect x="372.313" y="100.288" fill="none" stroke="#E30613" stroke-miterlimit="10" width="69.863" height="69.863"/>
<circle fill="none" stroke="#009FE3" stroke-miterlimit="10" cx="407.245" cy="135.219" r="34.932"/>
<line fill="none" stroke="#E30613" stroke-miterlimit="10" x1="372.313" y1="100.288" x2="442.177" y2="170.15"/>
<line fill="none" stroke="#E30613" stroke-miterlimit="10" x1="372.313" y1="170.15" x2="442.177" y2="100.288"/>
<rect x="442.177" y="100.288" fill="none" stroke="#E30613" stroke-miterlimit="10" width="69.863" height="69.863"/>
<circle fill="none" stroke="#009FE3" stroke-miterlimit="10" cx="477.108" cy="135.219" r="34.932"/>
<line fill="none" stroke="#E30613" stroke-miterlimit="10" x1="442.177" y1="100.288" x2="512.04" y2="170.15"/>
<line fill="none" stroke="#E30613" stroke-miterlimit="10" x1="442.177" y1="170.15" x2="512.04" y2="100.288"/>
<rect x="22.998" y="170.15" fill="none" stroke="#E30613" stroke-miterlimit="10" width="69.863" height="69.863"/>
<circle fill="none" stroke="#009FE3" stroke-miterlimit="10" cx="57.929" cy="205.082" r="34.931"/>
<line fill="none" stroke="#E30613" stroke-miterlimit="10" x1="22.998" y1="170.15" x2="92.861" y2="240.013"/>
<line fill="none" stroke="#E30613" stroke-miterlimit="10" x1="22.998" y1="240.013" x2="92.861" y2="170.15"/>
<rect x="92.861" y="170.15" fill="none" stroke="#E30613" stroke-miterlimit="10" width="69.863" height="69.863"/>
<circle fill="none" stroke="#009FE3" stroke-miterlimit="10" cx="127.792" cy="205.082" r="34.931"/>
<line fill="none" stroke="#E30613" stroke-miterlimit="10" x1="92.861" y1="170.15" x2="162.724" y2="240.013"/>
<line fill="none" stroke="#E30613" stroke-miterlimit="10" x1="92.861" y1="240.013" x2="162.724" y2="170.15"/>
<rect x="162.724" y="170.15" fill="none" stroke="#E30613" stroke-miterlimit="10" width="69.863" height="69.863"/>
<circle fill="none" stroke="#009FE3" stroke-miterlimit="10" cx="197.655" cy="205.082" r="34.931"/>
<line fill="none" stroke="#E30613" stroke-miterlimit="10" x1="162.724" y1="170.15" x2="232.586" y2="240.013"/>
<line fill="none" stroke="#E30613" stroke-miterlimit="10" x1="162.724" y1="240.013" x2="232.586" y2="170.15"/>
<rect x="232.586" y="170.15" fill="none" stroke="#E30613" stroke-miterlimit="10" width="69.863" height="69.863"/>
<circle fill="none" stroke="#009FE3" stroke-miterlimit="10" cx="267.518" cy="205.082" r="34.931"/>
<line fill="none" stroke="#E30613" stroke-miterlimit="10" x1="232.586" y1="170.15" x2="302.449" y2="240.013"/>
<line fill="none" stroke="#E30613" stroke-miterlimit="10" x1="232.586" y1="240.013" x2="302.449" y2="170.15"/>
<rect x="302.449" y="170.15" fill="none" stroke="#E30613" stroke-miterlimit="10" width="69.863" height="69.863"/>
<circle fill="none" stroke="#009FE3" stroke-miterlimit="10" cx="337.381" cy="205.082" r="34.932"/>
<line fill="none" stroke="#E30613" stroke-miterlimit="10" x1="302.449" y1="170.15" x2="372.312" y2="240.013"/>
<line fill="none" stroke="#E30613" stroke-miterlimit="10" x1="302.449" y1="240.013" x2="372.312" y2="170.15"/>
<rect x="372.312" y="170.15" fill="none" stroke="#E30613" stroke-miterlimit="10" width="69.863" height="69.863"/>
<circle fill="none" stroke="#009FE3" stroke-miterlimit="10" cx="407.244" cy="205.082" r="34.932"/>
<line fill="none" stroke="#E30613" stroke-miterlimit="10" x1="372.312" y1="170.15" x2="442.176" y2="240.013"/>
<line fill="none" stroke="#E30613" stroke-miterlimit="10" x1="372.312" y1="240.013" x2="442.176" y2="170.15"/>
<rect x="442.176" y="170.15" fill="none" stroke="#E30613" stroke-miterlimit="10" width="69.863" height="69.863"/>
<circle fill="none" stroke="#009FE3" stroke-miterlimit="10" cx="477.107" cy="205.082" r="34.932"/>
<line fill="none" stroke="#E30613" stroke-miterlimit="10" x1="442.176" y1="170.15" x2="512.039" y2="240.013"/>
<line fill="none" stroke="#E30613" stroke-miterlimit="10" x1="442.176" y1="240.013" x2="512.039" y2="170.15"/>
<rect x="22.999" y="240.013" fill="none" stroke="#E30613" stroke-miterlimit="10" width="69.863" height="69.863"/>
<circle fill="none" stroke="#009FE3" stroke-miterlimit="10" cx="57.93" cy="274.945" r="34.931"/>
<line fill="none" stroke="#E30613" stroke-miterlimit="10" x1="22.999" y1="240.013" x2="92.862" y2="309.876"/>
<line fill="none" stroke="#E30613" stroke-miterlimit="10" x1="22.999" y1="309.876" x2="92.862" y2="240.013"/>
<rect x="92.862" y="240.013" fill="none" stroke="#E30613" stroke-miterlimit="10" width="69.863" height="69.863"/>
<circle fill="none" stroke="#009FE3" stroke-miterlimit="10" cx="127.793" cy="274.945" r="34.931"/>
<line fill="none" stroke="#E30613" stroke-miterlimit="10" x1="92.862" y1="240.013" x2="162.725" y2="309.876"/>
<line fill="none" stroke="#E30613" stroke-miterlimit="10" x1="92.862" y1="309.876" x2="162.725" y2="240.013"/>
<rect x="162.725" y="240.013" fill="none" stroke="#E30613" stroke-miterlimit="10" width="69.863" height="69.863"/>
<circle fill="none" stroke="#009FE3" stroke-miterlimit="10" cx="197.656" cy="274.945" r="34.931"/>
<line fill="none" stroke="#E30613" stroke-miterlimit="10" x1="162.725" y1="240.013" x2="232.587" y2="309.876"/>
<line fill="none" stroke="#E30613" stroke-miterlimit="10" x1="162.725" y1="309.876" x2="232.587" y2="240.013"/>
<rect x="232.587" y="240.013" fill="none" stroke="#E30613" stroke-miterlimit="10" width="69.863" height="69.863"/>
<circle fill="none" stroke="#009FE3" stroke-miterlimit="10" cx="267.519" cy="274.945" r="34.931"/>
<line fill="none" stroke="#E30613" stroke-miterlimit="10" x1="232.587" y1="240.013" x2="302.45" y2="309.876"/>
<line fill="none" stroke="#E30613" stroke-miterlimit="10" x1="232.587" y1="309.876" x2="302.45" y2="240.013"/>
<rect x="302.45" y="240.013" fill="none" stroke="#E30613" stroke-miterlimit="10" width="69.863" height="69.863"/>
<circle fill="none" stroke="#009FE3" stroke-miterlimit="10" cx="337.382" cy="274.945" r="34.932"/>
<line fill="none" stroke="#E30613" stroke-miterlimit="10" x1="302.45" y1="240.013" x2="372.313" y2="309.876"/>
<line fill="none" stroke="#E30613" stroke-miterlimit="10" x1="302.45" y1="309.876" x2="372.313" y2="240.013"/>
<rect x="372.313" y="240.013" fill="none" stroke="#E30613" stroke-miterlimit="10" width="69.863" height="69.863"/>
<circle fill="none" stroke="#009FE3" stroke-miterlimit="10" cx="407.245" cy="274.945" r="34.932"/>
<line fill="none" stroke="#E30613" stroke-miterlimit="10" x1="372.313" y1="240.013" x2="442.177" y2="309.876"/>
<line fill="none" stroke="#E30613" stroke-miterlimit="10" x1="372.313" y1="309.876" x2="442.177" y2="240.013"/>
<rect x="442.177" y="240.013" fill="none" stroke="#E30613" stroke-miterlimit="10" width="69.863" height="69.863"/>
<circle fill="none" stroke="#009FE3" stroke-miterlimit="10" cx="477.108" cy="274.945" r="34.932"/>
<line fill="none" stroke="#E30613" stroke-miterlimit="10" x1="442.177" y1="240.013" x2="512.04" y2="309.876"/>
<line fill="none" stroke="#E30613" stroke-miterlimit="10" x1="442.177" y1="309.876" x2="512.04" y2="240.013"/>
<rect x="22.997" y="309.876" fill="none" stroke="#E30613" stroke-miterlimit="10" width="69.863" height="69.863"/>
<circle fill="none" stroke="#009FE3" stroke-miterlimit="10" cx="57.928" cy="344.808" r="34.931"/>
<line fill="none" stroke="#E30613" stroke-miterlimit="10" x1="22.997" y1="309.876" x2="92.86" y2="379.739"/>
<line fill="none" stroke="#E30613" stroke-miterlimit="10" x1="22.997" y1="379.739" x2="92.86" y2="309.876"/>
<rect x="92.86" y="309.876" fill="none" stroke="#E30613" stroke-miterlimit="10" width="69.863" height="69.863"/>
<circle fill="none" stroke="#009FE3" stroke-miterlimit="10" cx="127.791" cy="344.808" r="34.931"/>
<line fill="none" stroke="#E30613" stroke-miterlimit="10" x1="92.86" y1="309.876" x2="162.723" y2="379.739"/>
<line fill="none" stroke="#E30613" stroke-miterlimit="10" x1="92.86" y1="379.739" x2="162.723" y2="309.876"/>
<rect x="162.723" y="309.876" fill="none" stroke="#E30613" stroke-miterlimit="10" width="69.863" height="69.863"/>
<circle fill="none" stroke="#009FE3" stroke-miterlimit="10" cx="197.654" cy="344.808" r="34.931"/>
<line fill="none" stroke="#E30613" stroke-miterlimit="10" x1="162.723" y1="309.876" x2="232.585" y2="379.739"/>
<line fill="none" stroke="#E30613" stroke-miterlimit="10" x1="162.723" y1="379.739" x2="232.585" y2="309.876"/>
<rect x="232.585" y="309.876" fill="none" stroke="#E30613" stroke-miterlimit="10" width="69.863" height="69.863"/>
<circle fill="none" stroke="#009FE3" stroke-miterlimit="10" cx="267.517" cy="344.808" r="34.931"/>
<line fill="none" stroke="#E30613" stroke-miterlimit="10" x1="232.585" y1="309.876" x2="302.448" y2="379.739"/>
<line fill="none" stroke="#E30613" stroke-miterlimit="10" x1="232.585" y1="379.739" x2="302.448" y2="309.876"/>
<rect x="302.448" y="309.876" fill="none" stroke="#E30613" stroke-miterlimit="10" width="69.863" height="69.863"/>
<circle fill="none" stroke="#009FE3" stroke-miterlimit="10" cx="337.38" cy="344.808" r="34.932"/>
<line fill="none" stroke="#E30613" stroke-miterlimit="10" x1="302.448" y1="309.876" x2="372.312" y2="379.739"/>
<line fill="none" stroke="#E30613" stroke-miterlimit="10" x1="302.448" y1="379.739" x2="372.312" y2="309.876"/>
<rect x="372.312" y="309.876" fill="none" stroke="#E30613" stroke-miterlimit="10" width="69.863" height="69.863"/>
<circle fill="none" stroke="#009FE3" stroke-miterlimit="10" cx="407.243" cy="344.808" r="34.932"/>
<line fill="none" stroke="#E30613" stroke-miterlimit="10" x1="372.312" y1="309.876" x2="442.175" y2="379.739"/>
<line fill="none" stroke="#E30613" stroke-miterlimit="10" x1="372.312" y1="379.739" x2="442.175" y2="309.876"/>
<rect x="442.175" y="309.876" fill="none" stroke="#E30613" stroke-miterlimit="10" width="69.863" height="69.863"/>
<circle fill="none" stroke="#009FE3" stroke-miterlimit="10" cx="477.106" cy="344.808" r="34.932"/>
<line fill="none" stroke="#E30613" stroke-miterlimit="10" x1="442.175" y1="309.876" x2="512.038" y2="379.739"/>
<line fill="none" stroke="#E30613" stroke-miterlimit="10" x1="442.175" y1="379.739" x2="512.038" y2="309.876"/>
<rect x="22.999" y="379.739" fill="none" stroke="#E30613" stroke-miterlimit="10" width="69.863" height="69.863"/>
<circle fill="none" stroke="#009FE3" stroke-miterlimit="10" cx="57.93" cy="414.67" r="34.931"/>
<line fill="none" stroke="#E30613" stroke-miterlimit="10" x1="22.999" y1="379.739" x2="92.862" y2="449.602"/>
<line fill="none" stroke="#E30613" stroke-miterlimit="10" x1="22.999" y1="449.602" x2="92.862" y2="379.739"/>
<rect x="92.862" y="379.739" fill="none" stroke="#E30613" stroke-miterlimit="10" width="69.863" height="69.863"/>
<circle fill="none" stroke="#009FE3" stroke-miterlimit="10" cx="127.793" cy="414.67" r="34.931"/>
<line fill="none" stroke="#E30613" stroke-miterlimit="10" x1="92.862" y1="379.739" x2="162.725" y2="449.602"/>
<line fill="none" stroke="#E30613" stroke-miterlimit="10" x1="92.862" y1="449.602" x2="162.725" y2="379.739"/>
<rect x="162.725" y="379.739" fill="none" stroke="#E30613" stroke-miterlimit="10" width="69.863" height="69.863"/>
<circle fill="none" stroke="#009FE3" stroke-miterlimit="10" cx="197.656" cy="414.67" r="34.931"/>
<line fill="none" stroke="#E30613" stroke-miterlimit="10" x1="162.725" y1="379.739" x2="232.587" y2="449.602"/>
<line fill="none" stroke="#E30613" stroke-miterlimit="10" x1="162.725" y1="449.602" x2="232.587" y2="379.739"/>
<rect x="232.587" y="379.739" fill="none" stroke="#E30613" stroke-miterlimit="10" width="69.863" height="69.863"/>
<circle fill="none" stroke="#009FE3" stroke-miterlimit="10" cx="267.519" cy="414.67" r="34.931"/>
<line fill="none" stroke="#E30613" stroke-miterlimit="10" x1="232.587" y1="379.739" x2="302.45" y2="449.602"/>
<line fill="none" stroke="#E30613" stroke-miterlimit="10" x1="232.587" y1="449.602" x2="302.45" y2="379.739"/>
<rect x="302.45" y="379.739" fill="none" stroke="#E30613" stroke-miterlimit="10" width="69.863" height="69.863"/>
<circle fill="none" stroke="#009FE3" stroke-miterlimit="10" cx="337.382" cy="414.67" r="34.932"/>
<line fill="none" stroke="#E30613" stroke-miterlimit="10" x1="302.45" y1="379.739" x2="372.313" y2="449.602"/>
<line fill="none" stroke="#E30613" stroke-miterlimit="10" x1="302.45" y1="449.602" x2="372.313" y2="379.739"/>
<rect x="372.313" y="379.739" fill="none" stroke="#E30613" stroke-miterlimit="10" width="69.863" height="69.863"/>
<circle fill="none" stroke="#009FE3" stroke-miterlimit="10" cx="407.245" cy="414.67" r="34.932"/>
<line fill="none" stroke="#E30613" stroke-miterlimit="10" x1="372.313" y1="379.739" x2="442.177" y2="449.602"/>
<line fill="none" stroke="#E30613" stroke-miterlimit="10" x1="372.313" y1="449.602" x2="442.177" y2="379.739"/>
<rect x="442.177" y="379.739" fill="none" stroke="#E30613" stroke-miterlimit="10" width="69.863" height="69.863"/>
<circle fill="none" stroke="#009FE3" stroke-miterlimit="10" cx="477.108" cy="414.67" r="34.932"/>
<line fill="none" stroke="#E30613" stroke-miterlimit="10" x1="442.177" y1="379.739" x2="512.04" y2="449.602"/>
<line fill="none" stroke="#E30613" stroke-miterlimit="10" x1="442.177" y1="449.602" x2="512.04" y2="379.739"/>
<rect x="22.996" y="449.602" fill="none" stroke="#E30613" stroke-miterlimit="10" width="69.863" height="69.862"/>
<circle fill="none" stroke="#009FE3" stroke-miterlimit="10" cx="57.927" cy="484.533" r="34.931"/>
<line fill="none" stroke="#E30613" stroke-miterlimit="10" x1="22.996" y1="449.602" x2="92.859" y2="519.464"/>
<line fill="none" stroke="#E30613" stroke-miterlimit="10" x1="22.996" y1="519.464" x2="92.859" y2="449.602"/>
<rect x="92.859" y="449.602" fill="none" stroke="#E30613" stroke-miterlimit="10" width="69.863" height="69.862"/>
<circle fill="none" stroke="#009FE3" stroke-miterlimit="10" cx="127.79" cy="484.533" r="34.931"/>
<line fill="none" stroke="#E30613" stroke-miterlimit="10" x1="92.859" y1="449.602" x2="162.722" y2="519.464"/>
<line fill="none" stroke="#E30613" stroke-miterlimit="10" x1="92.859" y1="519.464" x2="162.722" y2="449.602"/>
<rect x="162.722" y="449.602" fill="none" stroke="#E30613" stroke-miterlimit="10" width="69.863" height="69.862"/>
<circle fill="none" stroke="#009FE3" stroke-miterlimit="10" cx="197.653" cy="484.533" r="34.931"/>
<line fill="none" stroke="#E30613" stroke-miterlimit="10" x1="162.722" y1="449.602" x2="232.584" y2="519.464"/>
<line fill="none" stroke="#E30613" stroke-miterlimit="10" x1="162.722" y1="519.464" x2="232.584" y2="449.602"/>
<rect x="232.584" y="449.602" fill="none" stroke="#E30613" stroke-miterlimit="10" width="69.863" height="69.862"/>
<circle fill="none" stroke="#009FE3" stroke-miterlimit="10" cx="267.516" cy="484.533" r="34.931"/>
<line fill="none" stroke="#E30613" stroke-miterlimit="10" x1="232.584" y1="449.602" x2="302.447" y2="519.464"/>
<line fill="none" stroke="#E30613" stroke-miterlimit="10" x1="232.584" y1="519.464" x2="302.447" y2="449.602"/>
<rect x="302.447" y="449.602" fill="none" stroke="#E30613" stroke-miterlimit="10" width="69.863" height="69.862"/>
<circle fill="none" stroke="#009FE3" stroke-miterlimit="10" cx="337.379" cy="484.533" r="34.932"/>
<line fill="none" stroke="#E30613" stroke-miterlimit="10" x1="302.447" y1="449.602" x2="372.311" y2="519.464"/>
<line fill="none" stroke="#E30613" stroke-miterlimit="10" x1="302.447" y1="519.464" x2="372.311" y2="449.602"/>
<rect x="372.311" y="449.602" fill="none" stroke="#E30613" stroke-miterlimit="10" width="69.863" height="69.862"/>
<circle fill="none" stroke="#009FE3" stroke-miterlimit="10" cx="407.242" cy="484.533" r="34.932"/>
<line fill="none" stroke="#E30613" stroke-miterlimit="10" x1="372.311" y1="449.602" x2="442.174" y2="519.464"/>
<line fill="none" stroke="#E30613" stroke-miterlimit="10" x1="372.311" y1="519.464" x2="442.174" y2="449.602"/>
<rect x="442.174" y="449.602" fill="none" stroke="#E30613" stroke-miterlimit="10" width="69.863" height="69.862"/>
<circle fill="none" stroke="#009FE3" stroke-miterlimit="10" cx="477.105" cy="484.533" r="34.932"/>
<line fill="none" stroke="#E30613" stroke-miterlimit="10" x1="442.174" y1="449.602" x2="512.037" y2="519.464"/>
<line fill="none" stroke="#E30613" stroke-miterlimit="10" x1="442.174" y1="519.464" x2="512.037" y2="449.602"/>
<rect x="22.995" y="519.464" fill="none" stroke="#E30613" stroke-miterlimit="10" width="69.863" height="69.862"/>
<circle fill="none" stroke="#009FE3" stroke-miterlimit="10" cx="57.927" cy="554.396" r="34.931"/>
<line fill="none" stroke="#E30613" stroke-miterlimit="10" x1="22.995" y1="519.464" x2="92.858" y2="589.326"/>
<line fill="none" stroke="#E30613" stroke-miterlimit="10" x1="22.995" y1="589.326" x2="92.858" y2="519.464"/>
<rect x="92.858" y="519.464" fill="none" stroke="#E30613" stroke-miterlimit="10" width="69.863" height="69.862"/>
<circle fill="none" stroke="#009FE3" stroke-miterlimit="10" cx="127.789" cy="554.396" r="34.931"/>
<line fill="none" stroke="#E30613" stroke-miterlimit="10" x1="92.858" y1="519.464" x2="162.721" y2="589.326"/>
<line fill="none" stroke="#E30613" stroke-miterlimit="10" x1="92.858" y1="589.326" x2="162.721" y2="519.464"/>
<rect x="162.721" y="519.464" fill="none" stroke="#E30613" stroke-miterlimit="10" width="69.863" height="69.862"/>
<circle fill="none" stroke="#009FE3" stroke-miterlimit="10" cx="197.652" cy="554.396" r="34.931"/>
<line fill="none" stroke="#E30613" stroke-miterlimit="10" x1="162.721" y1="519.464" x2="232.583" y2="589.326"/>
<line fill="none" stroke="#E30613" stroke-miterlimit="10" x1="162.721" y1="589.326" x2="232.583" y2="519.464"/>
<rect x="232.583" y="519.464" fill="none" stroke="#E30613" stroke-miterlimit="10" width="69.863" height="69.862"/>
<circle fill="none" stroke="#009FE3" stroke-miterlimit="10" cx="267.515" cy="554.396" r="34.931"/>
<line fill="none" stroke="#E30613" stroke-miterlimit="10" x1="232.583" y1="519.464" x2="302.446" y2="589.326"/>
<line fill="none" stroke="#E30613" stroke-miterlimit="10" x1="232.583" y1="589.326" x2="302.446" y2="519.464"/>
<rect x="302.446" y="519.464" fill="none" stroke="#E30613" stroke-miterlimit="10" width="69.863" height="69.862"/>
<circle fill="none" stroke="#009FE3" stroke-miterlimit="10" cx="337.378" cy="554.396" r="34.932"/>
<line fill="none" stroke="#E30613" stroke-miterlimit="10" x1="302.446" y1="519.464" x2="372.31" y2="589.326"/>
<line fill="none" stroke="#E30613" stroke-miterlimit="10" x1="302.446" y1="589.326" x2="372.31" y2="519.464"/>
<rect x="372.31" y="519.464" fill="none" stroke="#E30613" stroke-miterlimit="10" width="69.863" height="69.862"/>
<circle fill="none" stroke="#009FE3" stroke-miterlimit="10" cx="407.241" cy="554.396" r="34.932"/>
<line fill="none" stroke="#E30613" stroke-miterlimit="10" x1="372.31" y1="519.464" x2="442.173" y2="589.326"/>
<line fill="none" stroke="#E30613" stroke-miterlimit="10" x1="372.31" y1="589.326" x2="442.173" y2="519.464"/>
<rect x="442.173" y="519.464" fill="none" stroke="#E30613" stroke-miterlimit="10" width="69.863" height="69.862"/>
<circle fill="none" stroke="#009FE3" stroke-miterlimit="10" cx="477.104" cy="554.396" r="34.932"/>
<line fill="none" stroke="#E30613" stroke-miterlimit="10" x1="442.173" y1="519.464" x2="512.036" y2="589.326"/>
<line fill="none" stroke="#E30613" stroke-miterlimit="10" x1="442.173" y1="589.326" x2="512.036" y2="519.464"/>
<rect x="22.994" y="589.326" fill="none" stroke="#E30613" stroke-miterlimit="10" width="69.863" height="69.862"/>
<circle fill="none" stroke="#009FE3" stroke-miterlimit="10" cx="57.926" cy="624.258" r="34.931"/>
<line fill="none" stroke="#E30613" stroke-miterlimit="10" x1="22.994" y1="589.326" x2="92.857" y2="659.188"/>
<line fill="none" stroke="#E30613" stroke-miterlimit="10" x1="22.994" y1="659.188" x2="92.857" y2="589.326"/>
<rect x="92.857" y="589.326" fill="none" stroke="#E30613" stroke-miterlimit="10" width="69.863" height="69.862"/>
<circle fill="none" stroke="#009FE3" stroke-miterlimit="10" cx="127.788" cy="624.258" r="34.931"/>
<line fill="none" stroke="#E30613" stroke-miterlimit="10" x1="92.857" y1="589.326" x2="162.72" y2="659.188"/>
<line fill="none" stroke="#E30613" stroke-miterlimit="10" x1="92.857" y1="659.188" x2="162.72" y2="589.326"/>
<rect x="162.72" y="589.326" fill="none" stroke="#E30613" stroke-miterlimit="10" width="69.863" height="69.862"/>
<circle fill="none" stroke="#009FE3" stroke-miterlimit="10" cx="197.651" cy="624.258" r="34.931"/>
<line fill="none" stroke="#E30613" stroke-miterlimit="10" x1="162.72" y1="589.326" x2="232.583" y2="659.188"/>
<line fill="none" stroke="#E30613" stroke-miterlimit="10" x1="162.72" y1="659.188" x2="232.583" y2="589.326"/>
<rect x="232.583" y="589.326" fill="none" stroke="#E30613" stroke-miterlimit="10" width="69.863" height="69.862"/>
<circle fill="none" stroke="#009FE3" stroke-miterlimit="10" cx="267.514" cy="624.258" r="34.931"/>
<line fill="none" stroke="#E30613" stroke-miterlimit="10" x1="232.583" y1="589.326" x2="302.445" y2="659.188"/>
<line fill="none" stroke="#E30613" stroke-miterlimit="10" x1="232.583" y1="659.188" x2="302.445" y2="589.326"/>
<rect x="302.445" y="589.326" fill="none" stroke="#E30613" stroke-miterlimit="10" width="69.863" height="69.862"/>
<circle fill="none" stroke="#009FE3" stroke-miterlimit="10" cx="337.377" cy="624.258" r="34.932"/>
<line fill="none" stroke="#E30613" stroke-miterlimit="10" x1="302.445" y1="589.326" x2="372.309" y2="659.188"/>
<line fill="none" stroke="#E30613" stroke-miterlimit="10" x1="302.445" y1="659.188" x2="372.309" y2="589.326"/>
<rect x="372.309" y="589.326" fill="none" stroke="#E30613" stroke-miterlimit="10" width="69.863" height="69.862"/>
<circle fill="none" stroke="#009FE3" stroke-miterlimit="10" cx="407.24" cy="624.258" r="34.932"/>
<line fill="none" stroke="#E30613" stroke-miterlimit="10" x1="372.309" y1="589.326" x2="442.172" y2="659.188"/>
<line fill="none" stroke="#E30613" stroke-miterlimit="10" x1="372.309" y1="659.188" x2="442.172" y2="589.326"/>
<rect x="442.172" y="589.326" fill="none" stroke="#E30613" stroke-miterlimit="10" width="69.863" height="69.862"/>
<circle fill="none" stroke="#009FE3" stroke-miterlimit="10" cx="477.104" cy="624.258" r="34.932"/>
<line fill="none" stroke="#E30613" stroke-miterlimit="10" x1="442.172" y1="589.326" x2="512.035" y2="659.188"/>
<line fill="none" stroke="#E30613" stroke-miterlimit="10" x1="442.172" y1="659.188" x2="512.035" y2="589.326"/>
<rect x="22.999" y="659.188" fill="none" stroke="#E30613" stroke-miterlimit="10" width="69.863" height="69.862"/>
<circle fill="none" stroke="#009FE3" stroke-miterlimit="10" cx="57.93" cy="694.12" r="34.931"/>
<line fill="none" stroke="#E30613" stroke-miterlimit="10" x1="22.999" y1="659.188" x2="92.861" y2="729.051"/>
<line fill="none" stroke="#E30613" stroke-miterlimit="10" x1="22.999" y1="729.051" x2="92.861" y2="659.188"/>
<rect x="92.861" y="659.188" fill="none" stroke="#E30613" stroke-miterlimit="10" width="69.863" height="69.862"/>
<circle fill="none" stroke="#009FE3" stroke-miterlimit="10" cx="127.793" cy="694.12" r="34.931"/>
<line fill="none" stroke="#E30613" stroke-miterlimit="10" x1="92.861" y1="659.188" x2="162.724" y2="729.051"/>
<line fill="none" stroke="#E30613" stroke-miterlimit="10" x1="92.861" y1="729.051" x2="162.724" y2="659.188"/>
<rect x="162.724" y="659.188" fill="none" stroke="#E30613" stroke-miterlimit="10" width="69.863" height="69.862"/>
<circle fill="none" stroke="#009FE3" stroke-miterlimit="10" cx="197.656" cy="694.12" r="34.931"/>
<line fill="none" stroke="#E30613" stroke-miterlimit="10" x1="162.724" y1="659.188" x2="232.587" y2="729.051"/>
<line fill="none" stroke="#E30613" stroke-miterlimit="10" x1="162.724" y1="729.051" x2="232.587" y2="659.188"/>
<rect x="232.587" y="659.188" fill="none" stroke="#E30613" stroke-miterlimit="10" width="69.862" height="69.862"/>
<circle fill="none" stroke="#009FE3" stroke-miterlimit="10" cx="267.518" cy="694.12" r="34.931"/>
<line fill="none" stroke="#E30613" stroke-miterlimit="10" x1="232.587" y1="659.188" x2="302.449" y2="729.051"/>
<line fill="none" stroke="#E30613" stroke-miterlimit="10" x1="232.587" y1="729.051" x2="302.449" y2="659.188"/>
<rect x="302.449" y="659.188" fill="none" stroke="#E30613" stroke-miterlimit="10" width="69.863" height="69.862"/>
<circle fill="none" stroke="#009FE3" stroke-miterlimit="10" cx="337.381" cy="694.12" r="34.932"/>
<line fill="none" stroke="#E30613" stroke-miterlimit="10" x1="302.449" y1="659.188" x2="372.312" y2="729.051"/>
<line fill="none" stroke="#E30613" stroke-miterlimit="10" x1="302.449" y1="729.051" x2="372.312" y2="659.188"/>
<rect x="372.312" y="659.188" fill="none" stroke="#E30613" stroke-miterlimit="10" width="69.863" height="69.862"/>
<circle fill="none" stroke="#009FE3" stroke-miterlimit="10" cx="407.244" cy="694.12" r="34.932"/>
<line fill="none" stroke="#E30613" stroke-miterlimit="10" x1="372.312" y1="659.188" x2="442.176" y2="729.051"/>
<line fill="none" stroke="#E30613" stroke-miterlimit="10" x1="372.312" y1="729.051" x2="442.176" y2="659.188"/>
<rect x="442.176" y="659.188" fill="none" stroke="#E30613" stroke-miterlimit="10" width="69.863" height="69.862"/>
<circle fill="none" stroke="#009FE3" stroke-miterlimit="10" cx="477.107" cy="694.12" r="34.932"/>
<line fill="none" stroke="#E30613" stroke-miterlimit="10" x1="442.176" y1="659.188" x2="512.039" y2="729.051"/>
<line fill="none" stroke="#E30613" stroke-miterlimit="10" x1="442.176" y1="729.051" x2="512.039" y2="659.188"/>
</svg>
