<?xml version="1.0" encoding="utf-8"?>
<!-- Generator: Adobe Illustrator 16.0.0, SVG Export Plug-In . SVG Version: 6.00 Build 0)  -->
<!DOCTYPE svg PUBLIC "-//W3C//DTD SVG 1.1//EN" "http://www.w3.org/Graphics/SVG/1.1/DTD/svg11.dtd">
<svg version="1.1" id="Calque_1" xmlns="http://www.w3.org/2000/svg" xmlns:xlink="http://www.w3.org/1999/xlink" x="0px" y="0px"
	 width="595.28px" height="841.89px" viewBox="0 0 595.28 841.89" enable-background="new 0 0 595.28 841.89" xml:space="preserve">
<g>
	<path d="M17.873,46.938V57.14c0,1.13-0.494,1.766-1.765,1.766c-1.271,0-1.765-0.636-1.765-1.766V33.206
		c0-1.129,0.494-1.765,1.765-1.765c1.271,0,1.765,0.636,1.765,1.765v10.202h10.378V33.206c0-1.129,0.494-1.765,1.765-1.765
		s1.765,0.636,1.765,1.765V57.14c0,1.13-0.494,1.766-1.765,1.766s-1.765-0.636-1.765-1.766V46.938H17.873z"/>
	<path d="M46.394,58.905c-1.412,0-1.977,0-3.036-0.918l-1.448-1.271c-1.342-1.2-1.729-1.977-1.729-3.812v-6.53
		c0-1.8,0.247-2.86,1.659-4.06l1.2-1.024c1.589-1.377,2.366-1.412,3.742-1.412h3.107c1.659,0,2.435,0.177,3.741,1.235l1.377,1.094
		c1.553,1.236,1.765,2.542,1.765,4.413v2.718c0,1.941-0.317,2.506-2.33,2.506H43.57v1.129c0,0.317,0.247,0.741,0.494,0.988
		l0.847,0.917c0.459,0.494,1.129,0.636,2.259,0.636h7.272c1.129,0,2.33,0.247,2.33,1.695c0,1.482-1.341,1.694-2.33,1.694H46.394z
		 M43.57,48.456h9.813v-2.047c0-0.636,0.036-1.165-0.423-1.588l-1.307-1.13c-0.423-0.388-1.094-0.423-1.624-0.423H47.17
		c-0.635,0-1.165,0-1.729,0.388l-1.165,0.847c-0.423,0.318-0.706,0.565-0.706,1.553V48.456z"/>
	<path d="M75.656,55.516h2.542c1.13,0,2.331,0.247,2.331,1.695c0,1.482-1.341,1.694-2.331,1.694h-8.613
		c-0.988,0-2.33-0.212-2.33-1.694c0-1.448,1.2-1.695,2.33-1.695h2.683V36.277h-2.683c-0.988,0-2.33-0.212-2.33-1.695
		c0-1.447,1.2-1.694,2.33-1.694h3.565c1.942,0,2.506,0.353,2.506,2.365V55.516z"/>
	<path d="M101.07,55.516h2.542c1.129,0,2.33,0.247,2.33,1.695c0,1.482-1.341,1.694-2.33,1.694h-8.613
		c-0.988,0-2.33-0.212-2.33-1.694c0-1.448,1.2-1.695,2.33-1.695h2.683V36.277h-2.683c-0.988,0-2.33-0.212-2.33-1.695
		c0-1.447,1.2-1.694,2.33-1.694h3.565c1.942,0,2.506,0.353,2.506,2.365V55.516z"/>
	<path d="M116.424,46.197c0-2.259,0.459-3.036,2.153-4.413c1.659-1.376,2.436-1.906,4.801-1.906h2.683
		c2.366,0,3.142,0.529,4.801,1.906c1.695,1.377,2.154,2.154,2.154,4.413v6.389c0,2.224-0.565,3.072-2.33,4.554
		c-1.765,1.483-2.471,1.766-4.625,1.766h-2.683c-2.153,0-2.859-0.282-4.624-1.766c-1.766-1.482-2.33-2.33-2.33-4.554V46.197z
		 M119.813,52.586c0,0.706,0.247,1.165,1.235,2.012c0.741,0.636,1.271,0.918,2.33,0.918h2.683c1.06,0,1.589-0.282,2.33-0.918
		c0.989-0.847,1.236-1.306,1.236-2.012v-6.389c0-0.706-0.247-1.165-1.236-2.012c-0.741-0.635-1.271-0.917-2.33-0.917h-2.683
		c-1.059,0-1.589,0.282-2.33,0.917c-0.988,0.848-1.235,1.306-1.235,2.012V52.586z"/>
	<path d="M146.674,49.938c-0.918,0-1.765-0.494-1.765-1.765c0-1.271,0.847-1.765,1.765-1.765h6.566c0.636,0,1.024,0,1.553,0.494
		c0.564,0.529,0.564,1.023,0.564,1.765v8.472c0,1.13-0.494,1.766-1.764,1.766c-1.271,0-1.766-0.636-1.766-1.766v-7.201H146.674z"/>
	<path d="M24.828,81.848h5.189c0.918,0,1.765,0.495,1.765,1.765c0,1.271-0.847,1.765-1.765,1.765H16.108
		c-0.918,0-1.765-0.494-1.765-1.765c0-1.27,0.847-1.765,1.765-1.765h5.189V61.444h-5.189c-0.918,0-1.765-0.494-1.765-1.765
		c0-1.271,0.847-1.765,1.765-1.765h13.909c0.918,0,1.765,0.495,1.765,1.765c0,1.271-0.847,1.765-1.765,1.765h-5.189V81.848z"/>
	<path d="M71.279,69.74c-0.989,0-2.33-0.212-2.33-1.695c0-1.447,1.201-1.694,2.33-1.694h4.659c1.765,0,3.037,0.177,4.378,1.518
		c1.306,1.306,1.482,2.33,1.518,4.024l0.353,11.508c0.035,0.989-0.458,1.977-1.588,1.977c-0.882,0-1.765-0.741-1.73-1.694l-2.33,1.2
		c-0.953,0.494-0.988,0.494-2.083,0.494h-3.248c-1.518,0-2.612-0.176-3.848-1.2c-1.412-1.165-1.764-2.401-1.764-4.166V78.53
		c0-1.624,0.388-2.647,1.659-3.777c1.165-1.024,2.471-1.271,3.954-1.271h7.272v-0.776c0-2.542-0.565-2.965-3.001-2.965H71.279z
		 M71.244,76.871c-0.918,0-2.259,0.247-2.259,1.483v2.259c0,1.13,1.376,1.377,2.188,1.377h3.743l3.741-1.942v-0.741
		c0-1.871-0.529-2.436-2.4-2.436H71.244z"/>
	<path d="M101,72.035v11.014c0,1.165-0.247,2.33-1.695,2.33c-1.447,0-1.694-1.165-1.694-2.33V71.717c0-0.565,0.07-1.625-0.812-1.625
		c-0.389,0-0.636,0.318-0.918,0.565l-1.482,1.376v11.014c0,1.165-0.248,2.33-1.694,2.33c-1.447,0-1.694-1.165-1.694-2.33V68.751
		c0-1.2,0.317-2.4,1.765-2.4c0.847,0,1.413,0.564,1.624,1.341l0.282-0.212c0.883-0.67,1.412-1.129,2.577-1.129
		c1.306,0,2.33,0.635,3.106,1.694l0.282-0.282c1.059-1.059,1.483-1.412,2.965-1.412c1.129,0,2.154,0.494,2.824,1.376
		c0.848,1.095,0.776,2.083,0.812,3.389l0.354,11.72c0.035,1.2-0.142,2.542-1.659,2.542c-1.376,0-1.66-1.165-1.695-2.294
		l-0.353-11.19c-0.036-0.6,0.141-1.801-0.777-1.801c-0.494,0-1.13,0.848-1.412,1.165L101,72.035z"/>
	<path d="M147.521,69.74c-0.989,0-2.33-0.212-2.33-1.695c0-1.447,1.201-1.694,2.33-1.694h4.66c1.765,0,3.036,0.177,4.377,1.518
		c1.306,1.306,1.482,2.33,1.518,4.024l0.354,11.508c0.035,0.989-0.459,1.977-1.589,1.977c-0.882,0-1.765-0.741-1.73-1.694l-2.33,1.2
		c-0.953,0.494-0.988,0.494-2.083,0.494h-3.248c-1.518,0-2.612-0.176-3.848-1.2c-1.412-1.165-1.764-2.401-1.764-4.166V78.53
		c0-1.624,0.388-2.647,1.659-3.777c1.165-1.024,2.471-1.271,3.954-1.271h7.272v-0.776c0-2.542-0.565-2.965-3.001-2.965H147.521z
		 M147.486,76.871c-0.918,0-2.259,0.247-2.259,1.483v2.259c0,1.13,1.377,1.377,2.188,1.377h3.742l3.741-1.942v-0.741
		c0-1.871-0.529-2.436-2.4-2.436H147.486z"/>
	<path d="M202.657,77.542l1.835,3.142l1.06-3.142l0.353-8.754c0.035-1.166,0.247-2.436,1.695-2.436c1.482,0,1.694,1.271,1.659,2.436
		l-0.353,9.425l-1.659,5.013c-0.353,1.024-0.529,2.153-1.73,2.153h-1.306c-0.6,0-1.094-0.635-1.412-1.094l-1.836-2.753l-1.835,2.753
		c-0.317,0.459-0.812,1.094-1.412,1.094h-1.307c-1.2,0-1.376-1.129-1.73-2.153l-1.659-5.013l-0.353-9.425
		c-0.036-1.166,0.176-2.436,1.659-2.436c1.447,0,1.659,1.271,1.694,2.436l0.353,8.754l1.06,3.142l1.835-3.142v-3.106
		c0-1.166,0.247-2.366,1.694-2.366c1.448,0,1.695,1.2,1.695,2.366V77.542z"/>
	<path d="M224.294,85.378c-1.412,0-1.977,0-3.036-0.917l-1.448-1.271c-1.342-1.2-1.729-1.977-1.729-3.813v-6.53
		c0-1.8,0.247-2.86,1.659-4.06l1.2-1.024c1.588-1.376,2.366-1.412,3.742-1.412h3.106c1.66,0,2.436,0.177,3.742,1.235l1.377,1.095
		c1.553,1.236,1.765,2.542,1.765,4.413v2.718c0,1.941-0.317,2.506-2.33,2.506H221.47v1.13c0,0.317,0.247,0.741,0.494,0.988
		l0.847,0.917c0.459,0.494,1.13,0.636,2.259,0.636h7.273c1.129,0,2.33,0.247,2.33,1.695c0,1.482-1.342,1.694-2.33,1.694H224.294z
		 M221.47,74.93h9.813v-2.047c0-0.636,0.035-1.165-0.423-1.588l-1.307-1.13c-0.423-0.389-1.094-0.424-1.624-0.424h-2.86
		c-0.635,0-1.165,0-1.729,0.389l-1.165,0.847c-0.423,0.318-0.706,0.565-0.706,1.553V74.93z"/>
	<path d="M253.556,81.99h2.542c1.13,0,2.331,0.247,2.331,1.695c0,1.482-1.342,1.694-2.331,1.694h-8.613
		c-0.988,0-2.33-0.212-2.33-1.694c0-1.448,1.2-1.695,2.33-1.695h2.683V69.74h-2.683c-0.988,0-2.33-0.212-2.33-1.695
		c0-1.447,1.2-1.694,2.33-1.694h3.565c1.942,0,2.506,0.353,2.506,2.365V81.99z M248.437,59.502c0-1.2,0.67-1.588,1.588-1.588h1.942
		c0.918,0,1.588,0.389,1.588,1.588v1.625c0,1.2-0.67,1.588-1.588,1.588h-1.942c-0.918,0-1.588-0.388-1.588-1.588V59.502z"/>
	<path d="M268.91,68.858c0-1.236,0.141-2.506,1.694-2.506c1.342,0,1.695,1.129,1.695,2.259v1.376l2.647-2.189
		c0.953-0.776,1.941-1.447,3.001-1.447h2.718c1.305,0,2.4,0.424,3.317,1.341c1.13,1.13,1.519,2.294,1.519,3.848
		c0,1.165-0.212,2.365-1.659,2.365c-1.236,0-1.73-0.988-1.73-2.083c0-0.565,0-0.988-0.353-1.483c-0.423-0.6-1.235-0.6-2.048-0.6
		h-0.988c-0.636,0-1.095,0.317-1.695,0.812l-4.73,3.919v8.578c0,1.165-0.248,2.33-1.695,2.33c-1.447,0-1.694-1.165-1.694-2.33
		V68.858z"/>
	<path d="M303.607,66.352c1.166,0,2.118,0.635,3.354,1.871l0.565,0.601v-7.131c0-1.165,0.247-2.33,1.694-2.33
		s1.694,1.165,1.694,2.33v21.322c0,1.165-0.247,2.365-1.694,2.365c-1.342,0-1.694-1.129-1.694-2.259v-0.211l-0.741,0.741
		c-1.06,0.989-2.225,1.73-3.248,1.73h-3.283c-1.129,0-2.4-0.776-2.895-1.2l-1.165-0.989c-1.412-1.2-1.871-2.118-1.871-3.918v-6.813
		c0-1.8,0.459-2.718,1.871-3.919l1.165-0.988c1.06-0.917,1.836-1.2,3.248-1.2H303.607z M297.713,77.93c0,0.953,0,2.154,0.529,2.577
		l1.023,0.812c0.424,0.354,0.848,0.671,1.271,0.671h2.4c0.424,0,1.023-0.282,1.658-0.848l1.942-1.659
		c0.494-0.424,0.988-0.848,0.988-1.483v-4.271c0-0.635-0.494-1.059-0.988-1.482l-1.942-1.659c-0.635-0.565-1.234-0.848-1.658-0.848
		h-2.4c-0.424,0-0.848,0.317-1.271,0.671l-1.023,0.812c-0.529,0.424-0.529,1.625-0.529,2.577V77.93z"/>
	<path d="M356.308,67.728c0.6-0.529,1.446-1.376,2.259-1.376c0.953,0,1.694,0.776,1.694,1.729c0,0.812-0.529,1.201-1.13,1.695
		l-6.565,5.437l7.979,6.636c0.635,0.53,1.199,0.918,1.199,1.8c0,0.954-0.74,1.73-1.694,1.73c-0.67,0-1.094-0.423-1.589-0.812
		l-8.507-7.095l-1.412,1.271v4.307c0,1.165-0.247,2.33-1.694,2.33s-1.694-1.165-1.694-2.33V61.691c0-1.165,0.247-2.33,1.694-2.33
		s1.694,1.165,1.694,2.33v12.567L356.308,67.728z"/>
	<path d="M380.627,81.99h2.542c1.129,0,2.33,0.247,2.33,1.695c0,1.482-1.342,1.694-2.33,1.694h-8.613
		c-0.988,0-2.33-0.212-2.33-1.694c0-1.448,1.2-1.695,2.33-1.695h2.683V69.74h-2.683c-0.988,0-2.33-0.212-2.33-1.695
		c0-1.447,1.2-1.694,2.33-1.694h3.565c1.941,0,2.506,0.353,2.506,2.365V81.99z M375.508,59.502c0-1.2,0.671-1.588,1.589-1.588h1.942
		c0.917,0,1.588,0.389,1.588,1.588v1.625c0,1.2-0.671,1.588-1.588,1.588h-1.942c-0.918,0-1.589-0.388-1.589-1.588V59.502z"/>
	<path d="M399.369,73.2v9.849c0,1.165-0.247,2.33-1.695,2.33c-1.447,0-1.694-1.165-1.694-2.33V68.858
		c0-1.236,0.143-2.506,1.694-2.506c1.519,0,1.695,1.271,1.695,2.471v0.388v0.071l2.753-1.8c0.882-0.565,1.836-1.129,2.931-1.129
		h2.506c1.306,0,2.119,0.353,3.142,1.235c1.518,1.307,1.447,2.753,1.518,4.59l0.354,10.661c0.036,1.2-0.141,2.542-1.659,2.542
		c-1.377,0-1.658-1.165-1.694-2.294l-0.354-10.449c-0.07-2.083-0.247-2.895-2.294-2.895h-1.13c-0.354,0-0.705,0.105-1.059,0.317
		L399.369,73.2z"/>
	<path d="M430.677,66.352c1.165,0,2.119,0.635,3.354,1.871l0.564,0.601v-7.131c0-1.165,0.248-2.33,1.694-2.33
		c1.448,0,1.695,1.165,1.695,2.33v21.322c0,1.165-0.247,2.365-1.695,2.365c-1.342,0-1.694-1.129-1.694-2.259v-0.211l-0.741,0.741
		c-1.059,0.989-2.224,1.73-3.248,1.73h-3.283c-1.129,0-2.399-0.776-2.894-1.2l-1.165-0.989c-1.412-1.2-1.872-2.118-1.872-3.918
		v-6.813c0-1.8,0.46-2.718,1.872-3.919l1.165-0.988c1.059-0.917,1.835-1.2,3.247-1.2H430.677z M424.782,77.93
		c0,0.953,0,2.154,0.529,2.577l1.023,0.812c0.424,0.354,0.848,0.671,1.271,0.671h2.4c0.423,0,1.023-0.282,1.66-0.848l1.94-1.659
		c0.494-0.424,0.988-0.848,0.988-1.483v-4.271c0-0.635-0.494-1.059-0.988-1.482l-1.94-1.659c-0.637-0.565-1.237-0.848-1.66-0.848
		h-2.4c-0.424,0-0.848,0.317-1.271,0.671l-1.023,0.812c-0.529,0.424-0.529,1.625-0.529,2.577V77.93z"/>
	<path d="M472.22,72.67c0-2.259,0.46-3.036,2.155-4.413c1.658-1.376,2.434-1.906,4.8-1.906h2.683c2.365,0,3.143,0.529,4.802,1.906
		c1.693,1.377,2.153,2.154,2.153,4.413v6.389c0,2.224-0.564,3.072-2.33,4.554c-1.766,1.483-2.472,1.765-4.625,1.765h-2.683
		c-2.153,0-2.859-0.282-4.625-1.765c-1.764-1.482-2.33-2.33-2.33-4.554V72.67z M475.609,79.06c0,0.706,0.247,1.165,1.235,2.012
		c0.741,0.636,1.271,0.918,2.33,0.918h2.683c1.059,0,1.589-0.282,2.33-0.918c0.988-0.847,1.235-1.306,1.235-2.012V72.67
		c0-0.706-0.247-1.165-1.235-2.012c-0.741-0.636-1.271-0.918-2.33-0.918h-2.683c-1.059,0-1.589,0.282-2.33,0.918
		c-0.988,0.847-1.235,1.306-1.235,2.012V79.06z"/>
	<path d="M502.612,69.74h-0.954c-0.988,0-2.33-0.212-2.33-1.695c0-1.447,1.201-1.694,2.33-1.694h0.954v-0.459
		c0-1.942,0.105-3.354,1.622-4.837c1.625-1.553,3.143-1.694,5.226-1.694h2.295c1.165,0,2.471,0.105,2.471,1.694
		c0,1.448-1.165,1.695-2.33,1.695h-2.648c-2.293,0-3.247,0.459-3.247,2.93v0.671h3c1.131,0,2.331,0.247,2.331,1.694
		c0,1.483-1.341,1.695-2.331,1.695h-3v13.309c0,1.165-0.247,2.33-1.693,2.33c-1.448,0-1.694-1.165-1.694-2.33V69.74z"/>
	<path d="M31.358,104.509c0,2.436-0.177,3.354-2.154,4.907l-2.047,1.624c-0.706,0.565-1.801,1.518-2.718,1.518h-2.294
		c-1.518,0-2.224-0.988-3.318-2.012l-0.671-0.636v6.814c0,1.165-0.248,2.33-1.695,2.33c-1.447,0-1.694-1.165-1.694-2.33V95.332
		c0-1.2,0.141-2.506,1.694-2.506c1.377,0,1.695,1.094,1.695,2.224v0.423l0.671-0.6c0.882-0.777,2.223-2.047,3.177-2.047h2.33
		c0.812,0,1.906,0.847,2.824,1.553l2.047,1.588c1.977,1.553,2.154,2.506,2.154,4.906V104.509z M27.969,100.414
		c0-0.635-0.177-1.023-0.706-1.482l-2.542-2.119c-0.318-0.282-0.707-0.6-1.166-0.6h-0.882c-0.495,0-1.094,0.636-1.448,0.988
		l-2.118,2.012c-0.706,0.671-0.953,1.059-0.953,1.8v3.318c0,0.494,0.141,1.13,0.494,1.447l2.577,2.436
		c0.494,0.494,1.024,0.953,1.448,0.953h0.882c0.459,0,0.848-0.317,1.166-0.6l2.542-2.118c0.529-0.459,0.706-0.848,0.706-1.482
		V100.414z"/>
	<path d="M40.181,95.332c0-1.236,0.141-2.506,1.694-2.506c1.341,0,1.695,1.129,1.695,2.259v1.376l2.647-2.189
		c0.953-0.776,1.942-1.447,3.001-1.447h2.718c1.306,0,2.4,0.423,3.318,1.341c1.129,1.129,1.518,2.294,1.518,3.848
		c0,1.165-0.212,2.365-1.659,2.365c-1.236,0-1.73-0.988-1.73-2.083c0-0.565,0-0.988-0.353-1.483c-0.423-0.6-1.235-0.6-2.047-0.6
		h-0.988c-0.636,0-1.094,0.317-1.695,0.812l-4.729,3.919v8.578c0,1.165-0.248,2.33-1.695,2.33c-1.447,0-1.694-1.165-1.694-2.33
		V95.332z"/>
	<path d="M75.656,108.463h2.542c1.13,0,2.331,0.247,2.331,1.695c0,1.482-1.341,1.694-2.331,1.694h-8.613
		c-0.988,0-2.33-0.212-2.33-1.694c0-1.448,1.2-1.695,2.33-1.695h2.683v-12.25h-2.683c-0.988,0-2.33-0.212-2.33-1.695
		c0-1.447,1.2-1.694,2.33-1.694h3.565c1.942,0,2.506,0.353,2.506,2.365V108.463z M70.537,85.976c0-1.2,0.671-1.588,1.588-1.588
		h1.942c0.918,0,1.588,0.388,1.588,1.588v1.625c0,1.2-0.67,1.588-1.588,1.588h-1.942c-0.917,0-1.588-0.389-1.588-1.588V85.976z"/>
	<path d="M94.398,99.673v9.849c0,1.165-0.248,2.33-1.694,2.33c-1.447,0-1.694-1.165-1.694-2.33V95.332
		c0-1.236,0.141-2.506,1.694-2.506c1.518,0,1.694,1.27,1.694,2.471v0.388v0.071l2.753-1.8c0.883-0.565,1.836-1.129,2.93-1.129h2.506
		c1.306,0,2.118,0.353,3.142,1.235c1.518,1.307,1.447,2.753,1.518,4.59l0.354,10.661c0.035,1.2-0.142,2.542-1.659,2.542
		c-1.376,0-1.66-1.165-1.695-2.294l-0.353-10.449c-0.071-2.083-0.248-2.895-2.295-2.895h-1.13c-0.353,0-0.706,0.105-1.059,0.317
		L94.398,99.673z"/>
	<path d="M123.237,105.463c0,1.906-0.071,3,2.259,3h1.729c1.376,0,2.012-0.106,2.366-1.483c0.211-0.812,0.847-1.377,1.694-1.377
		c0.954,0,1.73,0.742,1.73,1.695s-0.6,2.153-1.165,2.824c-1.236,1.483-2.86,1.73-4.66,1.73h-1.729c-1.695,0-3.178-0.389-4.377-1.694
		c-1.307-1.448-1.235-2.895-1.235-4.73v-9.214h-1.094c-0.989,0-2.33-0.212-2.33-1.695c0-1.447,1.2-1.694,2.33-1.694h1.094v-3.46
		c0-1.165,0.247-2.33,1.694-2.33c1.448,0,1.695,1.165,1.695,2.33v3.46h5.684c1.129,0,2.33,0.247,2.33,1.694
		c0,1.483-1.341,1.695-2.33,1.695h-5.684V105.463z"/>
	<path d="M148.051,111.852c-1.412,0-1.977,0-3.036-0.917l-1.448-1.271c-1.341-1.2-1.729-1.976-1.729-3.812v-6.53
		c0-1.801,0.247-2.86,1.659-4.06l1.2-1.024c1.588-1.376,2.366-1.412,3.742-1.412h3.106c1.659,0,2.436,0.176,3.742,1.235l1.376,1.095
		c1.554,1.236,1.766,2.542,1.766,4.413v2.718c0,1.941-0.317,2.506-2.33,2.506h-10.873v1.13c0,0.317,0.247,0.741,0.494,0.988
		l0.847,0.918c0.459,0.494,1.13,0.636,2.259,0.636h7.272c1.13,0,2.33,0.247,2.33,1.695c0,1.482-1.342,1.694-2.33,1.694H148.051z
		 M145.227,101.403h9.813v-2.047c0-0.636,0.035-1.165-0.424-1.589l-1.306-1.129c-0.424-0.389-1.094-0.424-1.624-0.424h-2.86
		c-0.635,0-1.165,0-1.729,0.389l-1.165,0.847c-0.424,0.318-0.706,0.565-0.706,1.553V101.403z"/>
	<path d="M167.252,95.332c0-1.236,0.141-2.506,1.694-2.506c1.341,0,1.695,1.129,1.695,2.259v1.376l2.647-2.189
		c0.953-0.776,1.942-1.447,3.001-1.447h2.718c1.306,0,2.4,0.423,3.318,1.341c1.129,1.129,1.518,2.294,1.518,3.848
		c0,1.165-0.212,2.365-1.659,2.365c-1.236,0-1.73-0.988-1.73-2.083c0-0.565,0-0.988-0.354-1.483c-0.423-0.6-1.235-0.6-2.047-0.6
		h-0.988c-0.636,0-1.094,0.317-1.695,0.812l-4.729,3.919v8.578c0,1.165-0.248,2.33-1.695,2.33c-1.447,0-1.694-1.165-1.694-2.33
		V95.332z"/>
	<path d="M201.845,84.388c1.518,0,1.588,0.918,1.518,2.612l-0.636,12.109c-0.07,1.235-0.353,2.259-1.8,2.259
		c-1.447,0-1.73-1.024-1.8-2.259L198.491,87c-0.105-1.694,0.036-2.612,1.554-2.612H201.845z M201.386,106.91
		c1.341,0,1.977,0.671,1.977,2.012v0.918c0,1.341-0.636,2.012-1.977,2.012h-0.918c-1.341,0-1.977-0.671-1.977-2.012v-0.918
		c0-1.341,0.636-2.012,1.977-2.012H201.386z"/>
</g>
</svg>
