<?xml version="1.0" encoding="utf-8"?>
<!-- Generator: Adobe Illustrator 16.0.0, SVG Export Plug-In . SVG Version: 6.00 Build 0)  -->
<!DOCTYPE svg PUBLIC "-//W3C//DTD SVG 1.1//EN" "http://www.w3.org/Graphics/SVG/1.1/DTD/svg11.dtd">
<svg version="1.1" id="Calque_1" xmlns="http://www.w3.org/2000/svg" xmlns:xlink="http://www.w3.org/1999/xlink" x="0px" y="0px"
	 width="595.279px" height="841.89px" viewBox="0 0 595.279 841.89" enable-background="new 0 0 595.279 841.89"
	 xml:space="preserve">
<path fill="none" stroke="#1D1D1B" stroke-width="0.25" stroke-miterlimit="10" d="M340.048,435.47
	c-11.468,12.285-22.552,24.16-34.312,36.762c0-24.764,0-48.615,0-73.475C317.423,411.261,328.572,423.191,340.048,435.47z"/>
<path fill="none" stroke="#1D1D1B" stroke-width="0.25" stroke-miterlimit="10" d="M342.72,279.75
	c11.708-12.548,22.8-24.437,34.35-36.814c11.38,12.182,22.55,24.138,34.392,36.814C388.277,279.75,366.02,279.75,342.72,279.75z"/>
<path fill="none" stroke="#1D1D1B" stroke-width="0.25" stroke-miterlimit="10" d="M305.741,243.902
	c11.738,12.577,22.93,24.565,34.287,36.733c-11.379,12.194-22.476,24.087-34.287,36.746
	C305.741,292.612,305.741,268.822,305.741,243.902z"/>
<path fill="none" stroke="#1D1D1B" stroke-width="0.25" stroke-miterlimit="10" d="M267.246,280.089c-23.648,0-45.768,0-69.289,0
	c11.896-12.78,23.096-24.812,34.594-37.165C243.994,255.181,255.177,267.161,267.246,280.089z"/>
<path fill="none" stroke="#1D1D1B" stroke-width="0.25" stroke-miterlimit="10" d="M305.703,89.021
	c11.893,12.741,23.089,24.738,34.332,36.783c-11.387,12.19-22.488,24.077-34.332,36.758
	C305.703,137.725,305.703,113.963,305.703,89.021z"/>
<path fill="none" stroke="#1D1D1B" stroke-width="0.25" stroke-miterlimit="10" d="M487.239,279.75
	c11.73-12.57,22.832-24.459,34.348-36.796c11.357,12.146,22.531,24.096,34.406,36.796C532.759,279.75,510.518,279.75,487.239,279.75
	z"/>
<path fill="none" stroke="#1D1D1B" stroke-width="0.25" stroke-miterlimit="10" d="M412.493,127.589c0,25.118,0,48.854,0,73.743
	c-6.53-6.92-12.396-13.114-18.233-19.33c-4.555-4.848-9.176-9.641-13.536-14.659c-0.907-1.043-1.633-3.719-1.041-4.373
	C390.241,151.327,401.015,139.879,412.493,127.589z"/>
<path fill="none" stroke="#1D1D1B" stroke-width="0.25" stroke-miterlimit="10" d="M412.325,356.107
	c-12.01-12.869-23.012-24.656-34.299-36.752c11.311-12.12,22.467-24.074,34.299-36.752
	C412.325,307.478,412.325,331.264,412.325,356.107z"/>
<path fill="none" stroke="#1D1D1B" stroke-width="0.25" stroke-miterlimit="10" d="M412.307,433.484
	c-11.789-12.625-22.873-24.495-34.278-36.709c11.258-12.066,22.438-24.051,34.278-36.739
	C412.307,384.734,412.307,408.513,412.307,433.484z"/>
<path fill="none" stroke="#1D1D1B" stroke-width="0.25" stroke-miterlimit="10" d="M412.557,437.207c0,25.113,0,48.695,0,73.902
	c-12.058-12.887-23.256-24.855-34.542-36.92C389.455,461.945,400.546,450.068,412.557,437.207z"/>
<path fill="none" stroke="#1D1D1B" stroke-width="0.25" stroke-miterlimit="10" d="M412.26,278.559
	c-11.782-12.609-22.938-24.547-34.234-36.64c11.309-12.111,22.404-23.994,34.234-36.662
	C412.26,230.003,412.26,253.715,412.26,278.559z"/>
<path fill="none" stroke="#1D1D1B" stroke-width="0.25" stroke-miterlimit="10" d="M412.28,123.742
	c-11.834-12.662-23.015-24.623-34.262-36.657c11.295-12.094,22.398-23.983,34.262-36.686
	C412.28,75.221,412.28,98.937,412.28,123.742z"/>
<path fill="none" stroke="#1D1D1B" stroke-width="0.25" stroke-miterlimit="10" d="M304.828,240.933
	c-11.443-12.279-22.567-24.214-34.375-36.882c23.315,0,45.469,0,68.769,0C327.418,216.708,316.287,228.645,304.828,240.933z"/>
<path fill="none" stroke="#1D1D1B" stroke-width="0.25" stroke-miterlimit="10" d="M269.472,201.431c0-25.093,0-48.795,0-73.769
	c11.771,12.589,22.816,24.402,34.41,36.801C292.655,176.527,281.524,188.482,269.472,201.431z"/>
<path fill="none" stroke="#1D1D1B" stroke-width="0.25" stroke-miterlimit="10" d="M411.56,125.009c-23.364,0-45.42,0-68.869,0
	c11.764-12.64,22.842-24.543,34.365-36.928C388.452,100.275,399.613,112.223,411.56,125.009z"/>
<path fill="none" stroke="#1D1D1B" stroke-width="0.25" stroke-miterlimit="10" d="M303.915,319.316
	c-11.247,12.051-22.411,24.014-34.28,36.734c0-24.753,0-48.441,0-73.348C281.297,295.16,292.418,307.037,303.915,319.316z"/>
<path fill="none" stroke="#1D1D1B" stroke-width="0.25" stroke-miterlimit="10" d="M483.565,204.233
	c-11.588,12.426-22.748,24.396-34.202,36.675c-11.386-12.184-22.495-24.073-34.271-36.675
	C438.247,204.233,460.483,204.233,483.565,204.233z"/>
<path fill="none" stroke="#1D1D1B" stroke-width="0.25" stroke-miterlimit="10" d="M267.055,125.044c-23.497,0-45.591,0-68.917,0
	c11.787-12.656,22.917-24.606,34.417-36.955C243.933,100.278,255.092,112.229,267.055,125.044z"/>
<path fill="none" stroke="#1D1D1B" stroke-width="0.25" stroke-miterlimit="10" d="M487.384,124.778
	c11.637-12.473,22.795-24.438,34.219-36.68c11.416,12.229,22.518,24.12,34.242,36.68
	C532.741,124.778,510.496,124.778,487.384,124.778z"/>
<path fill="none" stroke="#1D1D1B" stroke-width="0.25" stroke-miterlimit="10" d="M303.912,241.909
	c-11.322,12.125-22.411,24-34.229,36.656c0-24.695,0-48.321,0-73.211C281.436,217.906,292.639,229.87,303.912,241.909z"/>
<path fill="none" stroke="#1D1D1B" stroke-width="0.25" stroke-miterlimit="10" d="M269.592,50.333
	c11.933,12.78,23.022,24.658,34.312,36.75c-11.239,12.026-22.406,23.976-34.312,36.715
	C269.592,98.977,269.592,75.332,269.592,50.333z"/>
<path fill="none" stroke="#1D1D1B" stroke-width="0.25" stroke-miterlimit="10" d="M269.604,437.451
	c11.829,12.672,22.913,24.545,34.292,36.734c-11.216,12.01-22.361,23.945-34.292,36.721
	C269.604,486.011,269.604,462.373,269.604,437.451z"/>
<path fill="none" stroke="#1D1D1B" stroke-width="0.25" stroke-miterlimit="10" d="M269.523,359.971
	c11.977,12.812,23.063,24.678,34.385,36.792c-11.344,12.141-22.481,24.061-34.385,36.803
	C269.523,408.708,269.523,385.144,269.523,359.971z"/>
<path fill="none" stroke="#1D1D1B" stroke-width="0.25" stroke-miterlimit="10" d="M414.132,125.806
	c11.427-12.22,22.477-24.038,34.295-36.678c0,24.816,0,48.367,0,73.306C436.691,149.898,425.582,138.035,414.132,125.806z"/>
<path fill="none" stroke="#1D1D1B" stroke-width="0.25" stroke-miterlimit="10" d="M448.227,317.113
	c-11.516-12.321-22.562-24.144-34.06-36.444c11.206-12.025,22.269-23.893,34.06-36.545
	C448.227,268.811,448.227,292.509,448.227,317.113z"/>
<path fill="none" stroke="#1D1D1B" stroke-width="0.25" stroke-miterlimit="10" d="M414.147,435.474
	c11.457-12.266,22.427-24.012,34.119-36.53c0,24.698,0,48.375,0,73.055C436.578,459.486,425.53,447.658,414.147,435.474z"/>
<path fill="none" stroke="#1D1D1B" stroke-width="0.25" stroke-miterlimit="10" d="M522.436,166.391
	c11.756,12.593,22.947,24.583,34.365,36.813c-11.336,12.152-22.541,24.161-34.365,36.837
	C522.436,215.281,522.436,191.351,522.436,166.391z"/>
<path fill="none" stroke="#1D1D1B" stroke-width="0.25" stroke-miterlimit="10" d="M522.405,321.194
	c11.779,12.618,22.992,24.632,34.396,36.85c-11.346,12.162-22.561,24.18-34.396,36.865
	C522.405,370.1,522.405,346.148,522.405,321.194z"/>
<path fill="none" stroke="#1D1D1B" stroke-width="0.25" stroke-miterlimit="10" d="M270.246,358.729c23.429,0,45.681,0,69.094,0
	c-11.697,12.561-22.907,24.596-34.495,37.038C293.42,383.537,282.235,371.562,270.246,358.729z"/>
<path fill="none" stroke="#1D1D1B" stroke-width="0.25" stroke-miterlimit="10" d="M270.33,512.158
	c11.768-12.615,22.936-24.59,34.477-36.965c11.419,12.223,22.688,24.283,34.535,36.965
	C316.136,512.158,293.809,512.158,270.33,512.158z"/>
<path fill="none" stroke="#1D1D1B" stroke-width="0.25" stroke-miterlimit="10" d="M483.92,512.24c-23.412,0-45.768,0-69.132,0
	c11.861-12.713,23.125-24.787,34.566-37.051C460.834,487.494,472.041,499.507,483.92,512.24z"/>
<path fill="none" stroke="#1D1D1B" stroke-width="0.25" stroke-miterlimit="10" d="M414.754,358.703c23.458,0,45.799,0,69.149,0
	c-11.809,12.668-23.053,24.734-34.54,37.06C437.942,383.532,426.733,371.531,414.754,358.703z"/>
<path fill="none" stroke="#1D1D1B" stroke-width="0.25" stroke-miterlimit="10" d="M233.175,395.127c0-25.196,0-49.063,0-74.108
	c11.908,12.744,23.158,24.783,34.596,37.021C256.421,370.207,245.218,382.217,233.175,395.127z"/>
<path fill="none" stroke="#1D1D1B" stroke-width="0.25" stroke-miterlimit="10" d="M267.785,203.199
	c-11.463,12.276-22.634,24.239-34.438,36.88c0-24.866,0-48.791,0-73.725C245.036,178.861,256.182,190.787,267.785,203.199z"/>
<path fill="none" stroke="#1D1D1B" stroke-width="0.25" stroke-miterlimit="10" d="M450.278,87.082
	c11.417-12.223,22.59-24.184,34.438-36.868c0,24.922,0,48.75,0,73.729C472.878,111.273,461.643,99.249,450.278,87.082z"/>
<path fill="none" stroke="#1D1D1B" stroke-width="0.25" stroke-miterlimit="10" d="M450.28,396.792
	c11.457-12.28,22.547-24.167,34.264-36.724c0,24.715,0,48.609,0,73.375C473.03,421.128,461.892,409.214,450.28,396.792z"/>
<path fill="none" stroke="#1D1D1B" stroke-width="0.25" stroke-miterlimit="10" d="M450.286,241.938
	c11.416-12.232,22.591-24.207,34.396-36.857c0,24.825,0,48.685,0,73.658C472.966,266.205,461.743,254.196,450.286,241.938z"/>
<path fill="none" stroke="#1D1D1B" stroke-width="0.25" stroke-miterlimit="10" d="M450.276,474.175
	c11.635-12.459,22.705-24.312,34.377-36.812c0,24.703,0,48.521,0,73.568C472.943,498.41,461.747,486.441,450.276,474.175z"/>
<path fill="none" stroke="#1D1D1B" stroke-width="0.25" stroke-miterlimit="10" d="M449.354,320.335
	c11.531,12.358,22.64,24.262,34.264,36.717c-23.025,0-45.415,0-68.512,0C426.672,344.653,437.85,332.668,449.354,320.335z"/>
<path fill="none" stroke="#1D1D1B" stroke-width="0.25" stroke-miterlimit="10" d="M486.235,124.008c0-25.015,0-48.838,0-73.794
	c11.826,12.658,22.979,24.594,34.436,36.854C509.364,99.197,498.184,111.188,486.235,124.008z"/>
<path fill="none" stroke="#1D1D1B" stroke-width="0.25" stroke-miterlimit="10" d="M486.141,511.187c0-25.201,0-48.973,0-73.977
	c11.826,12.65,22.979,24.582,34.523,36.936C509.35,486.285,498.178,498.271,486.141,511.187z"/>
<path fill="none" stroke="#1D1D1B" stroke-width="0.25" stroke-miterlimit="10" d="M484.567,356.042
	c-11.653-12.474-22.737-24.338-34.269-36.678c11.311-12.14,22.479-24.13,34.269-36.785
	C484.567,307.231,484.567,331.054,484.567,356.042z"/>
<path fill="none" stroke="#1D1D1B" stroke-width="0.25" stroke-miterlimit="10" d="M486.243,205.02
	c11.902,12.771,23.078,24.761,34.42,36.931c-11.434,12.243-22.58,24.181-34.42,36.859
	C486.243,253.831,486.243,230.013,486.243,205.02z"/>
<path fill="none" stroke="#1D1D1B" stroke-width="0.25" stroke-miterlimit="10" d="M484.608,201.281
	c-11.673-12.51-22.775-24.408-34.307-36.764c11.391-12.217,22.566-24.209,34.307-36.802
	C484.608,152.438,484.608,176.408,484.608,201.281z"/>
<path fill="none" stroke="#1D1D1B" stroke-width="0.25" stroke-miterlimit="10" d="M486.297,359.94
	c11.85,12.7,22.953,24.604,34.361,36.832c-11.422,12.242-22.59,24.213-34.361,36.831C486.297,408.839,486.297,385,486.297,359.94z"
	/>
<path fill="none" stroke="#1D1D1B" stroke-width="0.25" stroke-miterlimit="10" d="M197.122,278.909c0-25.165,0-48.91,0-73.926
	c11.911,12.746,23.135,24.755,34.524,36.945C220.277,254.106,209.113,266.063,197.122,278.909z"/>
<path fill="none" stroke="#1D1D1B" stroke-width="0.25" stroke-miterlimit="10" d="M197.168,124.052c0-25.037,0-48.81,0-73.855
	c11.778,12.595,22.912,24.5,34.462,36.852C220.318,99.195,209.144,111.19,197.168,124.052z"/>
<path fill="none" stroke="#1D1D1B" stroke-width="0.25" stroke-miterlimit="10" d="M486.219,356.274c0-25.029,0-48.783,0-73.788
	c11.723,12.524,22.846,24.408,34.443,36.802C509.399,331.386,498.233,343.375,486.219,356.274z"/>
<path fill="none" stroke="#1D1D1B" stroke-width="0.25" stroke-miterlimit="10" d="M304.813,320.338
	c11.573,12.398,22.673,24.289,34.314,36.764c-23.037,0-45.33,0-68.571,0C282.153,344.658,293.293,332.702,304.813,320.338z"/>
<path fill="none" stroke="#1D1D1B" stroke-width="0.25" stroke-miterlimit="10" d="M197.145,511.146c0-25.178,0-48.941,0-73.885
	c11.807,12.629,22.958,24.559,34.489,36.893C220.308,486.3,209.147,498.273,197.145,511.146z"/>
<path fill="none" stroke="#1D1D1B" stroke-width="0.25" stroke-miterlimit="10" d="M231.638,396.772
	c-11.425,12.238-22.594,24.201-34.365,36.813c0-24.782,0-48.612,0-73.605C209.071,372.611,220.217,384.544,231.638,396.772z"/>
<path fill="none" stroke="#1D1D1B" stroke-width="0.25" stroke-miterlimit="10" d="M486.371,127.755
	c11.699,12.535,22.793,24.423,34.287,36.74c-11.387,12.209-22.553,24.183-34.287,36.766
	C486.371,176.547,486.371,152.615,486.371,127.755z"/>
<path fill="none" stroke="#1D1D1B" stroke-width="0.25" stroke-miterlimit="10" d="M231.786,321.189c0,25.087,0,48.83,0,73.709
	c-11.812-12.654-22.963-24.597-34.396-36.843C208.758,345.871,219.909,333.92,231.786,321.189z"/>
<path fill="none" stroke="#1D1D1B" stroke-width="0.25" stroke-miterlimit="10" d="M231.635,319.325
	c-11.389,12.202-22.537,24.148-34.349,36.804c0-24.884,0-48.713,0-73.572C209,295.095,220.141,307.022,231.635,319.325z"/>
<path fill="none" stroke="#1D1D1B" stroke-width="0.25" stroke-miterlimit="10" d="M486.409,358.043
	c11.562-12.379,22.619-24.212,34.283-36.698c0,24.716,0,48.49,0,73.405C508.944,382.172,497.815,370.257,486.409,358.043z"/>
<path fill="none" stroke="#1D1D1B" stroke-width="0.25" stroke-miterlimit="10" d="M197.431,127.892
	c11.501,12.301,22.585,24.156,34.191,36.57c-11.275,12.106-22.445,24.1-34.191,36.711
	C197.431,176.525,197.431,152.618,197.431,127.892z"/>
<path fill="none" stroke="#1D1D1B" stroke-width="0.25" stroke-miterlimit="10" d="M197.392,203.211
	c11.399-12.212,22.548-24.153,34.342-36.785c0,24.847,0,48.642,0,73.577C219.917,227.343,208.778,215.409,197.392,203.211z"/>
<path fill="none" stroke="#1D1D1B" stroke-width="0.25" stroke-miterlimit="10" d="M198.209,126.69c23.349,0,45.521,0,68.689,0
	c-11.771,12.625-22.997,24.669-34.329,36.826C221.194,151.326,210.095,139.431,198.209,126.69z"/>
<path fill="none" stroke="#1D1D1B" stroke-width="0.25" stroke-miterlimit="10" d="M520.588,239.843
	c-11.715-12.565-22.812-24.472-34.15-36.633c11.352-12.172,22.445-24.069,34.15-36.62
	C520.588,191.223,520.588,215.021,520.588,239.843z"/>
<path fill="none" stroke="#1D1D1B" stroke-width="0.25" stroke-miterlimit="10" d="M555.901,126.753
	c-11.811,12.655-22.994,24.642-34.311,36.767c-11.332-12.163-22.475-24.121-34.256-36.767
	C510.552,126.753,532.707,126.753,555.901,126.753z"/>
<path fill="none" stroke="#1D1D1B" stroke-width="0.25" stroke-miterlimit="10" d="M450.11,162.708c0-25.072,0-48.79,0-73.768
	c11.811,12.634,22.926,24.525,34.431,36.834C473.241,137.896,462.105,149.842,450.11,162.708z"/>
<path fill="none" stroke="#1D1D1B" stroke-width="0.25" stroke-miterlimit="10" d="M450.173,317.475c0-24.894,0-48.628,0-73.618
	c11.779,12.597,22.833,24.418,34.366,36.752C473.248,292.723,462.084,304.7,450.173,317.475z"/>
<path fill="none" stroke="#1D1D1B" stroke-width="0.25" stroke-miterlimit="10" d="M267.682,278.528
	c-11.673-12.507-22.828-24.458-34.171-36.611c11.388-12.203,22.466-24.073,34.171-36.616
	C267.682,230.025,267.682,253.823,267.682,278.528z"/>
<path fill="none" stroke="#1D1D1B" stroke-width="0.25" stroke-miterlimit="10" d="M270.541,202.24
	c11.779-12.616,22.869-24.495,34.281-36.718c11.354,12.164,22.535,24.141,34.276,36.718C316.03,202.24,293.85,202.24,270.541,202.24
	z"/>
<path fill="none" stroke="#1D1D1B" stroke-width="0.25" stroke-miterlimit="10" d="M449.346,165.48
	c11.482,12.322,22.555,24.202,34.23,36.733c-23.143,0-45.316,0-68.454,0C426.757,189.727,437.911,177.757,449.346,165.48z"/>
<path fill="none" stroke="#1D1D1B" stroke-width="0.25" stroke-miterlimit="10" d="M342.619,126.58c23.418,0,45.532,0,68.884,0
	c-11.757,12.621-22.88,24.561-34.387,36.913C365.779,151.361,354.598,139.397,342.619,126.58z"/>
<path fill="none" stroke="#1D1D1B" stroke-width="0.25" stroke-miterlimit="10" d="M450.191,472.289c0-24.941,0-48.617,0-73.577
	c11.835,12.66,22.953,24.555,34.353,36.749C473.196,447.625,462.118,459.503,450.191,472.289z"/>
<path fill="none" stroke="#1D1D1B" stroke-width="0.25" stroke-miterlimit="10" d="M267.741,50.403c0,24.907,0,48.605,0,73.349
	c-11.717-12.548-22.773-24.391-34.225-36.653C244.789,75.013,255.931,63.064,267.741,50.403z"/>
<path fill="none" stroke="#1D1D1B" stroke-width="0.25" stroke-miterlimit="10" d="M233.515,474.183
	c11.358-12.172,22.443-24.049,34.116-36.555c0,24.578,0,48.359,0,73.104C256.023,498.296,244.886,486.365,233.515,474.183z"/>
<path fill="none" stroke="#1D1D1B" stroke-width="0.25" stroke-miterlimit="10" d="M233.507,319.355
	c11.388-12.199,22.465-24.065,34.147-36.581c0,24.601,0,48.345,0,73.127C256.061,343.494,245.022,331.681,233.507,319.355z"/>
<path fill="none" stroke="#1D1D1B" stroke-width="0.25" stroke-miterlimit="10" d="M556.557,123.529
	c-11.568-12.395-22.639-24.254-34.006-36.434c11.242-12.062,22.309-23.931,34.006-36.48
	C556.557,75.14,556.557,98.85,556.557,123.529z"/>
<path fill="none" stroke="#1D1D1B" stroke-width="0.25" stroke-miterlimit="10" d="M414.085,278.703c0-25.003,0-48.64,0-73.531
	c11.819,12.644,22.955,24.558,34.339,36.738C437.102,254.041,426.022,265.912,414.085,278.703z"/>
<path fill="none" stroke="#1D1D1B" stroke-width="0.25" stroke-miterlimit="10" d="M522.522,241.922
	c11.52-12.33,22.562-24.15,34.246-36.653c0,24.716,0,48.397,0,73.278C545.061,266.027,533.942,254.135,522.522,241.922z"/>
<path fill="none" stroke="#1D1D1B" stroke-width="0.25" stroke-miterlimit="10" d="M267.85,359.948c0,24.969,0,48.704,0,73.569
	c-11.779-12.604-22.92-24.524-34.334-36.737C244.871,384.6,255.963,372.702,267.85,359.948z"/>
<path fill="none" stroke="#1D1D1B" stroke-width="0.25" stroke-miterlimit="10" d="M556.762,437.544c0,24.654,0,48.328,0,73.258
	c-11.699-12.514-22.805-24.389-34.227-36.604C533.887,462.042,545.018,450.123,556.762,437.544z"/>
<path fill="none" stroke="#1D1D1B" stroke-width="0.25" stroke-miterlimit="10" d="M522.536,396.774
	c11.51-12.337,22.502-24.121,34.066-36.517c0,24.516,0,48.296,0,72.947C545.106,420.909,533.969,409.003,522.536,396.774z"/>
<path fill="none" stroke="#1D1D1B" stroke-width="0.25" stroke-miterlimit="10" d="M233.508,164.508
	c11.494-12.309,22.501-24.093,34.116-36.531c0,24.6,0,48.361,0,73.056C255.995,188.583,244.93,176.737,233.508,164.508z"/>
<path fill="none" stroke="#1D1D1B" stroke-width="0.25" stroke-miterlimit="10" d="M414.205,123.761c0-24.776,0-48.454,0-73.283
	c11.694,12.504,22.812,24.392,34.213,36.584C437.156,99.143,426.088,111.014,414.205,123.761z"/>
<path fill="none" stroke="#1D1D1B" stroke-width="0.25" stroke-miterlimit="10" d="M266.672,281.787
	c-11.624,12.47-22.657,24.305-34.083,36.562c-11.3-12.102-22.421-24.014-34.136-36.562
	C221.464,281.787,243.559,281.787,266.672,281.787z"/>
<path fill="none" stroke="#1D1D1B" stroke-width="0.25" stroke-miterlimit="10" d="M556.852,127.758c0,25.024,0,48.599,0,73.446
	c-11.748-12.557-22.781-24.348-34.299-36.656C533.787,152.499,544.911,140.565,556.852,127.758z"/>
<path fill="none" stroke="#1D1D1B" stroke-width="0.25" stroke-miterlimit="10" d="M414.314,437.664
	c11.653,12.48,22.739,24.354,34.093,36.514c-11.298,12.115-22.37,23.986-34.093,36.557
	C414.314,486.074,414.314,462.378,414.314,437.664z"/>
<path fill="none" stroke="#1D1D1B" stroke-width="0.25" stroke-miterlimit="10" d="M522.53,319.362
	c11.408-12.216,22.408-23.998,34.055-36.469c0,24.506,0,48.151,0,72.86C545.094,343.477,533.996,331.616,522.53,319.362z"/>
<path fill="none" stroke="#1D1D1B" stroke-width="0.25" stroke-miterlimit="10" d="M414.361,282.889
	c11.67,12.495,22.729,24.335,34.047,36.452c-11.303,12.119-22.379,23.994-34.047,36.506
	C414.361,331.389,414.361,307.74,414.361,282.889z"/>
<path fill="none" stroke="#1D1D1B" stroke-width="0.25" stroke-miterlimit="10" d="M414.366,360.291
	c11.621,12.448,22.671,24.287,34.039,36.464c-11.301,12.111-22.387,23.994-34.039,36.481
	C414.366,408.753,414.366,385.019,414.366,360.291z"/>
<path fill="none" stroke="#1D1D1B" stroke-width="0.25" stroke-miterlimit="10" d="M342.786,281.619c23.187,0,45.258,0,68.526,0
	c-11.588,12.442-22.583,24.248-34.186,36.705C365.824,306.242,354.674,294.324,342.786,281.619z"/>
<path fill="none" stroke="#1D1D1B" stroke-width="0.25" stroke-miterlimit="10" d="M521.616,318.368
	c-11.447-12.268-22.439-24.046-33.998-36.433c22.771,0,44.848,0,67.916,0C544.084,294.231,532.998,306.141,521.616,318.368z"/>
<path fill="none" stroke="#1D1D1B" stroke-width="0.25" stroke-miterlimit="10" d="M448.422,164.5
	c-11.394,12.197-22.438,24.02-34.162,36.573c0-24.704,0-48.32,0-73.105C425.913,140.431,436.942,152.224,448.422,164.5z"/>
<path fill="none" stroke="#1D1D1B" stroke-width="0.25" stroke-miterlimit="10" d="M269.632,280.648
	c11.399-12.214,22.439-24.043,34.105-36.542c0,24.606,0,48.234,0,73C292.112,304.679,281.093,292.899,269.632,280.648z"/>
<path fill="none" stroke="#1D1D1B" stroke-width="0.25" stroke-miterlimit="10" d="M303.557,162.125
	c-11.556-12.377-22.55-24.154-33.903-36.314c11.188-12.006,22.24-23.865,33.903-36.379
	C303.557,113.892,303.557,137.583,303.557,162.125z"/>
<path fill="none" stroke="#1D1D1B" stroke-width="0.25" stroke-miterlimit="10" d="M303.78,398.909c0,24.739,0,48.295,0,73.077
	c-11.636-12.436-22.667-24.225-34.133-36.477C280.83,423.519,291.95,411.595,303.78,398.909z"/>
<path fill="none" stroke="#1D1D1B" stroke-width="0.25" stroke-miterlimit="10" d="M412.291,203.2
	c-11.239,12.056-22.33,23.953-34.028,36.502c0-24.457,0-48.159,0-72.904C389.91,179.258,400.969,191.088,412.291,203.2z"/>
<path fill="none" stroke="#1D1D1B" stroke-width="0.25" stroke-miterlimit="10" d="M378.156,321.494
	c11.734,12.568,22.826,24.446,34.138,36.559c-11.286,12.092-22.365,23.961-34.138,36.573
	C378.156,369.922,378.156,346.243,378.156,321.494z"/>
<path fill="none" stroke="#1D1D1B" stroke-width="0.25" stroke-miterlimit="10" d="M377.065,397.771
	c11.409,12.215,22.472,24.057,34.109,36.516c-22.875,0-44.987,0-68.112,0C354.54,421.96,365.617,410.065,377.065,397.771z"/>
<path fill="none" stroke="#1D1D1B" stroke-width="0.25" stroke-miterlimit="10" d="M198.418,434.369
	c11.664-12.502,22.646-24.276,34.138-36.592c11.261,12.057,22.384,23.963,34.18,36.592
	C243.646,434.369,221.618,434.369,198.418,434.369z"/>
<path fill="none" stroke="#1D1D1B" stroke-width="0.25" stroke-miterlimit="10" d="M487.582,434.228
	c11.635-12.467,22.723-24.346,34.025-36.456c11.213,12.012,22.303,23.891,34.029,36.456
	C532.739,434.228,510.672,434.228,487.582,434.228z"/>
<path fill="none" stroke="#1D1D1B" stroke-width="0.25" stroke-miterlimit="10" d="M340.071,127.743c0,24.966,0,48.539,0,73.467
	c-11.843-12.67-22.944-24.548-34.302-36.7C317.086,152.382,328.136,140.536,340.071,127.743z"/>
<path fill="none" stroke="#1D1D1B" stroke-width="0.25" stroke-miterlimit="10" d="M305.766,319.354
	c11.252-12.055,22.314-23.907,34.104-36.536c0,24.75,0,48.374,0,73.056C328.14,343.312,317.078,331.464,305.766,319.354z"/>
<path fill="none" stroke="#1D1D1B" stroke-width="0.25" stroke-miterlimit="10" d="M411.125,436.705
	c-11.562,12.391-22.562,24.176-34.026,36.461c-11.312-12.105-22.387-23.959-34.066-36.461
	C365.982,436.705,388.11,436.705,411.125,436.705z"/>
<path fill="none" stroke="#1D1D1B" stroke-width="0.25" stroke-miterlimit="10" d="M339.716,433.132
	c-11.64-12.467-22.625-24.233-33.936-36.348c11.184-12,22.255-23.882,33.936-36.414C339.716,384.77,339.716,408.435,339.716,433.132
	z"/>
<path fill="none" stroke="#1D1D1B" stroke-width="0.25" stroke-miterlimit="10" d="M232.596,473.187
	c-11.334-12.139-22.412-24-34.126-36.547c22.979,0,44.993,0,68.149,0C255.052,449.066,243.957,460.986,232.596,473.187z"/>
<path fill="none" stroke="#1D1D1B" stroke-width="0.25" stroke-miterlimit="10" d="M340.022,205.251c0,24.953,0,48.52,0,73.326
	c-11.845-12.667-22.979-24.575-34.272-36.651C317.081,229.801,328.142,217.964,340.022,205.251z"/>
<path fill="none" stroke="#1D1D1B" stroke-width="0.25" stroke-miterlimit="10" d="M487.438,436.582c23.182,0,45.191,0,68.312,0
	c-11.709,12.553-22.746,24.385-34.129,36.588C510.268,461.019,499.203,449.175,487.438,436.582z"/>
<path fill="none" stroke="#1D1D1B" stroke-width="0.25" stroke-miterlimit="10" d="M305.748,474.187
	c11.292-12.08,22.352-23.91,34.148-36.531c0,24.73,0,48.281,0,73.033C328.194,498.179,317.062,486.281,305.748,474.187z"/>
<path fill="none" stroke="#1D1D1B" stroke-width="0.25" stroke-miterlimit="10" d="M376.174,319.326
	c-11.31,12.121-22.307,23.907-33.905,36.341c0-24.338,0-47.947,0-72.575C353.723,295.333,364.761,307.129,376.174,319.326z"/>
<path fill="none" stroke="#1D1D1B" stroke-width="0.25" stroke-miterlimit="10" d="M376.163,164.482
	c-11.271,12.086-22.239,23.845-33.887,36.333c0-24.427,0-47.976,0-72.574C353.719,140.481,364.728,152.256,376.163,164.482z"/>
<path fill="none" stroke="#1D1D1B" stroke-width="0.25" stroke-miterlimit="10" d="M305.748,87.1
	c11.317-12.114,22.308-23.875,34.023-36.416c0,24.628,0,48.222,0,72.804C328.212,111.125,317.163,99.308,305.748,87.1z"/>
<path fill="none" stroke="#1D1D1B" stroke-width="0.25" stroke-miterlimit="10" d="M342.159,360.354
	c11.682,12.507,22.66,24.265,33.996,36.4c-11.182,11.98-22.229,23.816-33.996,36.43
	C342.159,408.589,342.159,385.069,342.159,360.354z"/>
<path fill="none" stroke="#1D1D1B" stroke-width="0.25" stroke-miterlimit="10" d="M270.639,49.465c23.064,0,45.003,0,68.309,0
	c-11.665,12.533-22.644,24.328-34.083,36.621C293.557,73.988,282.486,62.14,270.639,49.465z"/>
<path fill="none" stroke="#1D1D1B" stroke-width="0.25" stroke-miterlimit="10" d="M342.026,278.478c0-24.902,0-48.413,0-73.072
	c11.765,12.583,22.896,24.489,34.144,36.519C364.926,253.962,353.938,265.724,342.026,278.478z"/>
<path fill="none" stroke="#1D1D1B" stroke-width="0.25" stroke-miterlimit="10" d="M342.045,510.748c0-24.727,0-48.227,0-73.033
	c11.7,12.496,22.72,24.262,34.114,36.432C365.02,486.097,353.98,497.941,342.045,510.748z"/>
<path fill="none" stroke="#1D1D1B" stroke-width="0.25" stroke-miterlimit="10" d="M342.135,50.678
	c11.758,12.582,22.804,24.402,34.029,36.415c-11.245,12.039-22.315,23.892-34.029,36.433
	C342.135,98.998,342.135,75.416,342.135,50.678z"/>
<path fill="none" stroke="#1D1D1B" stroke-width="0.25" stroke-miterlimit="10" d="M449.358,86.095
	c-11.393-12.205-22.367-23.965-33.966-36.393c22.857,0,44.855,0,67.855,0C471.843,61.948,460.834,73.77,449.358,86.095z"/>
<path fill="none" stroke="#1D1D1B" stroke-width="0.25" stroke-miterlimit="10" d="M375.919,166.767c0,24.77,0,48.27,0,72.872
	c-11.752-12.578-22.813-24.417-34.021-36.41C353.098,191.224,364.091,179.444,375.919,166.767z"/>
<path fill="none" stroke="#1D1D1B" stroke-width="0.25" stroke-miterlimit="10" d="M375.906,394.483
	c-11.804-12.645-22.795-24.42-34.009-36.434c11.199-11.981,22.235-23.789,34.009-36.384
	C375.906,346.331,375.906,369.816,375.906,394.483z"/>
<path fill="none" stroke="#1D1D1B" stroke-width="0.25" stroke-miterlimit="10" d="M556.298,512.32c-11.979,0-22.738,0-33.902,0
	c0-11.691,0-23.395,0-36.213C533.741,488.224,544.623,499.849,556.298,512.32z"/>
<path fill="none" stroke="#1D1D1B" stroke-width="0.25" stroke-miterlimit="10" d="M233.326,475.984
	c11.545,12.381,22.373,23.992,33.767,36.209c-11.738,0-22.585,0-33.767,0C233.326,500.507,233.326,488.833,233.326,475.984z"/>
<path fill="none" stroke="#1D1D1B" stroke-width="0.25" stroke-miterlimit="10" d="M231.782,476.011c0,12.715,0,24.279,0,36.162
	c-10.986,0-21.854,0-33.68,0C209.386,500.058,220.189,488.458,231.782,476.011z"/>
<path fill="none" stroke="#1D1D1B" stroke-width="0.25" stroke-miterlimit="10" d="M520.754,476.099c0,12.775,0,24.34,0,36.109
	c-11.08,0-21.914,0-33.672,0C498.453,500.013,509.252,488.433,520.754,476.099z"/>
<path fill="none" stroke="#1D1D1B" stroke-width="0.25" stroke-miterlimit="10" d="M378.04,512.048c0-11.768,0-23.178,0-35.82
	c11.453,12.254,22.165,23.715,33.479,35.82C399.931,512.048,389.143,512.048,378.04,512.048z"/>
<path fill="none" stroke="#1D1D1B" stroke-width="0.25" stroke-miterlimit="10" d="M555.618,49.647
	c-11.309,12.116-22.002,23.573-33.26,35.632c0-12.268,0-23.756,0-35.632C533.004,49.647,543.714,49.647,555.618,49.647z"/>
<path fill="none" stroke="#1D1D1B" stroke-width="0.25" stroke-miterlimit="10" d="M233.148,85.482c0-12.631,0-24.04,0-35.834
	c10.837,0,21.53,0,33.385,0C255.366,61.636,244.652,73.137,233.148,85.482z"/>
<path fill="none" stroke="#1D1D1B" stroke-width="0.25" stroke-miterlimit="10" d="M376.049,476.302c0,12.711,0,24.123,0,35.863
	c-10.884,0-21.602,0-33.421,0C353.77,500.208,364.481,488.714,376.049,476.302z"/>
<path fill="none" stroke="#1D1D1B" stroke-width="0.25" stroke-miterlimit="10" d="M198.425,49.509c11.697,0,22.276,0,33.215,0
	c0,11.537,0,23.038,0,35.524C220.443,73.058,209.828,61.705,198.425,49.509z"/>
<path fill="none" stroke="#1D1D1B" stroke-width="0.25" stroke-miterlimit="10" d="M520.7,85.088
	c-11.295-12.099-21.902-23.46-33.086-35.44c11.477,0,22.131,0,33.086,0C520.7,61.08,520.7,72.475,520.7,85.088z"/>
<path fill="none" stroke="#1D1D1B" stroke-width="0.25" stroke-miterlimit="10" d="M378.19,49.534c10.773,0,21.315,0,32.978,0
	c-11.215,12.039-21.777,23.378-32.978,35.399C378.19,72.741,378.19,61.412,378.19,49.534z"/>
<path fill="none" stroke="#1D1D1B" stroke-width="0.25" stroke-miterlimit="10" d="M342.888,49.445c11.672,0,22.126,0,32.958,0
	c0,11.536,0,22.898,0,35.273C364.758,72.85,354.201,61.551,342.888,49.445z"/>
</svg>
