<?xml version="1.0"?>
<svg xmlns:rdf="http://www.w3.org/1999/02/22-rdf-syntax-ns#" xmlns="http://www.w3.org/2000/svg" xmlns:cc="http://creativecommons.org/ns#" xmlns:dc="http://purl.org/dc/elements/1.1/" xmlns:svg="http://www.w3.org/2000/svg" id="svg2" viewBox="0 0 509.75 620.3" version="1.0">
  <g id="layer1" transform="translate(-121.14 -206.46)">
    <path id="path2404" d="m426.27 825.88c1.01-1.93 4.94-8.24 8.74-14.02 6.16-9.36 6.66-8.86 2.15 2.13-2.85 6.95 4.36-0.36 8.61-8.72 7.76-15.27 8.12-24.07 1.53-38.06-3.25-6.93-5.82-15.22-5.71-18.44 0.17-4.47 0.7-3.82 2.27 2.75 1.12 4.72 4.14 11.99 6.7 16.15l4.65 7.57 0.8-11.48c0.79-11.3 2.44-10.69 5.24 1.95 2.43 10.95 5.41 7.06 3.58-4.67-0.95-6.1-1.32-11.54-0.81-12.07 2.22-2.33 3.79 2.74 5.02 16.15 1.2 13.11 0.93 14.32-3.06 13.62-3.37-0.58-6.32 3.1-12.75 15.9-9.23 18.42-13.83 24.76-16.68 23.02-1.04-0.63-4.19 1.74-6.99 5.28-2.81 3.54-4.29 4.86-3.29 2.94zm-25.04-24.65c-0.03-1.35 0.96-3.46 2.19-4.68 4.68-4.66 16.64-37.63 16.48-45.44-0.15-7.26-0.81-6.34-5.88 8.18-9.04 25.92-13.27 36.56-14.18 35.66-0.47-0.46 3.37-12.68 8.52-27.14 5.14-14.46 9.5-29.13 9.68-32.6 0.28-5.5 0.45-5.63 1.34-1.04 1.46 7.47 5.57 6.54 5.15-1.17-0.19-3.53 0.79-9.05 2.17-12.26l2.53-5.84 0.1 7c0.06 3.86-1.49 15.43-3.44 25.71s-4.61 25.46-5.91 33.73c-1.3 8.28-3.01 15.64-3.8 16.36-0.78 0.72-0.94-2.11-0.35-6.29 0.59-4.17 0.46-7.58-0.29-7.57s-4.27 4.47-7.82 9.93c-3.55 5.45-6.47 8.81-6.49 7.46zm40.5-8.66c-0.22-4.82-2.52-12.69-5.12-17.49-2.6-4.79-4.59-12.41-4.43-16.93l0.3-8.21 1.62 9.35c0.89 5.14 3.47 12.82 5.74 17.08 2.52 4.73 3.77 11.07 3.2 16.35l-0.91 8.62-0.4-8.77zm42.17-5.4c2.96-7.71 2.92-8.02-0.95-8.02-1.79 0-4.71-1.84-6.5-4.09-2.92-3.69-2.84-3.78 0.8-0.96 3.52 2.73 4.2 2.43 5.38-2.34 0.73-3-0.18-10.19-2.03-15.98-1.86-5.78-3.5-8.41-3.65-5.84-0.71 12.28-3.81 8.31-4.27-5.47-0.62-18.69-5.16-35.2-10.61-38.61-6.08-3.79-6.5-1.55-2.73 14.6 1.91 8.19 3.1 16.59 2.64 18.68s-2.02-2.52-3.46-10.23c-5.09-27.15-7.44-29.1-35.2-29.18-9.44-0.02-9.83 0.28-12.19 9.5-1.86 7.25-1.77 9.26 0.39 8.44 1.94-0.74 2.88 2.33 2.97 9.76 0.08 6.58-0.27 8.08-0.9 3.82-0.9-6.15-1.68-5.02-6.32 9.35-5.61 17.32-14.93 36.63-21.43 44.39-2.15 2.57-0.62-1.27 3.4-8.54 7.91-14.3 19.09-43.01 18.94-48.69-0.05-1.94-2.97 2.26-6.49 9.33s-7.47 12.78-8.77 12.69-4.48 3.98-7.08 9.04c-2.6 5.07-8.25 13.03-12.56 17.69-9.06 9.8-7.48 5.76 3.14-8.04 4.02-5.23 8.74-12.92 10.49-17.1 2.06-4.93 3.79-6.6 4.93-4.77 1.99 3.17 9.6-12.42 15.24-31.24 4.76-15.86 4.84-15.65-5.63-15.65-8.75 0-9.26 0.41-10.81 8.76-2.23 11.99-9.41 27.59-16.56 36-7.98 9.38-7.5 7.41 1.97-8.16 8.21-13.48 15.1-33.29 12.49-35.88-2.68-2.64-13.33 3.73-13.35 7.99-0.04 7.41-11.57 28.91-23.35 43.56-10.92 13.56-31.81 34.08-38.49 37.8-2.98 1.65 20.48-23.84 25.26-27.46 1.3-0.99 1.58-1.81 0.62-1.83-0.95-0.02 0.38-5.33 2.96-11.8 5.9-14.83 5.86-15.66-0.55-10.21-3.79 3.23-3.43 2.28 1.31-3.47 3.59-4.35 7.14-10.91 7.88-14.56 0.74-3.66 2.22-6.11 3.3-5.45 2.38 1.46 7.89-8.1 5.83-10.13-0.81-0.8-2.1 0.96-2.88 3.9s-2.1 4.25-2.94 2.91-6.27 4.49-12.07 12.96c-11.66 17.03-26.79 31.14-33.38 31.14-2.36 0-5.61 2.11-7.23 4.68s-3.97 4.67-5.22 4.67 1.55-3.94 6.24-8.76c4.68-4.82 11.27-12.85 14.65-17.85 3.37-5 6.13-8.03 6.13-6.74s-2.25 5.17-4.99 8.62c-2.75 3.46-4.45 6.83-3.77 7.49 1.38 1.37 13.1-14.96 19.25-26.83 4.96-9.56 0.34-7.35-5.95 2.85-2.49 4.04-4.53 6.44-4.53 5.35-0.01-1.1-3.74 1.25-8.31 5.21-10.03 8.72-22.4 15.36-22.4 12.03 0-1.32 1.37-2.4 3.04-2.4 3.74 0 37.82-30.45 36.04-32.2-0.7-0.69-3.4 0.65-6 2.98-2.61 2.34-4.74 3.43-4.74 2.43s-1.6-0.51-3.54 1.09c-1.95 1.6-3.55 2.03-3.55 0.96s-5.04 2.85-11.21 8.71c-13.74 13.06-28.93 24.34-28.93 21.48 0-1.16 3.26-4.01 7.25-6.34 3.98-2.33 6.79-4.69 6.23-5.24-2-1.98-14.77 4.2-21.16 10.22-3.57 3.37-6.49 5-6.49 3.63 0-1.38 2.66-4.23 5.9-6.34 7.51-4.86 7.43-5.86-1.41-16.83-4.02-4.99-13.35-21.19-20.74-35.98-15.07-30.22-35.12-56.79-47.51-62.98-4.55-2.26-16.48-5.91-26.52-8.09s-18.93-5.05-19.76-6.38c-2.19-3.5 4.08-8.82 14.61-12.4 9.74-3.31 11.67-5.53 13.9-15.98 1.55-7.27 18.19-26.39 24.76-28.45 2.31-0.73 6.95-0.28 10.32 0.98 5.91 2.23 6.03 2.11 3.39-3.61-2.19-4.76-2.05-6.33 0.69-8.05 1.87-1.17 4.47-2.13 5.77-2.13s0.84 0.95-1.02 2.11c-2.75 1.72-1.87 4.05 4.73 12.6 8.34 10.81 12.86 10.83 5.71 0.03-2.21-3.33-3.11-6.71-2-7.51 3.43-2.48 8.15-12.06 6.91-14.04-0.64-1.04-0.07-5.83 1.28-10.66 2.16-7.72 1.88-9.18-2.27-12.06-5.39-3.74-10.47-17.02-9.48-24.84 0.36-2.9-1.19-8.04-3.45-11.42-6.38-9.51-8.96-20.88-7.41-32.58 1.47-11.03 0-13.76-9.14-17-6.4-2.26-3.64 3.68 3.33 7.2 3.6 1.82 4.34 2.9 2 2.92-4.29 0.04-13.99-9.41-13.99-13.63 0-2.07 1.22-2.21 4.44-0.5 3.97 2.1 4.38 1.55 3.81-5.17-0.36-4.14-0.76-9.37-0.91-11.62-0.16-2.64-2.19-4.09-5.69-4.09-15.38 0-46.15-22.48-56.49-41.28-7-12.73-18.36-49.27-18.36-59.06 0-3.49-0.74-7.09-1.65-7.98-0.9-0.89-1.8-8.69-1.99-17.33-0.33-14.41-0.14-15.07 2.29-7.97 1.45 4.25 3.56 6.88 4.68 5.84 1.11-1.04 0.73 0.58-0.86 3.59-2.21 4.2-2.27 8.95-0.26 20.39 6.6 37.47 20.24 67.9 36.96 82.47 11.41 9.94 19.19 13.27 11.6 4.98-6.63-7.24-2.39-5.51 5.42 2.21 11.09 10.98 26.45 12.8 19.85 2.35-3.76-5.96-0.06-5.89 5.43 0.11 2.65 2.9 3.18 4.67 1.4 4.67-1.57 0-2.21 1.05-1.4 2.34 0.8 1.28 2.52 2.33 3.82 2.33s1.7-1.05 0.9-2.33c-0.8-1.29-0.12-2.34 1.51-2.34 2.32 0 2.35-0.62 0.14-2.8-5.57-5.51-2.71-7.25 3.07-1.87 5.49 5.1 5.91 5.17 5.99 0.99 0.05-2.47 1.71-7.12 3.7-10.34 2.36-3.79 3.04-4.2 1.95-1.16-3.76 10.47-4.09 18.14-0.73 17.04 1.79-0.59 3.39-2.31 3.56-3.8 0.16-1.5 0.42-3.61 0.59-4.68 0.16-1.07 2.03-1.94 4.15-1.94 3.25 0 3.33 0.39 0.5 2.53-1.84 1.39-2.97 4.37-2.5 6.62 0.47 2.24-0.29 4.08-1.69 4.08-1.39 0-2.65 1.84-2.8 4.09-0.26 3.79-0.36 3.79-1.34 0.09-0.83-3.12-2.71-3.69-8.58-2.58-4.14 0.78-7.99 1.82-8.57 2.31-2.33 2 8.63 10.09 15.5 11.46 6.09 1.2 8.44 0.3 13.59-5.2l6.23-6.64-2.8 7.35c-1.71 4.46-4.02 6.88-5.9 6.17-1.7-0.65-3.77 0.56-4.59 2.67-1.98 5.12 1.11 7.95 3.91 3.58 1.48-2.33 2.21-2.49 2.23-0.52 0.07 5.71 4.71 2.8 9.32-5.84 6.37-11.93 6.13-7.92-0.3 5.18-3.34 6.81-5.81 9.55-6.96 7.72-0.97-1.56-2.51-2.1-3.41-1.2-0.91 0.89-0.25 3.29 1.45 5.32 2.58 3.07 2.54 3.57-0.25 2.98-1.85-0.4-3.94-2.82-4.64-5.39-0.71-2.57-2.81-4.68-4.66-4.68-9.01 0-12.42 26.34-5.58 43.25 3.23 7.98 4.61 9.21 8.84 7.89 4.43-1.4 4.64-1.14 1.79 2.26-1.78 2.12-2.44 3.85-1.47 3.85s0.52 1.47-0.99 3.28c-1.64 1.95-2.1 5.97-1.14 9.93 2.33 9.64 3.34 10.7 7.18 7.55 1.89-1.56 2.49-3.45 1.32-4.2-1.24-0.81-1.28-8.16-0.08-17.73 2.95-23.78 3.62-27.34 6.44-34.53 2.37-6.02 2.22-6.31-2.04-4.06-2.53 1.34-5.95 2.16-7.61 1.82-1.87-0.38-3.57 2.93-4.48 8.73l-1.47 9.35-0.33-10.96c-0.19-6.03-1.4-11.61-2.7-12.41-1.3-0.79-2.36-2.54-2.36-3.87 0-1.34 3.45-0.46 7.67 1.94 9.29 5.29 15.59 3.26 21.5-6.94 2.22-3.82 4.58-6.41 5.24-5.76 0.66 0.66-1.03 4.94-3.76 9.52s-5.29 10.75-5.68 13.73c-0.4 2.97-1.93 8.36-3.4 11.98-4.27 10.48-2.92 12.87 2.24 3.93l4.72-8.17-1.59 11.68c-0.87 6.42-1.91 14.31-2.31 17.52s-1.39 9.36-2.2 13.67c-0.88 4.65-0.58 7.27 0.74 6.46 1.22-0.74 2.21 1.28 2.21 4.49s-0.94 6.42-2.1 7.13-1.46 2.31-0.68 3.57c0.92 1.48 2.49 1.43 4.39-0.14 2.09-1.71 2.46-5.71 1.25-13.55-1.86-12.1-0.24-37.98 2.37-37.98 0.9 0 1.34 8.67 0.98 19.27-0.56 16.91 2.84 43.81 5.54 43.81 0.53 0 2.99-1.08 5.48-2.39 3.75-1.99 4.25-1.73 2.98 1.55-0.91 2.34-0.57 3.36 0.82 2.51 1.3-0.8 2.27 0.86 2.17 3.7-0.09 2.83 0.97 4.94 2.37 4.69 2.74-0.48 2.94 7.49 0.26 10.14-0.89 0.88-1.58 2.75-1.53 4.14 0.06 1.39 2.98-0.71 6.5-4.68 7.66-8.62 15.19-12.17 12.96-6.11-1.35 3.66-1.09 3.65 3.26-0.12 2.59-2.24 5.67-4.08 6.83-4.08s-0.25 1.63-3.14 3.63-5.25 4.76-5.25 6.13c0 1.47 1.6 1.18 3.92-0.72 3.58-2.92 3.64-2.76 0.68 1.95-3.84 6.11-1.51 9.61 3.61 5.41 4.12-3.38 4.95 0.01 0.97 3.95-1.44 1.43-1.87 3.81-0.95 5.28 1.16 1.86 2.65 1.38 4.87-1.55 2.97-3.92 3.1-3.85 1.86 1.03-0.82 3.22-0.27 5.26 1.44 5.26 1.52 0 2.16-0.98 1.41-2.18-0.74-1.19-0.11-2.93 1.41-3.86 1.73-1.06 2.13-0.68 1.08 1.01-2.99 4.78 1.68 2.87 9.09-3.73 6.24-5.55 6.11-5.23-0.92 2.34-9.35 10.06-6.43 11.73 4.54 2.6 4.28-3.57 6.86-7.55 6.11-9.47-0.71-1.83-0.24-2.67 1.05-1.88 1.29 0.78 2.34 0.44 2.34-0.78 0-3.04 9.04-5.12 9.99-2.29 0.43 1.27 5.99-0.44 12.37-3.8 6.37-3.35 12.71-5.73 14.07-5.27 1.37 0.45 3.9-0.58 5.63-2.29s4.62-3.11 6.43-3.11c3.95 0 8.96 8.46 7.34 12.4-0.67 1.62-1.22 1.2-1.33-1.02-0.33-6.78-5.83-9.32-11.57-5.34-6.18 4.28-6.78 12.67-1.02 14.16 2.28 0.59 6.55 4.71 9.49 9.15 5.2 7.85 5.74 8.06 18.71 7.31 12.11-0.7 13.44-1.3 14.13-6.45 0.68-5-0.81-22.33-8.53-99.13-1.03-10.28-1.62-19-1.31-19.37 0.3-0.37 3.33 0.58 6.72 2.11 4.23 1.91 6.64 5.25 7.66 10.6 0.81 4.3 2.55 7.82 3.85 7.82 1.31 0 1.74-2.35 0.95-5.25-0.78-2.89-1.43-7.6-1.45-10.46-0.02-2.93-3.61-8.42-8.24-12.59-4.51-4.06-7.8-8.03-7.31-8.82 0.49-0.78-9.37-6.08-21.91-11.77-33.84-15.36-85.5-40.78-96.12-47.31-5.13-3.16-20.2-11.23-33.5-17.94l-24.18-12.2-6.72 4.91c-5.11 3.74-9.04 4.65-16.43 3.81-5.34-0.61-10.94-1.85-12.44-2.77-1.99-1.22-2.07-0.47-0.3 2.8 3.07 5.69 11.14 9.73 21.67 10.86 7.29 0.78 7.64 1.1 2.95 2.68-2.92 0.99-5.31 3.2-5.31 4.91 0 1.72-1.81 4.12-4.03 5.34-3.39 1.88-3.53 2.82-0.89 5.96 3.08 3.67 0.31 5.41-3.15 1.98-0.97-0.96-5.66-2.83-10.43-4.15-8.36-2.32-8.71-2.85-10.05-15.19-0.76-7.03-1.56-11.21-1.78-9.28-1.79 15.74-9.82 28.16-9.82 15.19 0-3.22-1.06-5.84-2.36-5.84s-2.36 0.97-2.36 2.16c0 3.26-6.98 9.52-10.6 9.52-6.16 0-12.65-14.95-15.42-35.5-1.5-11.15-2.29-22.19-1.77-24.52 0.53-2.33 1.81 3.65 2.86 13.29 2.53 23.25 6.13 31.63 4.52 10.51-0.69-8.99-0.16-18.98 1.16-22.19 2.26-5.45 2.44-5.22 2.73 3.5 0.25 7.43 0.74 8.39 2.35 4.67 4.42-10.18 2.79-14.31-6.77-17.15-12.6-3.73-14.34-3.47-16.69 2.55-1.89 4.86-2.18 4.93-3.81 0.93-2-4.92 2.05-8.43 9.8-8.49 8.57-0.06 53.18 13.96 74.91 23.55 11.46 5.06 21.81 8.59 23.01 7.86s3.46 1.46 5.03 4.86c1.95 4.22 8.54 8.99 20.68 14.95 9.8 4.82 27.43 14.06 39.17 20.54 21.74 11.99 29.3 15.62 81.37 39.13 50.27 22.7 79.38 30.42 88.42 23.45 4.53-3.5 4.53-3.57 0-7.18-8.36-6.66-33.8-17.34-38.12-16.01-4.03 1.25-4.02 1.17 0.04-1.4 5.59-3.53 27.24 4.81 37.9 14.6 12.84 11.79 18.21 13.57 33.49 11.11 15.11-2.43 33.98-8.11 44.57-13.41 5.93-2.97 6.35-3.76 2.98-5.63-2.51-1.39-5.69-1.22-8.87 0.46-5.61 2.97-8.62 1.74-4.02-1.64 8.1-5.95 15.43-7.46 20.19-4.16 4.31 2.98 5.83 2.44 16.52-5.99 11.59-9.13 11.76-9.45 10.78-20.4-1.14-12.87-16.74-44.95-21.86-44.98-1.85-0.01-5.09 1.29-7.2 2.9-2.11 1.6-1.41 0.61 1.57-2.21 6.12-5.81 3.66-8.96-5.26-6.74-6.03 1.49-37.5 29.2-35.47 31.22 0.65 0.64 5.97-2.71 11.82-7.45 9.29-7.53 11.7-8.43 18.98-7.08 4.59 0.85 8.95 2.53 9.7 3.72 0.75 1.2-3.25 7.13-8.87 13.17-9.55 10.26-11.41 11.2-27.9 13.99-22.24 3.76-27.71 2.73-16-3.02 6.08-2.98 8.85-5.9 8.85-9.31 0-2.74 3.28-8.06 7.29-11.84 7.97-7.5 15.13-18.32 9.04-13.64-1.84 1.4-9.01 6.92-15.95 12.26-6.93 5.34-14.01 9.71-15.72 9.71-1.94 0-3.72 4.44-4.76 11.9-2.06 14.79 0.73 18.52 9.56 12.79 3.43-2.22 6.7-3.57 7.28-3s-1.69 2.81-5.04 4.98c-7.53 4.89-17.12 3.64-26.89-3.51-6.71-4.91-10.26-8.89-5.13-5.75 1.2 0.74 2.58-0.52 3.07-2.78 0.69-3.18 1.82-2.39 4.96 3.48 2.24 4.17 4.34 7.59 4.65 7.59 0.32 0 0.56-6.57 0.53-14.6-0.03-11.38-1.27-16.41-5.57-22.78l-5.53-8.18 6.24 6.69c3.43 3.69 6.98 5.96 7.89 5.07 0.91-0.9 1.65-14.48 1.65-30.18 0-28.49-0.02-28.58-9.26-47.12-14.66-29.41-42.52-52.77-78.22-65.59-16.25-5.84-52.52-10.4-45.94-5.78 2.65 1.87-0.47 2.5-12.4 2.53-14.87 0.03-16.54 0.58-25.1 8.23-15.29 13.67-52.24 71.29-52.24 81.46 0 4.8 4.42 4.97 6.25 0.24 0.91-2.35 2.3-2.82 4.06-1.38 1.47 1.2 6.4 3.31 10.94 4.7 7.67 2.33 7.75 2.45 1.18 1.71-3.89-0.45-9.11-1.66-11.6-2.7-3.2-1.35-4.02-1.1-2.81 0.83 1.05 1.7 0.08 2.78-2.57 2.84-6.55 0.15 15.68 18.5 22.89 18.9l5.9 0.33-5.58 1.04c-5.23 0.98-4.78 1.78 7.08 12.69 26.88 24.69 49.27 36.01 87.06 44 11.04 2.33 17.26 4.35 13.83 4.48-11.35 0.42-43.11-7.21-58.37-14.03-20.3-9.06-43.2-26.26-64.89-48.72-16.48-17.07-18.22-18.26-20.49-14.05-4.03 7.44-6.82 5.28-4.18-3.24 2.36-7.58 1.75-8.74-18.52-35.48-20.68-27.3-21.15-27.72-36.3-32.96-29.39-10.15-46.37-6.45-69.48 15.18l-11.63 10.87 7.85-10.13c12.76-16.45 23.89-22.38 43.91-23.38 13.36-0.67 20.16 0.26 30.91 4.24 16.94 6.26 18.27 7.44 38.96 34.43 9.16 11.96 17.47 22.24 18.45 22.84 0.99 0.6 9.81-11.78 19.61-27.53 10.22-16.42 24.4-35.36 33.26-44.44 13.83-14.16 16.38-15.8 24.42-15.72 4.93 0.06 16.01-0.54 24.61-1.32 43.5-3.93 100.67 31.83 123.69 77.37l9.44 18.69-0.05 30.76c-0.04 20.39 0.76 30.28 2.36 29.31 1.33-0.8 7.2-5.07 13.04-9.49 5.85-4.41 18.29-11.53 27.65-15.82l17.01-7.79 14.98 6.65c18.46 8.19 33.73 24.28 37.65 39.67 2.17 8.52 3.04 9.68 4.49 6.02 1.44-3.66 1.83-3.14 1.96 2.67 0.09 3.97-3.01 13.51-6.89 21.2-8.01 15.86-15.98 22.33-47.89 38.9-21.36 11.1-29.99 13.65-48.14 14.22-9.86 0.31-10.89 0.96-15.18 9.63-2.54 5.11-4.05 7.36-3.38 4.99 4.23-14.79 4.17-15.48-1.49-17.6-3.06-1.14-6.23-1.69-7.03-1.23-0.81 0.47-1.65 11.12-1.87 23.68-0.46 25.7-2.55 35.55-10.98 51.49-4.58 8.67-5.51 9.54-4.29 4.04 0.86-3.85 3.03-9.9 4.83-13.43 1.8-3.54 2.64-6.43 1.86-6.43-3.85 0-7.92 7.47-10.65 19.54-1.67 7.36-4.09 14.04-5.39 14.83-1.48 0.9-1.69-0.24-0.58-3.03 0.98-2.46 2.2-8.15 2.72-12.65l0.94-8.17-2.52 8.58c-1.38 4.72-4.02 9.16-5.87 9.86-2.69 1.02-3.14-0.7-2.22-8.58l1.15-9.86-2.55 8.76c-1.4 4.82-3.5 8.76-4.67 8.76-4.76 0-1.64 4.04 5.84 7.57 8.82 4.16 13.28 2.12 13.28-6.09 0-2.53 0.71-3.89 1.58-3.03s3.48-0.14 5.79-2.21c3.93-3.52 4.32-3.37 5.73 2.2 0.83 3.28 0.82 7.08-0.03 8.44-0.85 1.35-0.41 2.46 0.96 2.46 1.38 0 2.5 1.62 2.5 3.59 0 5.17-11.46 26.79-14.21 26.79-2.95 0-2.92-1.53 0.14-7.2 1.58-2.91 1.66-5.96 0.24-8.48-1.38-2.44-1.39-6.11-0.03-9.64 1.2-3.14 1.58-6.3 0.85-7.03-0.74-0.73-1.96 0.99-2.71 3.83-0.92 3.5-3.17 5.15-6.99 5.15-6.53 0-6.37-0.46-3.07 8.91 2.02 5.71 1.83 8.3-0.86 12.11-3.29 4.65-3.49 4.48-4.87-4.06-0.79-4.9-3.04-10.98-5-13.51-3.3-4.26-3.37-4.03-1.01 2.97 1.41 4.17 2.19 12.67 1.74 18.89-0.67 9.19 0.17 12.34 4.49 16.9 7.21 7.58 6.76 8.79-3.54 9.64l-8.86 0.72 11.06 7.6c12.47 8.57 19.19 10.17 12.64 3.01-2.3-2.52-5.25-4.36-6.56-4.09s-2.91-0.97-3.57-2.75c-0.73-1.99-0.16-2.62 1.48-1.62 1.47 0.9 2.67 0.46 2.67-0.98s1.16-1.9 2.59-1.02c3.24 1.97-1.99-8.06-6.53-12.55-4.01-3.97-1.91-7.74 3.22-5.79 2.17 0.83 3.25 0.49 2.46-0.76-0.76-1.23 1.38-2.2 4.76-2.15 5.1 0.06 7.33-2.14 12.96-12.78 8.35-15.76 12.14-17.85 9.94-5.5-1.53 8.67-1.44 8.83 2.39 4.34 5.61-6.59 1.77 0.73-5.43 10.34-4.66 6.23-5.08 7.67-1.89 6.46 2.45-0.93 3.53-0.63 2.67 0.75-0.8 1.27-2.86 2.31-4.6 2.31-3.98 0-6.88 6.95-2.99 7.15 1.58 0.09 0.4 1.14-2.63 2.34s-5.09 3.43-4.58 4.96c1.86 5.52 6.12 4.31 9.22-2.62 1.74-3.9 4.66-7.65 6.49-8.35 2.71-1.03 2.77-0.61 0.33 2.3-2.15 2.57-2.22 3.56-0.24 3.56 1.5 0 0.57 2.3-2.08 5.12-2.64 2.81-4.78 6.22-4.73 7.59 0.04 1.36 2.07 0.11 4.51-2.78s5.63-5.26 7.09-5.26c1.88 0 1.79 1.54-0.29 5.26-1.62 2.89-2.77 5.91-2.55 6.7s-2.21 3.87-5.4 6.83c-3.19 2.97-5.8 6.38-5.8 7.58s2.21-0.29 4.92-3.33c3.21-3.6 4.5-4.17 3.7-1.65-0.91 2.9 0.08 3.71 3.94 3.22 9.13-1.16 12.16-2.34 15.1-5.91 1.86-2.26 2.91-2.51 2.96-0.72 0.04 1.54-2.55 5.74-5.75 9.35-3.21 3.6-5.86 5.24-5.91 3.63-0.04-1.6 0.99-2.92 2.29-2.92s2.36-1.17 2.36-2.6c0-1.68-1.89-1.39-5.31 0.8-6.56 4.22-37.19 7.68-37.19 4.2 0-1.32 2.03-2.4 4.53-2.4 6.4 0 12-2.42 12-5.19 0-1.3-2.21-1.79-4.9-1.1-2.91 0.76-6.52-0.34-8.89-2.67-8.85-8.76-18.37-14.06-21.65-12.06-4.5 2.75-7.19 0.69-5.34-4.09 1.36-3.49 1.1-3.55-2.21-0.51-2.06 1.88-3.12 4.48-2.36 5.76 0.76 1.29-0.41 0.9-2.61-0.87-3.39-2.72-4-2.72-4.03 0-0.03 2.52-0.53 2.46-2.33-0.3-1.26-1.92-2.29-5.08-2.29-7.01 0-3.11 0.26-3.11 2.29 0 2.03 3.1 2.3 3.1 2.33-0.06 0.02-1.96-1.42-5.64-3.19-8.18-3.65-5.21-7.76-17.18-5.02-14.62 0.98 0.92 3.79 0.61 6.25-0.69 3.97-2.11 4.07-2.76 0.92-5.87-2.72-2.7-4.64-2.93-8.32-0.98-3.22 1.71-4.77 1.74-4.77 0.11 0-1.33-1.13-2.42-2.51-2.42-1.37 0-1.84 1.06-1.04 2.34 0.81 1.29-0.19 2.34-2.22 2.34-2.02 0-3.68-1.05-3.68-2.34 0-1.28-1.54-2.34-3.43-2.34s-6.85-4.2-11.02-9.34c-4.18-5.14-9.54-9.35-11.92-9.35-3.02 0-4.33-1.73-4.33-5.7 0-7.08-4.56-10.21-8.03-5.52-2.61 3.53-4.02 4.21-8.64 4.21-1.38 0-1.74 1.32-0.8 2.92 0.93 1.61 0.86 2.18-0.16 1.27s-5.8 4.38-10.63 11.76c-8.88 13.61-10.43 14.45-26.64 14.57-3.58 0.02-6.5 1.19-6.5 2.59 0 3.68-16.16 0.66-21.35-3.99-3.34-2.99-5.26-3.24-9.15-1.18-2.71 1.43-4.94 1.78-4.96 0.77s-2.36 1.75-5.19 6.12c-2.83 4.38-5.56 6.74-6.07 5.25-1.04-3.1-5.23-1.29-5.23 2.26 0 1.28 1.06 1.68 2.36 0.89 1.3-0.8 2.4-0.07 2.44 1.61s2.64 0.17 5.79-3.36c3.27-3.69 8.03-6.36 11.14-6.27 4.07 0.13 4.49 0.57 1.69 1.76-7.3 3.1-24.38 19.11-20.39 19.11 2.14 0 7.52-3.16 11.96-7.01 7.92-6.88 13.35-8.93 13.35-5.05 0 3.17 11.38 7.39 19.94 7.39 4.35 0 13.79-3.06 20.97-6.8 7.18-3.73 13.49-6.36 14.02-5.83 0.54 0.53 2.24-1.79 3.79-5.16l2.82-6.12-7.27 6.06c-7.33 6.1-27.38 13.29-36.4 13.04-2.69-0.08 2.52-2.05 11.58-4.38 14.48-3.73 17.83-5.71 27.75-16.38 11.18-12.03 13.18-13.2 9.24-5.36-1.13 2.23-4.81 10.06-8.19 17.39-8.55 18.54-13.34 21.19-33.29 18.4-8.73-1.23-18.42-3.87-21.52-5.88-6.19-4.01-8.48-4.59-7.58-1.91 0.33 0.97-0.12 1.76-0.99 1.76-2.7 0-13.77 11.19-13.69 13.84 0.04 1.38 2.32-0.46 5.06-4.1 3.55-4.71 5.5-5.78 6.79-3.71 1.06 1.69 0.13 4.46-2.21 6.61-2.22 2.04-2.68 2.82-1.04 1.73 1.85-1.22 4.35-0.65 6.5 1.47 4.09 4.05 2.51 6.64-2.83 4.62-2.8-1.07-3.33-0.4-2.13 2.69 0.88 2.25 1.59 4.75 1.59 5.55s4.45-2.71 9.89-7.78c8.94-8.36 9.28-8.5 3.54-1.47-5.85 7.17-8.71 19.12-4.57 19.08 0.97-0.01 4.31-3.71 7.42-8.23s6.18-7.69 6.83-7.05c0.64 0.63-1.64 4.79-5.07 9.24-5.76 7.47-8.42 17.74-4.59 17.74 0.9 0 4.62-2.83 8.27-6.28 3.64-3.45 6.62-5.12 6.62-3.71s-4.71 7-10.46 12.42-10.31 11.74-10.14 14.04c0.3 3.88 0.84 3.92 7.51 0.6 3.95-1.97 10.33-6.36 14.16-9.74 6.39-5.64 6.3-5.37-1.03 3.18-4.41 5.14-8.79 9.35-9.73 9.35-0.95 0-4.73 2.2-8.41 4.89-3.68 2.7-7.76 5.17-9.06 5.49-1.3 0.33-4.19 1.57-6.44 2.75-3.17 1.68-3.77 1.37-2.7-1.39 0.86-2.21 0.05-3.56-2.12-3.56-1.93 0-4.65-1.36-6.04-3.02-1.88-2.25-1.27-3.8 2.42-6.07 3.43-2.12 4.09-3.59 2.16-4.77-3.01-1.84-1.12-9.51 2.35-9.51 1.16 0 2.11-1.05 2.11-2.33 0-1.29-2.39-2.36-5.32-2.38-4.17-0.02-4.57-0.5-1.86-2.19 2.84-1.78 2.32-3.05-2.96-7.16-3.53-2.74-7.57-7.11-8.97-9.7-2.25-4.16-1.97-4.53 2.38-3.17 2.7 0.85 4.92 0.93 4.92 0.18 0-1.62-11.86-20.6-13.93-22.31-0.78-0.64-7.1-7.41-14.04-15.04-23.19-25.46-33.81-31.21-44.02-23.82-4.25 3.07-4.17 3.43 1.8 9.34 3.42 3.39 5.28 6.15 4.13 6.15-1.14 0-4.27-2.75-6.94-6.11-5.11-6.43-6.36-5.46-7.76 6.04-0.7 5.72-3.37 7.65-21.35 15.45-4.86 2.1-8.34 4.62-7.74 5.58 0.6 0.97 7.77 2.36 15.92 3.1 22.78 2.07 31.22 5.47 45.48 18.37 14.67 13.26 24.79 29.11 36.32 56.87 7.75 18.67 22.43 43.29 25.73 43.15 0.96-0.04 3.69-2.71 6.06-5.93l4.31-5.85-6.67 1.55c-5.29 1.24-6.1 0.96-3.9-1.37 1.53-1.61 5.49-2.93 8.8-2.93 4.56 0 8.44-3.19 15.99-13.14 12.7-16.73 15.07-19.24 11.35-11.97-3.89 7.6-15.72 22.82-24.05 30.97-10.74 10.5-7.51 12.39 4.51 2.64 6.11-4.95 10.19-7.55 9.08-5.76-1.35 2.16-1.15 2.71 0.6 1.64 1.44-0.88 2.12-2.91 1.5-4.51-1.14-2.91 11.46-11.85 13.65-9.68 0.64 0.64 2.65-0.7 4.46-2.98 3.06-3.86 2.96-3.9-1.43-0.64-2.6 1.93-0.85-0.85 3.89-6.17 4.73-5.32 9.32-11.89 10.19-14.6s2.67-4.93 4-4.93-1.38 6.85-6.04 15.22l-8.45 15.23 6.47-1.51c3.56-0.83 9.66-4.25 13.55-7.61 3.9-3.36 5.76-4.59 4.13-2.74-4.27 4.88-3.63 6.85 1.78 5.45 3.09-0.8 4.83-3.35 5.04-7.38 0.29-5.5 0.43-5.59 1.34-0.89 0.57 2.89 2.68 5.26 4.7 5.26 3 0 3.47-2.33 2.59-12.85-0.59-7.07-0.19-12.86 0.89-12.86 1.86 0 3.13 10.33 2.37 19.28-0.23 2.64 1.32 4.09 4.35 4.09 5.03 0 6.67-4.56 1.74-4.84-1.62-0.09 1.56-2.15 7.08-4.58 6.21-2.72 10.11-6.01 10.23-8.59 0.12-2.68 0.63-3.09 1.42-1.12 0.97 2.38 2.24 2.17 5.72-0.95 2.46-2.2 4.48-2.96 4.48-1.67 0 1.28-2.02 4.14-4.49 6.35-9.52 8.53-5.24 10.62 24.11 11.82 27.04 1.09 31.21 0.1 24.06-5.77-3.9-3.21-4.7-7.01-1.46-7.01 1.14 0 3.41 3.2 5.04 7.1 1.64 3.91 5.06 8.2 7.6 9.55 4.11 2.17 4.45 1.84 3.1-3.01-1.41-5.05-1.09-4.95 4.27 1.3 4.13 4.82 7.2 6.39 10.74 5.48 2.73-0.71 4.96-0.33 4.96 0.83 0 1.17 1.13 2.12 2.52 2.12 1.47 0 1.91-2.19 1.06-5.26-1.44-5.16-1.4-5.17 2.12-0.58 7.38 9.63 8.86 10.51 17.41 10.41l8.77-0.11-8.86-4.62c-4.87-2.54-8.85-5.14-8.85-5.77s3.98 0.58 8.85 2.68c13.96 6.03 18.49 6.34 25.62 1.72 4.48-2.9 5.99-3.22 4.6-1-1.6 2.57-1.05 2.96 2.45 1.74 2.53-0.89 0.99 1.35-3.51 5.08-4.42 3.67-7.07 7.23-5.9 7.91 3.39 1.97 43.95 13.4 55.43 15.63 8.42 1.63 9.07 2.07 3.37 2.24-3.89 0.12-19.3-3.29-34.24-7.57-18.37-5.27-27.69-6.97-28.8-5.27-0.91 1.38-0.55 3.17 0.79 3.99 2.89 1.77-5.96 4.4-14.97 4.45l-6.37 0.03c2.33 20.82 1.44 33.59-4.35 37.83-3.33 2.71-3.44 2.48-1-2.05 3.82-7.1 3.46-11.18-1.96-22.28-5.43-11.12-4.61-14.81 1.09-4.95l3.84 6.64-1.5-9.35c-0.83-5.14-2.74-10.82-4.25-12.63-1.5-1.8-2.32-3.38-1.8-3.5 2.54-0.61-2.89-10.74-5.76-10.74-2.47 0-2.95 1.94-1.87 7.59 0.8 4.18 2.17 8.65 3.05 9.93 2.19 3.21 3.21 48.58 1.28 57.24-0.85 3.86-2.51 7.02-3.67 7.02-1.2 0-1.12-2.61 0.19-6zm-119.53-59.32c9.48-17.85 10.92-26 4.3-24.29-4.59 1.19-15.24 20.01-19.63 34.7-1.54 5.14-4.29 12.5-6.12 16.35-6.67 14.05 12.42-9.76 21.45-26.76zm118.51 13.09c-0.84-4.43-3.02-9.27-4.84-10.77-2.67-2.2-2.58-0.46 0.5 9.07 4.25 13.13 6.69 14.09 4.34 1.7zm-187.96-9.69c3.05-3.21 5.02-5.84 4.37-5.84s-3.68 2.63-6.73 5.84-5.01 5.84-4.37 5.84c0.65 0 3.68-2.63 6.73-5.84zm221.41-7.64c0.6-1.79-1.61-1.77-7.62 0.05-5.21 1.58-7.38 3.23-5.66 4.28 3.36 2.06 12.08-0.79 13.28-4.33zm-172.85-8.13c1.93-3.53 2.62-6.43 1.53-6.43s-3.78 3.72-5.96 8.26c-7.11 14.74-3.92 13.42 4.43-1.83zm133.16-5.4c-1.56-1.85-3.78-3.36-4.94-3.36-2.6 0 0 11.6 3.61 16.16 2.12 2.68 2.77 2.1 3.39-3.06 0.42-3.51-0.51-7.89-2.06-9.74zm31.99 10.84c4.45-1.72 4.38-1.93-1.18-3.53-15.41-4.44-14.77-4.48-11.92 0.79 2.79 5.17 5.41 5.71 13.1 2.74zm19.04-10.83c4.32-3.42 4.24-3.47-1.32-0.85-7.23 3.41-8.57 4.49-5.57 4.49 1.26 0 4.36-1.64 6.89-3.64zm-138.29-16.47c0-2.47-1.28-3.27-3.74-2.34-2.05 0.78-4.71 1.42-5.9 1.42s-2.17 1.05-2.17 2.34c0 1.28 2.66 2.33 5.91 2.33 3.84 0 5.9-1.3 5.9-3.75zm-108.91-14.82c3.5-5.2 3.45-5.35-0.97-2.96-2.56 1.37-6.75 3.16-9.31 3.96-3.89 1.23-4.08 1.83-1.18 3.64 4.63 2.89 7.07 1.9 11.46-4.64zm-1.78-13.55c2.94-3.71 2.86-3.79-0.89-0.89-2.27 1.77-4.13 3.61-4.13 4.09 0 1.93 1.94 0.69 5.02-3.2zm-5.02-24.93c0-0.54 0.73-2.9 1.62-5.26 1.43-3.76 1.15-3.89-2.36-1.07-4.43 3.56-5.26 7.31-1.62 7.31 1.3 0 2.36-0.44 2.36-0.98zm-6.19-7.32c0.81-2.08 0.42-3.02-0.92-2.2-1.29 0.79-2.34 2.42-2.34 3.63 0 3.36 1.69 2.62 3.26-1.43zm208.33-4.58c-0.79-5.36-5.26-9.1-7.19-6.02-0.89 1.42 0.04 2.54 2.09 2.54 2.03 0 3.56 0.79 3.4 1.76-0.43 2.7 0.18 5.25 1.26 5.25 0.53 0 0.73-1.58 0.44-3.53zm-217.49-10.49c-0.8-1.28-1.93-2.33-2.5-2.33-0.58 0-1.04 1.05-1.04 2.33 0 1.29 1.12 2.34 2.5 2.34 1.37 0 1.84-1.05 1.04-2.34zm-1.18-7c2.86-1.84 2.52-2.28-1.77-2.31-2.93-0.01-5.32 1.02-5.32 2.31 0 2.92 2.51 2.92 7.09 0zm184.19-2.34c0-1.29-1.59-2.34-3.54-2.34s-3.54 1.05-3.54 2.34c0 1.28 1.59 2.34 3.54 2.34s3.54-1.06 3.54-2.34zm34.63-1.02c-0.72-1.84-0.03-3.86 1.52-4.49 1.55-0.62-0.11-1.21-3.68-1.32-7.51-0.21-7.85 0.48-2.78 5.49 4.63 4.58 6.64 4.71 4.94 0.32zm-43.58-8.78c-3.88-3.83-8.77 1.01-6.62 6.55 1.47 3.81 1.84 3.82 5.52 0.18 3.08-3.05 3.32-4.52 1.1-6.73zm-175.24 2.79c1.89-3.49 1.79-4.67-0.37-4.67-1.59 0-0.83-1.53 1.69-3.39 4.38-3.24 4.33-3.33-1.1-1.97-3.97 0.99-5.17 0.6-3.99-1.28 0.92-1.49 0.62-2.71-0.68-2.71s-3.01 1.05-3.82 2.34c-0.8 1.28-0.51 2.33 0.65 2.33s2.11 1.58 2.11 3.51c0 4.24-3.13 4.64-4.6 0.58-0.58-1.6-1.91-2.12-2.96-1.16-1.84 1.7 5.41 10.67 8.85 10.95 0.93 0.08 2.83-1.96 4.22-4.53zm-21.97-10.87c-10.55-18.43-20.86-28.85-28.57-28.85-3.46 0-6.9 1.58-7.65 3.51-0.74 1.92-2.77 3.5-4.5 3.5-1.74 0-3.8 1.04-4.59 2.3-0.89 1.42 1.2 1.78 5.44 0.94 9.23-1.83 17.76 2.97 33.42 18.78 7.1 7.16 13.15 13.03 13.46 13.03 0.3 0-2.85-5.94-7.01-13.21zm207.56 0.94c-0.98-7.04-0.74-8.57 0.81-5.26 1.2 2.57 2.29 7.3 2.42 10.52 0.22 5.35 0.45 5.47 2.8 1.47 5.44-9.25-2.28-35.21-11.35-38.2-2.71-0.9-10.83 24.55-8.85 27.73 0.68 1.09 2.6 1.99 4.27 1.99 1.66 0 4.23 2.63 5.71 5.84 4.03 8.74 5.74 7.07 4.19-4.09zm-171.42-4.66c0-1.3-1.57-1.05-3.55 0.57-1.94 1.6-3.54 3.96-3.54 5.25 0 1.3 1.57 1.05 3.54-0.58 1.95-1.6 3.55-3.96 3.55-5.24zm214.43 1.68c-0.72-0.72-2.04 0.58-2.93 2.88-1.28 3.33-1.01 3.6 1.32 1.31 1.62-1.59 2.34-3.47 1.61-4.19zm-236.34-1.4c3.44-3.4-1.01-13.73-5.92-13.73-2.8 0-2.9 0.66-0.51 3.51 2.41 2.87 2.24 3.5-0.91 3.5-3.26 0-3.4 0.72-0.9 4.67 3.39 5.38 4.58 5.68 8.24 2.05zm63.84-0.7c0.73-0.72 2.68-0.19 4.34 1.17 2.13 1.76 4.46 1.72 7.94-0.12 2.71-1.44 6.23-1.87 7.82-0.96 1.6 0.91 2.13 0.8 1.18-0.24s2.05-6.03 6.68-11.1c10.96-12 8.49-14.18-3.72-3.27-5.23 4.67-11.1 8.5-13.05 8.5-1.94 0-3.53 1.71-3.53 3.79 0 2.7-0.85 3.13-2.95 1.49-1.63-1.26-8.27-2.94-14.76-3.73-10.76-1.31-11.4-1.13-7.23 2.01 2.52 1.9 3.52 3.45 2.22 3.45-3.16 0-13.96-11.7-15.95-17.27-1.6-4.44 4.76-17.06 7.31-14.53 0.73 0.72-0.01 2.92-1.66 4.88-1.64 1.96-1.92 3.56-0.62 3.56 5.13 0 7.69-6.08 4.42-10.51-2.93-3.96-3.99-3.24-14.13 9.54-6.03 7.6-10.96 15.24-10.96 16.97-0.01 2.33-2.12 1.92-8.15-1.61l-8.15-4.75 2.59 5.62c1.42 3.09 3.4 5.12 4.4 4.51s2.27 0.21 2.81 1.82c0.77 2.27 1.95 2.16 5.17-0.46 5.57-4.56 10.77-5.11 10.77-1.14 0 1.96 1.44 2.68 3.68 1.83 2.03-0.78 3.08-2.92 2.35-4.82-0.73-1.89 1.8-0.81 5.68 2.42 5.28 4.39 9.12 5.63 15.6 5.04 4.72-0.44 9.18-1.38 9.9-2.09zm-8.96-10.11c-3.2-2.22-6.5-3.83-7.35-3.56-0.84 0.26-0.98-1.58-0.31-4.11 1.37-5.19-1.15-5.81-6.48-1.6-7.76 6.13-3.23 12.03 9.8 12.76l10.15 0.57-5.81-4.06zm-42.42-1.89c0-2-1.08-2.98-2.4-2.17s-1.79 2.44-1.04 3.64c2.02 3.24 3.44 2.64 3.44-1.47zm-4.72-7.01c0-2-1.06-2.99-2.36-2.19-1.3 0.79-2.37 2.43-2.37 3.64s1.07 2.2 2.37 2.2 2.36-1.64 2.36-3.65zm15.95-4.71c-2.32-2.3-6.51 1.23-6.51 5.49 0 3.57 0.31 3.56 4-0.08 2.19-2.17 3.32-4.61 2.51-5.41zm187.1 1.05c0.05-2.15-14.05-7.58-15.63-6.01-2.01 1.98 1.5 6.58 3.9 5.11 1.15-0.7 3.31 1 4.82 3.78 2.18 4.04 3.15 4.4 4.8 1.82 1.14-1.78 2.09-3.9 2.11-4.7zm-190.33-6.5c2.1-1.71 3.78-4.83 3.74-6.92-0.06-3.04-0.63-2.86-2.8 0.87-1.5 2.57-4.13 6.06-5.83 7.76-1.71 1.7-3.04 4.85-2.96 7.01 0.12 3.08 0.57 2.9 2.1-0.84 1.07-2.61 3.66-6.16 5.75-7.88zm-14.16 3.06c1.16 0.13 3.28-1.83 4.72-4.34 1.44-2.52 3.95-6.01 5.57-7.76 3.66-3.95 3.86-9.86 0.34-9.86-1.44 0-1.98 1.63-1.21 3.62 0.78 2 0.48 3.06-0.66 2.37-1.13-0.7-2.64 0.93-3.35 3.61-0.71 2.69-2.35 4.24-3.65 3.44-2.78-1.69-9.8 7.43-9.69 12.59 0.06 3.12 0.44 3.1 2.95-0.16 1.58-2.06 3.82-3.64 4.98-3.51zm-15.09-4.44c0-1.93-1-3.5-2.22-3.5-2.98 0-5.12 3.64-3.23 5.51 2.66 2.63 5.45 1.6 5.45-2.01zm210.17-16.37c1.49-7.07 2.22-14.7 1.62-16.94-0.68-2.57-1.17-1.77-1.35 2.16-0.43 9.74-2.85 14.7-5.32 10.9-1.3-1.98-2.68-2.27-3.81-0.78-0.97 1.29-3.63 2.65-5.9 3.03-3.52 0.58-4.17-1.33-4.37-12.86-0.13-7.44-1.08-16.16-2.12-19.37-1.07-3.33-1.39 3.73-0.75 16.35 1.39 27.51 1.38 27.49 9.46 28.69 3.65 0.54 7.36 1.14 8.24 1.34 0.88 0.19 2.82-5.44 4.3-12.52zm-191.74-2.87c-3.08-3.67-6.63-1.63-6.63 3.8 0 6.27 2.72 7.67 6.07 3.14 2.08-2.81 2.25-4.92 0.56-6.94zm-4.08 3.08c-0.1-2.46 0.46-3.84 1.24-3.07 0.79 0.78 0.87 2.79 0.19 4.48-0.75 1.87-1.31 1.31-1.43-1.41zm-0.18-9.54c1.69-2.02 1.92-3.51 0.54-3.51-1.32 0-3.01 1.58-3.76 3.51s-0.99 3.5-0.54 3.5 2.14-1.57 3.76-3.5zm192.46-29.93c1.3 0.25 3.05 2.88 3.89 5.84 1.53 5.36 1.54 5.36 1.77-0.47 0.13-3.22 2.24-7.09 4.68-8.6 4.92-3.04 10.87-17.07 7.24-17.07-1.23 0-2.23 1.64-2.23 3.64s-0.95 3.07-2.1 2.36c-1.15-0.7-3.54 0.55-5.31 2.78-2.98 3.77-2.87 3.81 1.5 0.56 4.22-3.13 4.43-3.12 1.92 0.06-3.43 4.37-14.45 5.56-18.76 2.02-1.75-1.43-4.87-1.95-6.96-1.16-6.4 2.43-8.69-1.04-4.1-6.22 3.68-4.15 3.74-4.64 0.42-3.44-2.89 1.03-4.34-0.5-5.71-6.03l-1.83-7.42-0.98 6.75c-0.54 3.76 0.29 7.53 1.87 8.5 1.57 0.96 2.12 2.93 1.22 4.37-2.58 4.12 0.74 11.3 5.83 12.61 3.54 0.92 4.72 3.36 4.93 10.19 0.27 8.78 0.32 8.82 2.01 1.97 1.72-6.91 1.77-6.86 3.85 3.5l2.11 10.52 1.19-12.85c0.65-7.07 2.25-12.65 3.55-12.41zm-206.63 12.27c0-1.36-1.07-1.83-2.36-1.03-1.3 0.79-2.37 1.91-2.37 2.47 0 0.57 1.07 1.03 2.37 1.03 1.29 0 2.36-1.11 2.36-2.47zm218.68-10.91c-2.4-2.38-4.38 1.2-2.41 4.35 1.49 2.38 2.04 2.38 2.84 0.01 0.55-1.62 0.35-3.59-0.43-4.36zm11.81-4.68c-0.79-0.77-1.35 0.61-1.24 3.07 0.11 2.72 0.67 3.28 1.42 1.41 0.69-1.68 0.6-3.7-0.18-4.48zm-225.77-0.77c0-1.36-1.06-1.82-2.36-1.03-1.3 0.8-2.36 1.91-2.36 2.48 0 0.56 1.06 1.03 2.36 1.03s2.36-1.12 2.36-2.48zm224.27-10.37c0-1.29-1.03-0.76-2.29 1.17-1.26 1.92-2.29 4.55-2.29 5.84 0 1.28 1.03 0.76 2.29-1.17s2.29-4.56 2.29-5.84zm-18.78 2.28c2.5-2.98 2.35-3.32-0.92-2.07-2.15 0.81-5.39 0.26-7.21-1.23-2.1-1.73-3.82-1.88-4.74-0.41-0.79 1.27 0.44 3.39 2.74 4.72 5.63 3.24 6.66 3.14 10.13-1.01zm-33.8-15.72c-0.56-2.89-1.02-0.52-1.02 5.26s0.46 8.15 1.02 5.26c0.57-2.89 0.57-7.63 0-10.52zm-172.87 7.6c-0.8-1.29-1.93-2.34-2.5-2.34s-1.04 1.05-1.04 2.34c0 1.28 1.12 2.33 2.5 2.33 1.37 0 1.84-1.05 1.04-2.33zm220.21-17.99c1.62-0.66 2.95-2.74 2.95-4.62 0-2.17 1.5-2.95 4.13-2.14 2.27 0.7 5.73 0.26 7.68-0.97 2.58-1.64 0.87-2.26-6.34-2.28-10.21-0.04-23.65 3.78-21.35 6.06 0.72 0.71 3.46 0.15 6.09-1.24 2.63-1.4 5.35-1.63 6.04-0.52s-3.23 3.85-8.71 6.09c-5.49 2.24-11.83 5.02-14.11 6.18-3.48 1.79-4.13 1.04-4.13-4.77 0-3.79-1.21-7.63-2.68-8.53-1.9-1.16-2.23 0.67-1.14 6.29 0.85 4.36 1.7 9.15 1.89 10.64 0.23 1.76 5.01 0.65 13.54-3.13 7.25-3.22 14.51-6.4 16.14-7.06zm19.48 3.83c0-3.78-1.06-6.87-2.36-6.87s-2.36 3.74-2.36 8.31c0 4.95 0.95 7.73 2.36 6.88 1.3-0.8 2.36-4.54 2.36-8.32zm-40.15-7.01c0-6.73-3.61-5.5-4.19 1.44-0.29 3.45 0.49 5.36 1.85 4.53 1.29-0.79 2.34-3.47 2.34-5.97zm119.86-10.83c31.93-15.77 43.84-25.84 47.8-40.41 3.51-12.87 2.08-27.44-3.51-35.88-2.31-3.49-4.51-6.05-4.87-5.68-0.37 0.36 0.47 5.57 1.85 11.58 3.01 12.99-0.46 28.35-8.42 37.29-2.81 3.16-4.23 4.42-3.14 2.81s1.26-4.07 0.38-5.48c-0.98-1.58-5.57 1.09-12.11 7.05-11.75 10.72-39.87 25.02-53.47 27.2-4.89 0.78-9.47 2.33-10.17 3.45-1.8 2.87 18.63 2.53 26.6-0.45 5.44-2.04 6.1-1.94 3.62 0.54-1.74 1.74-10.48 3.4-20.66 3.91-15.65 0.78-17.63 1.39-17.63 5.46 0 4.19 1.16 4.46 13.57 3.16 9.83-1.04 20.92-5.06 40.16-14.55zm-56.1 10.05c0-3.77-5.03-6.09-13.18-6.09-7.68 0-7.24 3.73 0.79 6.63 9.22 3.33 12.39 3.19 12.39-0.54zm-76.74-13.1c-2.35-2.57-5.34-4.67-6.64-4.67s-0.44 2.1 1.91 4.67 5.34 4.67 6.64 4.67 0.44-2.1-1.91-4.67zm55.96-0.47c-2.2-2.18-3.46-2.18-5.66 0-2.21 2.18-1.58 2.81 2.83 2.81s5.04-0.63 2.83-2.81zm-66.59-4.2c0-1.29-1.13-2.34-2.5-2.34-1.38 0-1.85 1.05-1.04 2.34 0.8 1.28 1.93 2.33 2.5 2.33s1.04-1.05 1.04-2.33zm-207.81-16.36c-1.39-2.57-3.06-4.67-3.71-4.67s-0.04 2.1 1.35 4.67 3.06 4.68 3.71 4.68 0.04-2.11-1.35-4.68zm355.4 0c-0.8-1.28-3.79-2.32-6.63-2.3-4.21 0.03-4.51 0.46-1.63 2.3 4.65 2.98 10.12 2.98 8.26 0zm-343.59-0.93c0-0.52-3.92-3.23-8.71-6.02-6.53-3.82-7.87-4.1-5.39-1.14 1.82 2.17 5.47 4.81 8.11 5.87 6.04 2.42 5.99 2.41 5.99 1.29zm377.36-41.32c-1.08-14.74-8.47-28.13-17.86-32.37-4.78-2.15-5.16-1.96-3.18 1.63 1.24 2.24 6.06 9.32 10.7 15.74 7.08 9.79 8.5 13.76 8.73 24.54 0.15 7.07 0.79 10.83 1.43 8.35s0.72-10.53 0.18-17.89zm-432.21-37.54c0.65-11.37 2.1-20.67 3.22-20.67s2.19 9.72 2.37 21.61l0.33 21.61 2.33-18.24c1.77-13.91 3.09-17.96 5.57-17.02 1.78 0.68 3.24 0.09 3.24-1.31 0-4.71 5.96 2.08 9.37 10.66 3.44 8.69 9.23 12.65 11.99 8.22 1.23-1.97 2.1-1.98 3.31-0.04 0.9 1.44 2.63 2.02 3.83 1.28 1.21-0.74 2.2-0.23 2.2 1.13s1.27 2.47 2.83 2.47c1.55 0-0.45-3.42-4.44-7.59-4-4.18-8.36-9.72-9.7-12.31-2.22-4.3-32.94-16.53-35.4-14.1-2.48 2.45-4.97 19.65-3.79 26.14 0.77 4.19 0.24 8-1.24 8.9-1.41 0.86-2.54 5.45-2.5 10.2 0.14 17.12 5.23 0.67 6.48-20.94zm55.79-1.6c0.67-1.07-2.46-3.68-6.95-5.8-9.1-4.29-11.06-1.53-2.91 4.12 5.94 4.12 8.11 4.49 9.86 1.68zm203.79 430.66c-2.16-4.48-3.44-8.15-2.85-8.15 1.62 0 8.79 14.3 7.7 15.37-0.51 0.51-2.69-2.74-4.85-7.22zm-125.27-42c5.18-6.13 9.5-9.44 10.42-7.98 0.96 1.55 2.15 0.97 3.12-1.53 0.86-2.22 2.25-3.36 3.1-2.53 1.93 1.92-8.8 13.41-11.17 11.96-0.97-0.59-3.5 1.54-5.62 4.74s-4.95 5.82-6.28 5.82 1.56-4.71 6.43-10.48zm89.22 5.81c0.77-3.21 2.88-12.67 4.68-21.03 1.8-8.35 3.36-12.55 3.47-9.34 0.24 6.95-5.53 32.23-7.89 34.56-0.92 0.91-1.03-0.98-0.26-4.19zm-116.69-19.9c-0.02-1.31 2.62-6.25 5.86-10.97 7.42-10.8 7.45-12.72 0.13-7.97-3.2 2.07-6.38 2.78-7.13 1.59-1.63-2.61 2.91-5.63 9.13-6.08 2.52-0.19 6.99-3.12 9.95-6.52s5.95-5.26 6.66-4.13-0.39 3.42-2.43 5.1c-3.76 3.09-17.49 21.91-17.49 23.98 0 0.62 1.58 0.9 3.5 0.62s7.87-6.76 13.23-14.4c10.7-15.25 17.4-22.65 10.46-11.55-13.34 21.34-21.06 31.45-22.39 29.32-1.93-3.08-5.49-2.76-7.71 0.69-0.98 1.51-1.75 1.65-1.77 0.32zm244.02-16.74c0.89-0.88-1.72-2.98-5.78-4.67-8.16-3.4-19.62-4.16-17.76-1.19 1.97 3.15-15.73-0.46-23.93-4.88-4.22-2.28-7.67-5.19-7.67-6.47s2.39-0.83 5.31 1c6.98 4.39 26.61 7.64 24.37 4.04-0.9-1.42-2.7-2.59-4.01-2.59s-6.97-3.12-12.57-6.93c-7.94-5.41-12.61-6.88-21.26-6.71-6.09 0.12-12.27-0.96-13.74-2.41-3.24-3.21-1.52-3.34 6.11-0.47 4.17 1.57 7.15 1.21 10.78-1.3 5.32-3.69 6.66-7.88 2.51-7.88-1.38 0-1.85 1.05-1.04 2.34 2.5 4-0.96 2.56-6.14-2.57l-4.96-4.9 5.32 1.66c4.1 1.29 5.01 0.89 3.98-1.76-1.17-3-0.12-3.01 8.44-0.1 5.38 1.84 12.19 2.88 15.14 2.32 2.97-0.56 5.4 0.15 5.42 1.58 0.03 1.43 2.25-0.03 4.93-3.24 2.68-3.22 4.12-4.41 3.19-2.66-0.94 1.77-0.28 4.04 1.5 5.13 2.48 1.51 2.15 2.29-1.47 3.45-11.02 3.57-15.41 6.57-12.38 8.48 5.76 3.61 10.98 1.9 16.16-5.3 3.88-5.39 4.48-7.7 2.33-9.02-2.11-1.29-1.79-2.19 1.18-3.32 6.4-2.43 6.76 0.02 1.34 9.11-6.57 11.01-6.34 12.52 0.88 5.81 3.25-3.02 5.91-4.45 5.91-3.18 0 2.65-12.35 14.86-15.03 14.86-0.98 0-1.02-1.31-0.08-2.92 0.93-1.61 0.79-2.1-0.32-1.11-4.08 3.68-3.4 10.75 1.18 12.18 4.97 1.57 16.32-3.34 21.2-9.16 1.69-2.02 4.11-3.66 5.39-3.66 1.27 0-1.14 3.89-5.37 8.65l-7.68 8.66 6.62 1.75c3.87 1.03 8.66 0.67 11.57-0.86 4.29-2.26 4.17-1.78-0.95 3.58-3.25 3.39-6.88 6.19-8.07 6.22-1.19 0.02-1.44-0.68-0.55-1.56zm-30.25-21.92c2.01-3.23 1.31-3.8-7.19-5.85l-7.08-1.71 4.5 5.03c5.01 5.59 7.46 6.22 9.77 2.53zm-8.36-16.34c0-1.36-1.06-1.83-2.36-1.03-1.3 0.79-2.37 1.91-2.37 2.47 0 0.57 1.07 1.03 2.37 1.03s2.36-1.11 2.36-2.47zm-68.89 21.16c-0.5-5.14-0.08-9.34 0.93-9.34s1.84 4.2 1.84 9.34-0.42 9.35-0.94 9.35c-0.51 0-1.33-4.21-1.83-9.35zm-122.39-9.07c0-1.28 1.06-2.98 2.36-3.78 1.3-0.79 2.36-0.39 2.36 0.9 0 1.28-1.06 2.98-2.36 3.78-1.3 0.79-2.36 0.39-2.36-0.9zm-33.65-1.82c1.62-0.65 4.28-0.65 5.9 0s0.3 1.18-2.95 1.18-4.58-0.53-2.95-1.18zm164.13-20.62c-1.44-6.41-2.28-12-1.85-12.42 1.56-1.54 6.3 15.97 5.41 19.97-0.51 2.26-2.11-1.14-3.56-7.55zm-14.5-10.72c-0.15-2.02 2.39-6.15 5.63-9.17 3.3-3.06 5.92-8.14 5.94-11.5 0.02-3.31 0.99-7.51 2.15-9.32 1.41-2.2 1.99 0.14 1.74 6.98-0.36 9.72-5.5 18.52-10.83 18.52-1.21 0-2.68 1.84-3.27 4.08-0.86 3.25-1.14 3.33-1.36 0.41zm88.57-4.03c-0.85-1.36-0.44-3.15 0.9-3.97s1.86-2.42 1.15-3.55 1.14-3.33 4.09-4.89c4.57-2.41 4.97-2.34 2.63 0.47-1.51 1.81-2.64 3.82-2.5 4.47 0.66 3.11-4.87 9.7-6.27 7.47zm-156.1-4.23c-2.47-1.78-7.94-3.24-12.16-3.24s-8.43-1.21-9.35-2.68c-1.17-1.88 0.18-2.22 4.57-1.13 9.68 2.41 20.66-3.58 34.2-18.66 9.56-10.65 11.8-12.26 9.92-7.17-1.33 3.62-2.43 8.25-2.43 10.29 0 3.17 0.75 3.06 5.02-0.73 3.59-3.19 2.97-1.46-2.16 6.1-11.96 17.6-20.08 22.67-27.61 17.22zm12.95-6.75c3.05-3.21 5.01-5.84 4.36-5.84s-3.67 2.63-6.72 5.84c-3.06 3.21-5.02 5.84-4.37 5.84s3.68-2.63 6.73-5.84zm24.16-1.17c0-4.49 0.49-6.33 1.08-4.08 0.59 2.24 0.59 5.92 0 8.17s-1.08 0.41-1.08-4.09zm26.86-2.44c-1-6.22-2.44-8.9-4.21-7.81-1.86 1.13-2.22-0.09-1.17-3.98 0.84-3.1 1.54-7.47 1.55-9.71 0.02-2.52 1.85-4.09 4.76-4.09 2.6 0 4.72-1.28 4.72-2.84 0-1.95 1.04-1.76 3.31 0.58 4.46 4.63 7.08 17.76 3.91 19.7-1.37 0.84-2.59 4.35-2.71 7.81-0.2 6.02-0.3 5.97-2.43-1.3-3.18-10.91-7.18-9.59-5.35 1.75 0.83 5.14 0.98 9.34 0.33 9.34s-1.86-4.25-2.71-9.45zm-11.16 2.25c-0.87-10.45 0.28-28.78 1.91-30.4 1.05-1.04 1.8 5.44 1.67 14.4-0.14 8.96-0.93 16.97-1.77 17.8s-1.65 0.02-1.81-1.8zm-53.75-9.05c5.8-3.8 12.88-11.02 15.73-16.05 7.09-12.48 13.43-17.55 7.46-5.97-5.47 10.61-15.35 21.19-23.95 25.63-10.74 5.56-10.35 3.67 0.76-3.61zm37.7-1.27c0.25-4.43 4.19-11.88 4.32-8.18 0.07 1.93-0.9 5.08-2.16 7.01s-2.23 2.46-2.16 1.17zm-1.38-29.21c2.35-2.57 4.81-4.67 5.46-4.67s-0.75 2.1-3.1 4.67-4.8 4.68-5.45 4.68 0.74-2.11 3.09-4.68zm10 2.05c1.6-1.6 3.5-2.31 4.23-1.59s-0.58 2.02-2.91 2.9c-3.37 1.27-3.64 1-1.32-1.31zm-13.02-10.3c3.53-3.68 6.84-6.21 7.36-5.64s-2.37 3.58-6.42 6.68l-7.37 5.64 6.43-6.68zm138.85 0.02c1.65-1.96 3.48-3.08 4.07-2.49 1.64 1.62-1.69 6.05-4.54 6.05-1.57 0-1.39-1.34 0.47-3.56zm-11.85 0.34c0-0.48 1.86-2.32 4.13-4.09 3.75-2.9 3.83-2.82 0.89 0.89-3.08 3.89-5.02 5.13-5.02 3.2zm30.7-9.38c0-0.5 1.65-1.54 3.66-2.31 2.1-0.8 3.05-0.4 2.22 0.92-1.38 2.22-5.88 3.28-5.88 1.39zm-15.35-8.43c3.73-3.85 7.32-7 7.97-7s-1.88 3.15-5.61 7c-3.73 3.86-7.32 7.01-7.97 7.01s1.87-3.15 5.61-7.01zm46.59-1.66c4.86-0.73 8.56-4.38 15.09-14.84 9.46-15.16 12.71-18.26 6.58-6.28-7.9 15.46-15.02 22.8-21.74 22.43l-6.38-0.35 6.45-0.96zm-35.97-7.79c-2.61-1.75-1.79-1.97 3.13-0.83 5.47 1.26 8.1 0.15 14.76-6.23 4.45-4.27 8.09-6.6 8.09-5.18 0 3.74-13.82 14.69-18.48 14.65-2.18-0.02-5.55-1.1-7.5-2.41zm-195.46-3.58c2.24-2.32 4.58-3.71 5.2-3.09 0.62 0.61-1.21 2.51-4.07 4.21-4.98 2.95-5.03 2.9-1.13-1.12zm-38.96-5.84c0.84-3.16 1.91-4.22 2.5-2.47 0.57 1.68-0.09 4.17-1.46 5.53-1.76 1.73-2.06 0.82-1.04-3.06zm264.94-9c1.84-1.16 4.1-6.66 5.02-12.23l1.66-10.13 0.29 9.46c0.29 9.2-2.8 15.11-7.85 15.04-1.36-0.02-0.97-0.98 0.88-2.14zm-212.94-6.38c1.62-0.65 4.28-0.65 5.9 0 1.63 0.65 0.3 1.18-2.95 1.18-3.24 0-4.57-0.53-2.95-1.18zm245.08-0.47c1.26-1.15 6.23-3.34 11.06-4.87 8.13-2.57 18.82-12.23 21.37-19.31 0.6-1.66 1.77-2.39 2.61-1.63 2.15 1.95-8 16.1-15.04 20.95-6.18 4.25-24.08 8.61-20 4.86zm-259.63-7.51c-3.36-3.95-6.11-8.42-6.1-9.93 0-1.51 2.05 0.58 4.56 4.65 2.5 4.06 6.48 8.5 8.85 9.86 2.36 1.35 3.05 2.5 1.55 2.54-1.51 0.04-5.5-3.17-8.86-7.12zm-65.15-3.07c0-2.22-1.06-3.39-2.36-2.59-1.3 0.79-2.36-0.14-2.36-2.06 0-1.93 1.03-4.14 2.29-4.91 2.55-1.56 6.21 9.85 3.9 12.14-0.81 0.8-1.47-0.37-1.47-2.58zm109.99 1.15c0.94-1.8 2.01-7.06 2.37-11.68l0.66-8.42-4.78 6.46c-2.63 3.56-7.07 7.65-9.87 9.11-4.93 2.55-4.96 2.49-0.96-1.98 5.74-6.4 5.16-8.52-1.2-4.39-3.6 2.33-6.49 2.74-8.86 1.25-2.89-1.81-2.67-2.21 1.21-2.29 2.59-0.04 7.38-2.26 10.62-4.92 3.25-2.66 4.31-4.32 2.36-3.68-1.94 0.64-5.66 1.88-8.26 2.75-2.93 0.98-2.26-0.03 1.77-2.66 6.51-4.24 8.45-7.82 4.25-7.82-1.23 0-3.09 1.41-4.13 3.13-3.67 6.08-12.22 6.15-16.99 0.15-5.42-6.81-7.34-7.09-7.34-1.06 0 2.5 1.86 5.62 4.14 6.93 2.27 1.31 2.81 2.42 1.2 2.46s-4.19-1.93-5.74-4.37c-1.54-2.44-4.09-3.95-5.66-3.36-3.26 1.24-1.92 8.45 3.19 17.14l3.44 5.84-4.96-5.84c-2.72-3.21-4.97-7.79-5-10.18-0.03-2.88-1.24-3.89-3.59-2.99-4.08 1.55-4.84-2.11-0.93-4.5 1.82-1.12 1.64-2.21-0.59-3.61-2.34-1.47-1.77-2.02 2.11-2.04 7.15-0.05 6.76-3.85-0.59-5.67-3.25-0.81-5.91-2.38-5.91-3.49s4.1-0.62 9.12 1.09c11.99 4.09 38.11 4.67 38.11 0.85 0-0.95 2.29-1.14 5.09-0.41 3.49 0.9 4.57 0.46 3.41-1.39-0.93-1.49-4.29-2.7-7.46-2.7s-5.76-0.8-5.76-1.79c0-0.98-2.32-2.82-5.16-4.08-2.84-1.27-5.67-3.89-6.29-5.81-1-3.12-0.64-3.12 3.28 0 4.25 3.38 4.26 3.3 0.38-2.28-2.21-3.17-3.98-7.38-3.94-9.34 0.04-1.97 2.53 0.38 5.53 5.21 6.26 10.08 10.5 14.73 6.52 7.14-3.92-7.45-3.26-12.2 0.94-6.71 1.9 2.49 3.51 3.54 3.56 2.33s3.24 1.44 7.08 5.89c7.17 8.3 8.99 8.16 4.39-0.34-2.09-3.87-1.97-4.42 0.59-2.83 1.76 1.08 4.25 2.1 5.55 2.26s3.69 0.45 5.32 0.65c1.62 0.19 3.03 2.72 3.13 5.61 0.13 3.64 1.14 2.38 3.29-4.09 3.73-11.17 4.6-8.27 1.18 3.9-2.3 8.19-2.81 8.54-11.21 7.64l-8.79-0.94 6.55 3.56c3.6 1.97 7.57 2.94 8.83 2.18 1.29-0.79 1.65 0.22 0.83 2.32-0.99 2.58-3.49 3.41-8.07 2.69-6.19-0.96-11.66 3.98-8.2 7.41 0.68 0.67 1.24-0.06 1.24-1.64s1.06-2.21 2.36-1.42c3.7 2.26 2.77 18.47-1.35 23.5-2.05 2.5-2.95 3.07-2.01 1.27zm-34.6-6.66l-5.73-6.43 6.5 5.67c6.07 5.29 7.58 7.18 5.72 7.18-0.42 0-3.34-2.89-6.49-6.42zm242.56 2.92c0.74-1.93 1.66-3.51 2.03-3.51s1.29 1.58 2.04 3.51c0.81 2.11 0.01 3.5-2.04 3.5s-2.85-1.39-2.03-3.5zm5.76-4.48c-0.1-2.46 0.45-3.84 1.24-3.07 0.78 0.78 0.87 2.79 0.19 4.48-0.76 1.87-1.32 1.31-1.43-1.41zm-321.16-2.92c-0.1-1.51-0.8-4.66-1.55-7.01-1.29-4.07-1.22-4.08 1.35-0.11 1.49 2.3 2.19 5.45 1.55 7.01-0.84 2.05-1.22 2.08-1.35 0.11zm297.36-1.66c0-0.49 1.86-2.33 4.13-4.09 3.75-2.91 17.2-12.94 12.53-12.25-9.87 1.46-16.66 18.26-16.66 16.34zm-256.45-20.73l-4.49-5.26 5.9 4.65c3.25 2.56 6.35 4.92 6.89 5.26 0.54 0.33-0.09 0.61-1.41 0.61-1.31 0-4.41-2.37-6.89-5.26zm308.4-0.98c-5.05-5.1-5.2-5.6-0.99-3.49 5.55 2.78 12.11 9.8 8.95 9.58-1.13-0.07-4.71-2.82-7.96-6.09zm-348.17 0.88c0.89-2.31 2.21-3.6 2.94-2.88s0 2.6-1.61 4.19c-2.34 2.29-2.61 2.02-1.33-1.31zm35.84-10.04c7.91-11.15 11.02-13.03 17.43-10.49 5.54 2.19 5.54 2.23 0.39 2.37-2.88 0.08-9.22 3.57-14.09 7.74l-8.85 7.6 5.12-7.22zm-17.22-4.39c-1.88-4.46-3.26-12.08-3.06-16.94 0.31-7.83 0.46-8.04 1.32-1.83 2.05 14.82 5.63 24.25 9.59 25.27 3.73 0.97 3.72 1.08-0.17 1.33-2.75 0.18-5.46-2.59-7.68-7.83zm314.79 6.56c1.62-0.65 4.28-0.65 5.9 0 1.63 0.64 0.3 1.17-2.95 1.17-3.24 0-4.57-0.53-2.95-1.17zm-264.32-10.91c-4.77-4.07-14.11-12-20.76-17.62s-11.48-10.81-10.75-11.54c0.74-0.72 6.1 3.3 11.91 8.95 5.82 5.65 10.58 9.21 10.58 7.92 0-1.3-1.26-3.6-2.79-5.12-1.54-1.52-2.25-3.31-1.58-3.97s4.69 3.59 8.95 9.45c4.25 5.86 8.25 10.13 8.9 9.49 0.64-0.64-0.53-3.56-2.61-6.5-4.14-5.84-4.81-8.98-1.93-8.98 1.02 0 3.63 2.98 5.81 6.63 3.08 5.17 3.33 7.26 1.12 9.45s-2.08 3.27 0.61 4.92c1.9 1.16 2.95 2.61 2.34 3.22-0.62 0.61-5.03-2.23-9.8-6.3zm66.92-3.9c0-3.21 0.54-4.53 1.19-2.92 0.66 1.6 0.66 4.23 0 5.84-0.65 1.61-1.19 0.29-1.19-2.92zm-91.7-3.88c0.85-0.84 0.25-3.21-1.34-5.25-1.75-2.26-0.58-1.89 2.97 0.93 3.23 2.55 6.31 4.92 6.85 5.25 0.54 0.34-1.5 0.61-4.53 0.61s-4.81-0.69-3.95-1.54zm-62.01-22.99c0.02-4.13 6.75-14.34 6.84-10.38 0.05 2.01-1.47 5.69-3.38 8.18-1.91 2.5-3.46 3.49-3.46 2.2zm-7.24-38.55c1.39-2.57 3.06-4.67 3.71-4.67s0.04 2.1-1.35 4.67-3.06 4.67-3.71 4.67-0.04-2.1 1.35-4.67zm245.1-19.28c-6.84-10.6-7.42-11.88-4.58-10.14 2.78 1.7 10.73 15.4 8.95 15.4-0.54 0-2.5-2.36-4.37-5.26zm-106.08-15.18c-2.93-3.71-2.85-3.79 0.89-0.88 3.94 3.05 5.19 4.97 3.25 4.97-0.49 0-2.35-1.84-4.14-4.09zm56.68-2.34c-3-3.78-2.89-3.83 1.48-0.66 2.6 1.88 5.17 3.72 5.71 4.09 0.54 0.36-0.13 0.66-1.48 0.66-1.36 0-3.93-1.84-5.71-4.09zm34.74 0.25c-1.24-3.2-0.9-3.35 2.11-0.88 4.1 3.37 4.52 4.72 1.49 4.72-1.16 0-2.78-1.73-3.6-3.84zm7.02-6.75c-2.52-1.89-3.44-3.43-2.06-3.43 1.39 0 3.85 1.58 5.47 3.51 3.68 4.38 2.52 4.35-3.41-0.08zm-59.31-4.73c-4.4-3.49-4.37-3.53 0.73-1.08 2.92 1.4 5.31 3.03 5.31 3.63 0 1.79-1.22 1.27-6.04-2.55zm-25.84-8.04c-2.97-1.27-3.41-2.01-1.18-2.01 1.95 0 5.67 0.9 8.27 2.01 2.97 1.26 3.41 2 1.18 2-1.95 0-5.67-0.9-8.27-2zm-25.97-7.01c-3.85-1.64-3.99-2.04-0.73-2.18 2.19-0.09 4.65 0.89 5.45 2.18 1.68 2.68 1.6 2.68-4.72 0zm122.79-3.01c-2.59-1.56-5.07-4.41-5.5-6.34-0.51-2.25 1.38-1.48 5.31 2.16 8.31 7.72 8.37 9.1 0.19 4.18zm-145.23-4c-4.74-1.51-4.98-1.89-1.18-1.94 2.6-0.04 6.85 0.83 9.45 1.94 6.02 2.56-0.19 2.56-8.27 0zm-19.48-3.89c1.62-0.64 4.28-0.64 5.9 0 1.63 0.65 0.3 1.18-2.95 1.18-3.24 0-4.57-0.53-2.95-1.18zm-16.58-2.32c1.6-0.64 4.79-0.68 7.09-0.09 2.3 0.6 0.99 1.12-2.91 1.17-3.89 0.05-5.77-0.44-4.18-1.08zm165.94-30.4c0-1.71 0.4-3.11 0.89-3.11 0.5 0 2.07 1.4 3.51 3.11 1.98 2.36 1.76 3.12-0.89 3.12-1.93 0-3.51-1.4-3.51-3.12z"/>
  </g>
  <metadata>
    <rdf:RDF>
      <cc:Work>
        <dc:format>image/svg+xml</dc:format>
        <dc:type rdf:resource="http://purl.org/dc/dcmitype/StillImage"/>
        <cc:license rdf:resource="http://creativecommons.org/licenses/publicdomain/"/>
        <dc:publisher>
          <cc:Agent rdf:about="http://openclipart.org/">
            <dc:title>Openclipart</dc:title>
          </cc:Agent>
        </dc:publisher>
        <dc:title>Old-mans-Face</dc:title>
        <dc:date>2007-12-30T16:55:17</dc:date>
        <dc:description>This picture depicts Wilhelm Busch. Drawn by himself.</dc:description>
        <dc:source>http://openclipart.org/detail/10396/old-mans-face-by-stefanvonhalenbach-10396</dc:source>
        <dc:creator>
          <cc:Agent>
            <dc:title>StefanvonHalenbach</dc:title>
          </cc:Agent>
        </dc:creator>
        <dc:subject>
          <rdf:Bag>
            <rdf:li>beard</rdf:li>
            <rdf:li>clip art</rdf:li>
            <rdf:li>clipart</rdf:li>
            <rdf:li>externalsource</rdf:li>
            <rdf:li>face</rdf:li>
            <rdf:li>hat</rdf:li>
            <rdf:li>image</rdf:li>
            <rdf:li>line art</rdf:li>
            <rdf:li>man</rdf:li>
            <rdf:li>media</rdf:li>
            <rdf:li>people</rdf:li>
            <rdf:li>png</rdf:li>
            <rdf:li>public domain</rdf:li>
            <rdf:li>svg</rdf:li>
          </rdf:Bag>
        </dc:subject>
      </cc:Work>
      <cc:License rdf:about="http://creativecommons.org/licenses/publicdomain/">
        <cc:permits rdf:resource="http://creativecommons.org/ns#Reproduction"/>
        <cc:permits rdf:resource="http://creativecommons.org/ns#Distribution"/>
        <cc:permits rdf:resource="http://creativecommons.org/ns#DerivativeWorks"/>
      </cc:License>
    </rdf:RDF>
  </metadata>
</svg>
