<?xml version="1.0" encoding="utf-8"?>
<!-- Generator: Adobe Illustrator 16.0.0, SVG Export Plug-In . SVG Version: 6.00 Build 0)  -->
<!DOCTYPE svg PUBLIC "-//W3C//DTD SVG 1.1//EN" "http://www.w3.org/Graphics/SVG/1.1/DTD/svg11.dtd">
<svg version="1.1" id="Calque_1" xmlns="http://www.w3.org/2000/svg" xmlns:xlink="http://www.w3.org/1999/xlink" x="0px" y="0px"
	 width="595.279px" height="841.89px" viewBox="0 0 595.279 841.89" enable-background="new 0 0 595.279 841.89"
	 xml:space="preserve">
<line fill="none" stroke="#000000" stroke-miterlimit="10" x1="254.941" y1="0.794" x2="1.906" y2="0.794"/>
<line fill="none" stroke="#000000" stroke-miterlimit="10" x1="1.906" y1="8.035" x2="254.941" y2="8.035"/>
<line fill="none" stroke="#000000" stroke-miterlimit="10" x1="254.941" y1="15.274" x2="1.906" y2="15.274"/>
<line fill="none" stroke="#000000" stroke-miterlimit="10" x1="254.941" y1="22.515" x2="1.906" y2="22.515"/>
<line fill="none" stroke="#000000" stroke-miterlimit="10" x1="254.941" y1="29.756" x2="1.906" y2="29.756"/>
<line fill="none" stroke="#000000" stroke-miterlimit="10" x1="254.941" y1="36.996" x2="1.906" y2="36.996"/>
<line fill="none" stroke="#000000" stroke-miterlimit="10" x1="254.941" y1="44.236" x2="1.906" y2="44.236"/>
<line fill="none" stroke="#000000" stroke-miterlimit="10" x1="254.941" y1="51.477" x2="1.906" y2="51.477"/>
<line fill="none" stroke="#000000" stroke-miterlimit="10" x1="254.941" y1="58.717" x2="1.906" y2="58.717"/>
<line fill="none" stroke="#000000" stroke-miterlimit="10" x1="254.941" y1="65.958" x2="1.906" y2="65.958"/>
<line fill="none" stroke="#000000" stroke-miterlimit="10" x1="127.461" y1="73.197" x2="254.941" y2="73.197"/>
<line fill="none" stroke="#000000" stroke-miterlimit="10" x1="121.497" y1="73.197" x2="1.906" y2="73.197"/>
<line fill="none" stroke="#000000" stroke-miterlimit="10" x1="135.825" y1="80.437" x2="254.941" y2="80.437"/>
<line fill="none" stroke="#000000" stroke-miterlimit="10" x1="108.131" y1="80.437" x2="1.906" y2="80.437"/>
<line fill="none" stroke="#000000" stroke-miterlimit="10" x1="144.189" y1="87.678" x2="254.941" y2="87.678"/>
<line fill="none" stroke="#000000" stroke-miterlimit="10" x1="94.764" y1="87.678" x2="1.906" y2="87.678"/>
<line fill="none" stroke="#000000" stroke-miterlimit="10" x1="152.553" y1="94.918" x2="254.941" y2="94.918"/>
<line fill="none" stroke="#000000" stroke-miterlimit="10" x1="81.398" y1="94.918" x2="1.906" y2="94.918"/>
<line fill="none" stroke="#000000" stroke-miterlimit="10" x1="56.346" y1="102.159" x2="1.906" y2="102.159"/>
<line fill="none" stroke="#000000" stroke-miterlimit="10" x1="160.917" y1="102.159" x2="254.941" y2="102.159"/>
<line fill="none" stroke="#000000" stroke-miterlimit="10" x1="55.273" y1="109.399" x2="1.906" y2="109.399"/>
<line fill="none" stroke="#000000" stroke-miterlimit="10" x1="169.281" y1="109.399" x2="254.941" y2="109.399"/>
<line fill="none" stroke="#000000" stroke-miterlimit="10" x1="177.644" y1="116.638" x2="254.941" y2="116.638"/>
<line fill="none" stroke="#000000" stroke-miterlimit="10" x1="54.2" y1="116.638" x2="1.906" y2="116.638"/>
<line fill="none" stroke="#000000" stroke-miterlimit="10" x1="186.009" y1="123.88" x2="254.941" y2="123.88"/>
<line fill="none" stroke="#000000" stroke-miterlimit="10" x1="53.129" y1="123.88" x2="1.906" y2="123.88"/>
<line fill="none" stroke="#000000" stroke-miterlimit="10" x1="194.373" y1="131.12" x2="254.941" y2="131.12"/>
<line fill="none" stroke="#000000" stroke-miterlimit="10" x1="52.055" y1="131.12" x2="1.906" y2="131.12"/>
<line fill="none" stroke="#000000" stroke-miterlimit="10" x1="50.984" y1="138.36" x2="1.906" y2="138.36"/>
<line fill="none" stroke="#000000" stroke-miterlimit="10" x1="198.943" y1="138.36" x2="254.941" y2="138.36"/>
<line fill="none" stroke="#000000" stroke-miterlimit="10" x1="49.911" y1="145.6" x2="1.906" y2="145.6"/>
<line fill="none" stroke="#000000" stroke-miterlimit="10" x1="200.709" y1="145.6" x2="254.941" y2="145.6"/>
<line fill="none" stroke="#000000" stroke-miterlimit="10" x1="202.474" y1="152.841" x2="254.941" y2="152.841"/>
<line fill="none" stroke="#000000" stroke-miterlimit="10" x1="48.838" y1="152.841" x2="1.906" y2="152.841"/>
<line fill="none" stroke="#000000" stroke-miterlimit="10" x1="48.061" y1="160.082" x2="1.906" y2="160.082"/>
<line fill="none" stroke="#000000" stroke-miterlimit="10" x1="204.24" y1="160.082" x2="254.941" y2="160.082"/>
<line fill="none" stroke="#000000" stroke-miterlimit="10" x1="48.061" y1="167.322" x2="1.906" y2="167.322"/>
<line fill="none" stroke="#000000" stroke-miterlimit="10" x1="206.007" y1="167.322" x2="254.941" y2="167.322"/>
<line fill="none" stroke="#000000" stroke-miterlimit="10" x1="207.772" y1="174.561" x2="254.941" y2="174.561"/>
<line fill="none" stroke="#000000" stroke-miterlimit="10" x1="48.061" y1="174.561" x2="1.906" y2="174.561"/>
<line fill="none" stroke="#000000" stroke-miterlimit="10" x1="48.061" y1="181.801" x2="1.906" y2="181.801"/>
<line fill="none" stroke="#000000" stroke-miterlimit="10" x1="198.645" y1="181.801" x2="254.941" y2="181.801"/>
<line fill="none" stroke="#000000" stroke-miterlimit="10" x1="48.061" y1="189.042" x2="1.906" y2="189.042"/>
<line fill="none" stroke="#000000" stroke-miterlimit="10" x1="174.794" y1="189.042" x2="254.941" y2="189.042"/>
<line fill="none" stroke="#000000" stroke-miterlimit="10" x1="150.944" y1="196.283" x2="254.941" y2="196.283"/>
<line fill="none" stroke="#000000" stroke-miterlimit="10" x1="95.45" y1="196.283" x2="1.906" y2="196.283"/>
<line fill="none" stroke="#000000" stroke-miterlimit="10" x1="100.214" y1="203.523" x2="1.906" y2="203.523"/>
<line fill="none" stroke="#000000" stroke-miterlimit="10" x1="137.709" y1="203.523" x2="254.941" y2="203.523"/>
<line fill="none" stroke="#000000" stroke-miterlimit="10" x1="125.989" y1="210.763" x2="254.941" y2="210.763"/>
<line fill="none" stroke="#000000" stroke-miterlimit="10" x1="104.977" y1="210.763" x2="1.906" y2="210.763"/>
<line fill="none" stroke="#000000" stroke-miterlimit="10" x1="109.74" y1="218.004" x2="1.906" y2="218.004"/>
<line fill="none" stroke="#000000" stroke-miterlimit="10" x1="114.265" y1="218.004" x2="254.941" y2="218.004"/>
<line fill="none" stroke="#000000" stroke-miterlimit="10" x1="254.941" y1="225.243" x2="1.906" y2="225.243"/>
<line fill="none" stroke="#000000" stroke-miterlimit="10" x1="254.941" y1="232.484" x2="1.906" y2="232.484"/>
<line fill="none" stroke="#000000" stroke-miterlimit="10" x1="254.941" y1="239.724" x2="1.906" y2="239.724"/>
<line fill="none" stroke="#000000" stroke-miterlimit="10" x1="254.941" y1="246.963" x2="1.906" y2="246.963"/>
<line fill="none" stroke="#000000" stroke-miterlimit="10" x1="254.941" y1="254.205" x2="1.906" y2="254.205"/>
<line fill="none" stroke="#000000" stroke-miterlimit="10" x1="254.941" y1="261.444" x2="1.906" y2="261.444"/>
<g>
	<line fill="none" stroke="#000000" stroke-miterlimit="10" x1="82.936" y1="178.723" x2="47.099" y2="158.089"/>
	<line fill="none" stroke="#000000" stroke-miterlimit="10" x1="82.936" y1="178.723" x2="72.076" y2="99.447"/>
	<line fill="none" stroke="#000000" stroke-miterlimit="10" x1="82.936" y1="178.723" x2="196.965" y2="134.198"/>
	<line fill="none" stroke="#000000" stroke-miterlimit="10" x1="82.936" y1="178.723" x2="196.965" y2="134.198"/>
	<line fill="none" stroke="#000000" stroke-miterlimit="10" x1="186.138" y1="131.185" x2="196.965" y2="134.198"/>
	<line fill="none" stroke="#000000" stroke-miterlimit="10" x1="88.697" y1="104.071" x2="99.524" y2="107.084"/>
	<line fill="none" stroke="#000000" stroke-miterlimit="10" x1="110.35" y1="110.095" x2="121.177" y2="113.109"/>
	<line fill="none" stroke="#000000" stroke-miterlimit="10" x1="175.312" y1="128.171" x2="164.485" y2="125.161"/>
	<line fill="none" stroke="#000000" stroke-miterlimit="10" x1="132.004" y1="116.122" x2="142.831" y2="119.134"/>
	<line fill="none" stroke="#000000" stroke-miterlimit="10" x1="153.657" y1="122.146" x2="142.831" y2="119.134"/>
	<line fill="none" stroke="#000000" stroke-miterlimit="10" x1="132.004" y1="116.122" x2="121.177" y2="113.109"/>
	<line fill="none" stroke="#000000" stroke-miterlimit="10" x1="110.35" y1="110.095" x2="99.524" y2="107.084"/>
	<line fill="none" stroke="#000000" stroke-miterlimit="10" x1="153.657" y1="122.146" x2="164.485" y2="125.161"/>
	<line fill="none" stroke="#000000" stroke-miterlimit="10" x1="88.697" y1="104.071" x2="72.076" y2="99.447"/>
	<line fill="none" stroke="#000000" stroke-miterlimit="10" x1="175.312" y1="128.171" x2="186.138" y2="131.185"/>
	<line fill="none" stroke="#000000" stroke-miterlimit="10" x1="186.138" y1="131.185" x2="82.936" y2="171.482"/>
	<line fill="none" stroke="#000000" stroke-miterlimit="10" x1="82.936" y1="164.243" x2="175.312" y2="128.171"/>
	<line fill="none" stroke="#000000" stroke-miterlimit="10" x1="164.485" y1="125.161" x2="82.936" y2="157.001"/>
	<line fill="none" stroke="#000000" stroke-miterlimit="10" x1="82.936" y1="149.762" x2="153.657" y2="122.146"/>
	<line fill="none" stroke="#000000" stroke-miterlimit="10" x1="142.831" y1="119.134" x2="82.936" y2="142.522"/>
	<line fill="none" stroke="#000000" stroke-miterlimit="10" x1="82.936" y1="135.281" x2="132.004" y2="116.122"/>
	<line fill="none" stroke="#000000" stroke-miterlimit="10" x1="121.177" y1="113.109" x2="82.936" y2="128.042"/>
	<line fill="none" stroke="#000000" stroke-miterlimit="10" x1="82.936" y1="120.8" x2="110.35" y2="110.095"/>
	<line fill="none" stroke="#000000" stroke-miterlimit="10" x1="99.524" y1="107.084" x2="82.936" y2="113.56"/>
	<line fill="none" stroke="#000000" stroke-miterlimit="10" x1="88.697" y1="104.071" x2="82.936" y2="106.319"/>
	<line fill="none" stroke="#000000" stroke-miterlimit="10" x1="68.881" y1="185.111" x2="61.854" y2="188.307"/>
	<line fill="none" stroke="#000000" stroke-miterlimit="10" x1="47.099" y1="172.569" x2="47.099" y2="179.81"/>
	<line fill="none" stroke="#000000" stroke-miterlimit="10" x1="47.099" y1="179.81" x2="47.099" y2="187.051"/>
	<line fill="none" stroke="#000000" stroke-miterlimit="10" x1="47.099" y1="165.33" x2="47.099" y2="172.569"/>
	<line fill="none" stroke="#000000" stroke-miterlimit="10" x1="75.909" y1="181.918" x2="68.881" y2="185.111"/>
	<line fill="none" stroke="#000000" stroke-miterlimit="10" x1="61.854" y1="188.307" x2="54.826" y2="191.5"/>
	<polyline fill="none" stroke="#000000" stroke-miterlimit="10" points="54.826,191.5 47.099,195.014 47.099,187.051 	"/>
	<line fill="none" stroke="#000000" stroke-miterlimit="10" x1="75.909" y1="181.918" x2="47.099" y2="165.33"/>
	<line fill="none" stroke="#000000" stroke-miterlimit="10" x1="68.881" y1="185.111" x2="47.099" y2="172.569"/>
	<line fill="none" stroke="#000000" stroke-miterlimit="10" x1="61.854" y1="188.307" x2="47.099" y2="179.81"/>
	<line fill="none" stroke="#000000" stroke-miterlimit="10" x1="54.826" y1="191.5" x2="47.099" y2="187.051"/>
	<line fill="none" stroke="#000000" stroke-miterlimit="10" x1="131.022" y1="192.578" x2="139.015" y2="194.882"/>
	<line fill="none" stroke="#000000" stroke-miterlimit="10" x1="139.015" y1="194.882" x2="147.01" y2="197.185"/>
	<line fill="none" stroke="#000000" stroke-miterlimit="10" x1="115.035" y1="187.973" x2="123.029" y2="190.275"/>
	<line fill="none" stroke="#000000" stroke-miterlimit="10" x1="131.022" y1="192.578" x2="123.029" y2="190.275"/>
	<line fill="none" stroke="#000000" stroke-miterlimit="10" x1="115.035" y1="187.973" x2="82.936" y2="178.723"/>
	<line fill="none" stroke="#000000" stroke-miterlimit="10" x1="139.015" y1="194.882" x2="110.086" y2="212.75"/>
	<line fill="none" stroke="#000000" stroke-miterlimit="10" x1="110.086" y1="205.51" x2="131.022" y2="192.578"/>
	<line fill="none" stroke="#000000" stroke-miterlimit="10" x1="123.029" y1="190.275" x2="110.086" y2="198.269"/>
	<line fill="none" stroke="#000000" stroke-miterlimit="10" x1="115.035" y1="187.973" x2="110.086" y2="191.029"/>
	<line fill="none" stroke="#000000" stroke-miterlimit="10" x1="154.573" y1="187.649" x2="162.136" y2="178.112"/>
	<line fill="none" stroke="#000000" stroke-miterlimit="10" x1="169.699" y1="168.576" x2="162.136" y2="178.112"/>
	<line fill="none" stroke="#000000" stroke-miterlimit="10" x1="169.699" y1="168.576" x2="177.263" y2="159.04"/>
	<line fill="none" stroke="#000000" stroke-miterlimit="10" x1="196.965" y1="134.198" x2="192.39" y2="139.967"/>
	<line fill="none" stroke="#000000" stroke-miterlimit="10" x1="184.826" y1="149.503" x2="192.39" y2="139.967"/>
	<line fill="none" stroke="#000000" stroke-miterlimit="10" x1="184.826" y1="149.503" x2="177.263" y2="159.04"/>
	<line fill="none" stroke="#000000" stroke-miterlimit="10" x1="154.573" y1="187.649" x2="147.01" y2="197.185"/>
	<line fill="none" stroke="#000000" stroke-miterlimit="10" x1="196.965" y1="134.198" x2="197.96" y2="138.275"/>
	<line fill="none" stroke="#000000" stroke-miterlimit="10" x1="201.248" y1="151.758" x2="199.604" y2="145.017"/>
	<line fill="none" stroke="#000000" stroke-miterlimit="10" x1="204.537" y1="165.24" x2="202.892" y2="158.5"/>
	<line fill="none" stroke="#000000" stroke-miterlimit="10" x1="204.537" y1="165.24" x2="206.181" y2="171.983"/>
	<polyline fill="none" stroke="#000000" stroke-miterlimit="10" points="147.01,197.185 207.825,178.723 206.181,171.983 	"/>
	<line fill="none" stroke="#000000" stroke-miterlimit="10" x1="201.248" y1="151.758" x2="202.892" y2="158.5"/>
	<polyline fill="none" stroke="#000000" stroke-miterlimit="10" points="196.965,134.198 124.202,71.21 72.076,99.447 
		55.786,99.447 47.099,158.089 47.099,165.33 	"/>
	<polyline fill="none" stroke="#000000" stroke-miterlimit="10" points="147.01,197.185 110.086,219.991 82.936,178.723 
		75.909,181.918 	"/>
	<line fill="none" stroke="#000000" stroke-miterlimit="10" x1="197.96" y1="138.275" x2="199.604" y2="145.017"/>
	<line fill="none" stroke="#000000" stroke-miterlimit="10" x1="154.573" y1="187.649" x2="206.181" y2="171.983"/>
	<line fill="none" stroke="#000000" stroke-miterlimit="10" x1="162.136" y1="178.112" x2="204.537" y2="165.24"/>
	<line fill="none" stroke="#000000" stroke-miterlimit="10" x1="169.699" y1="168.576" x2="202.892" y2="158.5"/>
	<line fill="none" stroke="#000000" stroke-miterlimit="10" x1="177.263" y1="159.04" x2="201.248" y2="151.758"/>
	<line fill="none" stroke="#000000" stroke-miterlimit="10" x1="184.826" y1="149.503" x2="199.604" y2="145.017"/>
	<line fill="none" stroke="#000000" stroke-miterlimit="10" x1="197.96" y1="138.275" x2="192.39" y2="139.967"/>
	<line fill="none" stroke="#000000" stroke-miterlimit="10" x1="68.992" y1="106.686" x2="65.908" y2="113.927"/>
	<line fill="none" stroke="#000000" stroke-miterlimit="10" x1="62.824" y1="121.167" x2="59.741" y2="128.407"/>
	<line fill="none" stroke="#000000" stroke-miterlimit="10" x1="72.076" y1="99.447" x2="68.992" y2="106.686"/>
	<line fill="none" stroke="#000000" stroke-miterlimit="10" x1="56.657" y1="135.648" x2="47.099" y2="158.089"/>
	<line fill="none" stroke="#000000" stroke-miterlimit="10" x1="56.657" y1="135.648" x2="59.741" y2="128.407"/>
	<line fill="none" stroke="#000000" stroke-miterlimit="10" x1="62.824" y1="121.167" x2="65.908" y2="113.927"/>
	<line fill="none" stroke="#000000" stroke-miterlimit="10" x1="55.786" y1="106.686" x2="68.992" y2="106.686"/>
	<line fill="none" stroke="#000000" stroke-miterlimit="10" x1="65.908" y1="113.927" x2="55.786" y2="113.927"/>
	<line fill="none" stroke="#000000" stroke-miterlimit="10" x1="55.786" y1="121.167" x2="62.824" y2="121.167"/>
	<line fill="none" stroke="#000000" stroke-miterlimit="10" x1="59.741" y1="128.407" x2="55.786" y2="128.407"/>
	<line fill="none" stroke="#000000" stroke-miterlimit="10" x1="55.786" y1="135.648" x2="56.657" y2="135.648"/>
</g>
<line fill="none" stroke="#000000" stroke-miterlimit="10" x1="0.453" y1="261.444" x2="99.666" y2="261.444"/>
<line fill="none" stroke="#000000" stroke-miterlimit="10" x1="98.766" y1="261.444" x2="197.979" y2="261.444"/>
</svg>
